<?xml version="1.0" encoding="UTF-8" standalone="no"?>
<!-- Created with Inkscape (http://www.inkscape.org/) -->

<svg
   xmlns:dc="http://purl.org/dc/elements/1.1/"
   xmlns:cc="http://creativecommons.org/ns#"
   xmlns:rdf="http://www.w3.org/1999/02/22-rdf-syntax-ns#"
   xmlns:svg="http://www.w3.org/2000/svg"
   xmlns="http://www.w3.org/2000/svg"
   xmlns:sodipodi="http://sodipodi.sourceforge.net/DTD/sodipodi-0.dtd"
   xmlns:inkscape="http://www.inkscape.org/namespaces/inkscape"
   version="1.1"
   id="svg2"
   width="1070.8114"
   height="653.44965"
   viewBox="0 0 1070.8114 653.44965"
   sodipodi:docname="anaconda.svg"
   inkscape:version="0.92.4 (5da689c313, 2019-01-14)">
  <metadata
     id="metadata8">
    <rdf:RDF>
      <cc:Work
         rdf:about="">
        <dc:format>image/svg+xml</dc:format>
        <dc:type
           rdf:resource="http://purl.org/dc/dcmitype/StillImage" />
        <dc:title></dc:title>
      </cc:Work>
    </rdf:RDF>
  </metadata>
  <defs
     id="defs6" />
  <sodipodi:namedview
     pagecolor="#ffffff"
     bordercolor="#666666"
     borderopacity="1"
     objecttolerance="10"
     gridtolerance="10"
     guidetolerance="10"
     inkscape:pageopacity="0"
     inkscape:pageshadow="2"
     inkscape:window-width="1920"
     inkscape:window-height="1017"
     id="namedview4"
     showgrid="false"
     inkscape:zoom="0.21021376"
     inkscape:cx="-599.2145"
     inkscape:cy="279.61339"
     inkscape:window-x="-8"
     inkscape:window-y="-8"
     inkscape:window-maximized="1"
     inkscape:current-layer="svg2"
     fit-margin-top="0"
     fit-margin-left="0"
     fit-margin-right="0"
     fit-margin-bottom="0" />
  <path
     id="path821"
     style="fill:none;stroke:#000000;stroke-width:7.03363132;stroke-linecap:round"
     d="m 1027.2889,570.28384 c -9.45,-1.472 -11.0449,-8.2853 -6.6667,-15.9999 5.4711,4.584 8.5851,8.7853 6.6667,15.9999 8.3331,4.6387 13.423,10.568 20.0194,17.3333 7.0549,7.2347 18.2034,15.9906 19.6893,26.6666 1.9585,14.072 -25.1721,27.2813 -37.0421,27.86 -10.9006,0.532 -22.2501,-9.896 -31.9999,-3.86 18.5174,15.2146 65.6341,19.8799 69.3332,-13.3333 m -8,0 -30.6666,-24 m 6.6666,24 -3.9999,-2.6667 m -85.33317,-137.333 c -6.95599,-7.7493 -16.41063,-20.3279 -18.55596,-30.6666 -3.50532,-16.8933 9.52398,-55.1905 -22.77727,-51.9998 4.69999,9.9333 11.91997,17.5439 9.83597,29.3332 -2.95066,16.696 -21.50528,31.5559 -18.20928,49.3332 4.38398,23.6506 27.92659,33.5933 45.27855,15.4747 3.23999,-3.3827 3.38132,-8.8187 5.76132,-12.808 12.9253,14.7839 30.21086,13.4213 45.32816,25.3533 15.43478,12.1839 19.04538,28.9732 28.00498,45.3132 m -19.9999,78.6664 -4.00003,5.3334 m 1.33333,-6.6667 -5.33332,-1.3333 1.33333,6.6666 m -2.66666,-5.3333 c -18.70995,-17.0666 -42.0199,-17.1759 -63.99984,-26.8986 -13.13464,-5.8093 -26.19994,-18.4839 -33.93592,-30.4346 -8.92931,-13.7933 -4.35599,-23.9493 -6.64931,-38.6665 -2.83466,-18.192 -10.83464,-34.6773 -12.51997,-53.3332 -0.936,-10.3427 6.71065,-29.116 -8.23332,-32.9093 -20.81861,-5.2853 -30.73459,18.528 -40.70389,31.5759 -7.34932,9.6173 -17.30663,17.712 -27.2906,24.4386 -58.58252,39.4693 -125.89302,26.6146 -177.33289,-18.1573 -26.79194,-23.3199 -38.80524,-63.4785 -37.28124,-98.281 1.09066,-24.8893 7.44931,-48.1933 5.05465,-73.3332 -3.00799,-31.5973 -20.27995,-54.6625 -38.0679,-79.9998 -8.60532,-12.2586 -18.91996,-30.2079 -32.37192,-37.3332 -5.19999,18.9106 8.25198,42.7332 6.50265,62.6651 -1.27067,14.468 -23.78928,15.3173 -26.21727,30.668 -1.39866,8.8386 -4.81199,23.5479 -1.62533,31.9999 3.43066,9.1013 13.42263,18.2013 14.51863,27.9999 0.62,5.552 -3.83999,12.3866 -5.95065,17.3333 l -16.36129,38.6666 c -8.18398,19.0679 -15.99463,38.2732 -24.20128,57.3332 -3.80799,8.8453 -10.07597,16.0706 -19.69861,8.3959 -10.16264,-8.1039 -12.43731,-36.8959 -8.34132,-48.3958 2.21467,-6.216 6.93732,-11.1493 9.19731,-17.3333 5.61866,-15.3813 2.416,-27.748 20.17729,-36.2866 3.97199,-1.9093 8.90798,-4.3307 13.2813,-2.2907 6.72798,3.14 12.40663,11.8827 17.38529,17.244 m 484.54306,205.3581 c 2.74399,10.7547 -13.04424,14.4507 -15.33357,3.9494 -2.07999,-9.544 12.72264,-14.1813 15.33357,-3.9494 M 679.28973,392.95094 c -17.77462,-4.1146 -36.41591,-18.4066 -34.52525,-38.6665 0.67867,-7.2827 5.58399,-13.048 7.39065,-20 1.84399,-7.092 0.112,-16.3959 4.12399,-22.6413 4.75599,-7.4026 14.55996,-9.5613 21.67728,-13.9826 6.70798,-4.1653 11.63863,-10.3973 18.66662,-14.0426 13.89463,47.0065 -50.13054,116.7064 6.66665,152.5876 45.68122,28.8573 72.34648,-20.1959 101.33308,-45.6759 32.21058,-28.3119 90.80644,-29.0106 121.10103,2.5413 9.24131,9.624 15.81996,21.6813 19.22395,34.5466 4.61732,17.4533 3.67466,36.7586 3.67466,54.6666 m -118.66637,-10.6667 c -8.91065,0.1587 -39.9039,0.336 -32.52392,-17.0346 2.88532,-6.7907 12.4933,-8.4387 15.70663,-16.3 3.96265,-9.6959 -1.11333,-24.0226 10.2093,-29.5986 7.73465,-3.808 36.05858,-13.2573 40.47057,-2.3213 8.55598,21.2066 -28.98393,23.6266 -20.52928,47.9212 m -71.37716,16.0013 c 9.39198,38.4546 -34.94124,37.3333 -59.28918,37.3319 -16.22263,0 -41.6319,-2.5266 -49.02921,-20.0053 -2.764,-6.5306 -0.12,-13.3799 -2.01733,-19.9946 -1.436,-5.0093 -5.08132,-9.4026 -5.70265,-14.6613 -1.50667,-12.7506 18.53462,-10.6799 26.0826,-9.2106 17.10795,3.3293 29.07459,19.0666 46.66655,21.8959 10.67864,1.7174 18.12662,-8.108 29.33326,-7.284 7.17065,0.5267 12.24663,4.9294 13.95596,11.928 M 652.62313,166.28484 c -12.00931,-13.7453 -21.86928,-26.8919 -32.81325,-41.3265 -2.376,-3.1347 -5.61199,-6.9587 -9.85331,-7.2173 -5.33199,-0.3254 -10.77998,4.3266 -15.99996,5.372 -11.93864,2.3919 -28.56393,-3.0934 -38.46924,6.2106 -9.31064,8.7453 -8.93198,32.6533 1.156,40.1119 8.75464,6.472 20.61328,12.78 30.64659,17.0146 11.1613,4.7107 22.82661,3.816 34.66658,3.8347 8.28931,0.013 26.58393,9.74 32.90925,4.524 10.29864,-8.492 -4.71199,-24.164 1.75733,-33.8573 25.82527,33.8706 39.9999,80.4438 39.9999,122.6664 M 283.29073,11.618644 c 12.8213,6.8425 32.10791,-3.3357995 43.56121,6.2037 10.01464,8.3401 6.04132,22.7141 9.77731,33.7962 9.15864,27.1719 37.57191,64.311796 -6.67198,73.697096 -3.94666,0.8373 -8.19998,-0.288 -11.99997,-1.3587 -31.99725,-9.0226 -13.96796,-41.405196 -22.13727,-62.985096 -5.92932,-15.6587 -40.48923,-25.5564 -17.41062,-47.4067 7.59331,-7.1886995 16.65729,-6.5902995 26.2146,-7.8456995 21.98527,-2.8881 44.50788,-2.1008 66.66649,-2.1008 109.16372,0 231.48742,60.6184995 285.33262,157.3328955 m -6.09732,53.3346 c 3.50266,12.2159 -5.03732,25.5572 -7.12398,37.3319 -2.72,15.3546 1.43466,30.1959 -0.25734,45.3332 -0.70799,6.3346 -5.25065,11.9693 -11.85463,12.7493 -9.87064,1.1653 -16.56396,-11.14 -21.21328,-18.0826 -9.87064,-14.7373 -18.96129,-29.764 -29.6226,-43.9999 -6.69731,-8.944 -16.15996,-18.1373 -18.79195,-29.3333 -2.44133,-10.384 7.04532,-18.9266 16.29463,-21.4279 9.62264,-2.6027 14.96263,4.8386 23.99994,5.2306 15.58529,0.676 41.60656,-12.0946 48.56921,12.1987 m -57.90252,130.665 c 8.33464,-5.928 24.25994,-11.8707 29.47459,1.3533 2.86266,7.2573 -0.14533,15.3613 3.07733,22.6466 2.33466,5.2787 6.41998,9.9706 6.60931,16 0.43734,13.8853 -11.19197,27.8186 -14.0693,41.3332 -2.77066,13.0053 -1.31466,27.2293 -13.09196,35.9999 m -25.97327,-359.9991 c 0.69866,4.648 -0.428,9.512 -4.83866,11.9586 -7.13198,3.9587 -16.28529,-0.1306 -23.84927,4.5 -9.03864,5.5333 -16.70796,30.3946 -27.94926,29.14 -6.86932,-0.7667 -8.61865,-9.5 -9.73331,-14.932 -3.06933,-14.964 -13.2453,-28.6026 -15.16396,-43.999896 -1.88133,-15.0986 14.91463,-15.8693 24.84127,-20.3119 4.63065,-2.072 10.77197,-6.032 15.99996,-5.668 16.68796,1.1653 38.31457,23.4759 40.69323,39.313196 m -54.02653,167.9996 c 0,24.5399 1.43999,57.0198 -11.99997,78.6665 m -235.9994,111.9997 c -16.21996,6.2106 -42.49723,16.1079 -59.99985,14.6066 -10.34931,-0.888 -17.75729,-9.1773 -29.33326,-9.2733 -0.82667,9.3946 -8.16932,16.2666 -8.99065,25.3333 -0.56533,6.2346 4.06933,10.5399 6.13199,15.9999 4.70665,12.464 3.99999,23.3893 13.09863,34.6146 7.58932,9.3626 29.23193,22.5453 41.6359,15.628 6.94665,-3.8747 9.23864,-12.692 17.45729,-15.0013 11.94397,-3.3574 27.94926,3.6746 35.62791,-9.9653 13.8293,-24.5613 -2.76266,-51.1839 -14.29463,-71.9425 26.42793,-16.9707 49.16786,-32.3239 70.43848,-55.9999 10.15197,-11.2986 20.79995,-35.5239 33.97458,-42.6585 6.20398,-3.36 13.17197,9.7293 16.93996,13.1813 11.35997,10.4093 27.5026,10.8066 37.7399,-1.3134 13.1133,-15.5253 34.92658,-42.8892 36.76124,-63.8758 1.396,-15.956 -13.12663,-26.4173 -14.57863,-40.2266 -0.76933,-7.308 9.39465,-20.8173 14.72397,-25.1066 4.05865,5.7013 8.01998,18.852 16.00396,19.92 11.4413,1.5306 19.45195,-30.4386 16.50529,-38.5293 -4.38932,-12.0493 -25.1306,-7.9853 -28.08526,-18.8013 -2.36933,-8.6746 0.228,-18.9639 -0.99067,-27.9226 -4.31999,-31.7319 -9.25597,-63.2345 -11.39997,-94.666396 -0.63733,-9.3293 -2.09333,-18.7186 -3.26532,-27.9999 -0.324,-2.5708 -1.68933,-8.7591 2.26399,-9.4383 7.61065,-1.3076 15.00396,27.7969 16.96796,33.4382 13.3053,38.221296 19.47862,78.778496 34.66658,115.999696 m -13.3333,-29.3332 c -10.84531,-9.7267 -16.91063,-28.192 -9.33331,-41.3333 m -14.66663,86.6665 -5.33332,31.9999 m -1.33333,-81.3331 c -60.13585,-28.4946 -162.6636,-43.1012 -213.10079,12.02 -30.06393,32.8545 -41.41723,85.2677 -54.02387,126.6463 -10.27197,33.7146 -20.64661,67.4665 -30.39592,101.3331 -4.70266,16.3333 -13.73197,37.8692 -1.628,53.1932 3.54933,4.4933 9.11198,6.4773 13.81597,9.4733 m 278.66596,-354.6658 c -5.62132,8.5173 -3.42533,21.4906 -14.67197,26.1186 -7.01865,2.888 -15.10262,-3.0866 -21.32794,-5.6546 -13.75997,-5.6747 -29.66526,-4.9294 -43.99989,-10.364 -4.59866,-1.744 -12.71597,-4.2693 -13.43864,-10.116 -1.16533,-9.432 12.98931,-9.3146 18.77196,-9.3173 10.92664,0 22.54794,1.12 33.33325,-0.8213 14.71729,-2.647996 27.2986,-12.255996 39.9999,-0.512 m -7.99998,171.9995 -31.23726,37.3333 -39.42923,47.9999 m 70.66649,121.333 c -20.94795,34.2212 -45.29856,72.7371 -79.9998,94.4091 -8.79865,5.4946 -17.60396,13.048 -27.99993,14.924 1.93466,-14.476 17.11995,-19.2373 26.6466,-28.1386 8.42264,-7.8707 11.35864,-18.904 18.26129,-27.8613 7.65731,-9.9386 20.68661,-18.3666 24.82127,-30.6666 7.53864,-22.4239 -23.77861,-23.9986 -36.39591,-16.3386 -12.8253,7.7866 -31.79326,16.8359 -40.0399,29.6732 -4.98799,7.7627 -4.00133,17.3693 -8.33198,25.312 -3.25733,5.976 -10.82797,8.3866 -13.29997,14.7399 -5.69732,14.6493 12.30797,36.1879 27.00527,34.6133 M 452.58629,36.370544 c 8.90265,12.0577 -12.5173,28.2853 -19.00928,35.2466 -15.47463,16.5919 -36.12924,6.8226 -54.28653,0.4586 -7.38665,-2.5879 -17.03196,-4.6493 -21.98128,-11.197 -9.80531,-12.9717 6.55732,-14.3878 11.27864,-22.7375 3.17332,-5.6119 0.87066,-13.1027 8.17598,-16.1996 15.48929,-6.5669 42.01189,6.3859 57.19319,10.0113 5.23732,1.2508 15.03863,-0.4472 18.62928,4.4176 M 413.90106,425.02424 c 5.62532,10.9826 -10.53064,22.0279 -17.27729,27.8399 -9.77198,8.42 -21.39062,10.888 -31.94659,17.332 -6.60398,4.032 -9.72264,12.0066 -16.05863,16.5706 -13.85463,9.9773 -31.31592,2.3867 -38.10523,-12.4826 -3.57732,-7.8373 -0.92134,-15.5053 6.13065,-20.2466 10.83197,-7.2827 24.74527,-9.4174 35.97457,-16.2227 11.78664,-7.1426 18.05196,-27.2079 34.67192,-25.7732 4.76132,0.4106 8.89864,3.676 13.3333,5.2293 4.91332,1.72 10.6453,2.6173 13.2773,7.7533 m -70.61049,166.5929 c -17.47596,15.6866 -46.93721,22.8973 -69.33315,28.4973 -71.45049,17.8679 -147.8703,9.0026 -205.332786,-40.4973 -24.124,-20.7812 -52.6079,-51.2798 -53.3333,-85.3331 14.132,-1.448 36.3813,-15.1199 40.648,-29.3332 2.8626,-9.5347 -0.2627,-20.8307 0.9306,-30.6666 0.9494,-7.8213 5.7093,-14.5773 4.8373,-22.6666 -1.0293,-9.552 -5.9746,-18.46 -7.3493,-28 -1.8413,-12.7786 3.9614,-34.3999 -9.8733,-42.4479 -24.8906,-14.4786 -28.0266,13.8813 -31.8599,31.7813 -7.6520002,35.7266 -16.8240002,87.6918 2.6666,121.333 M 276.62408,11.618644 c -25.33594,0.5257 -52.48254,17.5155 -73.33315,30.5996 -75.66648,47.4815 -114.019726,128.226596 -145.931596,208.066396 -7.4107,18.5413 -13.7894,37.5173 -21.3373,55.9999 -4.0134,9.8253 -10.448,18.5306 -11.3974,29.3333 M 235.63485,72.977144 c 6.91731,17.3293 -10.71864,27.855896 -18.38662,39.994496 -6.38265,10.104 -6.64265,22.5573 -11.53598,33.3133 -10.74264,23.6119 -60.77451,62.9772 -78.04913,23.9999 -8.35065,-18.8386 13.94663,-17.8426 21.35728,-28.0786 5.29598,-7.3133 6.24265,-19.3679 8.97597,-27.9212 5.22932,-16.373296 16.1253,-30.193296 31.96126,-37.465296 9.79064,-4.496 39.61723,-19.0219 45.67722,-3.8426 M 226.7042,198.28484 c 2.392,21.4252 -14.74929,36.6159 -24.84527,53.3332 -4.27199,7.0746 -6.94131,17.4093 -14.58796,21.7372 -10.96931,6.2094 -34.45192,-10.5986 -35.72791,-21.7372 -3.028,-26.4306 27.48126,-32.7626 42.36122,-48.0199 7.81732,-8.016 19.02262,-50.3012 28.7626,-25.3133 1.01066,2.5907 1.66533,5.28 2.21333,8 0.79599,3.948 1.37733,7.9973 1.82399,12 M 45.957934,555.61724 c 9.992,-13.8253 7.396,-34.4932 22.6667,-43.9346 10.0626,-6.2199 27.53589,-12.9026 38.666526,-6.4279 8.30799,4.8333 13.84264,13.3039 21.33329,19.1759 9.77997,7.6653 21.73728,10.6667 30.04792,20.54 10.54798,12.5346 7.50132,22.7839 10.85998,37.3132 1.38932,6.0147 5.43731,10.3426 7.45731,16 3.05733,8.5613 2.30133,19.0519 2.30133,27.9999 m -10.04398,-269.3327 c 1.86933,7.7053 -0.96666,15.0573 -1.72799,22.6666 -2.03866,20.372 -5.64666,36.8906 -13.5773,55.9999 -4.00133,9.6426 -11.46131,22.6213 -23.98394,20.7693 -13.43464,-1.9867 -14.1693,-14.7546 -21.85329,-23.0026 -6.82398,-7.324 -13.137296,-11.428 -15.798626,-21.7666 -3.08799,-11.9947 -3.26532,-35.1666 4.87732,-45.2133 6.438646,-7.9439 16.846636,-12.5226 24.769276,-18.8066 4.92666,-3.9066 9.43198,-12.8773 15.01863,-15.1546 11.48797,-4.6827 29.93193,14.852 32.27592,24.5079 m -27.90926,-73.3331 c 2.68133,15.3213 -9.16798,19.1039 -16.99863,29.3866 -7.49731,9.844 -11.86397,23.2573 -25.047936,27.0759 -12.57064,3.6413 -35.54925,-6.9586 -37.83595,-20.4626 -1.9866,-11.7346 10.06402,-22.8626 13.70134,-33.3333 7.84265,-22.5772 -7.43194,-51.3812 16.15463,-67.5158 4.11865,-2.8186 8.63598,-4.864 13.313296,-6.5693 7.36666,-2.6853 19.64262,-6.2587 26.21328,-0.1573 12.53463,11.6399 5.18798,34.1679 5.83865,48.9092 0.348,7.8653 3.31999,15.0053 4.66132,22.6666"
     inkscape:connector-curvature="0" />
</svg>
