<?xml version="1.0" encoding="UTF-8" standalone="no"?>
<!-- Created with Inkscape (http://www.inkscape.org/) -->

<svg
   xmlns:dc="http://purl.org/dc/elements/1.1/"
   xmlns:cc="http://creativecommons.org/ns#"
   xmlns:rdf="http://www.w3.org/1999/02/22-rdf-syntax-ns#"
   xmlns:svg="http://www.w3.org/2000/svg"
   xmlns="http://www.w3.org/2000/svg"
   xmlns:sodipodi="http://sodipodi.sourceforge.net/DTD/sodipodi-0.dtd"
   xmlns:inkscape="http://www.inkscape.org/namespaces/inkscape"
   version="1.1"
   id="svg2"
   width="228.56392"
   height="168.57014"
   viewBox="0 0 228.56392 168.57015"
   sodipodi:docname="bat.svg"
   inkscape:version="0.92.4 (5da689c313, 2019-01-14)">
  <metadata
     id="metadata8">
    <rdf:RDF>
      <cc:Work
         rdf:about="">
        <dc:format>image/svg+xml</dc:format>
        <dc:type
           rdf:resource="http://purl.org/dc/dcmitype/StillImage" />
        <dc:title></dc:title>
      </cc:Work>
    </rdf:RDF>
  </metadata>
  <defs
     id="defs6" />
  <sodipodi:namedview
     pagecolor="#ffffff"
     bordercolor="#666666"
     borderopacity="1"
     objecttolerance="10"
     gridtolerance="10"
     guidetolerance="10"
     inkscape:pageopacity="0"
     inkscape:pageshadow="2"
     inkscape:window-width="1920"
     inkscape:window-height="1017"
     id="namedview4"
     showgrid="false"
     inkscape:zoom="1.2456598"
     inkscape:cx="119.65378"
     inkscape:cy="75.040108"
     inkscape:window-x="-8"
     inkscape:window-y="-8"
     inkscape:window-maximized="1"
     inkscape:current-layer="svg2"
     fit-margin-top="0"
     fit-margin-left="0"
     fit-margin-right="0"
     fit-margin-bottom="0" />
  <path
     style="fill:#000000;stroke-width:0.31999999"
     d="m 88.824834,168.15915 c -0.26752,-0.26752 -0.31991,-1.31776 -0.17988,-3.60633 0.15629,-2.55442 0.0821,-3.62864 -0.35526,-5.14256 -0.76453,-2.64652 -2.42139,-5.69743 -4.5236,-8.3297 -4.94553,-6.19249 -6.80507,-11.61739 -6.38532,-18.62809 0.11314,-1.88973 0.28414,-3.7004 0.38,-4.0237 0.0959,-0.3233 0.0821,-1.0793 -0.0306,-1.68 -0.15487,-0.82543 -0.36679,-1.09218 -0.86773,-1.09218 -0.53325,0 -0.62376,0.14076 -0.463,0.72 0.58376,2.10339 0.58607,2.16 0.0884,2.16 -0.27269,0 -0.58906,-0.15089 -0.70304,-0.33531 -0.11398,-0.18442 -0.47233,-0.29242 -0.79633,-0.24 -0.324,0.0524 -1.03194,-0.32829 -1.573184,-0.84603 l -0.984087,-0.94133 -0.87847,0.65525 c -1.182982,0.88238 -1.275005,1.61337 -0.261251,2.07526 0.629014,0.2866 1.016835,0.28647 1.646765,-6.4e-4 1.044897,-0.47608 1.524087,-0.20714 1.086787,0.60996 -0.20312,0.37953 -0.821504,0.69685 -1.600867,0.82148 -0.9613,0.15372 -1.269901,0.35032 -1.269901,0.80902 0,0.83731 1.413453,1.46543 2.070525,0.92011 0.403801,-0.33513 0.489475,-0.31867 0.489475,0.0941 0,0.27516 -0.149856,0.59291 -0.333018,0.70611 -0.183158,0.1132 -0.246976,0.4769 -0.141817,0.80823 0.444044,1.39906 -3.021363,1.16789 -5.162551,-0.34439 -1.33958,-0.94612 -1.722614,-0.94486 -1.722614,0.006 0,1.03887 1.374547,1.92245 2.990669,1.92245 1.809318,0 2.266787,0.64313 1.123856,1.57997 -0.633997,0.51968 -1.178285,0.60486 -3.407351,0.53329 l -2.652822,-0.0852 -1.454115,-1.41404 c -2.025997,-1.97016 -3.059392,-4.12139 -3.249949,-6.76544 -0.191315,-2.65454 0.157076,-3.59645 2.340791,-6.3286 2.550384,-3.1909 2.566524,-3.24543 1.54079,-5.20538 -3.553837,-6.79059 -4.426365,-9.9521 -4.853312,-17.585457 -0.261294,-4.671957 -0.342302,-5.123234 -1.134514,-6.320348 -0.469222,-0.708937 -1.067084,-1.289062 -1.328588,-1.289062 -0.261501,0 -0.475459,-0.144 -0.475459,-0.32 0,-0.550349 -2.848327,-0.349318 -4.092749,0.288858 -1.46183,0.74967 -2.349168,1.701004 -3.237642,3.471142 -0.37544,0.748 -0.738476,1.36 -0.806745,1.36 -0.451082,0 -2.586707,-4.768598 -3.810269,-8.507872 -1.64536,-5.028323 -3.491363,-9.742605 -4.37688,-11.177587 -1.014252,-1.6436 -2.06047,-2.391575 -3.878611,-2.772931 -1.651529,-0.346413 -1.85606,-0.3156 -3.653289,0.550371 -1.047098,0.504531 -1.978573,0.961155 -2.069945,1.01472 -0.09137,0.05356 -0.447289,-0.443533 -0.790928,-1.104656 -0.343639,-0.661127 -0.95288,-1.739184 -1.35387,-2.395687 -0.400989,-0.656502 -0.729071,-1.350556 -0.729071,-1.542342 0,-1.269725 -4.657739,-6.344192 -5.878034,-6.403942 -2.602431,-0.12743 -6.592122,0.14544 -7.399212,0.50606 -1.524104,0.681 -3.190192,2.41032 -5.0246071,5.215316 -2.664794,4.074726 -3.3146051,5.234502 -3.7979441,6.77855 -0.751747,2.401491 -1.6567559,3.096048 -2.6060059,2 -0.475075,-0.548544 -0.537233,-1.109827 -1.55041104,-13.999996 -0.152172,-1.936 -0.400643,-4.744 -0.552159,-6.24 -0.703411,-6.94515 0.61972,-15.28817 3.45624494,-21.79338 1.247545,-2.86108 2.1192411,-4.06306 4.6321301,-6.38719 3.7030411,-3.42489 6.8909091,-5.51831 14.2399981,-9.35116 2.376,-1.23918 6.581555,-3.530129 9.34568,-5.091009 2.764121,-1.56087 5.572121,-3.06394 6.239999,-3.34015 0.667875,-0.27621 2.00632,-0.8633 2.97432,-1.30464 2.889456,-1.3174 6.645545,-2.6316401 10.72,-3.7508801 3.537817,-0.97184 4.763174,-1.25762 9.279999,-2.16431 4.360407,-0.87528 4.974493,-1.16653 8.553053,-4.05652 1.181712,-0.95431998 2.081472,-1.42236998 2.829782,-1.47201998 0.60344,-0.04 1.675438,-0.17334 2.382208,-0.29623 1.12969,-0.19643 1.41017,-0.11173 2.32,0.70057 1.61803,1.44456998 1.3911,1.79177998 -1.01028,1.54575998 l -2.04523,-0.20954 -0.706615,1.19761 c -1.023929,1.73544 -1.136797,2.97058 -0.405705,4.43979 1.20646,2.4245101 4.23616,7.5585201 5.38,9.1167401 1.14483,1.559579 1.74759,2.674699 7.16562,13.256559 4.42949,8.65116 5.10498,9.55834 11.07972,14.88 1.9053,1.69703 3.36272,2.72076 4.777446,3.3558 0.704,0.31601 2,0.90467 2.88,1.30815 0.88001,0.40346 2.82401,1.29307 4.32001,1.97689 1.496,0.68383 4.13457,1.72853 5.8635,2.32155 l 3.14349,1.07824 1.49651,-0.57919 c 0.82307,-0.31856 2.28333,-0.71253 3.24501,-0.8755 0.96169,-0.16297 1.76461,-0.32548 1.78428,-0.36113 0.0197,-0.0357 -0.0602,-1.93681 -0.17745,-4.22481 -0.14215,-2.77328 -0.39026,-4.56002 -0.74429,-5.36 -1.3063,-2.95177 -1.49106,-3.53473 -1.49106,-4.70469 0,-1.73084 0.26884,-2.2647 1.37457,-2.72962 1.24337,-0.5228 3.07497,-0.058 6.14543,1.55948 2.32679,1.22573 8.04686,5.5122 8.54604,6.40419 0.22175,0.39625 0.81981,0.51064 2.66986,0.51064 2.0562,0 2.38448,-0.077 2.38684,-0.56 0.002,-0.308 0.14819,-2.20335 0.32596,-4.21188 0.41694,-4.71066 1.04937,-5.94508 2.91749,-5.69451 0.88042,0.11809 1.6418,0.55754 2.67954,1.54656 1.23496,1.17699 1.59067,1.82187 2.40196,4.35454 0.72883,2.27525 0.95231,3.57282 0.95231,5.52911 0,2.12696 0.0857,2.55618 0.51063,2.55618 0.96397,0 2.30567,1.06071 2.58833,2.04626 0.20223,0.70515 0.55309,1.06325 1.2319,1.25732 2.63076,0.75213 3.25543,0.98984 4.02931,1.53328 0.47059,0.33046 1.12316,1.33188 1.48353,2.27656 0.75854,1.98854 1.48621,7.13757 1.1807,8.35481 -0.14573,0.58065 -0.087,0.85177 0.18453,0.85177 0.44948,0 11.47046,-3.68794 12.95107,-4.3338 1.59799,-0.69706 7.1895,-2.62092 10.08,-3.46821 1.496,-0.43852 3.944,-1.18803 5.44,-1.66559 2.2304,-0.712 3.32481,-0.87 6.08,-0.87781 3.80399,-0.0108 6.10342,0.52978 8.65621,2.03496 0.88657,0.52275 1.70002,0.95045 1.80767,0.95045 0.10764,0 0.66595,0.35867 1.24069,0.79704 0.77562,0.5916 1.28388,0.74927 1.97178,0.61169 1.49628,-0.29926 8.99326,0.45733 10.19841,1.02921 1.0685,0.50703 1.08524,0.54687 1.08524,2.58198 0,1.77983 -0.0762,2.05233 -0.54851,1.96137 -0.33657,-0.0648 -0.66135,-0.58277 -0.84055,-1.34051 l -0.29204,-1.23488 -1.41937,0.15999 c -3.31029,0.37311 -4.67574,4.12995 -3.45797,9.514106 0.83201,3.67856 1.41426,5.522035 2.24731,7.115206 0.44804,0.856871 1.29838,2.88249 1.88964,4.50137 0.59126,1.618883 1.30509,3.375424 1.58628,3.903424 0.2812,0.528 0.51215,1.067392 0.51324,1.198646 9.6e-4,0.131258 0.52161,1.355258 1.15673,2.72 1.88191,4.043856 3.19431,7.979414 4.13186,12.390381 0.81329,3.82633 0.86496,4.49085 0.66434,8.54401 -0.20888,4.22 -0.26718,4.50244 -1.46439,7.09379 -0.68577,1.48434 -1.53405,3.57365 -1.88507,4.64291 -0.68313,2.08093 -1.96083,4.7183 -5.22992,10.79541 -1.12868,2.09817 -2.14649,4.06685 -2.26182,4.37485 -0.29897,0.79848 -1.14428,0.6926 -1.3609,-0.17046 -0.10083,-0.40175 -0.0411,-1.36337 0.13268,-2.13693 0.45395,-2.02039 -0.22068,-3.13761 -3.08037,-5.10121 -0.83016,-0.57003 -1.50508,-0.71737 -3.36,-0.73351 -1.99279,-0.0174 -2.61083,0.12434 -4.36859,1.00146 -3.24755,1.62052 -5.11488,2.94524 -8.07047,5.7254 -1.85285,1.74286 -2.81906,2.90002 -2.94429,3.52615 -0.20946,1.04733 -1.07102,2.05803 -1.60314,1.88066 -0.23778,-0.0793 -0.36007,-2.17449 -0.37904,-6.49429 l -0.028,-6.37727 -1.0363,-2.38284 c -0.56997,-1.31057 -1.65124,-3.32657 -2.40282,-4.48 -0.75159,-1.15344 -1.69382,-2.63733 -2.09385,-3.29753 -0.81306,-1.34188 -3.25653,-3.06742 -5.55148,-3.92039 -1.32983,-0.49426 -1.76377,-0.51538 -3.52,-0.17129 -4.73159,0.92703 -5.74377,1.45765 -9.50429,4.98252 -3.92689,3.68081 -5.74656,4.84707 -9.45889,6.06235 -2.52153,0.82546 -6.32152,1.19011 -7.13873,0.68505 -0.2097,-0.1296 -0.38127,-0.65733 -0.38127,-1.17273 0,-0.84154 0.2339,-1.05488 2.29397,-2.09232 1.26168,-0.63538 2.55435,-1.46518 2.87258,-1.84402 0.71221,-0.84785 1.87345,-3.81662 1.87345,-4.7896 0,-0.97783 -0.79768,-2.03882 -2.00043,-2.66079 -2.63634,-1.3633 -11.35763,-2.29965 -15.8387,-1.7005 -4.72283,0.63148 -10.91517,2.99308 -14.86809,5.67031 -1.28303,0.86897 -3.48875,2.31774 -4.9016,3.21948 -1.41285,0.90174 -3.08485,2.1824 -3.71555,2.84591 -1.57828,1.66039 -5.87585,7.40918 -5.66782,7.58175 0.0617,0.0512 1.1105,0.68931 2.33065,1.41805 2.67466,1.59745 3.74184,2.51767 4.83443,4.16868 1.6938,2.5595 2.30341,7.16161 1.10711,8.35791 -0.92496,0.92496 -1.28,0.79182 -1.28,-0.48 0,-0.69333 -0.24381,-1.36381 -0.64,-1.76 -1.10434,-1.10434 -1.38476,-0.81507 -1.19873,1.23658 0.0936,1.03212 0.076,2.02899 -0.0391,2.21525 -0.33194,0.53709 -2.81586,1.27973 -3.70917,1.10897 -0.9454,-0.18073 -1.08211,-0.91225 -0.22152,-1.18539 1.24968,-0.39663 1.8078,-3.49046 0.80972,-4.48854 -0.92793,-0.92793 -1.54287,-0.46778 -1.76141,1.31803 -0.11015,0.9 -0.65591,2.48208 -1.21281,3.51573 -1.60179,2.97301 -1.74592,3.10831 -3.05051,2.86357 -1.29725,-0.24337 -1.42523,-0.58562 -0.46935,-1.25515 0.732,-0.51271 1.53682,-2.45447 1.55887,-3.76104 0.008,-0.45759 -0.41885,-1.42959 -0.94796,-2.16 -0.85122,-1.17508 -1.10918,-1.32801 -2.24,-1.32801 -0.70289,0 -1.33613,0.036 -1.40717,0.08 -0.22113,0.13697 -1.85862,-1.76467 -2.80627,-3.25896 -1.07066,-1.68825 -1.14837,-3.15134 -0.26456,-4.98104 0.76986,-1.5938 0.8536,-3.10188 0.1574,-2.83473 -0.26542,0.10186 -1.01167,-0.0659 -1.658316,-0.37273 -1.02627,-0.48699 -1.5238,-0.51572 -3.91365,-0.22592 -2.4674,0.29919 -2.8183,0.42829 -3.55159,1.30665 -0.44752,0.53606 -0.99879,1.48658 -1.22504,2.11227 -0.34918,0.96562 -0.33904,1.20994 0.0671,1.61603 0.26313,0.26314 0.55906,0.47843 0.65762,0.47843 0.70604,0 4.18298,3.54494 4.94829,5.04507 0.53565,1.04997 0.56321,1.33878 0.20829,2.18289 -0.46728,1.11132 -2.65142,3.09989 -4.38835,3.9954 -0.64806,0.33412 -1.26908,0.75439 -1.38004,0.93393 -0.32348,0.5234 0.49439,2.52426 2.18546,5.34663 1.30322,2.17503 1.60987,2.988 1.79246,4.75216 0.27758,2.68186 -0.25046,4.33498 -2.29469,7.18392 -2.42544,3.3802 -2.82864,3.68826 -3.69434,2.82256 z m 3.41099,-7.12342 c 1.18005,-3.17384 1.16325,-3.9736 -0.13528,-6.43877 -0.64326,-1.2212 -1.43601,-2.50986 -1.76166,-2.86369 -0.90009,-0.97796 -2.86461,-4.90777 -2.86461,-5.73034 0,-1.00421 0.72151,-1.55752 3.59637,-2.75798 3.5789,-1.49443 3.6165,-1.60515 1.26233,-3.71687 -3.16094,-2.83541 -4.5387,-5.25871 -4.5387,-7.98296 0,-1.17791 0.14969,-1.48902 1.04,-2.16144 1.81887,-1.37373 4.14419,-1.86273 7.69532,-1.61829 1.95882,0.13484 3.543256,0.4238 4.222436,0.77006 1.34795,0.68723 1.38924,0.59657 1.31871,-2.89524 -0.06,-2.97011 -0.3699,-3.79409 -2.461096,-6.54362 -2.41279,-3.17236 -2.3841,-3.15912 -3.81537,-1.76 -1.15359,1.12767 -1.48456,1.18785 -1.76,0.32 -0.11173,-0.352 -0.39973,-0.64 -0.64,-0.64 -0.24028,0 -0.52828,-0.288 -0.64,-0.64 -0.22184,-0.69896 -0.64389,-0.83148 -0.96961,-0.30446 -0.38364,0.62075 -1.11039,-0.3699 -1.11039,-1.51361 0,-0.65165 -0.13038,-1.01912 -0.32,-0.90193 -0.176,0.10877 -0.32,0.90927 -0.32,1.77889 0,1.9387 -0.47739,2.07381 -0.78128,0.22111 l -0.22308,-1.36 -0.46804,0.88 c -0.73647,1.38468 -1.0876,1.0416 -1.0876,-1.06265 0,-1.58994 -0.18882,-2.28643 -1.04,-3.8362 -0.572,-1.04145 -1.12273,-1.89527 -1.22384,-1.89735 -0.10111,-0.002 -1.09521,0.78546 -2.20912,1.7501 -2.44037,2.11337 -5.11247,5.69099 -6.25404,8.37343 l -0.83725,1.96734 1.41529,1.87266 c 0.77841,1.02997 1.57062,2.16901 1.76048,2.53119 0.48862,0.93214 0.58916,6.675 0.15473,8.83731 -0.47887,2.38342 -0.0579,5.33656 1.26814,8.89511 1.15028,3.087 2.3398,5.11595 4.72377,8.05732 2.14693,2.64889 4.04686,6.59838 4.90767,10.20184 0.77092,3.22715 0.95324,3.24186 2.09572,0.16904 z m 17.731756,-19.3352 c -0.15355,-1.14485 -0.0953,-1.26063 0.78927,-1.569 0.80152,-0.27941 1.17271,-0.20931 2.30891,0.43606 1.59557,0.90631 1.60851,0.90863 1.60851,0.289 0,-0.264 0.12642,-0.48 0.28093,-0.48 0.51067,0 2.55158,0.94427 2.75608,1.27515 0.3289,0.53217 0.80299,0.36918 0.80299,-0.27607 0,-1.09274 -1.0052,-3.06353 -2.09117,-4.09991 -0.58832,-0.56146 -1.98883,-1.46414 -3.11224,-2.00595 -1.12341,-0.54181 -2.48717,-1.45044 -3.03059,-2.01917 -1.3644,-1.42797 -2.7694,-3.92593 -3.28139,-5.83405 -0.58492,-2.17987 -0.82776,-15.64882 -0.32799,-18.19111 0.20231,-1.02911 0.32183,-1.91638 0.26561,-1.97171 -0.1443,-0.142 -2.89987,0.59422 -3.38167,0.90349 -0.23041,0.1479 -0.70064,0.0454 -1.1112,-0.24213 -0.39148,-0.2742 -1.00373,-0.49995 -1.36057,-0.50167 -1.309576,-0.006 -5.928786,-2.5559 -5.928786,-3.27242 0,-0.15136 0.612,0.13396 1.36,0.63405 0.748,0.50008 1.76277,1.083 2.25505,1.29537 1.12383,0.48482 5.007156,0.50334 6.204116,0.0296 0.49546,-0.1961 1.35109,-0.34516 1.9014,-0.33123 0.61331,0.0155 1.2208,-0.21803 1.5696,-0.60345 0.31296,-0.34583 0.77163,-0.62877 1.01925,-0.62877 0.24762,0 1.23475,-0.37115 2.19362,-0.82476 0.95886,-0.45362 2.59246,-0.94478 3.63021,-1.09146 1.03776,-0.14669 2.80031,-0.6943 3.91679,-1.21692 4.19939,-1.965697 4.35704,-2.014077 4.87514,-1.495977 0.25801,0.258017 0.62535,0.469117 0.81631,0.469117 0.36917,0 1.67058,-0.668217 1.93851,-0.995347 0.088,-0.10744 0.61918,-0.43058 1.18039,-0.71808 0.56121,-0.287498 1.74245,-1.256269 2.62497,-2.152819 1.70391,-1.730992 2.27464,-1.799962 2.27464,-0.274867 0,0.539244 0.1707,0.941113 0.39975,0.941113 0.21987,0 1.59753,-1.233321 3.06147,-2.74071 2.43243,-2.504631 2.74253,-2.722963 3.59994,-2.534643 0.76746,0.168563 0.90317,0.114745 0.74567,-0.295719 -0.12369,-0.322307 0.34227,-1.096643 1.30272,-2.164896 2.75618,-3.065536 4.60005,-6.320269 4.63641,-8.184032 0.009,-0.480957 0.20971,-0.72 0.60339,-0.72 0.41032,0 0.70584,-0.388822 0.97285,-1.28 0.21092,-0.704 0.52171,-1.28 0.69065,-1.28 1.03011,0 -0.86885,4.59352 -3.41277,8.255331 -1.30357,1.876413 -1.73008,2.956016 -1.16008,2.936416 0.32474,-0.01117 2.07304,-2.663904 3.05421,-4.634211 0.4389,-0.881353 1.14611,-1.961353 1.57159,-2.4 0.91445,-0.942761 1.74504,-3.047213 2.35694,-5.971811 0.24343,-1.163482 0.53553,-2.419242 0.6491,-2.790573 0.11902,-0.389126 -0.28326,-0.0651 -0.94956,0.764848 -0.63583,0.792 -1.15746,1.62 -1.15917,1.84 -0.002,0.22 -0.21911,0.4 -0.48311,0.4 -0.62353,0 -0.61425,-0.945926 0.0181,-1.848797 0.68864,-0.983177 0.17111,-0.889203 -1.32114,0.239895 -1.26554,0.957555 -2.05701,1.217718 -2.05701,0.676157 0,-0.161012 0.72,-0.821274 1.6,-1.467255 1.24819,-0.916249 1.6,-1.368237 1.6,-2.055542 0,-0.838099 0.13225,-0.914519 2.71385,-1.568215 5.05592,-1.280226 6.88221,-2.644476 6.88496,-5.143116 0.001,-1.06073 -1.93872,-4.51313 -2.53591,-4.51313 -0.14459,0 -0.7129,0.09 -1.2629,0.2 -0.84481,0.16897 -1,0.34437 -1,1.13028 0,1.42554 -0.74331,2.89317 -2.04347,4.03472 -1.74653,1.53348 -2.11557,1.39344 -2.12143,-0.805 -0.006,-2.11404 -0.10096,-2.31056 -1.52166,-3.13697 -0.87206,-0.50726 -1.1534,-0.54205 -1.68727,-0.20865 -0.94344,0.58919 -1.2012,-0.37105 -0.46604,-1.73616 0.70315,-1.30568 1.36118,-1.39271 1.49862,-0.19822 0.0927,0.80576 0.20924,0.87607 1.38125,0.83343 0.704,-0.0256 2.85572,-0.30007 4.78161,-0.60989 3.45263,-0.55544 4.4478,-0.50328 6.65839,0.34903 0.48439,0.18675 0.56,0.0134 0.56,-1.28376 v -1.49966 l -0.96,0.21085 c -0.87241,0.19162 -0.96,0.13579 -0.96,-0.61186 0,-0.47615 0.2696,-0.99108 0.64,-1.2224 0.352,-0.21983 0.64,-0.49249 0.64,-0.60591 0,-0.47518 -1.767,-1.30181 -3.94752,-1.84672 -2.42722,-0.60655 -5.16116,-2.24627 -5.16848,-3.09987 -0.006,-0.75233 -3.59319,-3.60412 -5.01421,-3.98676 -1.02257,-0.27535 -1.54339,-0.25093 -2.46327,0.11547 -1.52313,0.60668 -6.68172,0.66211 -7.57258,0.0814 -0.35534,-0.23165 -0.97954,-1.12365 -1.38711,-1.98224 -1.28207,-2.70078 -6.90704,-6.47764 -9.6895,-6.50597 -2.25223,-0.0229 -2.26182,0.30626 -0.18122,6.2249 0.6917,1.96767 0.78236,2.73878 0.74566,6.34261 -0.0464,4.55926 0.003,4.45921 -2.36168,4.81836 -1.82907,0.27784 -4.28011,1.11961 -4.92706,1.69212 -0.28984,0.25648 -1.33807,0.55005 -2.32939,0.65236 -0.99132,0.10232 -1.87868,0.30945 -1.9719,0.46029 -0.0932,0.15085 0.055,0.27426 0.32938,0.27426 1.28723,0 0.13437,1.088 -3.50111,3.30411 -1.408,0.85828 -2.2,1.47051 -1.76,1.3605 2.35064,-0.5877 2.64709,-0.60589 2.49625,-0.15318 -0.0843,0.25291 -1.32428,0.75086 -2.84285,1.1416 -1.48137,0.38117 -2.46893,0.70517 -2.19457,0.72 0.27437,0.0148 0.77105,0.22601 1.10374,0.46928 0.56444,0.41273 0.49896,0.49539 -0.97884,1.23576 -0.87105,0.43639 -2.34313,1.04205 -3.27129,1.34591 -1.17674,0.38524 -1.66105,0.70327 -1.6,1.05065 0.0563,0.32037 -0.52706,0.818416 -1.63436,1.395367 -0.947046,0.493453 -2.078866,1.228569 -2.515146,1.633597 -1.01998,0.946902 -2.74134,3.616444 -4.29215,6.656409 -0.92807,1.819235 -1.1733,2.131187 -1.0134,1.289139 0.20699,-1.08998 1.64842,-3.996099 3.2787,-6.610284 1.99562,-3.200004 4.814396,-5.442388 8.183906,-6.510438 2.05829,-0.65243 2.04216,-0.96927 -0.0438,-0.86071 -1.64078,0.0854 -2.34498,0.34416 -4.780206,1.75653 -4.00985,2.325606 -4.10803,2.412979 -3.60921,3.211718 0.37292,0.597133 0.22018,0.828682 -1.73896,2.636151 -1.44139,1.329805 -2.14779,2.221165 -2.14779,2.710153 0,0.400752 -0.3419,1.135687 -0.75977,1.633188 -0.41787,0.497504 -1.26945,1.82502 -1.89241,2.950035 -0.92661,1.673373 -1.07336,2.175629 -0.80668,2.760918 0.4829,1.059843 -0.39726,2.648538 -3.09557,5.587527 -2.31787,2.524627 -2.59517,3.056284 -4.67644,8.966073 -0.66385,1.885 -1.24801,3.23941 -2.6913,6.24 -0.76191,1.584 -1.70218,3.6 -2.0895,4.48 -2.154807,4.89582 -2.988196,6.24544 -5.8016,9.39529 -1.713626,1.91855 -3.099069,3.20868 -3.34457,3.11447 -0.473456,-0.18169 -4.113536,4.13288 -4.642457,5.50269 -0.846422,2.19205 -0.07128,5.72005 1.58608,7.21889 0.991798,0.89695 1.363353,0.40902 1.139424,-1.49628 -0.193671,-1.64781 0.439952,-4.05505 1.067344,-4.05505 0.302889,0 1.072492,0.85236 1.87375,2.07524 0.506362,0.7728 2.373696,2.0249 2.373696,1.59163 0,-0.10427 -0.36,-0.66155 -0.8,-1.23843 -0.498547,-0.65362 -0.8,-1.46776 -0.8,-2.16056 0,-1.72778 0.876378,-4.1558 1.944717,-5.38788 l 0.971155,-1.12 0.95343,1.12 c 1.608451,1.88946 1.973091,2.22685 2.233081,2.06616 0.13776,-0.0851 0.11708,-0.6199 -0.046,-1.18836 -0.16303,-0.56847 -0.29642,-2.02076 -0.29642,-3.22733 0,-3.00456 0.81755,-4.83018 4.89488,-10.93047 2.4778,-3.70715 4.06512,-6.70955 4.06512,-7.68912 0,-0.25899 0.216,-0.47088 0.48,-0.47088 0.30815,0 0.48,-0.30933 0.48,-0.864 0,-0.672 -0.0853,-0.77867 -0.384,-0.48 -1.15012,1.15012 -1.13427,-0.73682 0.0317,-3.775997 0.85526,-2.229264 1.15707,-2.693699 1.58043,-2.432045 0.22494,0.139018 0.14001,0.558285 -0.25137,1.240995 -0.32508,0.567079 -0.6853,1.39105 -0.80049,1.83105 -0.20061,0.766314 -0.18866,0.774035 0.28384,0.18336 0.74621,-0.932861 0.88495,-0.469651 0.56796,1.89627 -0.26476,1.976057 -0.23111,2.218537 0.41556,2.995247 0.79757,0.95794 1.14336,1.96808 1.95982,5.72512 0.31554,1.452 0.68685,2.64 0.82512,2.64 0.13828,0 0.25141,-0.216 0.25141,-0.48 0,-0.264 0.216,-0.48 0.48,-0.48 0.264,0 0.48,-0.144 0.48,-0.32 0,-0.56129 0.925,-0.34333 1.26874,0.29896 0.18219,0.34043 0.33126,1.08553 0.33126,1.65578 v 1.03682 l 0.80654,-0.7577 c 0.7179,-0.67443 0.92011,-0.71783 1.84,-0.39488 0.5684,0.19955 1.41189,0.28598 1.87441,0.19208 0.62802,-0.12751 0.96734,0.01 1.34009,0.54187 0.46757,0.66755 0.53315,0.67859 1.03708,0.17466 0.50393,-0.50393 0.5763,-0.50323 1.14444,0.0109 0.36894,0.33389 0.5336,0.7785 0.4204,1.13517 -0.41457,1.30621 2.437986,0.12198 3.218306,-1.33606 0.31674,-0.59183 0.4162,-0.61855 0.7601,-0.20417 0.327,0.39401 0.19806,0.68024 -0.74285,1.64912 -0.66987,0.68979 -1.13852,1.49203 -1.13852,1.94895 0,0.82149 0.9533,4.43291 1.5966,6.04847 1.07568,2.70142 0.95269,10.49487 -0.20082,12.72552 -0.78882,1.5254 -0.15248,3.2395 1.51923,4.09234 0.7091,0.36176 2.14207,1.44173 3.18436,2.39994 1.04229,0.95821 2.02663,1.7422 2.18741,1.7422 0.16078,0 0.21772,-0.55622 0.12654,-1.23606 z m -1.2133,-39.73215 c -1.17391,-0.20265 -1.1158,-0.22473 0.70111,-0.26638 1.08961,-0.025 2.07247,-0.19323 2.18413,-0.3739 0.11166,-0.18067 0.37216,-0.29547 0.57889,-0.25513 1.05751,0.20639 3.17529,-0.90092 7.14597,-3.736377 0.31515,-0.22505 0.53012,-0.188547 0.72448,0.123021 0.21762,0.348861 0.7908,0.08739 2.69678,-1.230218 1.33124,-0.920281 2.5884,-1.875638 2.79371,-2.123021 0.42984,-0.517926 1.25492,-0.603257 1.25492,-0.129782 0,0.652691 0.67969,0.271699 2.85438,-1.6 2.35209,-2.024381 2.58578,-2.161773 2.58537,-1.52 -1.4e-4,0.22 -1.26014,1.435283 -2.8,2.700627 -1.53986,1.265344 -3.12093,2.600327 -3.51348,2.966624 -0.56533,0.527523 -0.83147,0.592832 -1.28,0.314093 -0.46447,-0.28865 -1.13928,-0.0022 -3.75401,1.593373 -1.75325,1.069903 -3.4902,1.94528 -3.85989,1.94528 -0.36968,0 -1.24175,0.2752 -1.93793,0.61156 -1.11667,0.53951 -2.13972,0.7952 -4.45443,1.11326 -0.352,0.0484 -1.216,-0.0115 -1.92,-0.13303 z m -2.48,-0.52372 c 0.22,-0.0888 0.58,-0.0888 0.8,0 0.22,0.0888 0.04,0.16141 -0.4,0.16141 -0.44,0 -0.62,-0.0726 -0.4,-0.16141 z m 35.81836,-27.225856 c -2.49851,-0.128771 -2.87509,-0.831433 -0.5135,-0.958134 1.95087,-0.104663 4.8065,-0.751539 5.56634,-1.260925 0.80437,-0.539248 1.12879,-0.535722 1.12879,0.01226 0,0.373501 -3.56202,2.557504 -3.88479,2.38191 -0.0634,-0.03447 -1.09694,-0.113273 -2.29684,-0.175113 z m 11.38163,-16.614137 c -0.56296,-0.22716 -0.4988,-1.37025 0.0896,-1.59603 0.46922,-0.18006 1.75041,0.94487 1.75041,1.53692 0,0.28931 -1.17588,0.32708 -1.84,0.0591 z m -13.82753,-0.80841 c -1.23019,-1.32046 -0.52335,-4.51893 1.08804,-4.92337 1.27311,-0.31953 1.90932,-0.0254 2.48309,1.14789 0.76548,1.56531 0.70349,2.64524 -0.20832,3.62909 -0.98669,1.06466 -2.44805,1.12827 -3.36281,0.14639 z m -10.59271,-5.07991 c -0.36314,-0.36314 -0.62244,-0.97514 -0.57623,-1.36 0.0462,-0.38486 -0.0887,-1.01429 -0.29975,-1.39872 -0.21107,-0.38443 -0.38378,-0.92443 -0.38378,-1.2 0,-0.27557 -0.15156,-0.50103 -0.33681,-0.50103 -0.5478,0 -2.22706,-3.93814 -2.43772,-5.71685 -0.21601,-1.82382 -0.0875,-1.92098 1.58481,-1.19793 1.63977,0.70898 3.53909,2.70535 5.30887,5.58012 1.75014,2.84287 2.25421,4.48682 0.85077,2.77466 -0.81641,-0.996 -1.05735,-0.90027 -0.47461,0.18859 0.25435,0.47527 0.21639,0.74542 -0.15723,1.11905 -0.44338,0.44337 -0.56379,0.44262 -1.20651,-0.008 -0.94836,-0.66426 -1.18576,-0.63051 -0.98429,0.13991 0.10646,0.40709 0.008,0.64388 -0.26995,0.65065 -0.27459,0.007 -0.1694,0.23416 0.28267,0.61129 0.396,0.33036 0.72,0.68557 0.72,0.78935 0,0.43397 -1.00814,0.14056 -1.62024,-0.47153 z m 69.4712,81.269103 c 2.71434,-2.96986 5.15149,-4.98131 6.86904,-5.66924 0.528,-0.21148 1.79634,-0.40254 2.81854,-0.42458 1.5752,-0.034 2.22717,0.14934 4.27664,1.20244 1.32996,0.68339 3.14029,1.95287 4.02295,2.82107 1.92202,1.89054 1.64719,2.10877 4.40573,-3.49855 4.29864,-8.7379 5.4983,-14.58459 4.15397,-20.24491 -0.93451,-3.93482 -2.5552,-8.614885 -4.78162,-13.807935 -1.08773,-2.537066 -2.69776,-6.641066 -3.57787,-9.12 -0.88011,-2.478934 -1.85676,-5.083152 -2.17034,-5.787152 -0.31359,-0.704 -0.83662,-2.036 -1.16229,-2.96 -0.32568,-0.924 -0.75669,-1.68 -0.95781,-1.68 -0.66215,0 -1.08674,3.265427 -1.26906,9.76 -0.29876,10.641898 -0.88653,18.575107 -1.64427,22.192737 -0.66259,3.1634 -3.50382,9.88258 -5.56782,13.16726 -2.92979,4.66251 -8.9736,16.96 -8.33528,16.96 0.14235,0 1.45612,-1.31001 2.91949,-2.91114 z m -2.62505,-3.88886 c 0.67763,-1.452 1.64516,-3.576 2.15006,-4.72 0.5049,-1.144 1.7774,-3.736 2.82779,-5.76 6.72037,-12.94947 6.70922,-12.89806 6.76709,-31.199997 0.0217,-6.864 0.1482,-13.593594 0.28111,-14.95465 0.23709,-2.42799 0.22667,-2.481472 -0.5526,-2.836531 -0.62807,-0.286165 -1.15255,-0.245205 -2.5068,0.195763 -0.94191,0.306704 -1.92856,0.74041 -2.19256,0.963792 -0.264,0.223383 -2.928,1.619815 -5.92,3.103181 -8.06594,3.998915 -10.7992,5.583245 -14.97347,8.679322 -4.10216,3.042605 -5.23402,4.428867 -7.09448,8.689123 -0.53801,1.232 -1.28409,2.744 -1.65794,3.36 -0.37386,0.616 -1.75465,3.208 -3.06843,5.759997 -2.1537,4.18352 -6.64497,11.86672 -8.88528,15.2 -0.48687,0.7244 -1.03196,2.18285 -1.25579,3.36 -0.21752,1.144 -0.74614,2.7139 -1.17472,3.48866 -0.42857,0.77477 -0.71682,1.47107 -0.64055,1.54735 0.60995,0.60994 4.87251,-3.04056 8.94277,-7.65869 4.2368,-4.80707 9.68876,-5.61356 16.18808,-2.39464 3.32512,1.64683 4.21337,2.54221 6.69013,6.74381 2.41275,4.09299 3.76934,6.9978 4.05067,8.67351 0.27244,1.62277 0.48537,2.4 0.65749,2.4 0.0745,0 0.68979,-1.188 1.36743,-2.64 z m -85.76265,-2.32 c 0.48732,-0.54701 1.77798,-1.59335 3.75573,-3.04476 1.04556,-0.7673 1.94901,-1.51213 2.00768,-1.65517 0.0587,-0.14304 0.25914,-0.26007 0.4455,-0.26007 0.18636,0 1.07436,-0.61495 1.97334,-1.36657 5.10215,-4.26579 14.31545,-8.58745 20.95817,-9.8308 2.97084,-0.55607 9.54868,-0.39371 13.19906,0.32579 3.52128,0.69405 5.55614,1.64838 6.62666,3.10782 l 0.64824,0.88376 1.49248,-3.2 c 2.33268,-5.00145 5.30706,-11.01947 8.46148,-17.119997 1.59258,-3.08 2.98181,-5.871286 3.08717,-6.202858 0.4182,-1.316092 2.41486,-4.291571 4.02349,-5.995904 1.67637,-1.776118 5.52282,-4.947603 6.87279,-5.666774 0.38228,-0.203651 0.88628,-0.561142 1.12,-0.794429 0.7879,-0.786416 8.12329,-5.852854 10.60659,-7.325801 5.13233,-3.04419 6.68289,-3.81175 9.83995,-4.87095 l 3.09347,-1.03787 -1.95753,-0.82951 c -3.75348,-1.59054 -7.77583,-1.9337 -11.87765,-1.01331 -1.23193,0.27643 -2.81588,0.62853 -3.51988,0.78244 -0.704,0.15392 -2.144,0.583 -3.2,0.95353 -1.056,0.37053 -2.424,0.8254 -3.04,1.01083 -0.616,0.18543 -1.264,0.44338 -1.44,0.57322 -0.176,0.12985 -0.94505,0.47893 -1.70901,0.77575 -1.25154,0.48626 -3.99188,1.80189 -19.09099,9.165521 -4.45197,2.171171 -5.59884,2.571593 -7.52201,2.626272 -0.87811,0.02496 -1.10551,0.233142 -1.81245,1.659197 -0.44459,0.896854 -1.07032,2.638646 -1.3905,3.870646 -0.92167,3.546477 -1.18099,4.072976 -1.89452,3.846509 -0.50748,-0.161066 -0.94595,0.310691 -2.43374,2.618515 -1.95466,3.032016 -3.97762,5.089776 -4.38762,4.463101 -0.15582,-0.238167 -0.92822,0.394425 -2.1879,1.791875 -1.84829,2.050429 -2.86329,2.597184 -3.35237,1.805837 -0.12525,-0.202663 -0.30444,-0.229181 -0.41889,-0.06199 -0.4003,0.584797 -3.42779,2.723353 -4.47907,3.163933 -0.5935,0.248717 -1.53077,0.452217 -2.08283,0.452217 -0.55825,0 -2.25611,0.63912 -3.82548,1.44 -3.01439,1.53831 -3.4208,1.64016 -4.31545,1.08143 -0.45675,-0.28523 -1.02845,-0.16255 -2.79566,0.59995 -2.53464,1.09362 -3.86301,1.4824 -4.78151,1.39943 -1.81101,-0.16361 -5.25539,6.3206 -5.92771,11.15919 -0.50601,3.64176 -0.63505,9.45966 -0.24468,11.03192 0.29689,1.19578 0.34198,1.2341 0.75318,0.64 0.24057,-0.34756 0.56567,-0.77592 0.72247,-0.95192 z m 89.82832,-2.88 c 2.59188,-4.75852 7.2644,-14.15878 7.83837,-15.76939 0.36611,-1.02733 0.66782,-2.97113 0.76988,-4.96 0.18257,-3.557857 -0.13457,-3.12409 -0.76235,1.0427 -0.54694,3.63024 -2.17705,7.71879 -5.10603,12.80669 -1.96479,3.41302 -5.09538,10.36655 -4.24866,9.43696 0.15878,-0.17433 0.83774,-1.32496 1.50879,-2.55696 z M 68.586319,116.99883 c 1.042851,-1.06576 1.984966,-2.21776 2.093587,-2.56 0.108621,-0.34223 0.317702,-0.62224 0.464624,-0.62224 0.146925,0 0.423139,-0.396 0.613814,-0.88 0.190676,-0.484 0.479959,-1.096 0.642852,-1.36 0.162896,-0.264 0.97894,-2.064 1.813438,-4 0.83449,-1.936 2.009,-4.528 2.61001,-5.76 1.12504,-2.306177 1.92961,-4.318135 2.17543,-5.439997 0.0771,-0.352 0.48433,-1.36 0.9049,-2.24 0.42057,-0.88 0.95655,-2.229546 1.19107,-2.998986 0.32219,-1.057081 0.64536,-1.475315 1.32231,-1.711305 0.49276,-0.171773 0.89592,-0.414893 0.89592,-0.540266 0,-0.125369 0.45436,-0.692675 1.00968,-1.260675 0.70465,-0.720733 1.08268,-1.48832 1.25132,-2.540749 0.29186,-1.82151 3.06846,-7.787257 4.64702,-9.984505 0.62702,-0.872768 1.0636,-1.710548 0.97016,-1.861728 -0.2067,-0.334452 1.21332,-2.475226 2.34102,-3.529245 0.45144,-0.421947 1.6488,-1.331737 2.6608,-2.021777 1.012,-0.69004 1.84,-1.33153 1.84,-1.42554 0,-0.27792 -0.89031,-1.08522 -1.19681,-1.08522 -0.15538,0 -0.56387,-0.26213 -0.90775,-0.5825 -0.34389,-0.32038 -1.27104,-0.96905 -2.06034,-1.44149 -1.44674,-0.86595 -2.44266,-1.59641 -8.14777,-5.97601 -1.7195,-1.32 -3.57099,-2.66606 -4.11442,-2.99125 -1.33978,-0.80172 -1.79067,-1.46382 -1.80274,-2.64714 -0.006,-0.54911 -0.42422,-2.42111 -0.93028,-4.16 -1.12023,-3.84926 -2.27989,-8.7941 -2.27989,-9.72154 0,-0.37518 -0.14591,-0.95478 -0.32425,-1.288 -0.28242,-0.52771 -1.34614,-5.11321 -2.22513,-9.59207 -0.155436,-0.792 -0.31902,-2.664 -0.363522,-4.16 -0.0445,-1.496 -0.194391,-3.008 -0.333082,-3.36 -0.138691,-0.352 -0.397261,-1.217199 -0.574602,-1.922659 -0.390729,-1.55435 -2.06872,-2.69318 -3.130748,-2.1248 -0.812467,0.43482 -2.493802,2.52838 -4.269277,5.316009 -0.780665,1.2257 -1.88143,2.8817 -2.446141,3.68 -0.56471,0.7983 -1.704374,2.67545 -2.532582,4.17145 -0.828208,1.496 -2.297043,4.088 -3.264077,5.76 -2.039692,3.52662 -3.601251,6.55754 -5.687922,11.04 -0.819312,1.76 -2.320864,4.87389 -3.336778,6.91977 -2.260489,4.55222 -2.551936,6.42756 -2.430656,15.64023 0.09892,7.514306 0.739207,23.047106 0.959101,23.267001 0.08649,0.08648 0.758041,-0.325213 1.492352,-0.91488 1.191805,-0.95705 1.546195,-1.071597 3.301769,-1.0672 2.343255,0.0059 4.924842,1.101334 6.509152,2.76208 1.773008,1.85855 2.356006,3.684141 2.675568,8.378192 0.157814,2.31814 0.378893,4.9348 0.491286,5.8148 0.251127,1.96619 1.561802,6.58144 2.257703,7.94998 0.643705,1.2659 3.038415,5.01002 3.204367,5.01002 0.06788,0 0.976663,-0.87199 2.019514,-1.93776 z m 30.407955,-0.78224 c -0.22616,-0.27251 -0.4832,-0.42347 -0.5712,-0.33547 -0.088,0.088 0.0251,0.38296 0.2512,0.65547 0.22616,0.27251 0.4832,0.42347 0.5712,0.33547 0.088,-0.088 -0.0251,-0.38296 -0.2512,-0.65547 z m 127.653876,-9.44263 c -0.17566,-1.14255 -0.44109,-2.79737 -0.58985,-3.67737 -0.45515,-2.69244 -2.21278,-7.985399 -3.55285,-10.699139 -0.69915,-1.415821 -1.27172,-2.755716 -1.27238,-2.97754 -6.4e-4,-0.221824 -0.26088,-0.835318 -0.57828,-1.363318 -1.58021,-2.628723 -6.93558,-17.067309 -7.76521,-20.935726 -0.36517,-1.70271 -0.74535,-2.06524 -1.02886,-0.98108 -0.3139,1.20033 1.38982,7.006873 3.37919,11.516806 0.34935,0.792 1.10468,2.808 1.6785,4.48 1.51388,4.41113 2.80697,7.788963 4.16505,10.88 2.22486,5.063862 3.67437,9.106597 4.55423,12.701937 0.94042,3.8428 1.53438,4.46319 1.01046,1.05543 z m -60.60016,-1.67737 c 0.82911,-1.628 1.61572,-3.104 1.74801,-3.28 0.1323,-0.176 1.39352,-2.551997 2.80273,-5.279997 2.64737,-5.12489 4.16578,-7.870682 5.57417,-10.08 1.02016,-1.600298 5.48332,-6.021123 7.22063,-7.152131 0.71631,-0.466327 2.28751,-1.509034 3.49156,-2.31712 3.69599,-2.480538 5.76953,-3.632592 14.03117,-7.795705 7.20116,-3.62873 9.11801,-4.42976 9.11801,-3.81032 0,0.11259 -0.22335,0.36804 -0.49634,0.56765 -0.41048,0.30016 -0.55399,1.80081 -0.82957,8.675284 -0.33671,8.399139 -0.10482,16.066876 0.39032,12.906358 0.12805,-0.81729 0.33281,-4.41729 0.45504,-8 0.39324,-11.526292 0.39457,-11.535772 2.14004,-15.230062 0.70036,-1.48231 1.41311,-2.39646 2.61186,-3.34989 l 1.64865,-1.31125 -1.40309,0.21926 c -0.77171,0.1206 -1.75909,0.4993 -2.1942,0.84156 -0.88372,0.69512 -1.08799,0.6351 -3.5452,-1.04184 -0.76037,-0.51892 -1.46169,-0.86428 -1.5585,-0.76747 -0.0968,0.0968 -0.98669,-0.22947 -1.97751,-0.72506 -0.99083,-0.49559 -2.57447,-1.08335 -3.51922,-1.30613 -2.40923,-0.56813 -7.35589,-0.25637 -9.80228,0.61778 -1.056,0.37734 -2.928,0.95635 -4.16,1.28669 -2.46336,0.66052 -4.59561,1.37127 -7.04,2.34666 -2.28936,0.91353 -10.21548,3.67634 -12.48,4.35016 -1.056,0.31421 -2.208,0.70276 -2.56,0.86344 -0.352,0.16067 -1.66033,0.29214 -2.90741,0.29214 h -2.26741 l -0.83105,1.76897 c -0.64466,1.372216 -1.1409,1.939096 -2.21259,2.527538 -1.86808,1.025718 -2.50154,1.611456 -2.50154,2.313085 0,1.189392 4.11433,0.631248 6.56,-0.889927 0.352,-0.218937 1.89446,-0.9019 3.42769,-1.517692 1.53323,-0.615796 5.13323,-2.335904 8,-3.822454 2.86677,-1.48656 6.29231,-3.03005 7.61231,-3.42998 1.32,-0.39993 4.92,-1.55404 8,-2.56469 8.65049,-2.8385 11.76103,-3.03699 17.28,-1.10268 3.20333,1.12271 4.38535,1.77555 4.77898,2.63948 0.34095,0.74831 0.31577,0.78139 -0.44888,0.58948 -0.6005,-0.15072 -0.8101,-0.0776 -0.8101,0.28277 0,0.28352 -0.28568,0.4861 -0.6855,0.4861 -1.44622,0 -5.37061,1.41192 -8.57651,3.08566 -5.96446,3.113946 -18.09861,11.653133 -22.00266,15.483978 -2.00328,1.965712 -2.5942,2.837232 -4.51857,6.664208 -1.21764,2.421513 -3.89448,7.670518 -5.94854,11.664447 -2.05405,3.99394 -3.5968,7.2617 -3.42832,7.2617 0.16848,0 0.9847,-1.332 1.81382,-2.96 z M 44.893699,73.112875 C 44.490195,70.458913 44.400758,68.946577 44.097251,59.644917 l -0.21704,-6.65167 3.198589,-6.46833 c 1.759225,-3.55758 3.823113,-7.83632 4.586422,-9.50832 0.763306,-1.672 1.708218,-3.616 2.099805,-4.32 0.391584,-0.704 1.386531,-2.576 2.210992,-4.16 0.824457,-1.584 1.896409,-3.384 2.382112,-4 0.485702,-0.616 1.196956,-1.72219 1.580566,-2.45821 0.38361,-0.73601 0.904045,-1.50964 1.156521,-1.71918 0.25248,-0.20954 0.459053,-0.50876 0.459053,-0.66494 0,-0.15617 0.818055,-1.513209 1.817901,-3.015639 l 1.817901,-2.73169 -0.8148,-0.8148 c -0.63969,-0.63969 -0.944419,-0.74743 -1.417901,-0.50134 -0.331706,0.1724 -2.186653,1.08573 -4.122105,2.02963 -4.58984,2.2384 -11.087219,5.738709 -11.621821,6.260979 -0.660387,0.64516 -4.518819,3.06881 -6.459174,4.05729 -1.474848,0.75134 -8.636867,5.40636 -9.74303,6.33257 -0.185333,0.15519 -1.056969,0.73932 -1.936969,1.29807 -4.590434,2.91467 -7.751271,7.56951 -9.402886,13.84726 -0.661734,2.51523 -1.922477,8.38594 -2.748819,12.8 -0.230639,1.232 -0.434858,2.276 -0.45382,2.32 -0.01896,0.044 -0.07048,0.17789 -0.114475,0.29754 -0.044,0.11964 0.712,0.26971 1.68,0.33348 0.968,0.0638 2.192,0.28283 2.72,0.48679 1.634349,0.63134 4.191741,2.39498 5.081136,3.50407 0.466682,0.58197 0.981685,1.22277 1.144452,1.42402 0.162767,0.20125 0.217765,0.44408 0.122218,0.53962 -0.09555,0.0956 0.359379,0.81149 1.010949,1.590972 l 1.184672,1.417248 2.616192,0.163219 c 1.687843,0.105299 3.205417,0.416695 4.276691,0.877546 1.834588,0.789219 4.136656,3.030173 5.136393,5.000038 0.891335,1.756275 3.572787,8.366138 3.659424,9.020592 0.03967,0.299674 0.114963,-2.003811 0.167318,-5.118857 0.05235,-3.115044 -0.06465,-6.715044 -0.260019,-8 z M 5.3890648,69.125867 c 0.6557631,-1.2599 1.7763781,-2.88065 2.4902551,-3.60166 1.503497,-1.51853 4.2623361,-2.96409 6.1336961,-3.2139 l 1.301257,-0.17371 0.546817,-2.18942 c 1.213786,-4.85991 1.918536,-8.93503 2.360728,-13.65058 0.637818,-6.80171 0.903152,-8.08964 1.992726,-9.67262 2.055099,-2.98575 7.183055,-6.98395 14.476823,-11.28738 0.894893,-0.528 2.229139,-1.38827 2.964992,-1.9117 0.735852,-0.52344 1.985913,-1.28403 2.777913,-1.6902 0.792,-0.40617 2.088,-1.11482 2.88,-1.57478 0.792,-0.45997 2.52,-1.40848 3.84,-2.107809 1.32,-0.69933 2.78223,-1.54241 3.249398,-1.87351 0.467168,-0.3311 1.007168,-0.602 1.2,-0.602 0.192832,0 0.350602,-0.144 0.350602,-0.32 0,-0.176 0.18,-0.32072 0.4,-0.32159 0.22,-8.7e-4 0.832,-0.35561 1.36,-0.78829 l 0.96,-0.7867 -1.12,0.33528 c -0.616,0.1844 -2.299962,0.60971 -3.742141,0.94513 -2.805929,0.6526 -7.446736,2.25528 -8.547641,2.95188 -0.368618,0.23324 -1.822218,0.837419 -3.230218,1.342609 -1.408,0.50518 -3.28,1.30674 -4.16,1.78123 -0.879999,0.47449 -2.247999,1.21034 -3.039999,1.63521 -0.792,0.42488 -2.232,1.28497 -3.2,1.91131 -0.968,0.62634 -2.336,1.40403 -3.04,1.7282 -1.156222,0.53241 -5.263698,3.31194 -8.16,5.52187 -2.156581,1.64551 -5.450653,4.98443 -6.4427121,6.53042 -1.244239,1.93898 -3.242756,6.54039 -4.425462,10.18925 -0.4929211,1.52075 -1.0744591,3.09804 -1.2923061,3.50509 -0.588379,1.09939 -0.740695,20.444779 -0.155658,19.769816 0.04325,-0.04989 0.615167,-1.121549 1.27093,-2.381446 z m 97.8467652,-5.46064 c 2.06887,-1.01158 3.71377,-1.98535 3.65533,-2.16394 -0.0584,-0.17858 -0.49113,-0.37026 -0.96156,-0.42595 -0.47043,-0.0557 -0.85532,-0.21769 -0.85532,-0.36 0,-0.14231 -0.4435,-0.34744 -0.98556,-0.45585 -0.99923,-0.19985 -1.44945,-0.38624 -5.733866,-2.37381 -2.37003,-1.09946 -4.87634,-2.67306 -7.68058,-4.82227 -0.792,-0.607 -2.19191,-1.43823 -3.1109,-1.84717 -1.18181,-0.52589 -1.90636,-1.11652 -2.47533,-2.01782 -0.44244,-0.70087 -1.06623,-1.41442 -1.38621,-1.58566 -0.66824,-0.35764 -2.00193,-2.97693 -2.70687,-5.31616 -1.44561,-4.79704 -3.14525,-11.94083 -4.2635,-17.92 -0.26332,-1.408 -0.60595,-2.992 -0.76139,-3.52 -0.15544,-0.528 -0.4605,-2.04 -0.6779,-3.359999 -0.21739,-1.32 -0.51736,-2.5368 -0.66658,-2.704 -0.14923,-0.1672 -0.27132,-0.54426 -0.27132,-0.8379 0,-0.29364 -0.979754,-2.49021 -2.177229,-4.8812501 l -2.177222,-4.34737 -1.38857,0.91927 c -1.820953,1.20552 -3.427849,1.7842 -6.736982,2.42611 -1.496,0.29019 -3.584,0.70868 -4.64,0.92996 -2.457686,0.515 -9.747871,2.6433501 -10.475657,3.0583401 -0.305612,0.17426 -0.697344,0.31684 -0.870518,0.31684 -0.173171,0 -1.075126,0.34749 -2.004339,0.7722 -0.929216,0.42471 -2.804672,1.28015 -4.16768,1.90097 -1.363008,0.62082 -3.883008,1.90944 -5.6,2.86359 -4.303968,2.391769 -6.606017,3.627849 -11.441804,6.143679 -4.130608,2.14895 -8.520551,4.83692 -10.263791,6.28455 -2.29772,1.90807 -4.4400821,4.05153 -5.0724141,5.07501 -1.233514,1.99653 -3.98239,10.07768 -3.0907181,9.08609 0.347773,-0.38674 1.7764201,-3.18889 2.4299411,-4.76609 1.160796,-2.80145 1.517048,-3.53957 1.930589,-4 0.237113,-0.264 1.009968,-1.13859 1.7174551,-1.94353 1.047533,-1.19183 5.285316,-4.19348 8.364839,-5.92488 0.34083,-0.19163 0.872684,-0.5686 1.181896,-0.83771 0.309211,-0.26912 1.642203,-1.04833 2.962203,-1.73159 1.32,-0.68326 2.448,-1.35029 2.506666,-1.48229 0.05867,-0.132 0.232273,-0.24 0.385791,-0.24 0.153518,0 1.113518,-0.58523 2.133333,-1.3005 1.019815,-0.71528 2.79021,-1.72717 3.93421,-2.24866 1.144,-0.52149 2.613155,-1.23262 3.26479,-1.5803 0.651635,-0.347679 3.027635,-1.366669 5.28,-2.264429 2.252364,-0.89775 4.671209,-1.89038 5.375209,-2.20584 2.968829,-1.33031 8.107062,-3.23639 9.904979,-3.67435 6.200355,-1.5103801 8.71063,-1.7703001 9.031116,-0.9351301 0.141725,0.36933 0.44912,0.46016 1.109955,0.328 1.173155,-0.23463 2.835789,0.0953 2.827693,0.5612101 -0.0035,0.198 -0.998467,1.8 -2.211168,3.56 -1.212701,1.76 -3.09952,4.639999 -4.192934,6.399999 -2.396752,3.85791 -3.601789,5.70539 -3.861373,5.92 -0.320531,0.26499 -4.403705,7.81315 -4.951577,9.15348 -0.779677,1.90743 -2.161149,4.82088 -5.522435,11.64652 -2.796499,5.67874 -3.084298,6.43428 -3.199686,8.4 -0.08503,1.44864 -0.0095,2.16 0.229318,2.16 0.195862,0 0.356112,-0.42492 0.356112,-0.94425 0,-2.60669 1.398752,-6.50042 3.690285,-10.27268 0.633692,-1.04318 2.437206,-4.45412 4.007801,-7.57988 4.713312,-9.38029 6.928688,-13.24181 12.230825,-21.318969 0.215098,-0.32767 1.264349,-1.76767 2.331667,-3.2 1.067319,-1.43232 2.0348,-2.85622 2.149959,-3.16422 0.387612,-1.0367101 0.85646,-0.5731 2.273215,2.24782 1.692909,3.37079 2.32814,5.883039 2.56702,10.152179 0.16961,3.03132 0.8052,6.58062 1.94832,10.88 0.28078,1.056 0.85479,3.53173 1.27559,5.50163 0.86847,4.06558 1.13999,5.04675 2.01971,7.29837 1.86936,4.78462 2.54666,5.71389 4.42078,6.06548 0.75472,0.14159 1.31128,0.52896 1.77383,1.23459 0.37073,0.56554 1.48336,1.62764 2.47252,2.3602 2.55947,1.89554 3.84475,2.98419 4.97307,4.21224 0.54197,0.58989 1.37026,1.27182 1.84064,1.51542 0.47038,0.24359 1.52314,1.02096 2.33946,1.72748 0.81633,0.70652 1.58347,1.28636 1.70477,1.28852 0.12129,0.002 1.913236,-0.82372 3.982096,-1.8353 z m 48.87628,0.87441 c 0.37478,-0.52633 0.76699,-1.48432 0.87159,-2.12886 l 0.19017,-1.17191 -1.39779,0.22352 c -1.72817,0.27634 -1.7725,0.32115 -1.31379,1.32791 0.20459,0.44903 0.37198,1.24163 0.37198,1.76135 0,1.20347 0.41512,1.19957 1.27784,-0.012 z m 8.70807,-2.80145 c -0.79336,-0.65822 -2.83093,-1.04076 -2.56518,-0.48159 0.0627,0.132 0.46226,0.92159 0.88784,1.75464 l 0.77376,1.51465 0.88474,-1.03465 0.88474,-1.03464 z m -49.53064,-2.12068 c 0.58988,-0.21403 0.58595,-0.24377 -0.0953,-0.72091 -1.02813,-0.72013 -0.33841,-1.4 1.42029,-1.4 0.76006,0 1.46816,-0.13952 1.57354,-0.31004 0.10539,-0.17051 -1.00211,-0.90802 -2.46111,-1.63891 -1.459,-0.73089 -2.70072,-1.45538 -2.75939,-1.60997 -0.0587,-0.1546 -0.32484,-0.28108 -0.5915,-0.28108 -0.26665,0 -1.65865,-0.5601 -3.09333,-1.24467 -1.43469,-0.68457 -3.44831,-1.6366 -4.47473,-2.11564 -3.029636,-1.41397 -9.216446,-6.88566 -11.345436,-10.03408 -1.8276,-2.70271 -3.91461,-6.43814 -6.56783,-11.75539 -1.30915,-2.62362 -2.60549,-5.20222 -2.88075,-5.73022 -0.27528,-0.528 -0.63899,-1.32 -0.80827,-1.76 -0.38842,-1.0096 -2.28844,-3.629679 -2.48768,-3.430449 -0.082,0.082 0.14943,1.211399 0.51428,2.509769 0.36485,1.29837 0.94999,3.80068 1.30031,5.56068 1.69606,8.52099 4.62449,17.36822 6.74226,20.36939 0.32966,0.46717 0.59938,0.99348 0.59938,1.16958 0,0.45141 4.00031,4.54103 4.44186,4.54103 0.20018,0 0.81227,0.42842 1.3602,0.95205 0.9653,0.9225 5.69375,3.96105 7.31794,4.70259 2.056676,0.93901 7.652906,3.00419 8.800006,3.24748 0.99699,0.21145 1.45687,0.15325 2.08,-0.26325 0.44,-0.2941 1.07686,-0.63518 1.41526,-0.75796 z M 3.2504799,50.776597 v -0.8 l -0.256205,0.8 c -0.140912,0.44 -0.256205,1.16 -0.256205,1.6 v 0.8 l 0.256205,-0.8 c 0.140913,-0.44 0.256205,-1.16 0.256205,-1.6 z M 150.51427,45.035477 c 0,-1.57361 -0.144,-2.95011 -0.32,-3.05888 -0.176,-0.10878 -0.32,-0.48301 -0.32,-0.83164 0,-1.19465 -1.28258,-3.16197 -2.60614,-3.9975 -1.13834,-0.71859 -1.37386,-0.76801 -1.77045,-0.37141 -0.90713,0.90713 -1.4846,8.46872 -0.66341,8.68692 0.22,0.0585 1.12,0.27699 2,0.48562 0.88,0.20864 1.95673,0.73229 2.39273,1.16368 0.436,0.43138 0.904,0.78433 1.04,0.78433 0.136,0 0.24727,-1.2875 0.24727,-2.86112 z M 20.411593,39.713027 c 0.463441,-1.84649 2.155663,-3.91698 5.473027,-6.69643 1.050309,-0.88 1.957653,-1.708 2.016319,-1.84 0.05867,-0.132 0.310667,-0.24 0.56,-0.24 0.249334,0 0.453334,-0.11087 0.453334,-0.24638 0,-0.13551 1.014876,-0.87264 2.25528,-1.63806 1.240406,-0.76542 2.195299,-1.45165 2.121987,-1.52496 -0.07331,-0.0733 -0.980189,0.38346 -2.015283,1.01505 -1.035091,0.63159 -2.163903,1.3207 -2.50847,1.53135 -0.344567,0.21065 -0.798605,0.527 -1.008973,0.703 -0.210369,0.176 -1.079712,0.896 -1.931874,1.6 -4.175855,3.44981 -5.572693,5.18875 -5.989094,7.4559 -0.224138,1.22035 0.26293,1.11893 0.573747,-0.11947 z m 16.918571,-14.41055 c 1.330764,-0.66807 4.415919,-2.76074 4.27614,-2.90052 -0.183097,-0.1831 -2.176864,0.90595 -4.011952,2.19143 -1.852438,1.29764 -1.948118,1.55445 -0.264188,0.70909 z"
     id="path826"
     inkscape:connector-curvature="0" />
</svg>
