<?xml version="1.0" encoding="UTF-8" standalone="no"?>
<!-- Created with Inkscape (http://www.inkscape.org/) -->

<svg
   xmlns:dc="http://purl.org/dc/elements/1.1/"
   xmlns:cc="http://creativecommons.org/ns#"
   xmlns:rdf="http://www.w3.org/1999/02/22-rdf-syntax-ns#"
   xmlns:svg="http://www.w3.org/2000/svg"
   xmlns="http://www.w3.org/2000/svg"
   xmlns:sodipodi="http://sodipodi.sourceforge.net/DTD/sodipodi-0.dtd"
   xmlns:inkscape="http://www.inkscape.org/namespaces/inkscape"
   version="1.1"
   id="svg2"
   width="799.4906"
   height="620.57336"
   viewBox="0 0 799.4906 620.57337"
   sodipodi:docname="electriceel.svg"
   inkscape:version="0.92.4 (5da689c313, 2019-01-14)">
  <metadata
     id="metadata8">
    <rdf:RDF>
      <cc:Work
         rdf:about="">
        <dc:format>image/svg+xml</dc:format>
        <dc:type
           rdf:resource="http://purl.org/dc/dcmitype/StillImage" />
        <dc:title></dc:title>
      </cc:Work>
    </rdf:RDF>
  </metadata>
  <defs
     id="defs6" />
  <sodipodi:namedview
     pagecolor="#ffffff"
     bordercolor="#666666"
     borderopacity="1"
     objecttolerance="10"
     gridtolerance="10"
     guidetolerance="10"
     inkscape:pageopacity="0"
     inkscape:pageshadow="2"
     inkscape:window-width="1920"
     inkscape:window-height="1017"
     id="namedview4"
     showgrid="false"
     inkscape:zoom="0.35875"
     inkscape:cx="386.4444"
     inkscape:cy="290.13759"
     inkscape:window-x="-8"
     inkscape:window-y="-8"
     inkscape:window-maximized="1"
     inkscape:current-layer="svg2"
     fit-margin-top="0"
     fit-margin-left="0"
     fit-margin-right="0"
     fit-margin-bottom="0" />
  <path
     id="path821"
     style="fill:none;stroke:#000000;stroke-width:11.02389145;stroke-linecap:round"
     d="m 648.38002,275.46873 c 5.66,-6.11732 8.448,-11.00264 4,-18.66662 -17.4573,17.81729 6.32,25.37327 16.16,38.83857 9.9106,13.56263 14.1213,29.86526 23.2519,43.60123 8.6333,12.9893 22.936,25.8586 26.8413,41.55989 3.228,12.97864 -1.32,21.53061 -5.6507,33.33459 -1.06,2.88799 -4.6853,11.8613 -9.1519,8.32931 -3.552,-2.808 -2.5227,-12.17331 -3.5027,-16.33063 -2.592,-10.99197 -6.0493,-21.66794 -14.6146,-29.33326 -14.352,12.4853 -24.552,-25.29193 -30.6653,-35.99991 -28.7772,-50.40921 -65.4598,-90.72777 -117.3344,-118.0197 C 408.34602,154.72237 263.69432,222.60886 129.71469,177.64631 81.685482,161.52902 36.533462,123.35045 17.805502,75.469226 11.905892,60.386066 3.5064923,38.484786 5.9989523,22.136026 c 0.91502,-6.00185 5.4913297,-17.14196 13.0349497,-16.60489 12.12304,0.86306 19.76702,24.22594 25.74687,32.60485 17.95702,25.16141 39.47203,40.66563 66.267298,54.66653 l -3.99999,5.33332 c 24.17487,20.553954 51.52784,28.702604 81.31314,36.791914 20.2319,5.49465 39.6052,9.99198 61.3092,6.99065 7.7426,-1.07066 13.1519,-11.7253 22.7106,-13.84397 16.1666,-3.58132 27.0692,2.79333 31.9999,19.39462 l -46.6666,-6.66665 m -154.66623,-47.999884 2.66666,5.33332 m 5.33332,-5.33332 c 8.92771,1.53733 16.70102,6.40892 25.33327,8.938254 24.04798,7.04651 49.55858,12.86996 74.66648,13.67076 45.2906,1.4444 92.1451,-7.39518 137.333,-10.4897 54.5599,-3.73626 108.1011,4.36878 161.3329,14.80862 34.5119,6.76799 68.8958,13.57997 99.9998,30.98926 57.2932,32.06925 119.933,88.69178 148.1463,148.74896 11.4146,24.29727 19.9212,50.94121 24.8386,77.33314 2.0426,10.95997 1.28,22.54261 3.472,33.31325 2.0013,9.83198 6.6919,17.33863 7.4239,28.01993 4.5,65.71984 -30.8225,132.50767 -93.2144,157.65827 -95.4424,38.47324 -205.2448,16.26663 -289.3326,-39.9759 -25.7399,-17.21595 -50.1292,-36.2639 -73.3332,-56.72919 -5.9679,-5.26398 -9.5239,-14.96129 -15.3506,-19.21728 -7.8706,-5.74665 -19.9986,-5.63332 -28.6492,-10.42264 -10.24,-5.66932 -17.228,-14.7453 -26.6666,-21.23328 -7.1734,-4.93066 -15.9147,-5.68399 -22.6467,-11.66397 -6.4666,-5.74399 -10.8679,-13.47997 -17.4732,-19.05862 -9.716,-8.20932 -21.8707,-10.96664 -30.5466,-20.69062 3.3386,-3.29866 6.9986,-7.99331 11.9999,-8.50798 13.3613,-1.37599 24.0186,12.93864 37.3333,5.84132 -5.468,-8.42531 -15.7173,-19.63462 -24.12,-25.15594 -4.1719,-2.74265 -14.2386,-4.05198 -15.2293,-9.70264 -2.4133,-13.7813 12.6347,-21.54261 23.3493,-24.5706 25.7373,-7.27198 52.5306,-5.42266 77.3332,4.24932 35.5519,13.86397 68.4065,31.63192 97.333,56.75452 31.084,26.99327 59.9186,62.57985 99.9998,76.36515 15.0693,5.18265 25.4586,-2.59333 38.6666,-8.56798 13.1919,-5.96799 28.0812,-10.58397 42.6665,-10.70531 l -2.6666,9.33331 -8,-7.99998 M 295.04762,126.13577 c 14.3666,1.13333 41.0879,2.11333 53.1065,10.32131 6.0053,4.10132 18.344,22.00794 26.6426,17.22929 6.4853,-3.73466 -2.776,-12.85997 -5.0826,-16.88396 l 19.9999,-3.99999 1.3333,15.99996 32,-2.66666 -12,-15.99996 -20,1.33333 m 57.3332,17.33329 -14.6666,-21.33328 c 13.9413,-4.12132 38.9612,-2.38266 51.9999,3.99999 l -6.1373,21.86261 -16.5293,0.924 -39.9999,-9.45331 m -10.6667,-15.99996 21.3333,-1.33333 m 18.6666,1.33333 8,23.99994 m -203.9995,-17.33329 -2.6666,-2.66666 5.3333,-2.66666 m 10.6666,1.33333 4,6.66665 m 211.9995,-6.66665 c 13.6119,1.04667 9.4653,23.07461 -2.6667,23.99994 m -245.3327,-15.99996 c 3.488,-6.91465 8.9213,-6.66131 16,-6.66665 m -57.3332,1.33333 c 12.5146,0 30.8412,-3.54666 41.3332,3.99999 m 87.9998,-3.99999 15.9999,18.66662 -35.9999,-3.99999 m 189.3329,-14.66663 c 12.5213,0.396 21.3133,8.53731 31.9999,13.77463 5.5227,2.70666 12.484,4.85199 9.3333,11.55864 l -1.3333,-6.66665 m -183.9996,-17.33329 18.6667,1.33333 m 134.6663,2.66666 1.3333,17.33329 -11.9999,-1.33333 m 27.9999,-9.33331 1.3333,13.3333 -15.9999,-1.33333 m -142.6664,-7.99998 -5.3333,5.33332 8,-1.33333 m 12,-2.66666 10.6666,-1.33333 m -46.6665,5.33332 15.9999,1.33333 m 181.3329,-1.33333 c 9.54,2.28533 32.9533,6.17732 39.3506,13.73597 3.0333,3.58399 2.66,9.87197 3.8866,14.26396 4.468,15.99063 7.2933,28.1706 24.684,33.17592 7.5693,2.17866 4.508,-10.79731 2.5293,-14.16397 -6.7133,-11.41597 -13.6666,-25.26127 -26.4506,-31.01192 m -61.3332,-11.99997 c 4.5307,3.70933 9.2093,7.73198 14.6666,3.99999 l -1.3333,-3.99999 m 17.3333,3.99999 c 1.0347,20.25728 13.0053,42.93056 35.9999,43.99989 m -27.9999,-43.99989 15.9999,35.99991 m -41.3332,-33.33325 16,13.3333 m 1.3333,-9.33331 -5.3333,5.33332 m 54.6665,23.99994 2.6667,11.99997 m 6.6666,-9.33331 c 11.7,3.23199 24.5,10.97864 29.0533,22.66661 3.8333,9.83864 2.1533,24.07994 10.9466,30.66659 m -25.3332,-42.66656 c 1.584,5.67865 3.2786,6.16665 7.9999,2.66666 v 0 m -22.6666,2.66666 15.7387,20.01995 13.5946,27.97993 m -13.3333,-43.99989 -2.6667,10.66664 m 20,21.33328 v 6.66665 m 10.6666,1.33333 c 12.6093,1.67733 31.3706,18.23729 30.7573,31.99992 -0.2534,5.69599 -5.1267,12.5853 -8.0907,17.33329 m -23.9999,-39.9999 -4,7.99998 m 18.6666,-6.66665 -1.3333,18.66662 m -12,-14.66663 v 5.33332 m 30.6666,15.99996 c 5.624,8.51998 1.896,17.41729 5.5307,26.3826 4.9906,12.30931 30.4812,24.43328 18.4692,40.2839 m -18.6666,-37.33324 -2.6666,2.66666 m 1.3333,9.33331 c -7.9413,14.8813 5.5507,23.50928 11.6546,35.99991 4.628,9.47198 6.8734,20.44128 12.3453,29.33326 m -439.9989,-45.33322 -5.3333,13.3333 c -13.7759,-15.43863 15.304,-18.21062 18.604,-3.94799 2.8946,12.51464 -19.5786,22.62528 -23.9373,7.94798 l 1.3333,-1.33333 v 2.66666 l -1.3333,1.33333 -1.3333,-1.33333 m 425.3322,-18.66662 -2.6666,17.33329 m -419.999,-14.66663 2.6667,2.66666 -1.3333,1.33333 -2.6667,-2.66666 h 2.6667 m 449.3322,-1.33333 1.3333,13.3333 m -1.3333,-11.99997 -4,3.99999 m -449.3322,-1.33333 -1.3334,11.99997 m 6.6667,-11.99997 4,3.99999 m 445.3322,-2.66666 -4,3.99999 m -443.9989,1.33333 -2.6666,2.66666 m 411.9989,7.99998 c 0.34,16.46129 4.564,25.20527 12.2667,38.71991 3.272,5.74265 3.8226,11.5933 9.0666,15.94662 l 4,-13.3333 M 196.38122,394.1351 c 1.3946,-4.69732 3.072,-6.44532 7.9999,-6.66665 m 41.3333,6.66665 8,6.66665 m 82.6664,-3.99999 c 8.6013,8.23198 16.8133,15.6933 23.948,25.33327 3.0293,4.09466 4.8146,11.40397 8.7986,14.44797 15.116,11.54797 49.8212,-6.45732 49.9199,21.55194 -18.976,0 -37.5666,-1.56133 -54.6666,-10.66664 -3.0119,5.33199 -10.9453,13.63997 -10.0986,19.99995 0.6653,4.99732 5.9053,9.40665 8.7133,13.3333 10.3373,14.45197 32.9266,37.52124 49.3852,18.66662 l -55.9998,-38.66657 m 325.3325,-45.33322 -13.2013,22.66661 -0.364,18.66662 -5.1013,21.33328 c 17.3506,-2.53332 26.1519,-41.90123 18.6666,-55.99986 m 105.3331,-6.66665 c -5.4094,7.43332 -6.2067,16.76129 -9.1494,25.33327 -7.3066,21.28262 -14.9319,45.48122 -32.2039,61.08785 -65.3411,59.03852 -172.4169,46.18522 -249.3127,24.8106 -23.4346,-6.51331 -55.2292,-13.57463 -74.6665,-28.56526 9.14,-10.8013 6.0254,-29.91192 -2.6666,-39.9999 m -51.9999,-21.33328 -2.6667,10.66664 m 334.6659,-9.33331 c -0.636,12.38664 -8.7587,24.09061 -20,29.33326 m -15.9999,10.66664 -14.6667,7.99998 c -3.4733,-7.20931 0.8294,-11.7813 3.3627,-18.66662 4.188,-11.3853 0.9147,-19.51328 13.9706,-25.33327 m -78.6664,9.33331 54.6665,2.66666 c -1.736,11.75731 -27.4533,43.70256 -2.6733,35.71325 2.8853,-0.93067 5.3786,-2.23466 8.0066,-3.71333 m 5.3333,-26.6666 -5.3333,-6.66665 5.3333,-1.33333 m -9.3333,1.33333 h 4 m -285.3326,2.66666 c 16.8066,11.86264 42.2052,21.05195 62.6665,22.66661 m 189.3329,-21.33328 c -2.6774,9.80931 -14.4187,21.21462 -14.892,30.48926 -0.476,9.32531 22.1959,6.68398 26.8919,4.17732 m -70.6665,-30.66659 2.6667,6.66665 2.6667,-6.66665 m 22.6666,1.33333 -5.3334,15.99996 c -8.7693,-3.84932 -10.7066,6.77199 -18.6866,8.44531 -10.1653,2.132 -27.4999,-5.77731 -34.6466,-12.4453 m -199.9995,5.33332 14.5467,-3.47066 13.4533,-8.52931 m 205.3328,1.33333 -10.6666,11.99997 m 27.9999,-7.99998 4,-1.33333 m -235.9994,5.33332 c 7.2373,12.98797 24.1052,39.0119 41.3332,26.6666 m 193.3328,-23.99994 c -6.1826,12.29197 10.3094,11.97731 18.6667,11.99997 m -30.6666,-3.99999 8,1.33333 m -159.9996,10.66664 7.9999,-1.33333 m -62.6665,2.66666 -9.3333,9.33331"
     inkscape:connector-curvature="0" />
</svg>
