<?xml version="1.0" encoding="UTF-8" standalone="no"?>
<!-- Generator: Adobe Illustrator 13.0.1, SVG Export Plug-In . SVG Version: 6.00 Build 14948)  -->

<svg
   xmlns:dc="http://purl.org/dc/elements/1.1/"
   xmlns:cc="http://creativecommons.org/ns#"
   xmlns:rdf="http://www.w3.org/1999/02/22-rdf-syntax-ns#"
   xmlns:svg="http://www.w3.org/2000/svg"
   xmlns="http://www.w3.org/2000/svg"
   xmlns:sodipodi="http://sodipodi.sourceforge.net/DTD/sodipodi-0.dtd"
   xmlns:inkscape="http://www.inkscape.org/namespaces/inkscape"
   id="svg1923"
   enable-background="new 156.777 8.182 375.086 302.873"
   inkscape:version="0.92.4 (5da689c313, 2019-01-14)"
   xml:space="preserve"
   viewBox="156.777 8.182 398.79163 321.23183"
   sodipodi:version="0.32"
   version="1.0"
   y="0px"
   x="0px"
   sodipodi:docname="macaw.svg"
   width="398.79163"
   height="321.23181"><defs
   id="defs30">
		
		
		
		
		
		
		
		
		
		
		
		
		
	
	
		
		
	
	
	
	
	
	
</defs>
<sodipodi:namedview
   id="base"
   bordercolor="#666666"
   inkscape:window-x="-8"
   guidetolerance="10.0"
   pagecolor="#ffffff"
   gridtolerance="10.0"
   inkscape:window-width="1920"
   inkscape:zoom="2.0899939"
   objecttolerance="10.0"
   borderopacity="1.0"
   inkscape:current-layer="svg1923"
   inkscape:cx="74.141489"
   inkscape:cy="121.17753"
   inkscape:pageshadow="2"
   inkscape:window-y="-8"
   inkscape:window-height="1017"
   inkscape:pageopacity="0.0"
   showguides="true"
   showgrid="false"
   inkscape:window-maximized="1"
   fit-margin-top="0"
   fit-margin-left="0"
   fit-margin-right="0"
   fit-margin-bottom="0">
	</sodipodi:namedview>
<g
   id="g860"
   transform="rotate(-49.402426,424.73448,204.77581)"><path
     id="path2833"
     d="m 520.3467,43.016149 c 3.41397,-4.420785 5.64056,-9.216395 8.44021,-9.405467 2.801,-0.188242 3.10749,4.984682 2.60953,11.097987 -0.49998,6.113305 -4.48904,17.023049 -8.59447,20.315212 -4.10475,3.291332 -8.86239,5.737649 -10.43474,5.454872 -1.57302,-0.281949 2.69749,-1.767983 3.22251,-6.959979 0.43638,-4.330396 -0.9587,-6.442521 0,-11.662713 0.95396,-5.218533 1.3396,-4.419127 4.75628,-8.839912 z"
     sodipodi:nodetypes="csssssss"
     inkscape:connector-curvature="0"
     style="fill:#ffed39;fill-opacity:0;stroke:#000000;stroke-width:0.41077042" /><path
     id="path1932"
     d="m 179.48464,74.854758 c 27.33749,-6.391936 49.04862,-14.085811 87.46697,-19.718974 39.50425,-5.79321 34.2561,-7.775141 67.07245,-20.497648 34.25541,-13.280599 56.94283,-19.112785 62.49883,-21.665247 30.03632,-13.79474026 36.19785,9.609465 96.80363,-2.9927995 15.27019,-3.1760658 33.81227,8.0836265 37.10243,18.1118675 2.24215,6.834761 -19.19159,32.359384 -35.91031,34.931748 -16.86418,2.595584 -21.2443,-8.052114 -27.30637,-2.629583 -6.06206,5.422531 10.74935,8.450989 25.06557,49.272968 13.26348,37.82338 -0.7882,31.8552 9.03153,65.24535 9.27172,31.53344 8.53832,76.18163 14.56317,104.37066 2.05204,9.60283 -2.11225,4.48547 -6.51063,-2.08144 -4.39771,-6.56525 -9.02815,-14.58088 -7.9091,-10.77209 3.67648,12.50939 -15.30469,4.65049 -14.0801,-2.65446 1.25165,-7.47578 -10.15938,-4.80722 -15.73026,-4.40586 -5.57155,0.4022 -11.31631,48.21235 -16.06853,47.81099 -4.75088,-0.40219 -3.31317,-29.78619 -2.44174,-43.32966 0.45397,-7.07774 -14.42448,-10.49346 -17.53738,-18.52733 -3.11425,-8.03304 -1.08589,7.18719 -7.34822,-5.93667 -2.99721,-6.28165 -4.26578,-21.52594 -7.05121,-27.75285 -2.78544,-6.22525 -11.8278,-12.69016 -14.12205,-17.30914 -2.29357,-4.61898 -11.33661,-14.4283 -12.15593,-18.64508 -0.81933,-4.21762 -1.11093,-0.816 -2.42212,-3.62802 -1.31052,-2.81119 2.78543,-5.42253 0.65559,-8.83576 -2.12984,-3.41407 -3.2773,-10.04151 -5.24274,-12.85353 -1.96611,-2.81202 -7.37326,-7.431 -9.83124,-10.4437 -2.4573,-3.01187 -8.35699,-7.431 -9.83056,-11.24643 -1.47492,-3.81625 -3.27798,-12.85353 -4.58917,-15.26336 -1.30984,-2.40983 -4.09596,-10.04151 -5.89834,-13.657079 -1.80306,-3.614745 -5.73461,-10.443701 -7.20953,-13.656254 -1.47492,-3.213382 -2.94917,-7.83319 -1.96611,-11.246424 0.98305,-3.414063 -3.76917,-1.606277 -2.62171,-5.623212 1.14678,-4.016935 9.64112,-8.610207 4.72584,-8.008164 -4.91528,0.602872 9.59444,13.679473 -12.52669,19.302685 -22.11978,5.623212 -49.87607,-2.056565 -73.46874,0.754627 -23.59403,2.81202 -12.61668,0.602872 -32.77034,1.607106 -20.15367,1.004233 -29.98559,2.209148 -47.84501,2.409829 -17.86009,0.200681 -22.44791,1.004234 -23.59537,-1.607106 -1.14273,-2.612169 -12.82304,-1.393986 19.01094,-8.837424 z"
     sodipodi:nodetypes="cssssssssssssssssssssssssssssssssssssss"
     inkscape:connector-curvature="0"
     style="fill:#c5283c;fill-opacity:0;stroke:#000000;stroke-width:0.41077042" /><path
     id="path2863"
     d="m 337.42247,51.715916 c -12.52331,1.817738 -144.98219,30.49189 -154.86687,37.155824 -9.88605,6.663933 103.46108,-11.913979 115.32812,-10.500091 11.86162,1.413889 22.41747,11.399008 36.90351,5.653895 16.80532,-6.663933 21.74699,-19.385611 22.40664,-22.616408 0.65898,-3.230797 -26.69001,12.116318 -31.63235,9.69322 -4.94573,-2.423927 24.37682,-21.203349 11.86027,-19.38644 z"
     sodipodi:nodetypes="cssssss"
     inkscape:connector-curvature="0"
     style="fill:#062e65;fill-opacity:0;stroke:#000000;stroke-width:0.41077042" /><path
     id="path2845"
     d="m 409.9846,136.34605 c -18.66386,12.54255 -29.53972,19.40468 -25.74349,22.7184 3.79691,3.31373 39.3872,-11.3592 40.93181,-9.466 1.54461,1.8932 -36.04021,15.46072 -34.75269,17.03798 1.28683,1.57808 37.84259,-12.46295 39.90071,-10.72731 2.05948,1.73564 -22.91136,9.86073 -31.6628,17.66904 -8.75278,7.80914 -5.40647,8.51899 -3.34699,13.56752 2.05948,5.04937 9.71825,1.49931 11.58491,6.62579 1.86598,5.12814 -7.20818,10.57141 -4.11896,13.88347 3.08854,3.31207 13.38594,-3.70762 16.47516,-0.63106 3.08922,3.07655 -3.98974,5.67877 -4.11829,12.93728 -0.12922,7.25685 0.5142,12.62051 3.60409,16.09262 3.08922,3.47045 6.04989,-4.57586 8.75211,-2.20915 2.7029,2.36671 -1.22188,10.25463 2.05948,11.67432 3.28204,1.42053 9.07551,-15.22438 11.06936,-5.99389 1.99589,9.22884 -6.17776,38.33586 -3.08786,42.91089 3.08786,4.57586 10.61809,-26.42437 15.44541,-24.61078 4.82598,1.81359 -5.85774,54.50726 3.86119,31.86846 9.71757,-22.63962 28.8963,-90.00788 35.01047,-122.42365 6.11348,-32.42075 -7.27313,-5.36365 -11.84201,-13.25157 -4.56955,-7.88876 -0.83759,-5.52205 -6.43553,-18.30094 -5.59929,-12.7789 1.22188,-26.97749 -14.6748,-26.81993 -15.89263,0.15507 -30.24268,14.90678 -48.90925,27.44851 z"
     sodipodi:nodetypes="cssssssssssssssssssssss"
     inkscape:connector-curvature="0"
     style="fill:#06146d;fill-opacity:0;stroke:#000000;stroke-width:0.41077042" /><path
     id="path2835"
     d="m 359.3907,49.165112 c -27.79824,-6.26423 -17.82627,5.799845 -24.4323,14.056787 -6.35705,7.94514 17.0773,7.486559 16.95281,10.388969 -0.12516,2.90241 -9.84747,5.958233 -9.97196,9.16664 -0.12517,3.208407 8.72505,0.458581 9.47333,3.666988 0.74829,3.209236 -8.35225,6.111646 -6.48221,9.167469 1.86936,3.055823 12.71478,-0.611165 13.96102,3.055823 1.24692,3.666992 -11.34338,7.945142 -8.9747,11.612132 2.36799,3.66781 16.33037,0.15258 18.44803,3.05582 2.11902,2.90241 -11.46786,5.3479 -9.97196,8.5563 1.49522,3.20841 14.45965,0.61117 15.95487,4.27816 1.4959,3.66698 -10.96855,6.72281 -9.97197,10.38979 0.99727,3.66699 11.59168,1.68091 13.96103,4.27816 2.36799,2.59724 -7.35432,3.8204 -4.48702,6.11164 2.86731,2.29208 13.46172,-0.30599 15.95623,3.05583 2.49248,3.36099 -6.73119,7.02797 -5.98426,10.38979 0.74829,3.361 7.72981,0 8.97538,3.05583 1.24624,3.05582 -4.73735,6.11164 -3.98906,9.16664 0.74829,3.05665 5.8591,-1.68091 6.98017,3.05665 1.12176,4.73507 -4.73666,10.84672 -2.49248,15.88945 2.24283,5.04107 8.72572,-0.306 11.46786,4.27732 2.74214,4.58415 -6.48154,9.77864 -0.49931,14.05679 5.98359,3.05582 13.14576,-0.76789 15.74784,-0.33585 2.85378,0.47434 -9.56061,1.48769 -3.28204,24.78244 1.87004,6.11164 6.60671,-2.59808 9.47334,0.61116 2.8673,3.20841 -3.65551,13.85362 0.49931,17.72377 3.86659,3.60231 10.97261,-19.06137 10.9699,-8.5563 -0.003,10.18912 -1.79494,32.39504 -0.27469,37.61689 2.88016,1.89154 10.24598,-3.69767 15.2323,-21.72661 5.13855,-18.57708 -6.9592,37.56216 3.2976,47.05885 4.73667,-0.76458 13.40624,-43.84961 17.64427,-50.11384 4.23736,-6.26506 -3.7394,11.76388 -2.49316,25.05609 1.24624,13.2922 3.61492,27.96098 7.47948,28.11274 7.35432,-1.68091 4.61218,-15.1257 6.98018,-28.11274 2.36799,-12.98622 2.24418,-25.05609 2.49316,-23.83542 0.24897,1.22315 -1.74623,17.72377 1.99385,30.55823 3.7394,12.83362 9.47333,26.27925 12.96376,20.77876 3.49042,-5.49965 -0.99727,-5.49965 0,-36.66904 0.99794,-31.77973 13.96169,28.11191 14.95896,15.88945 0.99726,-12.22247 -6.98153,-44.15561 -9.97264,-68.44878 -2.99112,-24.29317 -0.24898,-21.6951 -2.99112,-34.83556 -2.74349,-13.13962 -5.83677,-6.12242 -7.45783,-20.63779 -1.62039,-14.51371 1.52161,-17.13085 -0.22462,-28.58957 -1.74488,-11.45954 -3.46742,-14.64887 -10.44827,-16.02379 -6.9822,-1.36994 -10.91308,8.11431 -14.77629,5.36449 -3.86457,-2.75066 1.87004,-14.20937 0,-18.33494 -1.87004,-4.12557 -4.3632,0.91633 -8.97538,-1.8335 -4.6115,-2.74982 16.45486,4.88932 -9.47333,-9.166637 C 427.70262,82.173807 387.1896,55.436806 359.38934,49.172576 Z"
     sodipodi:nodetypes="czzczczczczczczczczczczczzzczczzczzzczzzzzzzzzzzz"
     inkscape:connector-curvature="0"
     style="fill:#062e6d;fill-opacity:0;stroke:#000000;stroke-width:0.41077042" /><path
     id="path2821"
     d="M 253.55823,58.107023 195.9395,70.283047 c 0,0 -36.52801,6.707885 -38.7431,12.176025 -2.88016,7.110075 38.7431,2.435537 38.7431,2.435537 l 59.60514,-3.652891 60.10242,-7.30578 -62.09221,-15.828915 z"
     sodipodi:nodetypes="ccscccc"
     inkscape:connector-curvature="0"
     style="fill:#d74829;fill-opacity:0;stroke:#000000;stroke-width:0.41077042" /><path
     id="path2839"
     d="m 356.48145,52.200204 c -2.97962,3.331967 -9.16618,10.816038 -10.87316,13.83952 -1.94446,3.443917 8.34955,-2.455439 7.73658,-1.281207 -0.62515,1.198281 -11.60521,6.79164 -11.08154,8.713035 0.52231,1.922225 13.17281,-2.563243 13.17281,-1.024965 0,1.537448 -16.2052,3.267284 -12.54563,4.356932 3.65889,1.089647 13.06862,1.408913 27.18255,0 14.1146,-1.409742 24.04597,1.473595 29.27315,-5.638139 5.22786,-7.112563 2.09128,-18.196452 -8.36443,-22.809625 -10.45436,-4.613174 -24.8308,3.395819 -33.45436,4.356932 -8.6398,0.961941 1.92146,-3.843621 -1.05545,-0.512483 z"
     sodipodi:nodetypes="cssssssssss"
     inkscape:connector-curvature="0"
     style="fill:#062e6d;fill-opacity:0;stroke:#000000;stroke-width:0.41077042" /><path
     id="path2837"
     d="m 391.18949,74.950952 c -23.98644,1.504278 -28.30837,0.03483 -39.77691,0.49341 -11.46854,0.45858 -14.51919,9.49088 -4.63247,10.566431 32.09648,3.469623 57.65594,-5.472287 56.48818,-2.069833 -2.06624,6.019598 -57.51048,-2.844362 -57.26083,10.665112 0.0656,3.526014 26.84563,4.366884 45.29366,4.672051 18.44939,0.305997 29.54378,-5.806478 28.91998,-5.499652 -0.62312,0.305168 -17.45144,4.119764 -31.41314,5.953258 -13.96102,1.834321 -19.59888,-2.302026 -25.26786,0.09868 -8.78391,3.718401 -16.70857,8.033871 -13.09298,10.784531 3.61491,2.75065 14.00906,2.52343 27.97075,2.52343 13.9617,0 15.85542,-0.0398 32.68375,-4.31712 16.82832,-4.27815 37.95287,-6.93427 35.88595,-15.101657 C 442.38013,75.51319 411.3188,73.688818 391.19084,74.950952 Z"
     sodipodi:nodetypes="csssssssssssss"
     inkscape:connector-curvature="0"
     style="fill:#06146d;fill-opacity:0;stroke:#000000;stroke-width:0.41077042" /><path
     id="path2843"
     d="m 434.48997,134.28533 c -21.73143,12.53759 -26.17311,8.17734 -40.81477,15.134 -10.69792,5.08502 -9.04371,12.30871 -0.12854,12.05329 12.6478,-0.35326 26.29963,-4.6621 36.21814,-8.90542 9.91919,-4.24332 10.93337,-9.40298 8.80556,-6.46242 -6.72781,9.30015 -49.47283,11.48359 -47.19685,24.70531 1.02433,5.95077 29.40509,-4.36357 47.15287,-10.54819 15.42106,-5.37277 23.4073,-13.4622 22.73952,-13.3743 -3.60747,0.47019 -11.82306,8.85069 -25.08519,14.50707 -13.26144,5.65639 -17.92301,7.21125 -23.91607,7.51642 -4.4728,0.22887 -22.75778,4.10815 -16.63821,10.39809 3.25972,3.35104 19.30796,1.89403 32.90634,-1.97613 13.60041,-3.87016 11.54634,-6.5553 27.26239,-15.08424 22.55481,-12.24071 19.46897,-42.68533 14.65247,-49.43302 -10.24327,-14.342878 -16.49477,10.24219 -35.95969,21.47369 z"
     sodipodi:nodetypes="cssssssssssssss"
     inkscape:connector-curvature="0"
     style="fill:#06146d;fill-opacity:0;stroke:#000000;stroke-width:0.41077042" /><path
     id="path2841"
     d="m 411.87223,107.91404 c -23.00879,8.44352 -29.47206,5.33877 -40.87498,6.90607 -11.40291,1.56731 -10.72566,7.53549 -3.93696,8.42031 32.04101,4.17284 57.12416,-11.03828 56.17899,-7.533 -1.6718,6.20121 -58.298,1.91808 -57.6485,15.40765 0.29161,6.07184 28.4085,3.92572 46.70769,1.04072 15.9021,-2.50685 29.07627,-8.64835 28.4748,-8.28347 -0.60079,0.36487 -17.13075,5.79735 -30.93007,8.97674 -13.79932,3.17938 -19.68616,-0.39722 -25.18397,2.54499 -8.51531,4.55679 -13.41841,10.13854 -9.63841,12.53012 3.78202,2.39242 11.41035,0.64683 25.32875,-0.70487 13.91772,-1.35169 12.28583,-4.06088 28.78534,-9.95526 16.50019,-5.89438 39.02321,-22.70846 36.43465,-30.65028 -5.77791,-17.703874 -33.09104,-6.2634 -53.69936,1.30028 z"
     sodipodi:nodetypes="csssssssssssss"
     inkscape:connector-curvature="0"
     style="fill:#06146d;fill-opacity:0;stroke:#000000;stroke-width:0.41077042" /><path
     id="path2825"
     d="m 381.21008,21.578949 c 15.52119,-11.568177 21.60694,-9.436979 31.29271,-9.741317 9.68578,-0.304339 9.31299,6.087598 7.45039,8.523134 -1.86259,2.436366 -15.64703,1.218183 -18.37767,3.65289 -2.73199,2.435537 11.05245,3.195969 7.45039,6.088427 -3.60138,2.89163 -18.00623,2.739046 -21.85524,5.478921 -3.84901,2.739875 5.46398,2.739875 6.45718,5.478921 0.99389,2.739875 -5.9599,5.47975 -2.48368,5.47975 3.47757,0 9.56196,-4.565905 16.39193,-5.47975 6.8293,-0.913015 11.30008,-0.913015 10.92729,1.82686 -0.37279,2.739875 -14.4035,6.848858 -12.41777,9.131811 1.98709,2.282953 17.63344,-3.044214 20.36543,0 2.73199,3.044213 -10.30686,9.284395 -9.43815,12.176854 0.86939,2.891629 9.18918,-3.349381 12.91437,-0.609506 3.72587,2.739875 -0.7449,8.371379 1.98709,11.567347 2.73131,3.196798 6.82997,-1.217353 8.94155,1.218183 2.11022,2.434708 -2.23539,6.392766 -0.49728,8.523964 1.7381,2.130369 5.7116,-1.82686 7.45039,0 1.7381,1.82603 -2.9803,6.696274 -0.49593,7.30578 2.48369,0.608677 8.44359,-6.392765 10.43068,-4.871073 1.98709,1.521692 2.11157,7.001442 -2.48369,10.958671 -4.59459,3.957224 -12.17014,5.174584 -15.89533,4.870244 -3.72452,-0.30434 5.96193,-5.022828 0.99388,-6.088427 -4.9667,-1.065599 -18.50284,3.348557 -22.84913,1.826031 -4.34493,-1.521692 8.56809,-5.631505 5.46398,-7.914458 -3.1041,-2.282952 -17.63344,-0.152584 -17.88106,-4.261567 -0.24831,-4.108983 19.87762,-13.052552 16.88854,-12.176024 -5.71228,1.673446 -15.02527,7.30578 -24.33961,6.087597 -9.31299,-1.217353 -11.92116,-6.697104 -12.91437,-10.958671 -0.99253,-4.261567 5.34017,-3.805474 9.43815,-7.30578 4.09799,-3.501136 10.30687,-6.849688 6.95379,-6.697104 -3.3524,0.151755 -18.99876,8.674889 -23.84233,8.523134 -4.84221,-0.152584 8.44427,-6.088427 4.47078,-9.13264 -3.97282,-3.044214 -16.76338,4.108983 -16.88787,-4.261567 -0.14884,-8.368892 4.97956,-20.733159 16.36623,-29.220635 z"
     sodipodi:nodetypes="cssssssssssssssssssssssssssssssssss"
     inkscape:connector-curvature="0"
     style="fill:#f0db44;fill-opacity:0;stroke:#000000;stroke-width:0.41077042" /><path
     id="path2823"
     d="m 388.16522,19.752089 c 19.25856,-2.430561 20.48857,4.870244 5.4633,16.437592 -15.02662,11.568177 -42.71863,23.135525 -42.71863,23.135525 0,0 -23.51351,12.747385 -34.76961,15.220238 -52.65068,11.566518 -11.01523,-14.718536 -16.39194,-12.784702 -51.65747,18.56879 -5.58982,-9.36815 -12.91436,-6.087597 -0.9993,0.06966 -9.7575,7.066953 -19.86816,9.740488 -6.32863,1.673446 -25.04188,-3.758207 -14.89672,-6.088427 17.69772,-4.065033 70.53243,-17.047098 70.53243,-17.047098 0,0 19.74907,-16.74193 65.56639,-22.526019 z"
     sodipodi:nodetypes="cscssssscs"
     inkscape:connector-curvature="0"
     style="fill:#3a97d6;fill-opacity:0;stroke:#000000;stroke-width:0.41077042" /><path
     id="path2827"
     d="m 497.4448,30.102083 c 2.85648,-5.022827 6.45042,-2.040808 12.53549,-2.802069 6.08372,-0.760432 9.26766,-3.870157 11.8048,-0.242973 0.22394,0.321753 1.30375,2.749826 0.60417,5.667163 -1.29022,5.38936 -4.63112,13.857763 -7.98352,17.966747 -3.35376,4.108983 -8.26836,9.84995 -13.98064,10.458627 -5.71229,0.608677 -7.3435,-0.300192 -7.947,-4.261567 -0.77467,-5.085852 3.45525,-5.811454 4.69743,-12.507729 1.23812,-6.695445 -2.5845,-9.255371 0.27063,-14.278199 z"
     sodipodi:nodetypes="cssssssss"
     inkscape:connector-curvature="0"
     style="fill:#fffffe;fill-opacity:0.99179999;stroke:#000000;stroke-width:0.41077042" /><path
     id="path2829"
     d="m 517.8028,41.669431 c 2.29695,-4.356932 2.63591,16.554518 -2.34567,18.021478 -3.70287,1.090477 -10.3319,0.983503 -14.84868,1.415547 -4.09325,0.39307 8.68715,-3.281382 17.19841,-19.437025 z"
     sodipodi:nodetypes="csss"
     inkscape:connector-curvature="0"
     style="fill:#020003;fill-opacity:0.99179999;stroke:#000000;stroke-width:0.41077042" /><path
     id="path2831"
     d="m 508.37141,34.740135 c 0.38497,-1.317695 3.29963,-2.63373 3.83683,-1.881591 0.5372,0.752138 -1.07439,3.385868 -1.99588,3.949765 -0.91337,0.564726 -2.21915,-0.752139 -1.84027,-2.068174 z"
     sodipodi:nodetypes="csss"
     inkscape:connector-curvature="0"
     style="fill:#020003;fill-opacity:0.99179999;stroke:#000000;stroke-width:0.41077042" /><path
     id="path2849"
     d="m 384.89739,50.971241 c 10.76152,3.028457 5.60944,-1.604619 13.69513,5.538627 8.08568,7.144075 29.07627,0.9636 21.02373,0.136828 -8.05253,-0.825943 -1.48507,11.018378 -11.45162,7.798361 -9.96656,-3.218358 -3.36391,5.427507 -2.93835,6.804078 0.42489,1.377401 3.1244,-2.646168 10.75205,0.786139 7.6263,3.433136 5.68252,9.503319 -2.98096,8.407038 -8.66348,-1.096282 -4.9092,0.563896 -4.23939,2.881678 0.6698,2.317782 -0.75641,3.708451 6.91725,6.389448 7.67433,2.680998 15.89398,5.851259 20.09684,4.20269 5.96464,-2.340172 10.60252,6.698762 0.89172,7.219542 -9.71014,0.5216 -22.00544,-1.765499 -30.56135,-1.387356 -8.5559,0.378146 -4.3747,1.514226 -3.66092,2.899926 0.71446,1.38652 -2.05204,2.12456 6.5174,2.64451 8.56741,0.51911 19.61985,-1.25136 27.75696,-0.56556 8.13643,0.68497 5.05533,1.70081 4.79012,3.30792 -0.2659,1.6071 2.23335,0.39307 -5.85572,3.11885 -8.08771,2.72494 -29.91386,5.37941 -29.15949,7.55621 0.7537,2.17681 31.40841,-2.103 32.17767,1.15102 0.76926,3.25484 -26.03644,9.59205 -26.43426,12.09144 -0.39783,2.50021 24.02297,-4.77405 24.84229,-2.09306 0.82001,2.681 -21.99123,11.26135 -21.56364,12.8187 0.42692,1.55653 25.00874,-12.60226 23.27334,-6.59178 -1.73608,6.01047 -25.39574,27.95021 -30.21562,30.63535 -4.82056,2.68348 4.39297,-12.20837 8.06268,-18.55303 2.3795,-4.11562 -26.47756,14.35863 -25.40791,11.11871 11.03013,-33.352 27.12776,-22.19017 21.85863,-24.58009 -5.26981,-2.38993 -32.23586,10.66262 -30.65742,8.08362 20.65568,-33.73346 22.04468,-15.63818 26.65957,-20.55486 4.61353,-4.91586 0.52095,-6.87042 -6.77721,-4.66127 -10.85691,3.28387 -27.72854,5.96155 -26.44847,3.04753 8.06471,-18.37309 24.2415,-11.69423 25.21373,-16.43677 0.97223,-4.742534 -29.68924,4.76244 -27.53301,1.33511 8.36985,-13.302986 28.53231,-12.249826 32.85221,-17.533042 4.32057,-5.284044 -38.33378,2.628755 -36.36632,-0.771211 5.67237,-9.799366 17.74779,-6.716177 18.46563,-9.13347 0.71716,-2.418122 -31.61138,1.652715 -29.84892,-1.675934 8.95373,-16.91027 17.07595,-9.623563 19.93717,-13.769033 2.86121,-4.145471 -23.71513,6.526276 -24.01688,4.10069 -2.08384,-16.815734 20.56096,-18.52401 30.33739,-15.772525 z"
     sodipodi:nodetypes="csssssssssssssssssssssssssssssssssssssss"
     inkscape:connector-curvature="0"
     style="fill:#062e40;fill-opacity:0;stroke:#000000;stroke-width:0.31481913" /><path
     id="path2847"
     d="m 415.41069,197.13993 c 9.25616,-11.13697 22.41883,-26.64579 33.62891,-34.13981 11.21009,-7.49402 16.47448,-7.07773 11.21009,4.16371 -5.26574,11.24062 -23.69348,28.20728 -32.27036,40.80126 -8.57755,12.59397 -3.56687,9.36732 -2.0385,9.57546 1.52837,0.20814 0.67995,0.3118 8.15267,-8.74372 7.47339,-9.05469 13.92651,-19.15093 21.74022,-27.47753 7.81235,-8.32743 7.81235,-7.2867 9.51054,-5.82969 1.69955,1.45783 3.90652,-1.24887 -2.7171,11.65773 -6.62497,12.90578 -17.91896,27.99914 -23.77805,39.96868 -5.8591,11.97036 -2.20833,7.49485 0.33963,7.91031 2.54661,0.41629 3.05675,3.33113 9.85086,-6.24516 6.79412,-9.57547 11.37923,-22.58655 17.32358,-32.0567 5.94502,-9.47347 5.1805,-7.91114 6.4538,-5.8297 1.2733,2.08144 3.56755,-0.3118 -1.35855,14.15547 -4.92611,14.46727 -13.92787,31.01764 -18.34249,43.7161 -4.41597,12.69762 -1.01824,7.28587 0.67995,7.07773 1.69819,-0.20814 0.84842,4.26737 6.11416,-7.91031 5.2644,-12.17768 9.76562,-29.35166 14.94544,-40.80125 5.18049,-11.44877 4.41597,-6.34882 5.7752,-4.99546 1.35855,1.35335 1.61362,-3.01851 -0.34099,10.40887 -1.95191,13.42655 -11.63295,46.83826 -9.17091,47.04558 2.46271,0.20814 15.54081,-47.04558 19.02244,-46.21383 3.48163,0.8334 -5.52081,43.71527 -3.39638,45.79837 2.12172,2.08144 8.91584,-37.88723 11.88869,-37.47095 2.97285,0.41629 -1.69955,38.8243 0,39.1361 1.69819,0.3118 2.12307,-44.0279 6.79276,-37.8864 4.66969,6.14067 12.05851,53.81151 11.88937,62.45074 -0.16982,8.63923 -9.00177,-13.74001 -12.90828,-22.89919 -2.53443,-5.94081 -1.29564,47.22304 -3.73602,43.71527 -25.13661,-36.11759 -5.69063,-52.8761 -10.87045,-46.63094 -5.1805,6.24515 -7.9727,53.39605 -9.5119,49.54496 -20.12593,-50.37754 -2.37679,-41.53017 -4.41597,-51.21012 -2.03783,-9.67995 -6.15341,-4.88849 -8.15132,7.07774 -2.97285,17.7984 -9.86845,44.00136 -11.88869,40.38579 -12.73846,-22.79387 2.54797,-42.36275 -1.35923,-46.63012 -3.90516,-4.2682 -13.61258,28.51825 -15.6247,23.31464 -7.81303,-20.19248 5.94434,-31.33027 3.39638,-40.80125 -2.54796,-9.47098 -12.51384,15.32058 -14.6058,10.40887 -6.02959,-14.15546 8.66145,-27.89464 6.79344,-30.3932 -1.86868,-2.49773 -13.82503,18.3084 -15.96502,13.73918 -10.86977,-23.21099 4.67036,-19.98351 2.37815,-26.64496 -2.29358,-6.66144 -11.2013,3.01353 -12.22901,0 -2.36799,-6.99895 -2.45595,-0.12439 6.79953,-11.26135 z"
     sodipodi:nodetypes="csssssssssssssssssssssssssssssssssssssssssss"
     inkscape:connector-curvature="0"
     style="fill:#062e40;fill-opacity:0;stroke:#000000;stroke-width:0.41077042" /><path
     id="path2851"
     d="m 280.80709,53.950772 c -17.29178,4.462248 -34.78855,7.532168 -23.52501,10.1858 1.84094,0.433703 24.80914,-8.867277 31.54372,-9.314248 6.73525,-0.446142 -9.80079,5.387702 -3.97553,6.503057 5.82459,1.115355 20.38709,-5.355361 23.29904,-1.785397 2.91264,3.569964 -25.45324,14.776584 -11.64918,16.064425 14.12949,1.318523 8.64183,-1.402279 35.67757,-11.078914 12.16608,-4.353615 47.78343,-18.135916 65.5055,-35.318183 13.2716,-12.866798 -11.0247,-6.676372 -21.81802,4.451468 -4.75426,4.901755 10.34678,-10.976086 5.4315,-10.976086 -4.91528,0 -20.18682,9.971022 -22.37079,13.540987 -2.18397,3.569964 0.19215,-10.820185 -7.08842,-7.919433 -7.28125,2.900751 -8.0451,7.531339 -26.43021,14.391807 -18.11854,6.762615 -27.30636,6.793298 -44.59949,11.254717 z"
     sodipodi:nodetypes="csssssssssssss"
     inkscape:connector-curvature="0"
     style="fill:none;stroke:#fcfdfc;stroke-width:0.41077042" /><path
     id="path2853"
     d="m 375.22243,95.781963 c -8.78187,3.592355 -20.38437,2.991141 -20.05082,-4.226738 0.23409,-5.067608 9.78049,1.62535 13.12342,-7.319049 1.30443,-3.490355 -10.40835,1.947103 -12.05106,-1.025794 -3.65348,-6.617495 13.68024,-8.126748 10.63906,-11.360033 -3.04118,-3.233285 -18.91351,6.276669 -17.86212,-1.574765 1.07777,-8.037188 1.43297,-1.695007 15.56652,-11.23979 6.35976,-4.294737 18.23491,-14.210199 38.22688,-15.283262 14.97047,-0.803553 2.27531,6.807396 -10.55652,7.143246 -5.65274,0.147608 15.07939,1.123647 13.54425,7.596021 -0.63056,2.659437 -0.56425,5.78243 -4.88009,7.560364 -10.10119,4.160397 -4.57159,-1.549058 -14.45966,4.80722 -9.74937,6.26423 58.59773,-3.652061 -11.24459,24.92258 z"
     sodipodi:nodetypes="cssssssssssss"
     inkscape:connector-curvature="0"
     style="fill:none;stroke:#fcfdfc;stroke-width:0.31796506" /><path
     id="path2855"
     d="m 399.86311,152.94037 c -7.33131,6.93012 -12.61261,10.30521 -13.3406,3.13211 -0.11908,-1.17257 12.25268,-4.43488 13.82976,-7.75275 1.57641,-3.31704 -6.98491,2.56076 -7.10736,-1.02579 -0.12179,-3.58655 8.73654,-8.12592 5.69536,-11.35921 -3.04118,-3.23411 -26.68392,1.94793 -25.63118,-5.9035 1.07778,-8.03719 12.6133,3.9622 24.74826,-9.07542 8.83127,-9.49005 17.52857,-14.2102 37.52054,-15.28326 14.96979,-0.80356 6.51334,8.97176 -6.31849,9.30678 -5.65274,0.14761 25.38694,-3.17026 24.49116,-0.62775 -3.65348,10.36741 -51.39429,8.25114 -39.7742,11.74398 7.13511,2.14364 40.05159,-10.51004 23.23951,1.87579 -3.90111,2.87421 -8.80962,0.61531 -18.69837,6.97242 -9.74261,6.25925 -11.32578,11.06067 -18.65303,17.99494 z"
     sodipodi:nodetypes="csssssssssssss"
     inkscape:connector-curvature="0"
     style="fill:none;stroke:#fcfdfc;stroke-width:0.31796506" /><path
     id="path2857"
     d="m 454.8006,127.79637 c 6.93484,-10.78369 12.59638,-22.76982 13.28445,-11.60881 0.11299,1.82355 -12.25471,13.63553 -13.74723,18.79684 -1.49116,5.16131 6.60536,-3.98459 6.72037,1.59633 0.11637,5.58092 -8.26159,12.64372 -5.38482,17.67484 2.8761,5.03195 17.88648,-9.76536 16.89193,2.45047 -1.01824,12.50607 -2.69072,6.00467 -16.05772,20.85589 -6.0147,6.68217 -24.59196,25.47818 -43.49939,27.14748 -14.15723,1.25052 -4.48972,-13.95976 7.64592,-14.4822 5.34626,-0.23053 -11.92252,0.272 -11.13973,-3.73664 0.78483,-4.00864 12.55105,-9.04557 16.24039,-8.1707 3.68934,0.87487 -10.15734,-7.89456 -6.28195,-11.67432 3.87539,-3.7806 8.33128,-0.9578 17.68351,-10.84838 9.21488,-9.75044 10.70334,-17.22124 17.63818,-28.00494 z"
     sodipodi:nodetypes="csssssssssssss"
     inkscape:connector-curvature="0"
     style="fill:none;stroke:#fcfdfc;stroke-width:0.38575268" /><path
     id="path2859"
     d="m 446.47879,216.21291 c -5.65545,8.98586 -20.76867,25.8472 -14.91634,26.73948 0.95599,0.14512 18.80391,-21.511 21.50951,-23.44318 2.70696,-1.933 -12.6823,43.62157 -9.75681,43.77083 2.92684,0.14927 17.22344,-45.76934 19.86206,-42.04099 2.63795,3.72835 -5.12028,23.18196 1.28548,21.89246 6.55732,-1.32018 3.14876,-3.48703 10.9354,-20.81028 3.50396,-7.79587 13.35956,-31.8726 14.23504,-56.37641 0.65559,-18.34903 -7.32049,-5.82057 -7.5945,9.90883 -0.12043,6.92847 0.14343,-15.4516 -1.95935,-14.43576 -2.10142,1.01585 -4.74208,16.26594 -4.28404,21.04745 0.45872,4.78151 -4.13858,-13.16367 -6.12093,-8.14167 -1.98235,5.02365 -4.38688,6.46905 -9.57211,18.58952 -5.10134,11.94963 -7.95646,14.31302 -13.61259,23.3022 z"
     sodipodi:nodetypes="csssssssssssss"
     inkscape:connector-curvature="0"
     style="fill:none;stroke:#fcfdfc;stroke-width:0.31796506" /><path
     id="path2861"
     d="m 484.63733,218.41874 c -0.69551,-8.56211 1.23136,-22.1089 5.65139,-26.49984 3.92276,-3.89669 -0.41676,28.89723 0.24019,27.77607 1.26248,-2.1511 4.42409,-10.51336 6.15949,-9.64181 1.73337,0.87072 -2.76785,26.18223 -0.17388,24.3023 2.59465,-1.87911 2.62306,-24.10659 5.9572,-21.00018 3.41397,3.18021 -7.35973,1.06311 1.77261,11.74646 2.61833,3.06163 1.06357,35.04951 -5.45112,53.51796 -4.87875,13.82874 -8.37323,-5.06595 -4.02424,-16.82403 1.91537,-5.18039 -4.34493,11.50847 -5.2698,10.05063 -0.92487,-1.45867 -0.90593,-17.98499 0.72866,-21.37749 1.63595,-3.39251 -19.93852,87.15522 -13.28783,17.83572 0.42015,-4.37518 -6.50861,-39.00424 13.51922,-28.43118 7.94293,4.17947 -5.12164,-12.90328 -5.81174,-21.46125 z"
     sodipodi:nodetypes="csssssssssssss"
     inkscape:connector-curvature="0"
     style="fill:none;stroke:#fcfdfc;stroke-width:0.23040296" /></g>
<metadata
   id="metadata27"><rdf:RDF><cc:Work><dc:format>image/svg+xml</dc:format><dc:type
         rdf:resource="http://purl.org/dc/dcmitype/StillImage" /><cc:license
         rdf:resource="http://creativecommons.org/publicdomain/zero/1.0/" /><dc:publisher><cc:Agent
           rdf:about="http://openclipart.org/"><dc:title>Openclipart</dc:title></cc:Agent></dc:publisher><dc:title>Guacamaya</dc:title><dc:date>2007-04-03T17:14:42</dc:date><dc:description /><dc:source>https://openclipart.org/detail/3758/guacamaya-by-emeza</dc:source><dc:creator><cc:Agent><dc:title>emeza</dc:title></cc:Agent></dc:creator><dc:subject><rdf:Bag><rdf:li>animal</rdf:li><rdf:li>bird</rdf:li><rdf:li>parrot</rdf:li></rdf:Bag></dc:subject></cc:Work><cc:License
       rdf:about="http://creativecommons.org/publicdomain/zero/1.0/"><cc:permits
         rdf:resource="http://creativecommons.org/ns#Reproduction" /><cc:permits
         rdf:resource="http://creativecommons.org/ns#Distribution" /><cc:permits
         rdf:resource="http://creativecommons.org/ns#DerivativeWorks" /></cc:License></rdf:RDF></metadata></svg>