<?xml version="1.0" encoding="UTF-8" standalone="no"?>
<!-- Created with Inkscape (http://www.inkscape.org/) -->

<svg
   xmlns:dc="http://purl.org/dc/elements/1.1/"
   xmlns:cc="http://creativecommons.org/ns#"
   xmlns:rdf="http://www.w3.org/1999/02/22-rdf-syntax-ns#"
   xmlns:svg="http://www.w3.org/2000/svg"
   xmlns="http://www.w3.org/2000/svg"
   xmlns:sodipodi="http://sodipodi.sourceforge.net/DTD/sodipodi-0.dtd"
   xmlns:inkscape="http://www.inkscape.org/namespaces/inkscape"
   version="1.1"
   id="svg2"
   width="227.72063"
   height="257.25555"
   viewBox="0 0 227.72063 257.25555"
   sodipodi:docname="monkey2.svg"
   inkscape:version="0.92.4 (5da689c313, 2019-01-14)">
  <metadata
     id="metadata8">
    <rdf:RDF>
      <cc:Work
         rdf:about="">
        <dc:format>image/svg+xml</dc:format>
        <dc:type
           rdf:resource="http://purl.org/dc/dcmitype/StillImage" />
        <dc:title></dc:title>
      </cc:Work>
    </rdf:RDF>
  </metadata>
  <defs
     id="defs6" />
  <sodipodi:namedview
     pagecolor="#ffffff"
     bordercolor="#666666"
     borderopacity="1"
     objecttolerance="10"
     gridtolerance="10"
     guidetolerance="10"
     inkscape:pageopacity="0"
     inkscape:pageshadow="2"
     inkscape:window-width="1920"
     inkscape:window-height="1017"
     id="namedview4"
     showgrid="false"
     inkscape:zoom="3.2002744"
     inkscape:cx="110.14737"
     inkscape:cy="131.95209"
     inkscape:window-x="-8"
     inkscape:window-y="-8"
     inkscape:window-maximized="1"
     inkscape:current-layer="svg2"
     fit-margin-top="0"
     fit-margin-left="0"
     fit-margin-right="0"
     fit-margin-bottom="0" />
  <path
     inkscape:connector-curvature="0"
     id="path821"
     style="fill:none;stroke:#000000;stroke-width:2.50092626;stroke-linecap:round;stroke-opacity:1"
     d="m 75.397053,13.428181 -7,-3.9999995 C 102.13405,-11.521719 155.58205,10.802881 173.93205,42.428181 c 7.66,13.1999 9.424,30.9954 9.465,46 -18.375,-6.1918 -25.881,12.907999 -30,27.999999 m -101.999997,13 -4,5 c -4.6692,-3.3 -8.7925,-3.133 -14,-1 -4.7144,-5.727 -12.4969,-7.606 -16.3966,-14.425 -3.4737,-6.074 -2.104,-18.548 -2.7732,-25.574999 -0.7277,-7.6421 -4.6508005,-12.0423 -6.6126105,-19 -2.1603,-7.6618 -0.99967,-19.3468 0.77238,-27 1.18633,-5.1237 2.2476305,-12.2205 7.0100305,-15 l -3,-5 c 4.5949,-6.2715 8.6518,-12.9595 16.0039,-16.3511 8.282,-3.8205795 13.9914,0.7711 21.9961,0.838 5.9225,0.0495 12.0061,-2.2295495 18,-2.4868995 m 13,6.9999995 c 4.5765,3.2943 14.3671,21.8203 1.9807,21.5224 -9.163,-0.2204 -21.0422,-8.6642 -29.9807,-11.5224 m -37,7 21,-8 m -26,4 v 2 m 95.999997,1 h 3 m -21.999997,5 c 5.0283,2.2477 8.4216,-1.8225 12.999997,-4 m 15,0 c 14.512,15.2082 27.079,45.8781 28,66.999999 M 53.397053,36.428181 c 6.3195,1.8289 16.5296,4.9551 18.6628,12.2855 0.7429,2.5529 -1.7034,5.2415 -2.1535,7.7145 -1.1942,6.5601 -0.7494,14.7343 -3.2616,20.9421 -2.9924,7.3943 -10.3495,7.299 -6.2477,17.0579 m -29,-36 -3,5 4,-6 c -1.783,-6.6224 -0.0997,-9.7694 7,-10 m 6,0 c 2.9249,4.2781 10.1295,4.7156 8,10 l -2,-4 m 4,-3 -1,1 m 17,1 2,2 m -43,2 v 1 m 9,-1 c 1.0971,3.86 0.904,6.1549 -2,9 -1.7974,-3.9294 -1.9458,-6.6865 2,-9 m 14,1 c 3.2737,8.9417 7.8287,13.0952 7,23 m -33,-18 -4,9 15,5 m 36,46.999999 8.51,-16 7.49,-42.999999 11.999997,24 m -39.999997,-16 4,-1 m -44,1 c -1.2711,6.851 1.1996,12.315 0.9313,19 -0.1107,2.7599 -1.8401,6.1136 -0.199,8.656599 1.4982,2.3214 4.6802,3.2424 6.8433,4.7984 14.1176,10.154 26.5157,7.146 27.4244,-12.454999 m -29,-19 h 1 m 11,5 -2,1 m 3,2 c -2.6617,3.105 -9.3216,5.0832 -10.5031,9.061 -1.5983,5.3811 14.588,9.3876 12.6682,-2.0363 -0.3371,-2.0058 -1.1501,-3.3022 -2.1651,-5.0247 m 4,4 -1,4 m 139.999997,-2 c 2.716,13.647999 4.942,25.851999 5.91,39.999999 0.432,6.295 -1.769,15.235 1.118,21 3.891,7.77 13.981,12.843 19.933,19.004 11.527,11.933 16.067,26.697 14.949,42.996 -1.048,15.3 -8.068,30.951 -21.91,38.651 -19.497,10.845 -52.886,3.513 -59.944,-19.651 -4.067,-13.344 8.773,-19.44 14.145,-29.259 2.917,-5.333 3.716,-12.071 6,-17.741 6.545,-16.249 13.003,-32.101 17.799,-49 M 23.397053,96.428181 c 4.8055,3.4567 10.388,3.686699 16,2 m -1,-2 -2,2 m 68.999997,-2 c 2.151,6.598999 7.001,13.273999 8.189,19.999999 1.19,6.736 -3.158,15.723 -5.265,22 -4.852,14.455 -4.922,33.611 -23.923997,37 3.5563,-8.484 10.8834,-13.317 15.521,-21 15.885997,-26.319 -23.935,-23.112 -39.521,-23.051 -3.8845,0.015 -7.2243,1.106 -11,0.051 M 184.39705,97.428181 v 28.999999 m -38,-18 c -0.029,10.522 -1.974,21.37 -6.312,31 -2.388,5.302 -8.735,13.018 -8.872,18.852 -0.116,4.954 11.382,2.622 14.036,1.406 3.638,-1.666 3.136,-5.902 3.148,-9.258 m -77.999997,-27 5,-3 v 0 m -7,1 -5,6 m 87.999997,-4 -1,10 m -91.999997,-9 v 6 m 8,2 -14.7608,26.815 -11.5116,10.2 -6.7276,16.985 -5,-5 -4,6 c -5.9264,-5.098 -4.0063,-11.255 -6,-18 l -7,17 c -4.6902205,-5.667 -7.0578005,-9.947 -4.0000005,-17 m 32.0000005,-36 c -4.6029,19.2 -19.9079,15.846 -31.8148105,26.394 -4.39972,3.897 -9.91816,12.856 -3.18519,16.606 m 125.9999975,-16 c -5.705,6.944 -5.422,17.282 -10.68,23.682 -3.538,4.307 -9.867,2.729 -13.311,8.333 -2.725,4.435 -0.465,11.882 -4.647,15.323 -4.994397,4.109 -7.424897,-6.29 -7.361997,-9.338 m 53.999997,-38 c 0,15.293 -8.246,14.947 -17.556,25.171 -2.713,2.979 -2.809,7.492 -5.444,9.829 l 1,-3 m 47,-26 c 8.6,7.49 17.91,13.91 26,22 5.074,5.074 9.945,10.039 12.25,17 9.578,28.917 -19.99,49.579 -46.25,39.07 -9.611,-3.846 -17.681,-16.305 -9.486,-25.842 2.683,-3.122 14.172,-3.921 12.14,2.461 -1.298,4.079 -9.435,4.075 -8.733,9.271 1.21,8.956 13.28,-0.747 15.221,-3.964 6.677,-11.068 -4.799,-20.902 -15.142,-20.996 m -130.999997,-29 v 5 m 43,10 -3,8 c -12.5719,-6.955 8.1841,-21.023 15,-23 m 51.999997,13 c -5.474,4.257 -6.75,7.555 -4,14 l 8,-8 m -70.999997,4 7,10 8,-18 c 1.4519,4.912 2.7928,27.612 11,14 m 42.999997,-3 c 6.013,6.942 9.69,-4.969 16,1 l 1,1 1,1" />
  <ellipse
     style="fill:#000000;fill-opacity:1;stroke:none;stroke-opacity:1"
     id="path826"
     cx="55.173519"
     cy="49.570923"
     rx="5.155808"
     ry="5.9369907" />
  <ellipse
     style="fill:#000000;fill-opacity:1;stroke:none;stroke-opacity:1"
     id="path826-2"
     cx="32.206738"
     cy="48.633503"
     rx="5.155808"
     ry="5.9369907" />
</svg>
