<?xml version="1.0" encoding="UTF-8" standalone="no"?>
<!-- Created with Inkscape (http://www.inkscape.org/) -->

<svg
   xmlns:dc="http://purl.org/dc/elements/1.1/"
   xmlns:cc="http://creativecommons.org/ns#"
   xmlns:rdf="http://www.w3.org/1999/02/22-rdf-syntax-ns#"
   xmlns:svg="http://www.w3.org/2000/svg"
   xmlns="http://www.w3.org/2000/svg"
   xmlns:xlink="http://www.w3.org/1999/xlink"
   xmlns:sodipodi="http://sodipodi.sourceforge.net/DTD/sodipodi-0.dtd"
   xmlns:inkscape="http://www.inkscape.org/namespaces/inkscape"
   version="1.1"
   viewBox="0 0 648.40473 627.92216"
   id="svg2452"
   sodipodi:docname="pressconference.svg"
   width="648.40472"
   height="627.92218"
   inkscape:version="0.92.4 (5da689c313, 2019-01-14)">
  <sodipodi:namedview
     pagecolor="#ffffff"
     bordercolor="#666666"
     borderopacity="1"
     objecttolerance="10"
     gridtolerance="10"
     guidetolerance="10"
     inkscape:pageopacity="0"
     inkscape:pageshadow="2"
     inkscape:window-width="1920"
     inkscape:window-height="1017"
     id="namedview2454"
     showgrid="false"
     fit-margin-top="0"
     fit-margin-left="0"
     fit-margin-right="0"
     fit-margin-bottom="0"
     inkscape:zoom="1.2968459"
     inkscape:cx="322.58736"
     inkscape:cy="302.2457"
     inkscape:window-x="-8"
     inkscape:window-y="-8"
     inkscape:window-maximized="1"
     inkscape:current-layer="svg2452" />
  <defs
     id="defs81">
    <linearGradient
       id="linearGradient3784"
       y2="-212.88"
       spreadMethod="reflect"
       gradientUnits="userSpaceOnUse"
       x2="33.411999"
       y1="-212.88"
       x1="10.235">
      <stop
         stop-color="#a90000"
         offset="0"
         id="stop2" />
      <stop
         stop-color="#c11f1f"
         offset="1"
         id="stop4" />
    </linearGradient>
    <filter
       id="filter4274-1-2"
       style="color-interpolation-filters:sRGB">
      <feGaussianBlur
         stdDeviation="0.6241606"
         id="feGaussianBlur7" />
    </filter>
    <linearGradient
       id="linearGradient27682"
       x1="-135.48"
       gradientUnits="userSpaceOnUse"
       y1="1020.2"
       gradientTransform="matrix(0.36287,0,0,0.4001,322.34,44.59)"
       x2="8.6513996"
       y2="130.48">
      <stop
         stop-color="#3c0054"
         offset="0"
         id="stop10" />
      <stop
         offset="1"
         id="stop12" />
    </linearGradient>
    <linearGradient
       id="linearGradient3018">
      <stop
         stop-color="#ececec"
         offset="0"
         id="stop15" />
      <stop
         stop-color="#999"
         offset="1"
         id="stop17" />
    </linearGradient>
    <linearGradient
       id="linearGradient3003">
      <stop
         stop-color="#f9f9f9"
         offset="0"
         id="stop20" />
      <stop
         stop-color="#FFF"
         offset="1"
         id="stop22" />
    </linearGradient>
    <linearGradient
       id="linearGradient4227">
      <stop
         stop-color="#d98c26"
         offset="0"
         id="stop25" />
      <stop
         stop-color="#f9f3d4"
         offset="1"
         id="stop27" />
    </linearGradient>
    <linearGradient
       id="linearGradient4634">
      <stop
         offset="0"
         id="stop30" />
      <stop
         stop-opacity="0"
         offset="1"
         id="stop32" />
    </linearGradient>
    <linearGradient
       id="linearGradient42848"
       x1="54.883999"
       spreadMethod="reflect"
       gradientUnits="userSpaceOnUse"
       y1="-201.87"
       gradientTransform="translate(-25.33)"
       x2="71.169998"
       y2="-201.87">
      <stop
         stop-color="#e03131"
         offset="0"
         id="stop35" />
      <stop
         stop-color="#c50000"
         offset="1"
         id="stop37" />
    </linearGradient>
    <linearGradient
       id="linearGradient45209"
       x1="369.37"
       xlink:href="#linearGradient4634"
       gradientUnits="userSpaceOnUse"
       y1="786.96997"
       gradientTransform="matrix(0.038848,-0.0011023,0.0011023,0.038848,-34.812,729.01)"
       x2="370.32999"
       y2="859.47998" />
    <radialGradient
       id="radialGradient45211"
       xlink:href="#linearGradient4227"
       gradientUnits="userSpaceOnUse"
       cy="62.816002"
       cx="483.76001"
       gradientTransform="matrix(1.5103,-0.50471,0.3286,0.98332,-267.53,241.51)"
       r="16.454" />
    <radialGradient
       id="radialGradient45213"
       xlink:href="#linearGradient4227"
       gradientUnits="userSpaceOnUse"
       cy="58.568001"
       cx="461.26001"
       gradientTransform="matrix(1,0,0,0.67997,0,18.561)"
       r="11.742" />
    <radialGradient
       id="radialGradient45215"
       xlink:href="#linearGradient4227"
       gradientUnits="userSpaceOnUse"
       cy="73.18"
       cx="501.20999"
       gradientTransform="matrix(0.99276,-0.12016,0.16375,1.353,-8.3521,33.638)"
       r="9.5094995" />
    <radialGradient
       id="radialGradient45217"
       xlink:href="#linearGradient4227"
       gradientUnits="userSpaceOnUse"
       cy="80.231003"
       cx="521.67999"
       gradientTransform="matrix(0.97807,-0.20829,0.2336,1.0969,-7.3005,99.71)"
       r="11.666" />
    <radialGradient
       id="radialGradient45219"
       xlink:href="#linearGradient4227"
       gradientUnits="userSpaceOnUse"
       cy="69.404999"
       cx="475.44"
       gradientTransform="matrix(1,0,0,1.0531,0,-3.6853)"
       r="10.42" />
    <radialGradient
       id="radialGradient45221"
       xlink:href="#linearGradient4227"
       gradientUnits="userSpaceOnUse"
       cy="72.026001"
       cx="487.26001"
       gradientTransform="matrix(1,0,0,1.1741,0,-11.97)"
       r="6.1932001" />
    <radialGradient
       id="radialGradient45223"
       xlink:href="#linearGradient4227"
       gradientUnits="userSpaceOnUse"
       cy="74.033997"
       cx="424.97"
       gradientTransform="matrix(1.7231,0.021911,-0.012864,1.0116,-306.33,-10.119)"
       r="12.563" />
    <radialGradient
       id="radialGradient45225"
       xlink:href="#linearGradient4227"
       gradientUnits="userSpaceOnUse"
       cy="77.521004"
       cx="461.47"
       gradientTransform="matrix(0.99658,-0.082612,0.15722,1.8966,-10.61,-30.463)"
       r="10.506" />
    <radialGradient
       id="radialGradient45227"
       xlink:href="#linearGradient4227"
       gradientUnits="userSpaceOnUse"
       cy="90.778"
       cx="533.41998"
       gradientTransform="matrix(1,0,0,1.0077,0,-0.69894)"
       r="18.834" />
    <radialGradient
       id="radialGradient45229"
       xlink:href="#linearGradient4227"
       gradientUnits="userSpaceOnUse"
       cy="71.348999"
       cx="420.20999"
       gradientTransform="matrix(1,0,0,1.2579,0,-17.782)"
       r="5.2507" />
    <radialGradient
       id="radialGradient45231"
       xlink:href="#linearGradient4227"
       gradientUnits="userSpaceOnUse"
       cy="85.860001"
       cx="501.76001"
       gradientTransform="matrix(1,0,0,0.9536,0,3.984)"
       r="11.86" />
    <radialGradient
       id="radialGradient45233"
       xlink:href="#linearGradient4227"
       gradientUnits="userSpaceOnUse"
       cy="85.777"
       cx="465.79999"
       gradientTransform="matrix(1.7955,-0.044194,0.019475,0.79123,-372.21,37.057)"
       r="8.8087997" />
    <radialGradient
       id="radialGradient45235"
       xlink:href="#linearGradient4227"
       gradientUnits="userSpaceOnUse"
       cy="79.460999"
       cx="490.47"
       gradientTransform="matrix(1,0,0,1.4646,0,-38.312)"
       r="5.0310001" />
    <radialGradient
       id="radialGradient45237"
       xlink:href="#linearGradient4227"
       gradientUnits="userSpaceOnUse"
       cy="105.96"
       cx="546.38"
       gradientTransform="matrix(1,0,0,1.2457,0,-24.732)"
       r="13.037" />
    <radialGradient
       id="radialGradient45239"
       xlink:href="#linearGradient4227"
       gradientUnits="userSpaceOnUse"
       cy="88.574997"
       cx="514.77002"
       gradientTransform="matrix(1,0,0,0.70841,0,24.808)"
       r="5.6694002" />
    <radialGradient
       id="radialGradient45241"
       xlink:href="#linearGradient4227"
       gradientUnits="userSpaceOnUse"
       cy="95.065002"
       cx="432.34"
       gradientTransform="matrix(0.9939,-0.11024,0.12241,1.1036,-9.0014,36.004)"
       r="17.990999" />
    <radialGradient
       id="radialGradient45243"
       xlink:href="#linearGradient4227"
       gradientUnits="userSpaceOnUse"
       cy="85.693001"
       cx="413.34"
       gradientTransform="matrix(0.95655,-0.29158,0.90387,2.9652,-59.493,-46.212)"
       r="3.6545999" />
    <radialGradient
       id="radialGradient45245"
       xlink:href="#linearGradient4227"
       gradientUnits="userSpaceOnUse"
       cy="83.163002"
       cx="449.16"
       gradientTransform="matrix(1,0,0,0.84949,0,12.517)"
       r="2.4191" />
    <radialGradient
       id="radialGradient45247"
       xlink:href="#linearGradient4227"
       gradientUnits="userSpaceOnUse"
       cy="90.387001"
       cx="481.45001"
       gradientTransform="matrix(-0.022627,-0.99974,2.3842,-0.053962,276.84,576.45)"
       r="8.0820999" />
    <radialGradient
       id="radialGradient45249"
       xlink:href="#linearGradient4227"
       gradientUnits="userSpaceOnUse"
       cy="88.706001"
       cx="463.39001"
       gradientTransform="matrix(1,0,0,0.89947,0,8.9176)"
       r="3.652" />
    <radialGradient
       id="radialGradient45251"
       xlink:href="#linearGradient4227"
       gradientUnits="userSpaceOnUse"
       cy="91.537003"
       cx="410.03"
       gradientTransform="matrix(1,0,0,0.63697,0,32.603)"
       r="13.687" />
    <radialGradient
       id="radialGradient45253"
       xlink:href="#linearGradient4227"
       gradientUnits="userSpaceOnUse"
       cy="98.024002"
       cx="485"
       gradientTransform="matrix(1,0,0,0.85507,0,14.487)"
       r="11.297" />
    <radialGradient
       id="radialGradient45255"
       xlink:href="#linearGradient4227"
       gradientUnits="userSpaceOnUse"
       cy="103.53"
       cx="528.12"
       gradientTransform="matrix(1,0,0,1.5203,0,-53.866)"
       r="5.4959998" />
    <radialGradient
       id="radialGradient45257"
       xlink:href="#linearGradient4227"
       gradientUnits="userSpaceOnUse"
       cy="94.679001"
       cx="463.10001"
       gradientTransform="matrix(1,0,0,0.677,0,31.238)"
       r="6.0633001" />
    <radialGradient
       id="radialGradient45259"
       xlink:href="#linearGradient4227"
       gradientUnits="userSpaceOnUse"
       cy="99.343002"
       cx="416.48999"
       gradientTransform="matrix(1,0,0,0.7449,0,25.343)"
       r="5.2880998" />
    <radialGradient
       id="radialGradient45261"
       xlink:href="#linearGradient4227"
       gradientUnits="userSpaceOnUse"
       cy="99.844002"
       cx="401.57001"
       gradientTransform="matrix(1,0,0,0.68718,0,31.233)"
       r="6.3762999" />
    <radialGradient
       id="radialGradient45263"
       xlink:href="#linearGradient4227"
       gradientUnits="userSpaceOnUse"
       cy="-152.81"
       cx="417.73999"
       gradientTransform="matrix(1,0,0,0.80775,0,-29.378)"
       r="11.883" />
    <linearGradient
       id="linearGradient45265"
       x1="231.74001"
       xlink:href="#linearGradient3003"
       gradientUnits="userSpaceOnUse"
       y1="-240.42999"
       gradientTransform="matrix(0.097405,-0.0027639,0.0027639,0.097405,-50.086,774.6)"
       x2="343.66"
       y2="-240.42999" />
    <linearGradient
       id="linearGradient45267"
       x1="370.70999"
       xlink:href="#linearGradient3018"
       gradientUnits="userSpaceOnUse"
       y1="-247.13"
       gradientTransform="matrix(0.097405,-0.0027639,0.0027639,0.097405,-50.086,774.6)"
       x2="442.44"
       y2="-239.35001" />
    <radialGradient
       id="radialGradient45269"
       xlink:href="#linearGradient4227"
       gradientUnits="userSpaceOnUse"
       cy="-132.37"
       cx="359.14001"
       gradientTransform="matrix(1,0,0,1.2317,0,30.674)"
       r="8.4505997" />
    <radialGradient
       id="radialGradient45271"
       xlink:href="#linearGradient4227"
       gradientUnits="userSpaceOnUse"
       cy="-128.17"
       cx="371.78"
       gradientTransform="matrix(1,0,0,1.8904,0,114.12)"
       r="3.4995999" />
    <linearGradient
       id="linearGradient46260"
       x1="369.37"
       xlink:href="#linearGradient4634"
       gradientUnits="userSpaceOnUse"
       y1="786.96997"
       gradientTransform="matrix(0.038848,-0.0011023,0.0011023,0.038848,197.47,788.84)"
       x2="370.32999"
       y2="859.47998" />
    <linearGradient
       id="linearGradient46316"
       x1="231.74001"
       xlink:href="#linearGradient3003"
       gradientUnits="userSpaceOnUse"
       y1="-240.42999"
       gradientTransform="matrix(0.097405,-0.0027639,0.0027639,0.097405,182.2,834.44)"
       x2="343.66"
       y2="-240.42999" />
    <linearGradient
       id="linearGradient46318"
       x1="370.70999"
       xlink:href="#linearGradient3018"
       gradientUnits="userSpaceOnUse"
       y1="-247.13"
       gradientTransform="matrix(0.097405,-0.0027639,0.0027639,0.097405,182.2,834.44)"
       x2="442.44"
       y2="-239.35001" />
    <linearGradient
       id="linearGradient47579"
       x1="369.37"
       xlink:href="#linearGradient4634"
       gradientUnits="userSpaceOnUse"
       y1="786.96997"
       gradientTransform="matrix(0.038848,-0.0011023,0.0011023,0.038848,206.63,862.68)"
       x2="370.32999"
       y2="859.47998" />
    <linearGradient
       id="linearGradient47633"
       x1="231.74001"
       xlink:href="#linearGradient3003"
       gradientUnits="userSpaceOnUse"
       y1="-240.42999"
       gradientTransform="matrix(0.097405,-0.0027639,0.0027639,0.097405,191.36,908.27)"
       x2="343.66"
       y2="-240.42999" />
    <linearGradient
       id="linearGradient47635"
       x1="370.70999"
       xlink:href="#linearGradient3018"
       gradientUnits="userSpaceOnUse"
       y1="-247.13"
       gradientTransform="matrix(0.097405,-0.0027639,0.0027639,0.097405,191.36,908.27)"
       x2="442.44"
       y2="-239.35001" />
    <radialGradient
       id="radialGradient47637"
       xlink:href="#linearGradient4227"
       gradientUnits="userSpaceOnUse"
       cy="-146.06"
       cx="239.62"
       gradientTransform="matrix(1,0,0,1.3408,0,49.775)"
       r="8.6822004" />
    <radialGradient
       id="radialGradient47639"
       xlink:href="#linearGradient4227"
       gradientUnits="userSpaceOnUse"
       cy="-138.31"
       cx="252.36"
       gradientTransform="matrix(1,0,0,1.2939,0,40.646)"
       r="8.1948996" />
    <radialGradient
       id="radialGradient47641"
       xlink:href="#linearGradient4227"
       gradientUnits="userSpaceOnUse"
       cy="-129.17999"
       cx="233.45"
       gradientTransform="matrix(1,0,0,0.57356,0,-55.087)"
       r="6.9661999" />
    <linearGradient
       inkscape:collect="always"
       xlink:href="#linearGradient42848"
       id="linearGradient5070"
       gradientUnits="userSpaceOnUse"
       gradientTransform="translate(-25.33)"
       x1="54.883999"
       y1="-201.87"
       x2="71.169998"
       y2="-201.87"
       spreadMethod="reflect" />
  </defs>
  <path
     inkscape:connector-curvature="0"
     style="fill:#201c21;fill-opacity:1"
     id="path557"
     d="m 59.77936,96.2274 h 528.93 v 321 h -528.93 z" />
  <path
     style="fill:#ffffff;stroke:#000000;stroke-width:1.52240002;stroke-linecap:round;stroke-linejoin:round"
     inkscape:connector-curvature="0"
     id="path559"
     d="m 110.00816,160.5074 h 427.47 v 213.88 h -427.47 z" />
  <g
     id="g684"
     transform="matrix(0.57363,0,0,0.57363,20.25336,0.00739983)">
    <g
       id="g598"
       transform="matrix(0.98188,0,-0.050443,1.3816,-4.0983,407.43)">
      <path
         inkscape:connector-curvature="0"
         style="fill:url(#linearGradient3784);fill-rule:evenodd;stroke:#800000;stroke-width:8"
         id="path561"
         d="m 14.156,-290.84 c -2.494,0 -4.5,2.3264 -4.5,5.1875 v 148.88 c 0,1.4138 0.48425,2.6942 1.2812,3.625 2.8241,-8.2395 10.086,-14.125 18.625,-14.125 9.0611,0 16.689,6.619 19.094,15.656 h 21.5 c 2.4047,-9.0373 10.033,-15.656 19.094,-15.656 9.0611,0 16.689,6.619 19.094,15.656 h 21.531 c 2.4047,-9.0373 10.033,-15.656 19.094,-15.656 9.0611,0 16.689,6.619 19.094,15.656 h 21.531 c 2.4047,-9.0373 10.033,-15.656 19.094,-15.656 9.0611,0 16.665,6.619 19.062,15.656 h 21.531 c 2.4047,-9.0373 10.033,-15.656 19.094,-15.656 9.0611,0 16.689,6.619 19.094,15.656 h 21.531 c 2.4047,-9.0373 10.033,-15.656 19.094,-15.656 9.0611,0 16.689,6.619 19.094,15.656 h 21.531 c 2.3972,-9.0373 10.001,-15.656 19.062,-15.656 9.0611,0 16.689,6.619 19.094,15.656 h 21.531 c 2.4047,-9.0373 10.033,-15.656 19.094,-15.656 9.0611,0 16.689,6.619 19.094,15.656 h 21.531 c 2.4047,-9.0373 10.033,-15.656 19.094,-15.656 9.0611,0 16.689,6.619 19.094,15.656 h 21.5 c 2.4047,-9.0373 10.033,-15.656 19.094,-15.656 9.0611,0 16.689,6.619 19.094,15.656 h 21.531 c 2.4047,-9.0373 10.033,-15.656 19.094,-15.656 9.0611,0 16.689,6.619 19.094,15.656 h 21.531 c 2.4047,-9.0373 10.033,-15.656 19.094,-15.656 9.0611,0 16.689,6.619 19.094,15.656 h 21.5 c 2.4047,-9.0373 10.033,-15.656 19.094,-15.656 9.0612,0 16.689,6.619 19.094,15.656 h 21.531 c 2.4047,-9.0373 10.033,-15.656 19.094,-15.656 9.0611,0 16.689,6.619 19.094,15.656 h 21.531 c 2.4047,-9.0373 10.033,-15.656 19.094,-15.656 9.0611,0 16.665,6.619 19.062,15.656 h 21.531 c 2.4047,-9.0373 10.033,-15.656 19.094,-15.656 9.0611,0 16.689,6.619 19.094,15.656 h 21.531 c 2.4047,-9.0373 10.033,-15.656 19.094,-15.656 9.0611,0 16.689,6.619 19.094,15.656 h 21.531 c 2.3973,-9.0373 10.001,-15.656 19.062,-15.656 5.7298,0 10.866,2.6493 14.5,6.875 v -145.25 c 0,-2.8611 -2.006,-5.1875 -4.5,-5.1875 h -1040.4 z" />
      <path
         inkscape:connector-curvature="0"
         style="fill:url(#linearGradient5070);fill-rule:evenodd"
         d="m 23.094,-290.84 c -9.8114,29.717 -12.682,123.89 -13.281,155.28 0.19234,0.92118 0.56652,1.754 1.125,2.4062 2.8241,-8.2395 10.086,-14.125 18.625,-14.125 9.0611,0 16.689,6.619 19.094,15.656 h 0.78125 c -0.0033,-24.644 -0.47656,-127.7 -12.281,-159.22 h -14.062 z"
         id="path3457" />
      <use
         id="use564"
         x="0"
         y="0"
         width="1052.3622"
         height="744.09448"
         transform="translate(59.707)"
         xlink:href="#path3457" />
      <use
         id="use566"
         x="0"
         y="0"
         width="1052.3622"
         height="744.09448"
         transform="translate(119.41)"
         xlink:href="#path3457" />
      <use
         id="use568"
         x="0"
         y="0"
         width="1052.3622"
         height="744.09448"
         transform="translate(179.12)"
         xlink:href="#path3457" />
      <use
         id="use570"
         x="0"
         y="0"
         width="1052.3622"
         height="744.09448"
         transform="translate(238.83)"
         xlink:href="#path3457" />
      <use
         id="use572"
         x="0"
         y="0"
         width="1052.3622"
         height="744.09448"
         transform="translate(298.54)"
         xlink:href="#path3457" />
      <use
         id="use574"
         x="0"
         y="0"
         width="1052.3622"
         height="744.09448"
         transform="translate(358.24)"
         xlink:href="#path3457" />
      <use
         id="use576"
         x="0"
         y="0"
         width="1052.3622"
         height="744.09448"
         transform="translate(417.95)"
         xlink:href="#path3457" />
      <use
         id="use578"
         x="0"
         y="0"
         width="1052.3622"
         height="744.09448"
         transform="translate(477.66)"
         xlink:href="#path3457" />
      <use
         id="use580"
         x="0"
         y="0"
         width="1052.3622"
         height="744.09448"
         transform="translate(537.37)"
         xlink:href="#path3457" />
      <use
         id="use582"
         x="0"
         y="0"
         width="1052.3622"
         height="744.09448"
         transform="translate(597.07)"
         xlink:href="#path3457" />
      <use
         id="use584"
         x="0"
         y="0"
         width="1052.3622"
         height="744.09448"
         transform="translate(656.78)"
         xlink:href="#path3457" />
      <use
         id="use586"
         x="0"
         y="0"
         width="1052.3622"
         height="744.09448"
         transform="translate(716.49)"
         xlink:href="#path3457" />
      <use
         id="use588"
         x="0"
         y="0"
         width="1052.3622"
         height="744.09448"
         transform="translate(776.19)"
         xlink:href="#path3457" />
      <use
         id="use590"
         x="0"
         y="0"
         width="1052.3622"
         height="744.09448"
         transform="translate(835.9)"
         xlink:href="#path3457" />
      <use
         id="use592"
         x="0"
         y="0"
         width="1052.3622"
         height="744.09448"
         transform="translate(895.61)"
         xlink:href="#path3457" />
      <use
         id="use594"
         x="0"
         y="0"
         width="1052.3622"
         height="744.09448"
         transform="translate(955.32)"
         xlink:href="#path3457" />
      <use
         id="use596"
         x="0"
         y="0"
         width="1052.3622"
         height="744.09448"
         transform="translate(1015)"
         xlink:href="#path3457" />
    </g>
    <g
       id="g640"
       transform="translate(0.46032,4.6198)">
      <path
         style="fill:#ff3232;fill-rule:evenodd"
         inkscape:connector-curvature="0"
         id="path600"
         d="m 2.8438,-1.625 c 0,0 -2.8348,548.59 8.5938,662.88 11.4286,114.29 11.415,85.687 22.844,85.688 11.429,0 28.589,-19.978 42.875,-11.406 14.286,8.5714 37.134,0.004 48.562,-14.281 11.429,-14.286 31.424,11.411 54.281,-2.875 22.857,-14.286 -8.567,-14.281 -54.281,-54.281 -45.714,-40 -45.728,-131.44 -57.156,-217.16 -10.499,-78.74 0.69759,-34.569 0.375,-66.719 1.6306,-0.77489 2.75,-2.6241 2.75,-4.7812 v -40.938 c 14,-34.88 76.271,-93.88 331.15,-336.12 h -400 z" />
      <path
         style="fill:none;stroke:#550000;stroke-width:6"
         inkscape:connector-curvature="0"
         id="path602"
         d="m 402.86,-1.6198 c -345.72,328.57 -337.15,320 -334.29,371.43 2.8571,51.429 -11.429,-8.5714 0,77.143 11.429,85.72 11.429,177.14 57.139,217.14 45.714,40 77.143,40 54.286,54.286 -22.857,14.286 -42.857,-11.429 -54.286,2.8571 -11.429,14.2861 -34.286,22.857 -48.571,14.286 -14.286,-8.5714 -31.429,11.429 -42.857,11.429 -11.429,0 -11.429,28.571 -22.857,-85.714 -11.425,-114.3 -8.5679,-662.87 -8.5679,-662.87 h 400 z" />
      <path
         style="fill:#de0000;fill-rule:evenodd;stroke:#550000;stroke-width:4"
         inkscape:connector-curvature="0"
         id="path604"
         d="m 11.096,327.96 h 56.102 c 2.494,0 4.5018,2.3033 4.5018,5.1644 v 42.326 c 0,2.8611 -2.0078,5.1644 -4.5018,5.1644 H 11.096 c -2.494,0 -4.5018,-2.3033 -4.5018,-5.1644 v -42.326 c 0,-2.8611 2.0078,-5.1644 4.5018,-5.1644 z" />
      <path
         style="fill:#d40000;stroke:#550000;stroke-width:6"
         inkscape:connector-curvature="0"
         id="path606"
         d="m 56.505,321.7 c 0,-2.7765 7.652,-17.526 13.878,-26.75 12.433,-18.42 35.653,-45.93 85.977,-101.86 55.898,-62.126 78.735,-91.975 83.403,-109.01 1.3102,-4.781 2.8684,-21.742 3.4627,-37.692 0.5943,-15.95 1.6203,-32.454 2.2801,-36.675 l 1.1996,-7.6763 75.042,-0.44471 75.042,-0.44468 -5.1029,4.9021 c -2.8,2.6989 -47.7,45.453 -99.77,95.011 -135.98,129.42 -196.62,190.75 -211.85,214.26 -5.3064,8.1893 -5.4537,8.2735 -14.456,8.2735 -5.501,0 -9.0948,-0.74469 -9.0948,-1.8846 z" />
      <path
         style="fill:#d40000;stroke:#550000;stroke-width:6"
         inkscape:connector-curvature="0"
         id="path608"
         d="m 37.756,322.31 c 0.03521,-2.915 8.4914,-38.365 11.808,-49.502 2.6235,-8.809 5.5532,-14.231 10.96,-20.282 13.208,-14.782 22.409,-28.661 32.145,-48.492 30.521,-62.18 49.991,-129.32 53.581,-184.8 l 1.1672,-18.053 h 97.03 l -0.98749,6.3969 c -2.2729,14.723 -4.4299,42.8 -4.4299,57.661 0,15.144 -0.32438,16.56 -6.5537,28.598 -9.9672,19.261 -28.301,42.041 -81.255,100.96 -64.898,72.206 -82.516,94.171 -92.694,115.57 l -6.2868,13.215 -7.2498,0.005 c -3.9874,0.003 -7.2428,-0.57067 -7.2343,-1.2743 z" />
      <path
         style="fill:#d40000;stroke:#550000;stroke-width:6"
         inkscape:connector-curvature="0"
         id="path610"
         d="M 15.104,317.19 C 27.407,301.27 32.181,289.63 41.861,251.94 45.837,236.46 58.863,193.97 70.808,157.5 99.012,71.409 104.2,51.27 105.5,22.94 l 0.99281,-21.749 h 19.36 c 10.648,0 19.357,0.57572 19.354,1.2794 -0.0325,7.1289 -4.1365,43.662 -6.18,55.013 -12.907,71.693 -47.771,157 -77.735,190.2 -10.68,11.834 -12.191,15.366 -19.366,45.29 -3.4757,14.495 -6.5819,27.315 -6.9025,28.488 -0.39686,1.4514 -4.4588,2.1323 -12.721,2.1323 h -12.138 l 4.943,-6.3969 z" />
      <path
         style="fill:#d40000;stroke:#550000;stroke-width:6"
         inkscape:connector-curvature="0"
         id="path612"
         d="M 5.3941,257.41 5.33,190.37 21.794,139.7 C 47.012,62.098 55.949,33.29 60.01,16.54 L 63.729,1.19 h 41.058 l -1.0711,17.507 c -2.0355,33.269 -5.074,44.94 -39.185,150.52 -12.731,39.405 -25.179,80.473 -27.662,91.262 -5.0656,22.014 -15.812,46.157 -25.435,57.146 l -5.9757,6.8234 -0.064037,-67.035 z" />
      <path
         style="fill:#d40000;stroke:#550000;stroke-width:6"
         inkscape:connector-curvature="0"
         id="path614"
         d="M 5.33,90.174 V 1.186 h 27.293 c 25.309,0 27.293,0.22696 27.293,3.1209 0,6.0681 -11.916,46.261 -32.454,109.46 -11.431,35.18 -21.088,64.29 -21.459,64.68 -0.3704,0.39 -0.6734,-39.33 -0.6734,-88.276 v -1.7e-5 z" />
      <path
         style="fill:#c50000;stroke:#550000;stroke-width:6"
         inkscape:connector-curvature="0"
         id="path616"
         d="m 149.47,717.63 c -6.5675,-1.8249 -13.931,-3.3382 -16.364,-3.3629 -10.07,-0.1 -40.003,-26.91 -49.096,-43.98 -5.797,-10.88 -21.099,-88.25 -30.954,-156.5 -12.981,-89.91 -14.311,-108.83 -8.542,-121.54 l 3.2908,-7.2498 h 9.6644 c 10.553,0 10.389,-0.31585 5.7731,11.128 -1.7414,4.3172 -0.92182,15.435 5.03,68.233 12.497,110.86 17.765,138.52 31.996,167.98 10.668,22.089 28.027,39.337 60.794,60.407 15.806,10.163 23.366,16.003 23.023,17.784 -0.66876,3.4726 -9.1856,8.307 -16.705,9.4821 -3.5084,0.54836 -10.895,-0.43521 -17.911,-2.385 v -4e-5 z" />
      <path
         style="fill:#c50000;stroke:#550000;stroke-width:6"
         inkscape:connector-curvature="0"
         id="path618"
         d="m 79.449,734 c -2.8611,-1.2462 -7.2027,-4.6434 -9.6478,-7.5494 -12.775,-15.18 -32.183,-103.12 -41.36,-187.41 -5.302,-48.69 -6.884,-118.32 -3.335,-146.79 l 0.90336,-7.2498 h 18.381 l -2.2808,5.544 c -6.0413,14.684 -5.3267,26.252 6.8759,111.31 11.003,76.694 19.696,125.04 28.022,155.84 3.2188,11.909 5.4522,16.268 13.548,26.44 11.106,13.956 18.89,21.16 29.721,27.507 l 7.6133,4.4616 -7.2631,6.6949 c -13.308,12.267 -28.96,16.526 -41.176,11.205 l -1.7e-5,-3e-5 z" />
      <path
         style="fill:#c50000;stroke:#550000;stroke-width:6"
         inkscape:connector-curvature="0"
         id="path620"
         d="M 22.634,736.02 C 14.77,689.91 9.718,613.46 7.949,513.79 7.4327,484.71 6.5786,443.83 6.0509,422.95 L 5.09144,384.995 h 17.073 l -0.97373,33.69 c -1.1246,38.911 1.6219,96.874 6.4292,135.68 9.4588,76.361 26.823,153.92 38.223,170.71 3.7246,5.4884 3.8598,6.1978 1.1819,6.1978 -1.6632,0 -9.1244,2.9496 -16.581,6.5545 -7.456,3.605 -16.353,7.0787 -19.771,7.7193 l -6.2143,1.1648 -1.8257,-10.705 z" />
      <path
         style="fill:#ffacac;fill-opacity:0.28455003"
         inkscape:connector-curvature="0"
         id="path622"
         d="m 57.906,324.72 c 1.5041,0.53025 4.123,0.875 7.6875,0.875 9.0022,0 9.1623,-0.092 14.469,-8.2812 15.234,-23.51 75.866,-84.834 211.84,-214.25 52.071,-49.558 96.975,-92.304 99.781,-95 l 5.1,-4.9138 -75.03,0.4376 -5.28,0.0312 c -1.3248,4.3683 -2.6477,8.7383 -4,12.781 -1.7954,5.3677 -3.6303,10.447 -5.5312,15.344 -1.9009,4.8969 -3.8658,9.6129 -5.9375,14.156 -2.0717,4.5433 -4.2547,8.9119 -6.5625,13.219 -2.3078,4.3069 -4.7347,8.5312 -7.3438,12.719 -2.6091,4.1876 -5.3994,8.3458 -8.375,12.531 -2.9756,4.1855 -6.1551,8.4183 -9.5625,12.719 -3.4074,4.3005 -7.033,8.686 -10.938,13.219 -3.9044,4.5327 -8.0958,9.2117 -12.562,14.094 -8.9335,9.7642 -19.051,20.323 -30.625,32.188 -11.574,11.865 -24.607,25.035 -39.344,39.938 -7.6558,7.7419 -15.236,15.592 -22.719,23.5 -7.4827,7.9077 -14.868,15.868 -22.125,23.781 -14.515,15.826 -28.513,31.489 -41.812,46.375 -11.023,12.337 -21.199,23.646 -31.125,34.531 z" />
      <path
         style="fill:#e03131"
         inkscape:connector-curvature="0"
         id="path624"
         d="m 198.62,3.7463 c -4.62,34.316 1.68,72.586 -15.26,102.46 -43.06,75.92 -99.87,146.08 -142.27,217.2 1.1261,0.12603 2.4739,0.18699 3.9062,0.18601 h 7.25 l 6.2812,-13.114 c 45.91,-80.335 126.83,-135.3 173.94,-214.81 6.2293,-11.942 6.5625,-13.343 6.5625,-28.367 0,-14.743 2.1646,-42.592 4.4375,-57.199 l 0.96875,-6.3554 h -45.812 z" />
      <path
         style="fill:#e03131"
         inkscape:connector-curvature="0"
         id="path626"
         d="m 130.87,12.474 c -2.9023,38.874 -10.909,77.221 -23.204,114.19 -13.761,40.652 -16.78,71.651 -42.759,106.21 -14.769,16.487 -28.12,49.818 -32.886,71.511 -13.311,17.907 -8.0233,16.098 3.0112,17.085 5.8315,-20.665 8.2575,-42.54 17.318,-62.143 8.8736,-12.793 20.272,-23.816 27.574,-37.771 27.152,-47.13 45.152,-99.2 56.792,-152.21 4.54,-22.022 6,-42.763 7.61,-65.167 -16.5,0.1203 -14.42,-0.2113 -13.46,8.2994 z" />
      <path
         style="fill:#e03131"
         inkscape:connector-curvature="0"
         id="path628"
         d="m 79.531,1.1875 c 0.85821,23.151 1.6875,47.895 1.6875,58.219 0,16.806 -31.794,131.17 -75.812,198.22 l 0.0625,66.812 5.9688,-6.8125 c 9.6238,-10.989 20.372,-35.143 25.438,-57.156 2.4828,-10.789 14.925,-51.845 27.656,-91.25 34.111,-105.58 37.149,-117.26 39.189,-150.53 l 1.0625,-17.5 h -25.25 z" />
      <path
         style="fill:#ff3232"
         inkscape:connector-curvature="0"
         id="path630"
         d="m 63.906,385.19 -1.375,3.0625 c -5.769,12.709 -8.0684,32.528 4.9126,122.44 9.8545,68.254 11.872,121.5 34.556,155.6 10.71,16.099 39.021,43.898 49.094,44 2.4329,0.0247 9.8075,1.5188 16.375,3.3438 3.8929,1.0818 7.8862,1.8597 11.281,2.25 2.919,-1.728 5.0255,-3.6914 5.3438,-5.3438 0.34298,-1.7809 -7.2257,-7.6181 -23.031,-17.781 -32.766,-21.069 -50.113,-38.318 -60.781,-60.406 -14.231,-29.466 -19.503,-57.109 -32,-167.97 -5.9518,-52.799 -6.7726,-63.933 -5.0312,-68.25 3.3278,-8.2504 4.3039,-10.387 0.65625,-10.938 z" />
      <path
         style="fill:#ff3232"
         inkscape:connector-curvature="0"
         id="path632"
         d="m 31.406,385 -0.25,3.25 c -2.2022,28.475 2.6473,98.092 10.25,146.78 13.161,84.286 36.726,172.22 50.219,187.41 2.5826,2.906 7.1112,6.3163 10.031,7.5625 1.9767,0.84361 4.0211,1.4442 6.125,1.8125 4.3854,-2.2144 8.7352,-5.2129 12.844,-9 l 7.25,-6.7188 -7.5938,-4.4375 c -10.83,-6.34 -18.61,-13.57 -29.718,-27.53 -8.095,-10.17 -10.343,-14.52 -13.562,-26.43 -8.326,-30.81 -16.997,-79.15 -28,-155.85 -12.203,-85.05 -12.948,-96.62 -6.906,-111.31 l 2.281,-5.53 h -12.969 z" />
      <path
         style="fill:#e03131;fill-rule:evenodd"
         inkscape:connector-curvature="0"
         id="path634"
         d="m 11.75,334.25 -5.1562,5.625 v 35.562 c 0,1.0371 0.2948,2.0051 0.75,2.8125 0.84397,0.64352 3.0253,-0.48133 4.9688,-2.5938 l 29.375,-31.938 c 0.71402,-0.7761 1.2761,-1.5752 1.6875,-2.3125 -1.1283,-1.2451 -2.4717,-2.5882 -4.125,-3.9688 -6.007,4.8267 -10.908,9.5933 -11.688,11.281 -1.0998,2.383 -2.7107,-6.4678 -15.812,-14.469 z" />
      <path
         style="fill:#890000;fill-opacity:0.55681996;fill-rule:evenodd"
         inkscape:connector-curvature="0"
         id="path636"
         d="m 37.138,358.25 c -1.5285,-0.22994 -5.2632,13.181 -28.812,20.938 0.34039,0.0938 0.69634,0.15625 1.0625,0.15625 h 53.469 c -10.554,-5.7712 -24.032,-17.809 -25.375,-20.719 -0.11308,-0.24501 -0.20917,-0.35475 -0.34375,-0.375 z" />
      <path
         style="fill:#890000;fill-opacity:0.55681996;fill-rule:evenodd"
         inkscape:connector-curvature="0"
         id="path638"
         d="m 33.219,328.94 c -0.94482,-10e-6 -1.8118,0.31575 -2.5312,0.875 h -19.219 c -1.5353,0 -2.8757,0.84894 -3.6875,2.1875 16.828,8.4579 18.578,19.326 19.781,16.719 0.77905,-1.6879 5.6805,-6.4546 11.688,-11.281 7.912,6.607 9.1483,12.387 10.062,10.406 1.2145,-2.6315 12.356,-12.729 22.281,-18.906 h -38.375 z" />
    </g>
    <g
       id="g682"
       transform="matrix(-1,0,0,1,1051.9,4.6198)">
      <path
         style="fill:#ff3232;fill-rule:evenodd"
         inkscape:connector-curvature="0"
         id="path642"
         d="m 2.8438,-1.625 c 0,0 -2.8348,548.59 8.5938,662.88 11.4286,114.29 11.415,85.687 22.844,85.688 11.429,0 28.589,-19.978 42.875,-11.406 14.286,8.5714 37.134,0.004 48.562,-14.281 11.429,-14.286 31.424,11.411 54.281,-2.875 22.857,-14.286 -8.567,-14.281 -54.281,-54.281 -45.714,-40 -45.728,-131.44 -57.156,-217.16 -10.499,-78.74 0.69759,-34.569 0.375,-66.719 1.6306,-0.77489 2.75,-2.6241 2.75,-4.7812 v -40.938 c 14,-34.88 76.271,-93.88 331.15,-336.12 h -400 z" />
      <path
         style="fill:none;stroke:#550000;stroke-width:6"
         inkscape:connector-curvature="0"
         id="path644"
         d="m 402.86,-1.6198 c -345.72,328.57 -337.15,320 -334.29,371.43 2.8571,51.429 -11.429,-8.5714 0,77.143 11.429,85.72 11.429,177.14 57.139,217.14 45.714,40 77.143,40 54.286,54.286 -22.857,14.286 -42.857,-11.429 -54.286,2.8571 -11.429,14.2861 -34.286,22.857 -48.571,14.286 -14.286,-8.5714 -31.429,11.429 -42.857,11.429 -11.429,0 -11.429,28.571 -22.857,-85.714 -11.425,-114.3 -8.5679,-662.87 -8.5679,-662.87 h 400 z" />
      <path
         style="fill:#de0000;fill-rule:evenodd;stroke:#550000;stroke-width:4"
         inkscape:connector-curvature="0"
         id="path646"
         d="m 11.096,327.96 h 56.102 c 2.494,0 4.5018,2.3033 4.5018,5.1644 v 42.326 c 0,2.8611 -2.0078,5.1644 -4.5018,5.1644 H 11.096 c -2.494,0 -4.5018,-2.3033 -4.5018,-5.1644 v -42.326 c 0,-2.8611 2.0078,-5.1644 4.5018,-5.1644 z" />
      <path
         style="fill:#d40000;stroke:#550000;stroke-width:6"
         inkscape:connector-curvature="0"
         id="path648"
         d="m 56.505,321.7 c 0,-2.7765 7.652,-17.526 13.878,-26.75 12.433,-18.42 35.653,-45.93 85.977,-101.86 55.898,-62.126 78.735,-91.975 83.403,-109.01 1.3102,-4.781 2.8684,-21.742 3.4627,-37.692 0.5943,-15.95 1.6203,-32.454 2.2801,-36.675 l 1.1996,-7.6763 75.042,-0.44471 75.042,-0.44468 -5.1029,4.9021 c -2.8,2.6989 -47.7,45.453 -99.77,95.011 -135.98,129.42 -196.62,190.75 -211.85,214.26 -5.3064,8.1893 -5.4537,8.2735 -14.456,8.2735 -5.501,0 -9.0948,-0.74469 -9.0948,-1.8846 z" />
      <path
         style="fill:#d40000;stroke:#550000;stroke-width:6"
         inkscape:connector-curvature="0"
         id="path650"
         d="m 37.756,322.31 c 0.03521,-2.915 8.4914,-38.365 11.808,-49.502 2.6235,-8.809 5.5532,-14.231 10.96,-20.282 13.208,-14.782 22.409,-28.661 32.145,-48.492 30.521,-62.18 49.991,-129.32 53.581,-184.8 l 1.1672,-18.053 h 97.03 l -0.98749,6.3969 c -2.2729,14.723 -4.4299,42.8 -4.4299,57.661 0,15.144 -0.32438,16.56 -6.5537,28.598 -9.9672,19.261 -28.301,42.041 -81.255,100.96 -64.898,72.206 -82.516,94.171 -92.694,115.57 l -6.2868,13.215 -7.2498,0.005 c -3.9874,0.003 -7.2428,-0.57067 -7.2343,-1.2743 z" />
      <path
         style="fill:#d40000;stroke:#550000;stroke-width:6"
         inkscape:connector-curvature="0"
         id="path652"
         d="M 15.104,317.19 C 27.407,301.27 32.181,289.63 41.861,251.94 45.837,236.46 58.863,193.97 70.808,157.5 99.012,71.409 104.2,51.27 105.5,22.94 l 0.99281,-21.749 h 19.36 c 10.648,0 19.357,0.57572 19.354,1.2794 -0.0325,7.1289 -4.1365,43.662 -6.18,55.013 -12.907,71.693 -47.771,157 -77.735,190.2 -10.68,11.834 -12.191,15.366 -19.366,45.29 -3.4757,14.495 -6.5819,27.315 -6.9025,28.488 -0.39686,1.4514 -4.4588,2.1323 -12.721,2.1323 h -12.138 l 4.943,-6.3969 z" />
      <path
         style="fill:#d40000;stroke:#550000;stroke-width:6"
         inkscape:connector-curvature="0"
         id="path654"
         d="M 5.3941,257.41 5.33,190.37 21.794,139.7 C 47.012,62.098 55.949,33.29 60.01,16.54 L 63.729,1.19 h 41.058 l -1.0711,17.507 c -2.0355,33.269 -5.074,44.94 -39.185,150.52 -12.731,39.405 -25.179,80.473 -27.662,91.262 -5.0656,22.014 -15.812,46.157 -25.435,57.146 l -5.9757,6.8234 -0.064037,-67.035 z" />
      <path
         style="fill:#d40000;stroke:#550000;stroke-width:6"
         inkscape:connector-curvature="0"
         id="path656"
         d="M 5.33,90.174 V 1.186 h 27.293 c 25.309,0 27.293,0.22696 27.293,3.1209 0,6.0681 -11.916,46.261 -32.454,109.46 -11.431,35.18 -21.088,64.29 -21.459,64.68 -0.3704,0.39 -0.6734,-39.33 -0.6734,-88.276 v -1.7e-5 z" />
      <path
         style="fill:#c50000;stroke:#550000;stroke-width:6"
         inkscape:connector-curvature="0"
         id="path658"
         d="m 149.47,717.63 c -6.5675,-1.8249 -13.931,-3.3382 -16.364,-3.3629 -10.07,-0.1 -40.003,-26.91 -49.096,-43.98 -5.797,-10.88 -21.099,-88.25 -30.954,-156.5 -12.981,-89.91 -14.311,-108.83 -8.542,-121.54 l 3.2908,-7.2498 h 9.6644 c 10.553,0 10.389,-0.31585 5.7731,11.128 -1.7414,4.3172 -0.92182,15.435 5.03,68.233 12.497,110.86 17.765,138.52 31.996,167.98 10.668,22.089 28.027,39.337 60.794,60.407 15.806,10.163 23.366,16.003 23.023,17.784 -0.66876,3.4726 -9.1856,8.307 -16.705,9.4821 -3.5084,0.54836 -10.895,-0.43521 -17.911,-2.385 v -4e-5 z" />
      <path
         style="fill:#c50000;stroke:#550000;stroke-width:6"
         inkscape:connector-curvature="0"
         id="path660"
         d="m 79.449,734 c -2.8611,-1.2462 -7.2027,-4.6434 -9.6478,-7.5494 -12.775,-15.18 -32.183,-103.12 -41.36,-187.41 -5.302,-48.69 -6.884,-118.32 -3.335,-146.79 l 0.90336,-7.2498 h 18.381 l -2.2808,5.544 c -6.0413,14.684 -5.3267,26.252 6.8759,111.31 11.003,76.694 19.696,125.04 28.022,155.84 3.2188,11.909 5.4522,16.268 13.548,26.44 11.106,13.956 18.89,21.16 29.721,27.507 l 7.6133,4.4616 -7.2631,6.6949 c -13.308,12.267 -28.96,16.526 -41.176,11.205 l -1.7e-5,-3e-5 z" />
      <path
         style="fill:#c50000;stroke:#550000;stroke-width:6"
         inkscape:connector-curvature="0"
         id="path662"
         d="M 22.634,736.02 C 14.77,689.91 9.718,613.46 7.949,513.79 7.4327,484.71 6.5786,443.83 6.0509,422.95 L 5.09144,384.995 h 17.073 l -0.97373,33.69 c -1.1246,38.911 1.6219,96.874 6.4292,135.68 9.4588,76.361 26.823,153.92 38.223,170.71 3.7246,5.4884 3.8598,6.1978 1.1819,6.1978 -1.6632,0 -9.1244,2.9496 -16.581,6.5545 -7.456,3.605 -16.353,7.0787 -19.771,7.7193 l -6.2143,1.1648 -1.8257,-10.705 z" />
      <path
         style="fill:#ffacac;fill-opacity:0.28455003"
         inkscape:connector-curvature="0"
         id="path664"
         d="m 57.906,324.72 c 1.5041,0.53025 4.123,0.875 7.6875,0.875 9.0022,0 9.1623,-0.092 14.469,-8.2812 15.234,-23.51 75.866,-84.834 211.84,-214.25 52.071,-49.558 96.975,-92.304 99.781,-95 l 5.1,-4.9138 -75.03,0.4376 -5.28,0.0312 c -1.3248,4.3683 -2.6477,8.7383 -4,12.781 -1.7954,5.3677 -3.6303,10.447 -5.5312,15.344 -1.9009,4.8969 -3.8658,9.6129 -5.9375,14.156 -2.0717,4.5433 -4.2547,8.9119 -6.5625,13.219 -2.3078,4.3069 -4.7347,8.5312 -7.3438,12.719 -2.6091,4.1876 -5.3994,8.3458 -8.375,12.531 -2.9756,4.1855 -6.1551,8.4183 -9.5625,12.719 -3.4074,4.3005 -7.033,8.686 -10.938,13.219 -3.9044,4.5327 -8.0958,9.2117 -12.562,14.094 -8.9335,9.7642 -19.051,20.323 -30.625,32.188 -11.574,11.865 -24.607,25.035 -39.344,39.938 -7.6558,7.7419 -15.236,15.592 -22.719,23.5 -7.4827,7.9077 -14.868,15.868 -22.125,23.781 -14.515,15.826 -28.513,31.489 -41.812,46.375 -11.023,12.337 -21.199,23.646 -31.125,34.531 z" />
      <path
         style="fill:#e03131"
         inkscape:connector-curvature="0"
         id="path666"
         d="m 198.62,3.7463 c -4.62,34.316 1.68,72.586 -15.26,102.46 -43.06,75.92 -99.87,146.08 -142.27,217.2 1.1261,0.12603 2.4739,0.18699 3.9062,0.18601 h 7.25 l 6.2812,-13.114 c 45.91,-80.335 126.83,-135.3 173.94,-214.81 6.2293,-11.942 6.5625,-13.343 6.5625,-28.367 0,-14.743 2.1646,-42.592 4.4375,-57.199 l 0.96875,-6.3554 h -45.812 z" />
      <path
         style="fill:#e03131"
         inkscape:connector-curvature="0"
         id="path668"
         d="m 130.87,12.474 c -2.9023,38.874 -10.909,77.221 -23.204,114.19 -13.761,40.652 -16.78,71.651 -42.759,106.21 -14.769,16.487 -28.12,49.818 -32.886,71.511 -13.311,17.907 -8.0233,16.098 3.0112,17.085 5.8315,-20.665 8.2575,-42.54 17.318,-62.143 8.8736,-12.793 20.272,-23.816 27.574,-37.771 27.152,-47.13 45.152,-99.2 56.792,-152.21 4.54,-22.022 6,-42.763 7.61,-65.167 -16.5,0.1203 -14.42,-0.2113 -13.46,8.2994 z" />
      <path
         style="fill:#e03131"
         inkscape:connector-curvature="0"
         id="path670"
         d="m 79.531,1.1875 c 0.85821,23.151 1.6875,47.895 1.6875,58.219 0,16.806 -31.794,131.17 -75.812,198.22 l 0.0625,66.812 5.9688,-6.8125 c 9.6238,-10.989 20.372,-35.143 25.438,-57.156 2.4828,-10.789 14.925,-51.845 27.656,-91.25 34.111,-105.58 37.149,-117.26 39.189,-150.53 l 1.0625,-17.5 h -25.25 z" />
      <path
         style="fill:#ff3232"
         inkscape:connector-curvature="0"
         id="path672"
         d="m 63.906,385.19 -1.375,3.0625 c -5.769,12.709 -8.0684,32.528 4.9126,122.44 9.8545,68.254 11.872,121.5 34.556,155.6 10.71,16.099 39.021,43.898 49.094,44 2.4329,0.0247 9.8075,1.5188 16.375,3.3438 3.8929,1.0818 7.8862,1.8597 11.281,2.25 2.919,-1.728 5.0255,-3.6914 5.3438,-5.3438 0.34298,-1.7809 -7.2257,-7.6181 -23.031,-17.781 -32.766,-21.069 -50.113,-38.318 -60.781,-60.406 -14.231,-29.466 -19.503,-57.109 -32,-167.97 -5.9518,-52.799 -6.7726,-63.933 -5.0312,-68.25 3.3278,-8.2504 4.3039,-10.387 0.65625,-10.938 z" />
      <path
         style="fill:#ff3232"
         inkscape:connector-curvature="0"
         id="path674"
         d="m 31.406,385 -0.25,3.25 c -2.2022,28.475 2.6473,98.092 10.25,146.78 13.161,84.286 36.726,172.22 50.219,187.41 2.5826,2.906 7.1112,6.3163 10.031,7.5625 1.9767,0.84361 4.0211,1.4442 6.125,1.8125 4.3854,-2.2144 8.7352,-5.2129 12.844,-9 l 7.25,-6.7188 -7.5938,-4.4375 c -10.83,-6.34 -18.61,-13.57 -29.718,-27.53 -8.095,-10.17 -10.343,-14.52 -13.562,-26.43 -8.326,-30.81 -16.997,-79.15 -28,-155.85 -12.203,-85.05 -12.948,-96.62 -6.906,-111.31 l 2.281,-5.53 h -12.969 z" />
      <path
         style="fill:#e03131;fill-rule:evenodd"
         inkscape:connector-curvature="0"
         id="path676"
         d="m 11.75,334.25 -5.1562,5.625 v 35.562 c 0,1.0371 0.2948,2.0051 0.75,2.8125 0.84397,0.64352 3.0253,-0.48133 4.9688,-2.5938 l 29.375,-31.938 c 0.71402,-0.7761 1.2761,-1.5752 1.6875,-2.3125 -1.1283,-1.2451 -2.4717,-2.5882 -4.125,-3.9688 -6.007,4.8267 -10.908,9.5933 -11.688,11.281 -1.0998,2.383 -2.7107,-6.4678 -15.812,-14.469 z" />
      <path
         style="fill:#890000;fill-opacity:0.55681996;fill-rule:evenodd"
         inkscape:connector-curvature="0"
         id="path678"
         d="m 37.138,358.25 c -1.5285,-0.22994 -5.2632,13.181 -28.812,20.938 0.34039,0.0938 0.69634,0.15625 1.0625,0.15625 h 53.469 c -10.554,-5.7712 -24.032,-17.809 -25.375,-20.719 -0.11308,-0.24501 -0.20917,-0.35475 -0.34375,-0.375 z" />
      <path
         style="fill:#890000;fill-opacity:0.55681996;fill-rule:evenodd"
         inkscape:connector-curvature="0"
         id="path680"
         d="m 33.219,328.94 c -0.94482,-10e-6 -1.8118,0.31575 -2.5312,0.875 h -19.219 c -1.5353,0 -2.8757,0.84894 -3.6875,2.1875 16.828,8.4579 18.578,19.326 19.781,16.719 0.77905,-1.6879 5.6805,-6.4546 11.688,-11.281 7.912,6.607 9.1483,12.387 10.062,10.406 1.2145,-2.6315 12.356,-12.729 22.281,-18.906 h -38.375 z" />
    </g>
  </g>
  <g
     id="g864"
     transform="matrix(-0.31863,0,0,0.31863,770.32736,37.6674)">
    <path
       inkscape:connector-curvature="0"
       id="path858"
       d="m 1177.1,1385.6 -2.8497,-75.522 c -0.9212,-12.525 13.107,-28.228 33.247,-28.513 l 78.842,-0.7706 c 17.899,-0.1387 25.123,12.6 26.061,25.137 l -0.2525,67.056 c 0.6224,9.5336 -1.1427,17.362 -4.7049,26.213 l -10.655,26.472 26.597,-23.89 c 4.1128,-2.2815 7.8232,12.208 -3.7996,28.513 l -27.547,27.743 h -120.64 c 1.7608,-8.5858 -0.019,-13.401 5.6994,-26.202 l 11.399,-26.972 c -5.9171,-5.8493 -9.7704,-12.257 -11.399,-19.266 z"
       style="color:#000000" />
    <path
       inkscape:connector-curvature="0"
       id="path860"
       d="m 1276.7,1242.8 c 0,20.281 -16.441,36.723 -36.723,36.723 -20.281,0 -36.723,-16.441 -36.723,-36.723 0,-20.281 16.441,-36.723 36.723,-36.723 20.281,0 36.723,16.441 36.723,36.723 z" />
    <path
       inkscape:connector-curvature="0"
       id="path862"
       d="m 1191,1405.5 5.1968,-68.639 c 1.7291,-18.088 0.8692,-29.384 17.136,-29.66 l 52.098,-0.6766 c 16.242,-0.059 17.681,18.308 18.94,30.523 l 9.5596,88.824 -2.6805,30.558 h -116.87 z"
       style="color:#000000;fill:#003366" />
  </g>
  <g
     id="g890"
     transform="matrix(-0.31863,0,0,0.31863,908.40736,37.6674)">
    <path
       inkscape:connector-curvature="0"
       id="path884"
       d="m 1177.1,1385.6 -2.8497,-75.522 c -0.9212,-12.525 13.107,-28.228 33.247,-28.513 l 78.842,-0.7706 c 17.899,-0.1387 25.123,12.6 26.061,25.137 l -0.2525,67.056 c 0.6224,9.5336 -1.1427,17.362 -4.7049,26.213 l -10.655,26.472 26.597,-23.89 c 4.1128,-2.2815 7.8232,12.208 -3.7996,28.513 l -27.547,27.743 h -120.64 c 1.7608,-8.5858 -0.019,-13.401 5.6994,-26.202 l 11.399,-26.972 c -5.9171,-5.8493 -9.7704,-12.257 -11.399,-19.266 z"
       style="color:#000000" />
    <path
       inkscape:connector-curvature="0"
       id="path886"
       d="m 1276.7,1242.8 c 0,20.281 -16.441,36.723 -36.723,36.723 -20.281,0 -36.723,-16.441 -36.723,-36.723 0,-20.281 16.441,-36.723 36.723,-36.723 20.281,0 36.723,16.441 36.723,36.723 z" />
    <path
       inkscape:connector-curvature="0"
       id="path888"
       d="m 1191,1405.5 5.1968,-68.639 c 1.7291,-18.088 0.8692,-29.384 17.136,-29.66 l 52.098,-0.6766 c 16.242,-0.059 17.681,18.308 18.94,30.523 l 9.5596,88.824 -2.6805,30.558 h -116.87 z"
       style="color:#000000;fill:#003366" />
  </g>
  <g
     id="g1050"
     transform="matrix(-0.31863,0,0,0.31863,842.31736,37.6674)">
    <path
       inkscape:connector-curvature="0"
       id="path1044"
       d="m 1177.1,1385.6 -2.8497,-75.522 c -0.9212,-12.525 13.107,-28.228 33.247,-28.513 l 78.842,-0.7706 c 17.899,-0.1387 25.123,12.6 26.061,25.137 l -0.2525,67.056 c 0.6224,9.5336 -1.1427,17.362 -4.7049,26.213 l -10.655,26.472 26.597,-23.89 c 4.1128,-2.2815 7.8232,12.208 -3.7996,28.513 l -27.547,27.743 h -120.64 c 1.7608,-8.5858 -0.019,-13.401 5.6994,-26.202 l 11.399,-26.972 c -5.9171,-5.8493 -9.7704,-12.257 -11.399,-19.266 z"
       style="color:#000000" />
    <path
       inkscape:connector-curvature="0"
       id="path1046"
       d="m 1276.7,1242.8 c 0,20.281 -16.441,36.723 -36.723,36.723 -20.281,0 -36.723,-16.441 -36.723,-36.723 0,-20.281 16.441,-36.723 36.723,-36.723 20.281,0 36.723,16.441 36.723,36.723 z" />
    <path
       inkscape:connector-curvature="0"
       id="path1048"
       d="m 1191,1405.5 5.1968,-68.639 c 1.7291,-18.088 0.8692,-29.384 17.136,-29.66 l 52.098,-0.6766 c 16.242,-0.059 17.681,18.308 18.94,30.523 l 9.5596,88.824 -2.6805,30.558 h -116.87 z"
       style="color:#000000;fill:#003366" />
  </g>
  <g
     id="g1216"
     transform="matrix(0.31863,0,0,0.31863,-120.46264,37.6674)">
    <path
       inkscape:connector-curvature="0"
       id="path1210"
       d="m 1177.1,1385.6 -2.8497,-75.522 c -0.9212,-12.525 13.107,-28.228 33.247,-28.513 l 78.842,-0.7706 c 17.899,-0.1387 25.123,12.6 26.061,25.137 l -0.2525,67.056 c 0.6224,9.5336 -1.1427,17.362 -4.7049,26.213 l -10.655,26.472 26.597,-23.89 c 4.1128,-2.2815 7.8232,12.208 -3.7996,28.513 l -27.547,27.743 h -120.64 c 1.7608,-8.5858 -0.019,-13.401 5.6994,-26.202 l 11.399,-26.972 c -5.9171,-5.8493 -9.7704,-12.257 -11.399,-19.266 z"
       style="color:#000000" />
    <path
       inkscape:connector-curvature="0"
       id="path1212"
       d="m 1276.7,1242.8 c 0,20.281 -16.441,36.723 -36.723,36.723 -20.281,0 -36.723,-16.441 -36.723,-36.723 0,-20.281 16.441,-36.723 36.723,-36.723 20.281,0 36.723,16.441 36.723,36.723 z" />
    <path
       inkscape:connector-curvature="0"
       id="path1214"
       d="m 1191,1405.5 5.1968,-68.639 c 1.7291,-18.088 0.8692,-29.384 17.136,-29.66 l 52.098,-0.6766 c 16.242,-0.059 17.681,18.308 18.94,30.523 l 9.5596,88.824 -2.6805,30.558 h -116.87 z"
       style="color:#000000;fill:#003366" />
  </g>
  <g
     id="g1242"
     transform="matrix(0.31863,0,0,0.31863,-190.83264,37.6674)">
    <path
       inkscape:connector-curvature="0"
       id="path1236"
       d="m 1177.1,1385.6 -2.8497,-75.522 c -0.9212,-12.525 13.107,-28.228 33.247,-28.513 l 78.842,-0.7706 c 17.899,-0.1387 25.123,12.6 26.061,25.137 l -0.2525,67.056 c 0.6224,9.5336 -1.1427,17.362 -4.7049,26.213 l -10.655,26.472 26.597,-23.89 c 4.1128,-2.2815 7.8232,12.208 -3.7996,28.513 l -27.547,27.743 h -120.64 c 1.7608,-8.5858 -0.019,-13.401 5.6994,-26.202 l 11.399,-26.972 c -5.9171,-5.8493 -9.7704,-12.257 -11.399,-19.266 z"
       style="color:#000000" />
    <path
       inkscape:connector-curvature="0"
       id="path1238"
       d="m 1276.7,1242.8 c 0,20.281 -16.441,36.723 -36.723,36.723 -20.281,0 -36.723,-16.441 -36.723,-36.723 0,-20.281 16.441,-36.723 36.723,-36.723 20.281,0 36.723,16.441 36.723,36.723 z" />
    <path
       inkscape:connector-curvature="0"
       id="path1240"
       d="m 1191,1405.5 5.1968,-68.639 c 1.7291,-18.088 0.8692,-29.384 17.136,-29.66 l 52.098,-0.6766 c 16.242,-0.059 17.681,18.308 18.94,30.523 l 9.5596,88.824 -2.6805,30.558 h -116.87 z"
       style="color:#000000;fill:#003366" />
  </g>
  <g
     id="g1250"
     transform="matrix(0.31863,0,0,0.31863,-262.41264,37.6674)">
    <path
       inkscape:connector-curvature="0"
       id="path1244"
       d="m 1177.1,1385.6 -2.8497,-75.522 c -0.9212,-12.525 13.107,-28.228 33.247,-28.513 l 78.842,-0.7706 c 17.899,-0.1387 25.123,12.6 26.061,25.137 l -0.2525,67.056 c 0.6224,9.5336 -1.1427,17.362 -4.7049,26.213 l -10.655,26.472 26.597,-23.89 c 4.1128,-2.2815 7.8232,12.208 -3.7996,28.513 l -27.547,27.743 h -120.64 c 1.7608,-8.5858 -0.019,-13.401 5.6994,-26.202 l 11.399,-26.972 c -5.9171,-5.8493 -9.7704,-12.257 -11.399,-19.266 z"
       style="color:#000000" />
    <path
       inkscape:connector-curvature="0"
       id="path1246"
       d="m 1276.7,1242.8 c 0,20.281 -16.441,36.723 -36.723,36.723 -20.281,0 -36.723,-16.441 -36.723,-36.723 0,-20.281 16.441,-36.723 36.723,-36.723 20.281,0 36.723,16.441 36.723,36.723 z" />
    <path
       inkscape:connector-curvature="0"
       id="path1248"
       d="m 1191,1405.5 5.1968,-68.639 c 1.7291,-18.088 0.8692,-29.384 17.136,-29.66 l 52.098,-0.6766 c 16.242,-0.059 17.681,18.308 18.94,30.523 l 9.5596,88.824 -2.6805,30.558 h -116.87 z"
       style="color:#000000;fill:#003366" />
  </g>
  <g
     id="g1410"
     transform="matrix(-0.31863,0,0,0.31863,778.57736,101.0174)">
    <path
       inkscape:connector-curvature="0"
       id="path1404"
       d="m 1177.1,1385.6 -2.8497,-75.522 c -0.9212,-12.525 13.107,-28.228 33.247,-28.513 l 78.842,-0.7706 c 17.899,-0.1387 25.123,12.6 26.061,25.137 l -0.2525,67.056 c 0.6224,9.5336 -1.1427,17.362 -4.7049,26.213 l -10.655,26.472 26.597,-23.89 c 4.1128,-2.2815 7.8232,12.208 -3.7996,28.513 l -27.547,27.743 h -120.64 c 1.7608,-8.5858 -0.019,-13.401 5.6994,-26.202 l 11.399,-26.972 c -5.9171,-5.8493 -9.7704,-12.257 -11.399,-19.266 z"
       style="color:#000000" />
    <path
       inkscape:connector-curvature="0"
       id="path1406"
       d="m 1276.7,1242.8 c 0,20.281 -16.441,36.723 -36.723,36.723 -20.281,0 -36.723,-16.441 -36.723,-36.723 0,-20.281 16.441,-36.723 36.723,-36.723 20.281,0 36.723,16.441 36.723,36.723 z" />
    <path
       inkscape:connector-curvature="0"
       id="path1408"
       d="m 1191,1405.5 5.1968,-68.639 c 1.7291,-18.088 0.8692,-29.384 17.136,-29.66 l 52.098,-0.6766 c 16.242,-0.059 17.681,18.308 18.94,30.523 l 9.5596,88.824 -2.6805,30.558 h -116.87 z"
       style="color:#000000;fill:#003366" />
  </g>
  <g
     id="g1436"
     transform="matrix(-0.31863,0,0,0.31863,857.62736,101.9074)">
    <path
       inkscape:connector-curvature="0"
       id="path1430"
       d="m 1177.1,1385.6 -2.8497,-75.522 c -0.9212,-12.525 13.107,-28.228 33.247,-28.513 l 78.842,-0.7706 c 17.899,-0.1387 25.123,12.6 26.061,25.137 l -0.2525,67.056 c 0.6224,9.5336 -1.1427,17.362 -4.7049,26.213 l -10.655,26.472 26.597,-23.89 c 4.1128,-2.2815 7.8232,12.208 -3.7996,28.513 l -27.547,27.743 h -120.64 c 1.7608,-8.5858 -0.019,-13.401 5.6994,-26.202 l 11.399,-26.972 c -5.9171,-5.8493 -9.7704,-12.257 -11.399,-19.266 z"
       style="color:#000000" />
    <path
       inkscape:connector-curvature="0"
       id="path1432"
       d="m 1276.7,1242.8 c 0,20.281 -16.441,36.723 -36.723,36.723 -20.281,0 -36.723,-16.441 -36.723,-36.723 0,-20.281 16.441,-36.723 36.723,-36.723 20.281,0 36.723,16.441 36.723,36.723 z" />
    <path
       inkscape:connector-curvature="0"
       id="path1434"
       d="m 1191,1405.5 5.1968,-68.639 c 1.7291,-18.088 0.8692,-29.384 17.136,-29.66 l 52.098,-0.6766 c 16.242,-0.059 17.681,18.308 18.94,30.523 l 9.5596,88.824 -2.6805,30.558 h -116.87 z"
       style="color:#000000;fill:#003366" />
  </g>
  <g
     id="g1462"
     transform="matrix(0.31863,0,0,0.31863,-135.99264,101.9074)">
    <path
       inkscape:connector-curvature="0"
       id="path1456"
       d="m 1177.1,1385.6 -2.8497,-75.522 c -0.9212,-12.525 13.107,-28.228 33.247,-28.513 l 78.842,-0.7706 c 17.899,-0.1387 25.123,12.6 26.061,25.137 l -0.2525,67.056 c 0.6224,9.5336 -1.1427,17.362 -4.7049,26.213 l -10.655,26.472 26.597,-23.89 c 4.1128,-2.2815 7.8232,12.208 -3.7996,28.513 l -27.547,27.743 h -120.64 c 1.7608,-8.5858 -0.019,-13.401 5.6994,-26.202 l 11.399,-26.972 c -5.9171,-5.8493 -9.7704,-12.257 -11.399,-19.266 z"
       style="color:#000000" />
    <path
       inkscape:connector-curvature="0"
       id="path1458"
       d="m 1276.7,1242.8 c 0,20.281 -16.441,36.723 -36.723,36.723 -20.281,0 -36.723,-16.441 -36.723,-36.723 0,-20.281 16.441,-36.723 36.723,-36.723 20.281,0 36.723,16.441 36.723,36.723 z" />
    <path
       inkscape:connector-curvature="0"
       id="path1460"
       d="m 1191,1405.5 5.1968,-68.639 c 1.7291,-18.088 0.8692,-29.384 17.136,-29.66 l 52.098,-0.6766 c 16.242,-0.059 17.681,18.308 18.94,30.523 l 9.5596,88.824 -2.6805,30.558 h -116.87 z"
       style="color:#000000;fill:#003366" />
  </g>
  <g
     id="g1628"
     transform="matrix(0.31863,0,0,0.31863,-211.68264,101.3774)">
    <path
       inkscape:connector-curvature="0"
       id="path1622"
       d="m 1177.1,1385.6 -2.8497,-75.522 c -0.9212,-12.525 13.107,-28.228 33.247,-28.513 l 78.842,-0.7706 c 17.899,-0.1387 25.123,12.6 26.061,25.137 l -0.2525,67.056 c 0.6224,9.5336 -1.1427,17.362 -4.7049,26.213 l -10.655,26.472 26.597,-23.89 c 4.1128,-2.2815 7.8232,12.208 -3.7996,28.513 l -27.547,27.743 h -120.64 c 1.7608,-8.5858 -0.019,-13.401 5.6994,-26.202 l 11.399,-26.972 c -5.9171,-5.8493 -9.7704,-12.257 -11.399,-19.266 z"
       style="color:#000000" />
    <path
       inkscape:connector-curvature="0"
       id="path1624"
       d="m 1276.7,1242.8 c 0,20.281 -16.441,36.723 -36.723,36.723 -20.281,0 -36.723,-16.441 -36.723,-36.723 0,-20.281 16.441,-36.723 36.723,-36.723 20.281,0 36.723,16.441 36.723,36.723 z" />
    <path
       inkscape:connector-curvature="0"
       id="path1626"
       d="m 1191,1405.5 5.1968,-68.639 c 1.7291,-18.088 0.8692,-29.384 17.136,-29.66 l 52.098,-0.6766 c 16.242,-0.059 17.681,18.308 18.94,30.523 l 9.5596,88.824 -2.6805,30.558 h -116.87 z"
       style="color:#000000;fill:#003366" />
  </g>
  <g
     id="g1654"
     transform="matrix(0.31863,0,0,0.31863,-277.46264,101.3774)">
    <path
       inkscape:connector-curvature="0"
       id="path1648"
       d="m 1177.1,1385.6 -2.8497,-75.522 c -0.9212,-12.525 13.107,-28.228 33.247,-28.513 l 78.842,-0.7706 c 17.899,-0.1387 25.123,12.6 26.061,25.137 l -0.2525,67.056 c 0.6224,9.5336 -1.1427,17.362 -4.7049,26.213 l -10.655,26.472 26.597,-23.89 c 4.1128,-2.2815 7.8232,12.208 -3.7996,28.513 l -27.547,27.743 h -120.64 c 1.7608,-8.5858 -0.019,-13.401 5.6994,-26.202 l 11.399,-26.972 c -5.9171,-5.8493 -9.7704,-12.257 -11.399,-19.266 z"
       style="color:#000000" />
    <path
       inkscape:connector-curvature="0"
       id="path1650"
       d="m 1276.7,1242.8 c 0,20.281 -16.441,36.723 -36.723,36.723 -20.281,0 -36.723,-16.441 -36.723,-36.723 0,-20.281 16.441,-36.723 36.723,-36.723 20.281,0 36.723,16.441 36.723,36.723 z" />
    <path
       inkscape:connector-curvature="0"
       id="path1652"
       d="m 1191,1405.5 5.1968,-68.639 c 1.7291,-18.088 0.8692,-29.384 17.136,-29.66 l 52.098,-0.6766 c 16.242,-0.059 17.681,18.308 18.94,30.523 l 9.5596,88.824 -2.6805,30.558 h -116.87 z"
       style="color:#000000;fill:#003366" />
  </g>
  <g
     id="g1820"
     transform="matrix(0.31863,0,0,0.31863,-342.63264,101.3774)">
    <path
       inkscape:connector-curvature="0"
       id="path1814"
       d="m 1177.1,1385.6 -2.8497,-75.522 c -0.9212,-12.525 13.107,-28.228 33.247,-28.513 l 78.842,-0.7706 c 17.899,-0.1387 25.123,12.6 26.061,25.137 l -0.2525,67.056 c 0.6224,9.5336 -1.1427,17.362 -4.7049,26.213 l -10.655,26.472 26.597,-23.89 c 4.1128,-2.2815 7.8232,12.208 -3.7996,28.513 l -27.547,27.743 h -120.64 c 1.7608,-8.5858 -0.019,-13.401 5.6994,-26.202 l 11.399,-26.972 c -5.9171,-5.8493 -9.7704,-12.257 -11.399,-19.266 z"
       style="color:#000000" />
    <path
       inkscape:connector-curvature="0"
       id="path1816"
       d="m 1276.7,1242.8 c 0,20.281 -16.441,36.723 -36.723,36.723 -20.281,0 -36.723,-16.441 -36.723,-36.723 0,-20.281 16.441,-36.723 36.723,-36.723 20.281,0 36.723,16.441 36.723,36.723 z" />
    <path
       inkscape:connector-curvature="0"
       id="path1818"
       d="m 1191,1405.5 5.1968,-68.639 c 1.7291,-18.088 0.8692,-29.384 17.136,-29.66 l 52.098,-0.6766 c 16.242,-0.059 17.681,18.308 18.94,30.523 l 9.5596,88.824 -2.6805,30.558 h -116.87 z"
       style="color:#000000;fill:#003366" />
  </g>
  <g
     id="g1828"
     transform="matrix(-0.31863,0,0,0.31863,929.22736,100.8574)">
    <path
       inkscape:connector-curvature="0"
       id="path1822"
       d="m 1177.1,1385.6 -2.8497,-75.522 c -0.9212,-12.525 13.107,-28.228 33.247,-28.513 l 78.842,-0.7706 c 17.899,-0.1387 25.123,12.6 26.061,25.137 l -0.2525,67.056 c 0.6224,9.5336 -1.1427,17.362 -4.7049,26.213 l -10.655,26.472 26.597,-23.89 c 4.1128,-2.2815 7.8232,12.208 -3.7996,28.513 l -27.547,27.743 h -120.64 c 1.7608,-8.5858 -0.019,-13.401 5.6994,-26.202 l 11.399,-26.972 c -5.9171,-5.8493 -9.7704,-12.257 -11.399,-19.266 z"
       style="color:#000000" />
    <path
       inkscape:connector-curvature="0"
       id="path1824"
       d="m 1276.7,1242.8 c 0,20.281 -16.441,36.723 -36.723,36.723 -20.281,0 -36.723,-16.441 -36.723,-36.723 0,-20.281 16.441,-36.723 36.723,-36.723 20.281,0 36.723,16.441 36.723,36.723 z" />
    <path
       inkscape:connector-curvature="0"
       id="path1826"
       d="m 1191,1405.5 5.1968,-68.639 c 1.7291,-18.088 0.8692,-29.384 17.136,-29.66 l 52.098,-0.6766 c 16.242,-0.059 17.681,18.308 18.94,30.523 l 9.5596,88.824 -2.6805,30.558 h -116.87 z"
       style="color:#000000;fill:#003366" />
  </g>
  <g
     id="g1836"
     transform="matrix(-0.31863,0,0,0.31863,870.26736,162.8274)">
    <path
       inkscape:connector-curvature="0"
       id="path1830"
       d="m 1177.1,1385.6 -2.8497,-75.522 c -0.9212,-12.525 13.107,-28.228 33.247,-28.513 l 78.842,-0.7706 c 17.899,-0.1387 25.123,12.6 26.061,25.137 l -0.2525,67.056 c 0.6224,9.5336 -1.1427,17.362 -4.7049,26.213 l -10.655,26.472 26.597,-23.89 c 4.1128,-2.2815 7.8232,12.208 -3.7996,28.513 l -27.547,27.743 h -120.64 c 1.7608,-8.5858 -0.019,-13.401 5.6994,-26.202 l 11.399,-26.972 c -5.9171,-5.8493 -9.7704,-12.257 -11.399,-19.266 z"
       style="color:#000000" />
    <path
       inkscape:connector-curvature="0"
       id="path1832"
       d="m 1276.7,1242.8 c 0,20.281 -16.441,36.723 -36.723,36.723 -20.281,0 -36.723,-16.441 -36.723,-36.723 0,-20.281 16.441,-36.723 36.723,-36.723 20.281,0 36.723,16.441 36.723,36.723 z" />
    <path
       inkscape:connector-curvature="0"
       id="path1834"
       d="m 1191,1405.5 5.1968,-68.639 c 1.7291,-18.088 0.8692,-29.384 17.136,-29.66 l 52.098,-0.6766 c 16.242,-0.059 17.681,18.308 18.94,30.523 l 9.5596,88.824 -2.6805,30.558 h -116.87 z"
       style="color:#000000;fill:#003366" />
  </g>
  <g
     id="g1862"
     transform="matrix(-0.31863,0,0,0.31863,945.36736,163.3474)">
    <path
       inkscape:connector-curvature="0"
       id="path1856"
       d="m 1177.1,1385.6 -2.8497,-75.522 c -0.9212,-12.525 13.107,-28.228 33.247,-28.513 l 78.842,-0.7706 c 17.899,-0.1387 25.123,12.6 26.061,25.137 l -0.2525,67.056 c 0.6224,9.5336 -1.1427,17.362 -4.7049,26.213 l -10.655,26.472 26.597,-23.89 c 4.1128,-2.2815 7.8232,12.208 -3.7996,28.513 l -27.547,27.743 h -120.64 c 1.7608,-8.5858 -0.019,-13.401 5.6994,-26.202 l 11.399,-26.972 c -5.9171,-5.8493 -9.7704,-12.257 -11.399,-19.266 z"
       style="color:#000000" />
    <path
       inkscape:connector-curvature="0"
       id="path1858"
       d="m 1276.7,1242.8 c 0,20.281 -16.441,36.723 -36.723,36.723 -20.281,0 -36.723,-16.441 -36.723,-36.723 0,-20.281 16.441,-36.723 36.723,-36.723 20.281,0 36.723,16.441 36.723,36.723 z" />
    <path
       inkscape:connector-curvature="0"
       id="path1860"
       d="m 1191,1405.5 5.1968,-68.639 c 1.7291,-18.088 0.8692,-29.384 17.136,-29.66 l 52.098,-0.6766 c 16.242,-0.059 17.681,18.308 18.94,30.523 l 9.5596,88.824 -2.6805,30.558 h -116.87 z"
       style="color:#000000;fill:#003366" />
  </g>
  <g
     id="g1888"
     transform="matrix(-0.31863,0,0,0.31863,793.69736,163.3474)">
    <path
       inkscape:connector-curvature="0"
       id="path1882"
       d="m 1177.1,1385.6 -2.8497,-75.522 c -0.9212,-12.525 13.107,-28.228 33.247,-28.513 l 78.842,-0.7706 c 17.899,-0.1387 25.123,12.6 26.061,25.137 l -0.2525,67.056 c 0.6224,9.5336 -1.1427,17.362 -4.7049,26.213 l -10.655,26.472 26.597,-23.89 c 4.1128,-2.2815 7.8232,12.208 -3.7996,28.513 l -27.547,27.743 h -120.64 c 1.7608,-8.5858 -0.019,-13.401 5.6994,-26.202 l 11.399,-26.972 c -5.9171,-5.8493 -9.7704,-12.257 -11.399,-19.266 z"
       style="color:#000000" />
    <path
       inkscape:connector-curvature="0"
       id="path1884"
       d="m 1276.7,1242.8 c 0,20.281 -16.441,36.723 -36.723,36.723 -20.281,0 -36.723,-16.441 -36.723,-36.723 0,-20.281 16.441,-36.723 36.723,-36.723 20.281,0 36.723,16.441 36.723,36.723 z" />
    <path
       inkscape:connector-curvature="0"
       id="path1886"
       d="m 1191,1405.5 5.1968,-68.639 c 1.7291,-18.088 0.8692,-29.384 17.136,-29.66 l 52.098,-0.6766 c 16.242,-0.059 17.681,18.308 18.94,30.523 l 9.5596,88.824 -2.6805,30.558 h -116.87 z"
       style="color:#000000;fill:#003366" />
  </g>
  <g
     id="g1896"
     transform="matrix(0.31863,0,0,0.31863,-151.44264,162.8274)">
    <path
       inkscape:connector-curvature="0"
       id="path1890"
       d="m 1177.1,1385.6 -2.8497,-75.522 c -0.9212,-12.525 13.107,-28.228 33.247,-28.513 l 78.842,-0.7706 c 17.899,-0.1387 25.123,12.6 26.061,25.137 l -0.2525,67.056 c 0.6224,9.5336 -1.1427,17.362 -4.7049,26.213 l -10.655,26.472 26.597,-23.89 c 4.1128,-2.2815 7.8232,12.208 -3.7996,28.513 l -27.547,27.743 h -120.64 c 1.7608,-8.5858 -0.019,-13.401 5.6994,-26.202 l 11.399,-26.972 c -5.9171,-5.8493 -9.7704,-12.257 -11.399,-19.266 z"
       style="color:#000000" />
    <path
       inkscape:connector-curvature="0"
       id="path1892"
       d="m 1276.7,1242.8 c 0,20.281 -16.441,36.723 -36.723,36.723 -20.281,0 -36.723,-16.441 -36.723,-36.723 0,-20.281 16.441,-36.723 36.723,-36.723 20.281,0 36.723,16.441 36.723,36.723 z" />
    <path
       inkscape:connector-curvature="0"
       id="path1894"
       d="m 1191,1405.5 5.1968,-68.639 c 1.7291,-18.088 0.8692,-29.384 17.136,-29.66 l 52.098,-0.6766 c 16.242,-0.059 17.681,18.308 18.94,30.523 l 9.5596,88.824 -2.6805,30.558 h -116.87 z"
       style="color:#000000;fill:#003366" />
  </g>
  <g
     id="g1922"
     transform="matrix(0.31863,0,0,0.31863,-224.03264,163.3474)">
    <path
       inkscape:connector-curvature="0"
       id="path1916"
       d="m 1177.1,1385.6 -2.8497,-75.522 c -0.9212,-12.525 13.107,-28.228 33.247,-28.513 l 78.842,-0.7706 c 17.899,-0.1387 25.123,12.6 26.061,25.137 l -0.2525,67.056 c 0.6224,9.5336 -1.1427,17.362 -4.7049,26.213 l -10.655,26.472 26.597,-23.89 c 4.1128,-2.2815 7.8232,12.208 -3.7996,28.513 l -27.547,27.743 h -120.64 c 1.7608,-8.5858 -0.019,-13.401 5.6994,-26.202 l 11.399,-26.972 c -5.9171,-5.8493 -9.7704,-12.257 -11.399,-19.266 z"
       style="color:#000000" />
    <path
       inkscape:connector-curvature="0"
       id="path1918"
       d="m 1276.7,1242.8 c 0,20.281 -16.441,36.723 -36.723,36.723 -20.281,0 -36.723,-16.441 -36.723,-36.723 0,-20.281 16.441,-36.723 36.723,-36.723 20.281,0 36.723,16.441 36.723,36.723 z" />
    <path
       inkscape:connector-curvature="0"
       id="path1920"
       d="m 1191,1405.5 5.1968,-68.639 c 1.7291,-18.088 0.8692,-29.384 17.136,-29.66 l 52.098,-0.6766 c 16.242,-0.059 17.681,18.308 18.94,30.523 l 9.5596,88.824 -2.6805,30.558 h -116.87 z"
       style="color:#000000;fill:#003366" />
  </g>
  <g
     id="g1930"
     transform="matrix(0.31863,0,0,0.31863,-298.49264,162.8274)">
    <path
       inkscape:connector-curvature="0"
       id="path1924"
       d="m 1177.1,1385.6 -2.8497,-75.522 c -0.9212,-12.525 13.107,-28.228 33.247,-28.513 l 78.842,-0.7706 c 17.899,-0.1387 25.123,12.6 26.061,25.137 l -0.2525,67.056 c 0.6224,9.5336 -1.1427,17.362 -4.7049,26.213 l -10.655,26.472 26.597,-23.89 c 4.1128,-2.2815 7.8232,12.208 -3.7996,28.513 l -27.547,27.743 h -120.64 c 1.7608,-8.5858 -0.019,-13.401 5.6994,-26.202 l 11.399,-26.972 c -5.9171,-5.8493 -9.7704,-12.257 -11.399,-19.266 z"
       style="color:#000000" />
    <path
       inkscape:connector-curvature="0"
       id="path1926"
       d="m 1276.7,1242.8 c 0,20.281 -16.441,36.723 -36.723,36.723 -20.281,0 -36.723,-16.441 -36.723,-36.723 0,-20.281 16.441,-36.723 36.723,-36.723 20.281,0 36.723,16.441 36.723,36.723 z" />
    <path
       inkscape:connector-curvature="0"
       id="path1928"
       d="m 1191,1405.5 5.1968,-68.639 c 1.7291,-18.088 0.8692,-29.384 17.136,-29.66 l 52.098,-0.6766 c 16.242,-0.059 17.681,18.308 18.94,30.523 l 9.5596,88.824 -2.6805,30.558 h -116.87 z"
       style="color:#000000;fill:#003366" />
  </g>
  <g
     id="g1956"
     transform="matrix(0.31863,0,0,0.31863,-373.24264,162.8274)">
    <path
       inkscape:connector-curvature="0"
       id="path1950"
       d="m 1177.1,1385.6 -2.8497,-75.522 c -0.9212,-12.525 13.107,-28.228 33.247,-28.513 l 78.842,-0.7706 c 17.899,-0.1387 25.123,12.6 26.061,25.137 l -0.2525,67.056 c 0.6224,9.5336 -1.1427,17.362 -4.7049,26.213 l -10.655,26.472 26.597,-23.89 c 4.1128,-2.2815 7.8232,12.208 -3.7996,28.513 l -27.547,27.743 h -120.64 c 1.7608,-8.5858 -0.019,-13.401 5.6994,-26.202 l 11.399,-26.972 c -5.9171,-5.8493 -9.7704,-12.257 -11.399,-19.266 z"
       style="color:#000000" />
    <path
       inkscape:connector-curvature="0"
       id="path1952"
       d="m 1276.7,1242.8 c 0,20.281 -16.441,36.723 -36.723,36.723 -20.281,0 -36.723,-16.441 -36.723,-36.723 0,-20.281 16.441,-36.723 36.723,-36.723 20.281,0 36.723,16.441 36.723,36.723 z" />
    <path
       inkscape:connector-curvature="0"
       id="path1954"
       d="m 1191,1405.5 5.1968,-68.639 c 1.7291,-18.088 0.8692,-29.384 17.136,-29.66 l 52.098,-0.6766 c 16.242,-0.059 17.681,18.308 18.94,30.523 l 9.5596,88.824 -2.6805,30.558 h -116.87 z"
       style="color:#000000;fill:#003366" />
  </g>
  <g
     id="g1982"
     transform="matrix(-0.31863,0,0,0.31863,997.50736,101.3774)">
    <path
       inkscape:connector-curvature="0"
       id="path1976"
       d="m 1177.1,1385.6 -2.8497,-75.522 c -0.9212,-12.525 13.107,-28.228 33.247,-28.513 l 78.842,-0.7706 c 17.899,-0.1387 25.123,12.6 26.061,25.137 l -0.2525,67.056 c 0.6224,9.5336 -1.1427,17.362 -4.7049,26.213 l -10.655,26.472 26.597,-23.89 c 4.1128,-2.2815 7.8232,12.208 -3.7996,28.513 l -27.547,27.743 h -120.64 c 1.7608,-8.5858 -0.019,-13.401 5.6994,-26.202 l 11.399,-26.972 c -5.9171,-5.8493 -9.7704,-12.257 -11.399,-19.266 z"
       style="color:#000000" />
    <path
       inkscape:connector-curvature="0"
       id="path1978"
       d="m 1276.7,1242.8 c 0,20.281 -16.441,36.723 -36.723,36.723 -20.281,0 -36.723,-16.441 -36.723,-36.723 0,-20.281 16.441,-36.723 36.723,-36.723 20.281,0 36.723,16.441 36.723,36.723 z" />
    <path
       inkscape:connector-curvature="0"
       id="path1980"
       d="m 1191,1405.5 5.1968,-68.639 c 1.7291,-18.088 0.8692,-29.384 17.136,-29.66 l 52.098,-0.6766 c 16.242,-0.059 17.681,18.308 18.94,30.523 l 9.5596,88.824 -2.6805,30.558 h -116.87 z"
       style="color:#000000;fill:#003366" />
  </g>
  <g
     id="g1990"
     transform="matrix(-0.31863,0,0,0.31863,1021.6474,162.8274)">
    <path
       inkscape:connector-curvature="0"
       id="path1984"
       d="m 1177.1,1385.6 -2.8497,-75.522 c -0.9212,-12.525 13.107,-28.228 33.247,-28.513 l 78.842,-0.7706 c 17.899,-0.1387 25.123,12.6 26.061,25.137 l -0.2525,67.056 c 0.6224,9.5336 -1.1427,17.362 -4.7049,26.213 l -10.655,26.472 26.597,-23.89 c 4.1128,-2.2815 7.8232,12.208 -3.7996,28.513 l -27.547,27.743 h -120.64 c 1.7608,-8.5858 -0.019,-13.401 5.6994,-26.202 l 11.399,-26.972 c -5.9171,-5.8493 -9.7704,-12.257 -11.399,-19.266 z"
       style="color:#000000" />
    <path
       inkscape:connector-curvature="0"
       id="path1986"
       d="m 1276.7,1242.8 c 0,20.281 -16.441,36.723 -36.723,36.723 -20.281,0 -36.723,-16.441 -36.723,-36.723 0,-20.281 16.441,-36.723 36.723,-36.723 20.281,0 36.723,16.441 36.723,36.723 z" />
    <path
       inkscape:connector-curvature="0"
       id="path1988"
       d="m 1191,1405.5 5.1968,-68.639 c 1.7291,-18.088 0.8692,-29.384 17.136,-29.66 l 52.098,-0.6766 c 16.242,-0.059 17.681,18.308 18.94,30.523 l 9.5596,88.824 -2.6805,30.558 h -116.87 z"
       style="color:#000000;fill:#003366" />
  </g>
  <metadata
     id="metadata2450">
    <rdf:RDF>
      <cc:Work>
        <dc:format>image/svg+xml</dc:format>
        <dc:type
           rdf:resource="http://purl.org/dc/dcmitype/StillImage" />
        <cc:license
           rdf:resource="http://creativecommons.org/publicdomain/zero/1.0/" />
        <dc:publisher>
          <cc:Agent
             rdf:about="http://openclipart.org/">
            <dc:title>Openclipart</dc:title>
          </cc:Agent>
        </dc:publisher>
        <dc:title>Cinema</dc:title>
        <dc:date>2012-02-17T17:33:50</dc:date>
        <dc:description>The Premiere of The Phantom Of The Opera at a movie theatre with a nice red curtain. The silhouette of an audience, sitting and enjoying popcorn and soft drinks! Credit to the following Open Clip Art Artist:  Audience silhouette and seats Merlin2525, Lukyzcaetano for The_Phantom_of_The_Opera.svg, Gerald G for Fast_Food_Drinks_(FF_Menu)_5.svg, Gnokii for popcorn.svg, and Rastrojo for cortina.svg</dc:description>
        <dc:source>https://openclipart.org/detail/168343/cinema-by-merlin2525</dc:source>
        <dc:creator>
          <cc:Agent>
            <dc:title>Merlin2525</dc:title>
          </cc:Agent>
        </dc:creator>
        <dc:subject>
          <rdf:Bag>
            <rdf:li>ancua</rdf:li>
            <rdf:li>bebida</rdf:li>
            <rdf:li>bebidas</rdf:li>
            <rdf:li>beverage</rdf:li>
            <rdf:li>beverages</rdf:li>
            <rdf:li>billet</rdf:li>
            <rdf:li>billets</rdf:li>
            <rdf:li>boisson</rdf:li>
            <rdf:li>boissons</rdf:li>
            <rdf:li>boleto</rdf:li>
            <rdf:li>boletos</rdf:li>
            <rdf:li>cabritas</rdf:li>
            <rdf:li>canchas</rdf:li>
            <rdf:li>canchitas</rdf:li>
            <rdf:li>canguil</rdf:li>
            <rdf:li>cine</rdf:li>
            <rdf:li>cinema</rdf:li>
            <rdf:li>cocaleca</rdf:li>
            <rdf:li>corn</rdf:li>
            <rdf:li>cotufa</rdf:li>
            <rdf:li>cotufas</rdf:li>
            <rdf:li>crispetas</rdf:li>
            <rdf:li>crispetes</rdf:li>
            <rdf:li>de</rdf:li>
            <rdf:li>entrada</rdf:li>
            <rdf:li>entradas</rdf:li>
            <rdf:li>espectaculo</rdf:li>
            <rdf:li>film</rdf:li>
            <rdf:li>flores</rdf:li>
            <rdf:li>gallitos</rdf:li>
            <rdf:li>maiz</rdf:li>
            <rdf:li>millo</rdf:li>
            <rdf:li>movie</rdf:li>
            <rdf:li>pajaretas</rdf:li>
            <rdf:li>palomas</rdf:li>
            <rdf:li>palomitas</rdf:li>
            <rdf:li>pelicula</rdf:li>
            <rdf:li>pipoca</rdf:li>
            <rdf:li>pipocas</rdf:li>
            <rdf:li>pira</rdf:li>
            <rdf:li>pochoclo</rdf:li>
            <rdf:li>pop</rdf:li>
            <rdf:li>pop-corn</rdf:li>
            <rdf:li>popcorn</rdf:li>
            <rdf:li>poporocho</rdf:li>
            <rdf:li>poporopo</rdf:li>
            <rdf:li>porcor</rdf:li>
            <rdf:li>pororo</rdf:li>
            <rdf:li>poscon</rdf:li>
            <rdf:li>pururu</rdf:li>
            <rdf:li>rosas</rdf:li>
            <rdf:li>roscas</rdf:li>
            <rdf:li>rosetas</rdf:li>
            <rdf:li>rositas</rdf:li>
            <rdf:li>show</rdf:li>
            <rdf:li>spectacle</rdf:li>
            <rdf:li>teatro</rdf:li>
            <rdf:li>theater</rdf:li>
            <rdf:li>theatre</rdf:li>
            <rdf:li>ticket</rdf:li>
            <rdf:li>tickets</rdf:li>
            <rdf:li>tostones</rdf:li>
            <rdf:li>tote</rdf:li>
          </rdf:Bag>
        </dc:subject>
      </cc:Work>
      <cc:License
         rdf:about="http://creativecommons.org/publicdomain/zero/1.0/">
        <cc:permits
           rdf:resource="http://creativecommons.org/ns#Reproduction" />
        <cc:permits
           rdf:resource="http://creativecommons.org/ns#Distribution" />
        <cc:permits
           rdf:resource="http://creativecommons.org/ns#DerivativeWorks" />
      </cc:License>
    </rdf:RDF>
  </metadata>
  <g
     id="g5105"
     transform="matrix(0.08194397,0,0,0.08194397,269.59408,216.01968)">
    <g
       id="_x23_ffffffff">
</g>
    <g
       id="_x23_000000ff">
	<path
   id="path5087"
   d="m 694.8,214.81 c 27.57,-17.09 64.87,-15.3 91.45,2.93 15.71,10.59 27.43,27.19 31.39,45.8 3.01,12.71 2.47,26.01 -0.11,38.74 -1.02,3.37 1.37,6.56 4.52,7.57 3.67,1.65 9.31,2.32 10.02,7.18 -0.06,9.38 -0.29,18.96 -3.01,28.03 -1.85,6.28 -5.46,12.31 -11.14,15.82 -4.6,3 -10.15,3.68 -15.48,4.34 -3.43,13.55 -6.68,27.19 -8.16,41.11 -1.8701,16.55 -1.88,34.13 5.39,49.49 -9.97,18.74 -22.33,36.44 -38.1,50.77 -5.98,5.7 -12.86,10.31 -19.4,15.32 2.11,1.1801 3.65,3.01 4.83,5.1 4.66,7.59 11.99,13.51 15.29,21.92 -1.33,4.91 -5.52,8.15 -9.08,11.45 -1.72,3.52 0.15,7.58 1.28,11.04 2.23,6.99 9.04,11.6 10.13,19.08 2.02,7.87 -1.14,15.69 -1.34,23.56 3.93,-12.83 2.87,-26.89 8.7,-39.18 1.71,-3.59 2.19,-7.6 3.76,-11.24 5.26,-12.69 10.82,-25.26 15.77,-38.07 6.8,-17.51 11.89,-35.77 13.85,-54.49 -0.05,-2.18 1.79,-5.49 4.28,-3.8 6.53,4.09 9.48,11.89 15.58,16.49 9.15,5.89 20.89,5.21 30.0601,11.06 3.54,1.8 7.46,2.61 11.24,3.79 19.5,5.74 39.42,10.45 58.01,18.86 12.83,5.81 25.1899,14.14 32.59,26.43 5.5,8.7 6.99,19.04 8.84,28.97 3.4,18.29 6.17,36.69 8.38,55.16 5.93,48.08 7.29,96.6 6.8,145.01 -0.49,2.82 2.45,4.02 3.99,5.83 4.08,3.81 5.74,9.31 6.54,14.67 2.83,2.61 6.63,3.93 9.98,5.8 28.2899,13.4901 56.52,28.02 80.51,48.47 9.9299,8.7 19.5399,17.81 28.63,27.39 12.97,13.74 24.99,28.66 33.45,45.65 26.83,0.61 53.6801,0.02 80.52,0.29 -0.01,25.37 -0.07,50.74 0.03,76.12 -7.37,0.45 -14.76,-0.03 -22.13,0.26 -31.5901,99.74 -63.3301,199.4299 -94.91,299.1699 -26.14,0.2201 -52.3,-0.2999 -78.42,0.26 0.08,207.6801 0.04,415.36 0.02,623.04 H 374.66 c -0.15,-96.67 -0.02,-193.34 -0.07,-290.01 0.04,-111 -0.06,-222.01 0.05,-333.01 -27.45,-0.6 -54.94,-0.04 -82.4,-0.28 -27.29,-99.73 -54.87,-199.3899 -82.03,-299.16 -7.37,-0.28 -14.75,0.11 -22.12,-0.21 0.05,-25.41 -0.01,-50.81 0.03,-76.22 67.96,-0.01 135.92,0 203.88,0 14.58,-0.16 29.18,0.32 43.75,-0.25 4.44,-16.52 11.17,-32.64 12.38,-49.86 0.93,-14.65 -9.86,-27.23 -8.67,-41.9 1.25,-13.55 12.15,-23.59 14.66,-36.73 4.34,-32.14 -6.17,-64.18 -2.42,-96.34 1.02,-9.65 4.42,-18.79 7.59,-27.89 7.48,-20.23 17.2,-39.63 23.28,-60.38 8.22,-29.23 12.29,-59.45 20.66,-88.64 0.35,-2.44 2.92,-3.13 4.76,-4.15 19.12,-9.44 40.35,-12.92 60.77,-18.38 20.64,-5.52 41.97,-8.47 62.15,-15.64 7,-2.28 13.4301,-6.19 18.57,-11.47 7.95,-7.7 15.35,-17.51 26.9,-19.66 -0.95,11.67 -1.61,23.41 -0.6,35.11 1.91,25.79 7.98,51.03 14.15,76.08 1.34,4.17 -1.02,8.44 0.19,12.68 3.96,25.67 4.66,52.14 13.37,76.84 -1.03,-17.15 0.21,-34.35 -0.22,-51.52 0.06,-5.34 -1.1,-11.13 1.74,-16 3.71,-6.73 8.7,-12.64 12.9,-19.06 0.71,-1.1 1.2401,-2.38 1.02,-3.71 -3.78,-4.1 -9.63,-5.66 -13.28,-9.92 -1.08,-1.22 0.34,-2.65 0.96,-3.69 6.03,-7.96 12.01,-15.97 18.1,-23.88 1.13,-1.79 3.34,-1.91 5.2,-2.39 -5.92,-12.17 -16.61,-20.89 -26.12,-30.15 -11.44,-10.86 -22.94,-23.77 -24.69,-40.14 -1.17,-16.29 5.06,-32.19 3.4901,-48.51 -1.19,-12.93 -9.82,-23.57 -11.9,-36.28 -3.54,-0.46 -7.24,-0.78 -10.39,-2.61 -5.9,-3.36 -9.94,-9.24 -12.42,-15.43 -3.68,-9.41 -4.37,-19.74 -3.4,-29.72 0.37,-2.74 1.35,-6.35 4.52,-6.92 4.32,-0.18 8.5,1.51 12.86,1.33 -3.69,-20.1 -4.01,-41.45 3.15,-60.85 C 670.27,235.95 681.07,223 694.8,214.81 m 205.77,550.75 c -7.02,1.42 -11.64,7.72 -13.92,14.11 -3.63,8.93 -2,19.18 2.16,27.64 1.98,4.09 6.27,6.41 10.55,7.37 12.96,3.14 26.38,3.09 39.64,3.32 6.68,0.11 13.44,0.13 20.02,-1.3 -3.26,-2.64 -7.13,-4.65 -9.47,-8.26 -6.46,-8.55 -5.79,-21.52 1.6,-29.31 5.17,-5.87 13.21,-8.2 20.84,-7.45 -1.34,-0.61 -2.71,-1.12 -4.15,-1.29 -12.55,-1.91 -25.2,-3.37 -37.9,-3.69 -9.79,-0.32 -19.61,-3 -29.37,-1.14 m 79.75,49.71 c -0.73,9.21 -0.58,18.47 -0.95,27.71 -1.07,25.94 -1.6,51.9 -2.07,77.87 18.88,0.6 37.8,0.09 56.69,0.26 31.36,-0.08 62.73,0.15 94.09,-0.11 -4.6699,-11.51 -14.6699,-19.37 -22.63,-28.48 -19.47,-22.28 -41.4099,-42.63 -66.3899,-58.62 -8.8701,-5.65 -18.2501,-10.41 -27.42,-15.52 -7.7,-4 -15.34,-8.24 -23.58,-11.05 -2.0401,3.15 -5.2701,5.23 -7.7401,7.94 m -107.73,60.87 c -0.4901,14.88 -0.31,29.78 0.8799,44.62 2.79,0.42 5.63,0.44 8.45,0.14 -2.01,-14.1 -4.96,-28.05 -8.05,-41.94 -0.3799,-0.99 -0.1299,-2.39 -1.2799,-2.82 m -333.7,44.81 c 0.69,-0.04 2.06,-0.11 2.74,-0.14 0.78,-3.96 2.1,-7.84 2.2,-11.89 -1.92,3.88 -3.88,7.8 -4.94,12.03 z"
   inkscape:connector-curvature="0"
   style="stroke:#000000;stroke-width:0.0938" />

</g>
    <g
       id="_x23_4d4d4dff">
	<path
   id="path5090"
   d="m 900.57,765.56 c 9.76,-1.86 19.58,0.82 29.37,1.14 12.7,0.32 25.35,1.78 37.9,3.69 1.44,0.17 2.81,0.68 4.15,1.29 -7.63,-0.75 -15.67,1.58 -20.84,7.45 -7.39,7.79 -8.06,20.76 -1.6,29.31 2.34,3.61 6.21,5.62 9.47,8.26 -6.58,1.43 -13.34,1.41 -20.02,1.3 -13.26,-0.23 -26.68,-0.18 -39.64,-3.32 -4.28,-0.96 -8.57,-3.28 -10.55,-7.37 -4.16,-8.46 -5.79,-18.71 -2.16,-27.64 2.28,-6.39 6.9,-12.69 13.92,-14.11 z"
   inkscape:connector-curvature="0"
   style="fill:#4d4d4d;stroke:#4d4d4d;stroke-width:0.0938" />

</g>
  </g>
</svg>
