<?xml version="1.0" encoding="UTF-8" standalone="no"?>
<!-- Created with Inkscape (http://www.inkscape.org/) -->

<svg
   xmlns:dc="http://purl.org/dc/elements/1.1/"
   xmlns:cc="http://creativecommons.org/ns#"
   xmlns:rdf="http://www.w3.org/1999/02/22-rdf-syntax-ns#"
   xmlns:svg="http://www.w3.org/2000/svg"
   xmlns="http://www.w3.org/2000/svg"
   xmlns:sodipodi="http://sodipodi.sourceforge.net/DTD/sodipodi-0.dtd"
   xmlns:inkscape="http://www.inkscape.org/namespaces/inkscape"
   version="1.1"
   id="svg2"
   xml:space="preserve"
   width="875.89331"
   height="875.89331"
   viewBox="0 0 875.89331 875.89331"
   sodipodi:docname="river.svg"
   inkscape:version="0.92.4 (5da689c313, 2019-01-14)"><metadata
     id="metadata8"><rdf:RDF><cc:Work
         rdf:about=""><dc:format>image/svg+xml</dc:format><dc:type
           rdf:resource="http://purl.org/dc/dcmitype/StillImage" /><dc:title /></cc:Work></rdf:RDF></metadata><defs
     id="defs6"><filter
       height="1.2496001"
       y="-0.12480004"
       width="1.156"
       x="-0.077999987"
       id="filter1623"
       style="color-interpolation-filters:sRGB"
       inkscape:collect="always"><feGaussianBlur
         id="feGaussianBlur1625"
         stdDeviation="0.19654758"
         inkscape:collect="always" /></filter></defs><sodipodi:namedview
     pagecolor="#ffffff"
     bordercolor="#666666"
     borderopacity="1"
     objecttolerance="10"
     gridtolerance="10"
     guidetolerance="10"
     inkscape:pageopacity="0"
     inkscape:pageshadow="2"
     inkscape:window-width="1920"
     inkscape:window-height="1017"
     id="namedview4"
     showgrid="false"
     inkscape:zoom="1.2316035"
     inkscape:cx="535.83913"
     inkscape:cy="222.76601"
     inkscape:window-x="-8"
     inkscape:window-y="-8"
     inkscape:window-maximized="1"
     inkscape:current-layer="g10" /><g
     id="g10"
     inkscape:groupmode="layer"
     inkscape:label="ink_ext_XXXXXX"
     transform="matrix(1.3333333,0,0,-1.3333333,0,875.89333)"><path
       inkscape:connector-curvature="0"
       id="path14"
       style="fill:#e1f1fb;fill-opacity:1;fill-rule:evenodd;stroke:none;stroke-width:0.1"
       d="M 0,0 H 656.924 V 656.924 H 0 V 0" /><path
       inkscape:connector-curvature="0"
       id="path16"
       style="fill:#c5ddf4;fill-opacity:1;fill-rule:evenodd;stroke:none;stroke-width:0.1"
       d="m 0,393.586 138.028,60.227 28.999,-8.365 50.19,21.748 11.71,-2.788 62.457,28.998 38.479,-12.268 29.557,14.499 89.225,-37.92 27.326,10.038 81.418,-33.46 27.325,5.018 72.21,-37.92 V 227.486 L 0,258.632 v 134.954" /><path
       inkscape:connector-curvature="0"
       id="path18"
       style="fill:#ffffff;fill-opacity:1;fill-rule:evenodd;stroke:none;stroke-width:0.1"
       d="m 232.057,465.862 59.327,27.544 38.479,-12.268 29.555,14.499 55.229,-23.471 h 0.002 l -54.653,9.277 -23.421,-10.038 -26.769,5.019 -14.499,-4.461 -16.172,7.807 -47.078,-13.908" /><path
       inkscape:connector-curvature="0"
       id="path20"
       style="fill:#b3cce9;fill-opacity:1;fill-rule:evenodd;stroke:none;stroke-width:0.1"
       d="m 42.6852,366.005 52.4203,32.344 38.4785,2.788 37.92,20.077 17.846,3.904 -13.384,-8.923 -34.576,-26.768 -27.324,-6.692 -9.481,-45.17 z m 177.8878,-8.649 -1.115,17.287 30.672,23.422 15.056,25.095 26.769,13.384 -17.847,-16.172 12.27,-23.422 -15.615,-18.403 8.922,-39.593 -83.649,-6.977 24.537,25.379" /><path
       inkscape:connector-curvature="0"
       id="path22"
       style="fill:#b3cce9;fill-opacity:1;fill-rule:evenodd;stroke:none;stroke-width:0.1"
       d="m 545.13,374.642 -57.437,39.593 -31.788,3.346 -38.479,23.422 12.27,-27.884 -8.923,-23.422 79.187,-53.534 45.17,38.479" /><path
       inkscape:connector-curvature="0"
       id="path24"
       style="fill:#a0c29d;fill-opacity:1;fill-rule:evenodd;stroke:none;stroke-width:0.1"
       d="m 126.355,292.838 c -6.204,0.609 -11.055,5.843 -11.055,12.209 0,2.671 0.854,5.14 2.302,7.152 -0.045,0.678 -0.072,1.363 -0.072,2.05 0,16.785 13.609,30.393 30.393,30.393 9.282,0 17.592,-4.163 23.167,-10.722 4.01,5.803 10.705,9.607 18.293,9.607 2.247,0 4.414,-0.335 6.459,-0.957 1.942,0.967 4.135,1.514 6.455,1.514 3.609,0 6.909,-1.32 9.447,-3.502 2.815,3.175 6.923,5.175 11.502,5.175 1.591,0 3.129,-0.244 4.574,-0.693 1.272,3.565 3.701,6.578 6.833,8.594 -0.007,0.2 -0.015,0.401 -0.015,0.603 0,5.145 2.607,9.683 6.571,12.363 -1.335,2.112 -2.107,4.612 -2.107,7.295 0,7.545 6.116,13.662 13.66,13.662 7.548,0 13.664,-6.117 13.664,-13.662 0,-4.27 -1.959,-8.082 -5.027,-10.589 0.672,-0.875 1.249,-1.827 1.716,-2.84 1.553,0.569 3.233,0.882 4.983,0.882 2.251,0 4.378,-0.512 6.277,-1.426 1.55,4.093 5.504,7.002 10.137,7.002 5.987,0 10.837,-4.852 10.837,-10.837 v -0.06 c 2.193,1.591 4.89,2.532 7.808,2.532 0.306,0 0.612,-0.012 0.914,-0.032 -0.183,0.647 -0.281,1.33 -0.281,2.036 0,4.129 3.348,7.476 7.477,7.476 4.129,0 7.478,-3.347 7.478,-7.476 0,-0.755 -0.113,-1.483 -0.324,-2.172 0.932,-0.099 1.785,-0.455 2.491,-0.993 1.289,0.392 2.654,0.603 4.072,0.603 7.702,0 13.945,-6.244 13.945,-13.945 0,-2.662 -0.746,-5.151 -2.043,-7.268 0.923,-1.723 1.488,-3.669 1.595,-5.735 1.599,3.493 4.625,6.198 8.335,7.361 -2.146,2.601 -3.431,5.931 -3.431,9.562 0,8.31 6.736,15.045 15.042,15.045 1.712,0 3.355,-0.288 4.889,-0.813 1.355,4.967 5.899,8.619 11.298,8.619 5.677,0 10.409,-4.041 11.482,-9.403 0.174,-0.095 0.345,-0.197 0.514,-0.303 2.739,4.167 7.457,6.918 12.817,6.918 l 0.254,-0.004 c 2.164,3.042 5.717,5.023 9.733,5.023 6.59,0 11.935,-5.344 11.935,-11.935 0,-2.623 -0.847,-5.05 -2.278,-7.017 6.745,-3.767 11.307,-10.974 11.307,-19.247 0,-5.187 -1.792,-9.952 -4.791,-13.716 0.935,-2.597 1.448,-5.394 1.448,-8.311 0,-11.722 -29.153,-44.893 -41.408,-44.893 -1.684,0 -3.322,0.195 -4.892,0.566 -4.324,-3.986 -10.097,-6.42 -16.441,-6.42 -1.183,0 -2.347,0.085 -3.489,0.25 -3.994,-4.748 -9.976,-7.762 -16.668,-7.762 -8.082,0 -15.136,4.402 -18.895,10.94 -2.816,-1.636 -6.044,-2.646 -9.487,-2.839 -1.665,-16.689 -15.748,-29.721 -32.874,-29.721 -18.251,0 -33.042,14.793 -33.042,33.038 0,2.505 0.28,4.945 0.808,7.288 -2.663,-1.787 -5.869,-2.829 -9.316,-2.829 -2.24,0 -4.38,0.44 -6.333,1.241 -1.4,-2.095 -3.785,-3.473 -6.492,-3.473 -37.437,0 -1.728,-9.481 -32.901,-9.481 -0.914,0 -1.813,0.051 -2.701,0.145 -4.556,-9.695 -14.409,-16.407 -25.831,-16.407 -15.757,0 -28.53,12.771 -28.53,28.529 0,4.855 1.213,9.426 3.353,13.427 -6.014,1.21 -11.383,4.193 -15.541,8.383" /><path
       inkscape:connector-curvature="0"
       id="path26"
       style="fill:#fcfcfc;fill-opacity:1;fill-rule:evenodd;stroke:none;stroke-width:0.1"
       d="m 106.805,328.351 h 342.96 v -31.175 c 0,11.092 -9.074,20.168 -20.168,20.168 v 0 c -11.093,0 -20.169,-9.076 -20.169,-20.168 V 276.6 h -13.085 v 20.576 c 0,11.092 -9.077,20.168 -20.17,20.168 h -0.002 c -11.092,0 -20.168,-9.076 -20.168,-20.168 V 276.6 h -13.085 v 20.576 c 0,11.092 -9.076,20.168 -20.169,20.168 v 0 c -11.091,0 -20.17,-9.076 -20.17,-20.168 V 276.6 h -13.084 v 20.576 c 0,11.092 -9.077,20.168 -20.17,20.168 v 0 c -11.095,0 -20.168,-9.076 -20.168,-20.168 V 276.6 h -13.085 v 20.576 c 0,11.092 -9.076,20.168 -20.17,20.168 h -10e-4 c -11.093,0 -20.168,-9.076 -20.168,-20.168 V 276.6 h -13.085 v 20.576 c 0,11.092 -9.076,20.168 -20.171,20.168 v 0 c -11.094,0 -20.168,-9.076 -20.168,-20.168 V 276.6 h -35.504 v 51.751" /><path
       inkscape:connector-curvature="0"
       id="path28"
       style="fill:#86a036;fill-opacity:1;fill-rule:evenodd;stroke:none;stroke-width:0.1"
       d="m 195.605,297.421 c 2.212,-2.23 3.671,-5.204 3.974,-8.514 1.325,0.427 2.736,0.658 4.203,0.658 2.147,0 4.182,-0.495 5.99,-1.376 1.866,3.172 5.315,5.3 9.262,5.3 3.954,0 7.41,-2.138 9.273,-5.324 1.277,2.113 3.06,3.887 5.18,5.154 -0.768,1.221 -1.209,2.668 -1.209,4.215 0,4.388 3.556,7.946 7.946,7.946 0.365,0 0.722,-0.024 1.073,-0.073 2.111,3.075 5.649,5.092 9.661,5.092 4.89,0 9.076,-2.997 10.834,-7.253 6.306,-0.135 11.532,-4.656 12.755,-10.634 0.313,0.028 0.629,0.042 0.95,0.042 6.005,0 10.874,-4.868 10.874,-10.875 0,-6.005 -4.869,-10.874 -10.874,-10.874 -2.109,0 -4.081,0.603 -5.746,1.641 -2.003,-3.447 -5.736,-5.762 -10.009,-5.762 -3.013,0 -5.756,1.15 -7.815,3.037 -2.73,-2.773 -6.528,-4.493 -10.728,-4.493 -6.608,0 -12.221,4.259 -14.247,10.179 -1.964,-2.14 -4.783,-3.487 -7.918,-3.487 -0.694,0 -1.369,0.067 -2.022,0.192 -1.594,-5.812 -6.913,-10.086 -13.23,-10.086 -7.093,0 -12.929,5.385 -13.646,12.286 -1.39,-0.466 -2.877,-0.718 -4.424,-0.718 -1.971,0 -3.844,0.41 -5.544,1.149 -1.543,-5.18 -6.342,-8.955 -12.021,-8.955 -6.93,0 -12.547,5.618 -12.547,12.548 0,3.158 1.166,6.043 3.091,8.248 -0.905,1.65 -1.419,3.544 -1.419,5.556 0,6.39 5.179,11.568 11.565,11.568 1.943,0 3.774,-0.48 5.381,-1.327 1.394,4.483 5.576,7.738 10.518,7.738 6.083,0 11.015,-4.928 11.015,-11.013 0,-0.608 -0.051,-1.202 -0.146,-1.785" /><path
       inkscape:connector-curvature="0"
       id="path30"
       style="fill:#87b027;fill-opacity:1;fill-rule:evenodd;stroke:none;stroke-width:0.1"
       d="m 656.924,479.717 v -44.853 c -2.562,-0.97 -5.333,-1.517 -8.226,-1.548 3.242,-1.166 6.077,-3.19 8.226,-5.797 V 303.622 c -3.543,-2.112 -7.685,-3.327 -12.111,-3.327 -9.313,0 -17.365,5.377 -21.235,13.193 -0.778,-0.53 -1.598,-1.005 -2.448,-1.42 2.658,-2.442 4.321,-5.942 4.321,-9.836 0,-7.375 -5.98,-13.355 -13.356,-13.355 -1.536,0 -3.012,0.26 -4.386,0.736 -0.204,-17.996 -14.853,-32.524 -32.897,-32.524 -18.171,0 -32.902,14.733 -32.902,32.902 0,14.491 9.367,26.788 22.376,31.18 -7.097,4.678 -11.782,12.718 -11.782,21.853 0,8.671 4.222,16.356 10.721,21.114 -0.082,0.74 -0.123,1.492 -0.123,2.253 0,8.804 5.513,16.317 13.273,19.282 -1.348,2.405 -2.12,5.179 -2.12,8.134 0,5.336 2.509,10.083 6.415,13.128 1.6,11.433 9.932,20.708 20.86,23.691 0.799,3.535 2.507,6.728 4.863,9.318 -1.3,2.914 -2.024,6.142 -2.024,9.539 0,9.833 6.057,18.248 14.645,21.721 -4.399,2.342 -7.396,6.974 -7.396,12.306 0,7.695 6.237,13.931 13.931,13.931 7.694,0 13.931,-6.236 13.931,-13.931 0,-1.479 -0.23,-2.905 -0.657,-4.241 2.94,1.286 6.186,2 9.602,2 2.992,0 5.857,-0.551 8.499,-1.552" /><path
       inkscape:connector-curvature="0"
       id="path32"
       style="fill:#9ac421;fill-opacity:1;fill-rule:evenodd;stroke:none;stroke-width:0.1"
       d="M 0,0 H 656.924 V 276.602 H 0 V 0" /><path
       inkscape:connector-curvature="0"
       id="path34"
       style="fill:#7984a1;fill-opacity:1;fill-rule:evenodd;stroke:none;stroke-width:0.1"
       d="m 276.604,276.602 h 94.803 C 241.591,227.414 319.794,166.301 656.924,90.343 V 0 H 210.8 C 101.991,85.709 19.2168,223.99 276.604,276.602" /><path
       inkscape:connector-curvature="0"
       id="path36"
       style="fill:#687185;fill-opacity:1;fill-rule:evenodd;stroke:none;stroke-width:0.1"
       d="m 342.918,276.602 h 13.085 v -6.345 c -5.001,-2.241 -9.579,-4.509 -13.738,-6.798 0.427,1.122 0.653,2.3 0.653,3.509 z m -53.421,0 h 13.084 v -9.634 c 0,-7.653 9.073,-13.918 20.168,-13.918 h 0.002 c 1.401,0 2.772,0.1 4.097,0.289 -3.221,-2.598 -5.923,-5.227 -8.091,-7.884 H 178.189 c 7.648,3.725 15.964,7.303 25.034,10.71 3.47,-1.946 7.885,-3.115 12.678,-3.115 v 0 c 11.026,0 20.057,6.188 20.168,13.78 4.24,1.193 8.604,2.357 13.088,3.492 v -3.354 c 0,-7.653 9.074,-13.918 20.168,-13.918 v 0 c 11.093,0 20.172,6.265 20.172,13.918 v 9.634" /><path
       inkscape:connector-curvature="0"
       id="path38"
       style="fill:#5c638f;fill-opacity:1;fill-rule:evenodd;stroke:none;stroke-width:0.1"
       d="m 107.62,139.102 c -5.588,33.641 6.515,66.098 46.678,92.807 0.3,-1.147 0.46,-2.352 0.46,-3.59 0,-0.317 -0.011,-0.628 -0.029,-0.937 0.37,0.065 0.753,0.1 1.144,0.1 3.697,0 6.69,-2.997 6.69,-6.694 0,-3.204 -2.25,-5.883 -5.26,-6.536 1.227,-2.443 1.917,-5.197 1.917,-8.115 0,-8.588 -5.972,-15.78 -13.992,-17.651 0.032,-0.338 0.05,-0.683 0.05,-1.03 0,-3.861 -2.064,-7.239 -5.15,-9.089 1.852,-3.041 2.917,-6.611 2.917,-10.429 0,-11.088 -8.985,-20.076 -20.073,-20.076 -2.32,0 -4.544,0.393 -6.615,1.116 -1.899,-4.076 -4.952,-7.509 -8.737,-9.876" /><path
       inkscape:connector-curvature="0"
       id="path40"
       style="fill:#5c6385;fill-opacity:1;fill-rule:evenodd;stroke:none;stroke-width:0.1"
       d="m 380.924,171.144 c 30.874,-13.703 72.339,-28.014 124.956,-42.964 -0.515,-2.658 -1.594,-5.116 -3.108,-7.243 3.132,-2.608 5.123,-6.535 5.123,-10.929 0,-7.853 -6.366,-14.2189 -14.22,-14.2189 -3.919,0 -7.467,1.5828 -10.038,4.1468 -1.859,-2.041 -4.186,-3.6519 -6.812,-4.6558 0.262,-1.1328 0.399,-2.3192 0.399,-3.5379 0,-8.6981 -7.053,-15.7531 -15.754,-15.7531 -0.71,0 -1.406,0.0488 -2.091,0.1398 v -0.1398 c 0,-7.5442 -6.117,-13.6621 -13.662,-13.6621 -7.546,0 -13.664,6.1179 -13.664,13.6621 0,2.3859 0.613,4.6257 1.685,6.5781 -2.45,3.0867 -3.915,6.9918 -3.915,11.2398 0,0.343 0.01,0.6801 0.03,1.018 -6.478,2.0082 -11.184,8.045 -11.184,15.183 0,4.729 2.066,8.976 5.345,11.887 -0.641,0.285 -1.262,0.612 -1.859,0.967 -2.541,-1.604 -5.553,-2.536 -8.782,-2.536 -9.086,0 -16.451,7.366 -16.451,16.451 0,6.34 3.587,11.842 8.844,14.587 -3.752,2.518 -6.542,6.358 -7.698,10.852 -0.516,-0.043 -1.039,-0.065 -1.567,-0.065 -6.657,0 -12.469,3.616 -15.577,8.993" /><path
       inkscape:connector-curvature="0"
       id="path42"
       style="fill:#687190;fill-opacity:1;fill-rule:evenodd;stroke:none;stroke-width:0.1"
       d="m 466.767,139.82 c 31.91,-9.959 68.933,-20.218 111.186,-30.774 -2.028,-3.293 -4.703,-6.144 -7.85,-8.379 4.506,-3.935 7.351,-9.7221 7.351,-16.1729 0,-5.2921 -1.915,-10.1378 -5.09,-13.88 4.345,-4.1621 7.051,-10.0219 7.051,-16.5149 0,-12.6262 -10.239,-22.8613 -22.865,-22.8613 -0.913,0 -1.813,0.0543 -2.699,0.1562 -0.587,-2.1601 -1.919,-4.0152 -3.703,-5.2679 0.501,-1.561 0.775,-3.2231 0.775,-4.952 0,-8.9203 -7.23,-16.14607 -16.147,-16.14607 -8.917,0 -16.146,7.22577 -16.146,16.14607 0,5.7067 2.961,10.7207 7.432,13.593 -12.382,1.4598 -22.179,11.366 -23.461,23.8 l -0.423,-0.0063 c -12.781,0 -23.14,10.3633 -23.14,23.143 0,2.5359 0.408,4.9762 1.163,7.259 -5.069,3.341 -8.414,9.082 -8.414,15.6071 0,0.844 0.056,1.675 0.165,2.491 -5.45,3.331 -9.087,9.336 -9.087,16.19 0,4.752 1.746,9.095 4.635,12.422 -0.473,1.253 -0.733,2.61 -0.733,4.03 v 0.117" /><path
       inkscape:connector-curvature="0"
       id="path44"
       style="fill:#87b027;fill-opacity:1;fill-rule:evenodd;stroke:none;stroke-width:0.1"
       d="m 461.47,393.858 c 8.701,0 15.754,-7.053 15.754,-15.755 0,-1.216 -0.137,-2.4 -0.399,-3.537 2.626,-1.004 4.953,-2.612 6.812,-4.655 2.571,2.564 6.119,4.149 10.038,4.149 7.854,0 14.22,-6.366 14.22,-14.22 0,-4.395 -1.991,-8.321 -5.123,-10.93 2.173,-3.053 3.451,-6.787 3.451,-10.819 0,-10.319 -8.363,-18.682 -18.681,-18.682 -2.698,0 -5.259,0.573 -7.576,1.601 0.395,-1.397 0.605,-2.869 0.605,-4.388 0,-4.471 -1.817,-8.519 -4.748,-11.447 1.248,-2.32 1.96,-4.973 1.96,-7.793 0,-2.637 -0.621,-5.125 -1.723,-7.332 7.893,-2.68 13.573,-10.151 13.573,-18.948 0,-1.934 -0.276,-3.802 -0.788,-5.57 0.778,-1.927 1.205,-4.034 1.205,-6.241 0,-9.228 -7.482,-16.71 -16.711,-16.71 -2.637,0 -5.131,0.613 -7.352,1.699 -0.65,-5.736 -5.112,-10.321 -10.79,-11.158 -1.365,-7.076 -7.586,-12.419 -15.056,-12.419 -7.809,0 -14.258,5.838 -15.215,13.386 l -0.121,-0.002 c -4.077,0 -7.824,1.411 -10.777,3.771 -3.23,-2.37 -7.218,-3.771 -11.529,-3.771 -10.782,0 -19.518,8.739 -19.518,19.519 0,2.576 0.499,5.035 1.406,7.286 -8.571,0.566 -15.347,7.697 -15.347,16.414 0,6.666 3.963,12.406 9.662,14.991 1.253,8.708 8.745,15.4 17.799,15.4 0.528,0 1.051,-0.023 1.567,-0.066 1.156,4.494 3.946,8.334 7.698,10.851 -5.257,2.747 -8.844,8.25 -8.844,14.59 0,9.086 7.365,16.451 16.451,16.451 3.229,0 6.241,-0.931 8.782,-2.539 0.597,0.358 1.218,0.682 1.859,0.97 -3.279,2.911 -5.345,7.157 -5.345,11.886 0,7.136 4.706,13.175 11.184,15.183 -0.02,0.337 -0.03,0.677 -0.03,1.017 0,4.249 1.465,8.153 3.915,11.24 -1.072,1.952 -1.685,4.194 -1.685,6.578 0,7.544 6.118,13.661 13.664,13.661 7.545,0 13.662,-6.117 13.662,-13.661 v -0.141 c 0.685,0.091 1.382,0.141 2.091,0.141" /><path
       inkscape:connector-curvature="0"
       id="path46"
       style="fill:#545b77;fill-opacity:1;fill-rule:evenodd;stroke:none;stroke-width:0.1"
       d="m 544.684,117.574 c 33.605,-8.858 70.969,-17.931 112.24,-27.231 V 88.9332 87.5191 86.109 84.6969 83.2852 81.873 80.4609 79.05 77.6402 76.2281 74.816 73.4039 71.9922 70.582 69.1699 67.757 66.3469 64.9352 63.5242 62.1109 60.6992 59.2891 57.877 56.4641 55.0539 53.6422 52.2313 50.8191 49.4059 47.9941 46.584 45.173 43.7602 42.348 40.9391 39.527 38.1141 37.7191 c -0.733,-0.0589 -1.473,-0.0949 -2.225,-0.0949 -3.366,0 -6.582,0.6207 -9.545,1.7539 0.04,-0.4832 0.062,-0.9761 0.062,-1.475 0,-9.391 -7.614,-17.0082 -17.006,-17.0082 -9.393,0 -17.01,7.6172 -17.01,17.0082 0,4.5528 1.788,8.6899 4.703,11.7418 -2.96,3.1602 -5.13,7.0703 -6.195,11.4141 -3.486,-2.7969 -7.912,-4.4731 -12.727,-4.4731 -6.797,0 -12.814,3.3313 -16.511,8.4481 -3.352,0.3242 -6.436,1.575 -8.987,3.4941 -2.981,-3.2289 -7.25,-5.25 -11.992,-5.25 -9.017,0 -16.324,7.309 -16.324,16.3239 0,6.0609 3.301,11.3511 8.207,14.1671 -4.697,4.2368 -7.651,10.3669 -7.651,17.1879 0,2.301 0.336,4.521 0.961,6.617" /><path
       inkscape:connector-curvature="0"
       id="path48"
       style="fill:#c6e445;fill-opacity:1;fill-rule:evenodd;stroke:none;stroke-width:0.1"
       d="m 526.081,202.438 c -4.695,-8.007 -13.39,-13.384 -23.345,-13.384 -11.302,0 -20.985,6.934 -25.028,16.78 -0.575,-0.031 -1.156,-0.051 -1.741,-0.051 -17.091,0 -30.949,13.857 -30.949,30.952 0,14.113 9.451,26.022 22.368,29.743 -0.4,1.164 -0.618,2.415 -0.618,3.716 0,1.417 0.259,2.775 0.732,4.03 -2.887,3.327 -4.637,7.67 -4.637,12.42 0,6.854 3.637,12.86 9.089,16.189 -0.109,0.817 -0.167,1.649 -0.167,2.494 0,6.523 3.347,12.264 8.414,15.605 -0.753,2.282 -1.163,4.722 -1.163,7.259 0,12.781 10.363,23.142 23.142,23.142 l 0.422,-0.004 c 1.283,12.432 11.078,22.342 23.461,23.798 -4.468,2.872 -7.433,7.887 -7.433,13.596 0,8.916 7.231,16.146 16.148,16.146 8.917,0 16.145,-7.229 16.145,-16.146 0,-1.729 -0.27,-3.393 -0.775,-4.952 1.784,-1.256 3.117,-3.111 3.705,-5.27 0.884,0.102 1.786,0.158 2.699,0.158 12.627,0 22.865,-10.237 22.865,-22.865 0,-6.49 -2.707,-12.352 -7.051,-16.514 3.175,-3.742 5.09,-8.586 5.09,-13.877 0,-6.453 -2.847,-12.238 -7.349,-16.174 7.319,-5.203 12.098,-13.755 12.098,-23.42 0,-13.872 -9.83,-25.444 -22.906,-28.132 0.029,-0.472 0.041,-0.947 0.041,-1.425 0,-5.533 -1.771,-10.653 -4.779,-14.821 0.93,-2.889 1.434,-5.964 1.434,-9.16 0,-16.476 -13.357,-29.835 -29.836,-29.835 l -0.076,0.002" /><path
       inkscape:connector-curvature="0"
       id="path50"
       style="fill:#67882a;fill-opacity:1;fill-rule:evenodd;stroke:none;stroke-width:0.1"
       d="M 656.924,317.778 V 137.193 l -0.275,-0.004 c -7.788,0 -14.679,3.848 -18.872,9.745 -4.255,-2.304 -9.127,-3.612 -14.309,-3.612 -11.112,0 -20.816,6.02 -26.035,14.975 -4.39,-3.772 -10.102,-6.052 -16.347,-6.052 -6.604,0 -12.613,2.552 -17.091,6.724 -0.434,-0.021 -0.871,-0.031 -1.311,-0.031 -9.087,0 -17.138,4.436 -22.106,11.262 -0.801,-0.073 -1.613,-0.109 -2.431,-0.109 -14.784,0 -26.769,11.982 -26.769,26.767 0,10.512 6.062,19.607 14.878,23.985 3.168,6.281 9.674,10.591 17.188,10.591 1.646,0 3.248,-0.209 4.772,-0.6 -2.823,3.838 -4.491,8.576 -4.491,13.704 0,6.823 2.952,12.952 7.649,17.188 -4.906,2.817 -8.207,8.105 -8.207,14.166 0,9.016 7.308,16.327 16.324,16.327 4.744,0 9.011,-2.026 11.992,-5.252 2.553,1.917 5.635,3.172 8.987,3.495 3.698,5.117 9.714,8.448 16.509,8.448 4.817,0 9.243,-1.675 12.729,-4.473 1.064,4.344 3.235,8.255 6.196,11.413 -2.914,3.053 -4.704,7.188 -4.704,11.741 0,9.394 7.615,17.009 17.01,17.009 9.392,0 17.006,-7.615 17.006,-17.009 0,-0.495 -0.022,-0.989 -0.062,-1.474 2.967,1.133 6.179,1.754 9.545,1.754 0.748,0 1.492,-0.035 2.225,-0.093" /><path
       inkscape:connector-curvature="0"
       id="path52"
       style="fill:#87b027;fill-opacity:1;fill-rule:evenodd;stroke:none;stroke-width:0.1"
       d="M 0,214.858 V 440.57 c 2.77734,1.339 5.89258,2.089 9.18164,2.089 5.16996,0 9.90816,-1.856 13.58596,-4.936 1.3887,11.268 10.9953,19.992 22.6367,19.992 2.7953,0 5.475,-0.502 7.9492,-1.423 2.0492,7.258 8.7242,12.576 16.6371,12.576 9.5465,0 17.2852,-7.737 17.2852,-17.285 0,-6.655 -3.7578,-12.429 -9.2692,-15.319 0.9446,-2.234 1.4668,-4.69 1.4668,-7.268 0,-6.609 -3.4324,-12.416 -8.6117,-15.738 -1.9855,-5.821 -7.4387,-10.039 -13.8976,-10.19 0.0781,-0.534 0.1199,-1.08 0.1199,-1.635 0,-4.758 -2.9918,-8.819 -7.1957,-10.4 l 0.0594,-0.244 c 0.1761,0.003 0.3527,0.007 0.5285,0.007 11.0859,0 20.0758,-8.99 20.0758,-20.076 l -0.0055,-0.36 c 0.9308,-0.318 1.8273,-0.712 2.6808,-1.175 2.4637,3.935 6.8368,6.555 11.8231,6.555 7.6984,0 13.9414,-6.243 13.9414,-13.942 0,-2.456 -0.6371,-4.762 -1.7516,-6.768 8.4898,-0.681 15.6858,-5.941 19.1168,-13.31 2.073,0.724 4.297,1.118 6.615,1.118 11.086,0 20.075,-8.988 20.075,-20.076 0,-3.82 -1.065,-7.389 -2.917,-10.428 3.082,-1.853 5.148,-5.231 5.148,-9.091 0,-0.346 -0.018,-0.692 -0.05,-1.031 8.018,-1.87 13.992,-9.062 13.992,-17.65 0,-2.919 -0.69,-5.673 -1.913,-8.115 3.006,-0.655 5.258,-3.335 5.258,-6.537 0,-3.697 -2.997,-6.691 -6.691,-6.691 -0.392,0 -0.775,0.033 -1.147,0.097 0.02,-0.309 0.031,-0.62 0.031,-0.933 0,-7.855 -6.368,-14.222 -14.221,-14.222 -2.331,0 -4.531,0.562 -6.474,1.556 -4.373,-8.613 -13.313,-14.517 -23.635,-14.517 -5.083,0 -9.83,1.431 -13.8596,3.912 -5.0918,-5.488 -12.3637,-8.922 -20.4418,-8.922 -5.6075,0 -10.8301,1.658 -15.2012,4.507 -5.8981,-6.74 -14.5625,-10.999 -24.2238,-10.999 -3.7504,0 -7.352,0.647 -10.6993,1.827 -6.2828,-6.582 -15.1429,-10.683 -24.95699,-10.683 -0.348044,0 -0.696482,0.007 -1.04531,0.016" /><path
       inkscape:connector-curvature="0"
       id="path54"
       style="fill:#f6fbfe;fill-opacity:1;fill-rule:evenodd;stroke:none;stroke-width:0.1"
       d="m 511.108,476.68 c 43.001,0 78.072,35.072 78.072,78.073 0,43.001 -35.071,78.072 -78.072,78.072 -43.001,0 -78.072,-35.071 -78.072,-78.072 0,-43.001 35.071,-78.073 78.072,-78.073" /><path
       inkscape:connector-curvature="0"
       id="path56"
       style="fill:#c6e445;fill-opacity:1;fill-rule:evenodd;stroke:none;stroke-width:0.1"
       d="M 235.02,0 H 0 v 285.914 c 35.6941,-5.903 64.0039,-33.674 70.7113,-69.094 8.559,4.397 18.2617,6.878 28.5453,6.878 34.5454,0 62.5524,-28.004 62.5524,-62.553 0,-9.546 -2.142,-18.592 -5.968,-26.685 1.061,-0.303 2.104,-0.639 3.136,-1.006 11.24,11.521 26.935,18.675 44.304,18.675 34.185,0 61.9,-27.715 61.9,-61.9001 0,-27.3269 -17.709,-50.5137 -42.275,-58.7219 6.003,-9.4 10.205,-20.066 12.114,-31.507" /><g
       transform="matrix(1.3304472,0,0,-1.3304472,130.65222,407.26241)"
       id="layer1"
       inkscape:label="Layer 1"
       data-animal="tucuxi"
       class="interactable"><g
         id="g826"><g
           transform="rotate(-26.902657,78.985077,141.0816)"
           id="g832"><path
             sodipodi:nodetypes="cssssscccssssscccsssscccccccsssssssssscssssssscccssssssssccccccccccccccsc"
             inkscape:connector-curvature="0"
             id="path977"
             d="m 110.74702,162.25149 c 0,0 -3.70121,-3.73503 -5.48065,-5.66965 -0.90668,-0.98575 -1.73084,-2.04578 -2.64584,-3.02381 -0.42605,-0.4554 -0.84063,-0.92754 -1.32291,-1.32291 -1.580881,-1.29601 -3.476605,-2.16295 -5.10268,-3.40179 -0.994659,-0.75779 -1.780848,-1.78399 -2.834823,-2.45684 -4.01658,-2.56415 -13.040177,-5.85864 -13.040177,-5.85864 l -7.9375,-3.21279 -3.96875,-1.13393 c 0,0 2.454336,1.74881 3.779761,2.45685 0.846335,0.45211 2.464379,0.19171 2.645833,1.13392 0.06739,0.34993 -0.42475,0.62443 -0.755952,0.75595 -1.991522,0.79082 -4.340053,0.30303 -6.425594,-0.18898 -2.77064,-0.65363 -5.514085,-1.82697 -7.748513,-3.59078 -1.196979,-0.94487 -2.83482,-3.59077 -2.83482,-3.59077 l 0.944938,2.64583 -1.322916,0.56697 c 0,0 -4.00856,-0.7902 -5.669643,-1.88988 -1.190894,-0.7884 -1.597238,-2.49992 -2.83482,-3.2128 -1.670053,-0.962 -3.781288,-0.7484 -5.669642,-1.13393 -1.513153,-0.30893 -2.992775,-0.87858 -4.535715,-0.94494 -1.584734,-0.0682 -4.724702,0.56696 -4.724702,0.56696 l -0.566965,-0.37797 v -1.13393 l 0.377976,0.18899 -0.566965,-1.13393 0.755954,-0.94494 2.83482,-1.32292 c 0,0 0.16783,-2.85277 0.944941,-3.96875 0.519184,-0.74558 1.500131,-1.02606 2.267858,-1.5119 1.241581,-0.78571 2.452587,-1.6374 3.77976,-2.26786 2.177945,-1.03461 4.483615,-1.79984 6.803573,-2.45684 1.485932,-0.42081 3.009895,-0.70632 4.535715,-0.94495 1.189082,-0.18596 2.387624,-0.34736 3.590771,-0.37797 2.333501,-0.0594 4.662708,0.23467 6.992562,0.37797 1.82777,0.11242 3.661053,0.17198 5.480653,0.37798 1.204062,0.13631 2.396689,0.3608 3.590774,0.56697 1.010549,0.17448 1.999294,0.61189 3.02381,0.56696 1.633901,-0.0717 4.724701,-1.32292 4.724701,-1.32292 0,0 2.362732,-1.32297 3.590774,-1.88988 1.232032,-0.56875 2.447272,-1.25529 3.779764,-1.5119 0.92789,-0.17869 1.89048,-0.0337 2.834819,0 0.88363,0.0315 1.841528,-0.17828 2.645834,0.18899 0.324163,0.14802 0.619581,0.42672 0.755954,0.75595 0.07232,0.1746 0.08918,0.40034 0,0.56696 -0.214352,0.40052 -0.755954,0.50397 -1.13393,0.75595 l -2.267858,1.51191 -1.133927,1.88988 -0.188989,2.07887 c 0,0 1.141171,2.10065 1.889881,3.02381 1.487396,1.83396 3.431881,3.2451 5.102678,4.91369 1.796851,1.79447 3.683447,3.51534 5.291667,5.48065 1.40542,1.71747 2.55148,3.63235 3.77976,5.48066 1.0349,1.55731 2.1211,3.08721 3.02381,4.7247 1.07484,1.94971 2.13302,3.93477 2.83482,6.04762 0.68933,2.0753 0.92959,4.27447 1.32292,6.4256 0.28687,1.56892 0.48729,3.15256 0.75595,4.7247 0.11864,0.69425 0.37798,2.07887 0.37798,2.07887 l 6.04762,4.91369 2.64583,2.45684 1.70089,2.07887 v 0.75595 l -1.88988,-0.94494 -2.07887,-0.94494 -2.83482,0.18899 h -1.70089 l -1.13393,-1.51191 -0.37798,0.75596 -3.96875,-0.56697 -2.26785,-0.56696 -1.51191,-0.37798 c 0,0 -0.11689,-0.77447 0,-1.13392 0.52994,-1.62968 3.02381,-4.15774 3.02381,-4.15774 z"
             style="fill:none;fill-rule:evenodd;stroke:#000000;stroke-width:0.26458332px;stroke-linecap:butt;stroke-linejoin:miter;stroke-opacity:1" /><path
             sodipodi:nodetypes="ccccccccccsssccsccccc"
             inkscape:connector-curvature="0"
             id="path981"
             transform="scale(0.26458333)"
             d="M 154.28516,478.23438 125,482.51953 l -1.04297,0.76953 1.04297,2.08789 -1.42773,-0.71484 v 4.28711 l 2.14257,1.42773 c 0,0 11.86788,-2.40034 17.85743,-2.14257 5.83158,0.2508 11.42357,2.4027 17.14257,3.57031 7.13709,1.45712 15.11573,0.6512 21.42774,4.28711 4.67747,2.69435 6.21383,9.1628 10.71484,12.14258 6.27811,4.15627 13.9053,7.45528 21.42774,7.14257 1.81168,-0.0753 4.27479,-0.48067 5,-2.14257 1.36256,-3.12246 -3.4375,-9.625 -3.4375,-9.625 L 190,496.80469 c 0,0 -8.29914,-21.18663 -17.85742,-24.28544 -5.94525,-1.92746 -17.85742,5.71513 -17.85742,5.71513 z m 61.76757,25.42773 1.81055,2.29297 -0.7207,-2.00586 z"
             style="fill:none;fill-rule:evenodd;stroke:#000000;stroke-width:0.99999994px;stroke-linecap:butt;stroke-linejoin:miter;stroke-opacity:1" /><path
             inkscape:connector-curvature="0"
             id="path979"
             d="m 32.883927,128.23363 2.078871,-0.37798 4.346726,-1.13392 3.023809,-0.94495"
             style="fill:none;fill-rule:evenodd;stroke:#b3b3b3;stroke-width:0.26458332px;stroke-linecap:butt;stroke-linejoin:miter;stroke-opacity:1" /><path
             sodipodi:nodetypes="ssssssssss"
             transform="matrix(0.67560554,0,0,0.67560554,14.656469,39.889821)"
             inkscape:connector-curvature="0"
             id="path1585"
             d="m 43.311082,121.07714 c -0.708892,-1.12403 -2.706345,-0.0371 -3.96875,0.37798 -0.697892,0.22948 -1.483509,0.5219 -1.889881,1.13393 -0.246398,0.37109 -0.228991,0.87926 -0.188988,1.32291 0.01789,0.19841 0.188988,0.56697 0.188988,0.56697 v 0 c 0,0 1.122615,0.43197 1.700893,0.37797 0.477684,-0.0446 0.909695,-0.3232 1.322916,-0.56696 0.618645,-0.36494 1.224539,-0.78534 1.700893,-1.32292 0.487222,-0.54985 1.525824,-1.26848 1.133929,-1.88988 z"
             style="fill:none;fill-rule:evenodd;stroke:#000000;stroke-width:0.56097823;stroke-linecap:butt;stroke-linejoin:miter;stroke-miterlimit:4;stroke-dasharray:none;stroke-opacity:1;filter:url(#filter1623)" /></g></g></g><path
       inkscape:connector-curvature="0"
       d="m 282.8336,24.595934 4.43238,1.632987 c 0.60071,-2.808269 -1.11532,-8.871756 -3.05694,-10.960813 -1.32621,-1.426988 -3.09917,-2.082048 -4.6414,-3.212773 -1.89379,-1.388503 -3.12623,-3.7791871 -5.13246,-4.9348735 -1.66035,-0.9566876 -3.76424,-0.7203793 -5.59856,-0.7206092 -3.79577,-1.704e-4 -5.98045,-0.3786145 -9.56461,1.0549053 -1.47638,0.5904387 -3.26538,0.3389629 -4.66476,1.0828981 -2.35769,1.2536654 -4.65137,6.9376093 -4.64821,9.5263563 0.006,4.898714 4.03491,7.588462 7.21342,10.518735 4.68169,4.315735 8.98051,8.635209 12.16042,14.209277 7.7321,13.553979 16.4128,26.775297 28.66413,36.716173 12.77691,10.367262 30.17144,15.377717 46.42334,15.775945 4.4662,0.109433 8.64361,0.421655 13.06386,-0.569174 3.76822,-0.844657 6.66396,-2.766744 10.03117,-4.479341 2.40585,-1.22362 4.82033,-2.139277 6.9985,-3.796083 2.78401,-2.117694 5.17655,-5.164511 6.4834,-8.421773 0.57575,-1.434644 0.65809,-3.020945 1.26393,-4.432373 0.69705,-1.624122 1.85576,-2.981132 2.46113,-4.665668 0.58835,-1.636947 -0.40101,-4.461771 0.52256,-5.59879 h 0.23328 m -40.82454,30.79337 c -2.61441,-2.262337 -6.62547,-4.326773 -7.93164,-7.698348 m 27.7607,3.499242 c -3.25244,-1.521441 -5.93729,-3.141739 -8.1649,-6.065349 m 1.16641,-8.864764 c 0,-5.189151 1.81868,-8.551461 6.06536,-11.63523 0.67862,-0.492689 2.6067,-2.912074 3.57343,-2.13874 0.57877,0.46307 0.13834,1.789515 -0.0577,2.343095 -0.64293,1.815413 -1.52427,3.650652 -0.94969,5.598799 m 8.63147,4.432383 4.1991,1.399693 m -10.26446,-0.933132 0.93315,-0.466561 h -1.63298 m -71.38465,0.466561 c -1.33835,-10.588722 1.93484,-22.209253 9.5646,-29.860241 m 68.81854,28.227263 c 1.99946,0.861561 3.61563,2.233006 5.83207,1.166417 m -83.98194,-2.332834 c 1.05748,-8.367638 1.92505,-16.449965 7.46507,-23.328311 m 32.19307,21.928609 3.03268,-2.099548 -3.49925,-2.799396 v 2.566119 m 35.45904,0.933132 c -0.51532,-1.486253 -2.26004,-3.108731 -1.63298,-4.665668 l 5.59879,4.665668 m -35.9256,-0.699855 c 1.01221,-0.291605 6.68939,-2.892478 6.53192,-0.933132 m 36.62545,-0.233277 h 0.2333 m -2.09955,-0.233285 0.46657,-0.233285 m -34.52591,-0.233285 3.49925,-0.933132 m -2.56613,0.233285 0.69986,-3.265965 c -2.37483,0.440902 -4.319,0.207856 -6.53193,-0.699847 m -6.29864,3.499242 c -0.69775,-3.389604 -2.82995,-7.155727 -2.00227,-10.731019 0.89393,-3.862468 6.29608,-7.136839 9.23405,-9.422075 0.7696,-0.598367 2.43478,-1.300318 2.7735,-2.248617 0.22745,-0.63663 -0.10195,-1.384534 0.10358,-2.041229 0.12108,-0.386782 0.40872,-0.121535 0.62217,-0.05178 m -3.26598,24.028166 5.13224,-0.933132 m 22.62846,0.933132 c 1.13144,-1.483919 1.74053,-3.478019 3.73253,-3.979114 2.07179,-0.521389 3.90703,1.143091 5.83208,0.01329 -0.56757,-0.530493 -0.70079,-0.565486 -1.3997,-0.233285 l -0.23329,-0.233285 0.23329,-0.466562 0.23329,-0.233285 0.23327,0.233285 m -5.59879,4.665659 0.69985,0.233285 m -5.36551,-0.233285 0.46658,-0.46657 m 6.76519,0.46657 -0.46656,-0.699847 m -6.99849,0.233277 v -0.699847 m -5.13224,0.46657 c -0.63662,-0.571311 -1.88259,-1.122098 -2.22737,-1.915955 -0.91681,-2.111685 -0.28204,-5.522511 -0.91938,-7.881941 -0.30139,-1.115328 -1.64208,-2.839983 -1.31573,-3.965812 0.8515,-2.935638 5.85891,-5.529511 4.8278,-9.086842 -0.40753,-1.405765 -2.25304,-0.713379 -3.1647,-1.644186 1.02666,-0.526047 1.75685,-0.649226 2.33283,0.46657 m 20.99548,24.028166 0.69984,-0.699855 m -11.19759,0.233285 0.69985,0.233285 m 2.56611,0 v -1.166417 m 7.46507,1.166417 c -1.25903,-1.63205 -2.01323,-2.791696 -4.1991,-2.799395 m -6.53193,1.399693 1.16643,0.233285 m 0.69983,0.233285 -0.46655,-0.933131 m 8.63147,0.933131 0.69985,-0.46657 m -35.9256,0 c -0.40778,-1.28096 -3.61448,-1.572794 -4.89896,-2.099548 m 14.93013,-9.564611 c -1.03997,1.379876 -3.54031,3.396144 -3.81326,5.132237 -0.1346,0.855677 0.76822,1.671702 1.19115,2.332825 1.49536,2.337271 2.25329,3.335015 4.95495,4.199097 m 21.69531,0 0.2333,-0.466561 m -15.62997,-0.233285 c 0.4682,-0.607003 0.89067,-1.281889 1.44263,-1.817278 2.35522,-2.284777 4.55135,-0.402648 7.18884,-0.09892 1.10927,0.127845 1.92343,-0.367416 3.03268,0.0499 m -30.56009,1.399693 5.83208,-4.898944 m 25.42787,4.898944 -0.46657,-0.466562 m -1.86627,0.233285 1.39969,-0.46657 m -7.93162,0.233285 2.56611,-0.699846 m -39.42484,-0.699856 v 1.166417 m 41.99096,0 v -0.466561 m -30.79338,-1.632987 3.96581,0.933131 m -68.81851,-3.265965 c 0,-8.543055 3.5382,-16.026547 9.5646,-21.928609 m -9.09804,13.530423 c 0.66789,-4.459446 3.88976,-9.462433 6.9985,-12.597291 m 62.05331,12.597291 c 1.61783,-1.622486 3.0875,-3.515584 3.49925,-5.832084 m 2.09954,5.365514 c 1.47739,-1.292619 2.61814,-3.053443 3.29467,-4.898944 0.27527,-0.750944 0.23188,-1.814476 0.67674,-2.473036 0.43508,-0.644099 1.01176,-0.544247 1.6274,-0.326367 m -19.5958,6.53193 c -9.76543,-7.451257 -22.802,-9.403143 -34.29259,-12.633417 -2.34588,-0.659488 -4.45873,-1.873962 -6.76519,-2.643097 -3.93294,-1.311048 -9.53079,-1.579087 -12.83058,-4.08595 m 58.32078,16.329818 c 1.88353,-0.446267 5.48146,-0.614471 6.29865,-2.332833 l 2.56611,-0.545644 4.1991,-0.620773 m -9.33132,2.099548 c 0.80668,-0.724339 1.30102,-1.196973 2.33282,-0.699846 m -6.29864,-0.699847 c 0.003,-0.640361 -0.29836,-3.450257 0.70848,-3.450964 1.09106,-8.51e-4 -0.16563,1.40764 -0.4752,1.5847 m 5.36551,1.632979 c -1.10763,-1.453823 -2.41634,-2.930034 -4.19908,-3.499251 m 8.39817,3.499251 c 0.99939,-0.887178 1.63532,-1.275825 2.79941,-0.46657 m -55.05483,-6.998493 h 0.46657 m -40.35798,-1.399693 c -3.58596,-3.575999 -11.15544,-5.407507 -11.66415,-11.19759 m 15.62996,8.864756 c 2.26871,-3.986574 4.20657,-7.860241 9.56461,-5.59879"
       style="fill:none;stroke:#000000;stroke-width:0.78768188;stroke-linecap:round"
       id="path821"
       data-animal="manatee"
       class="interactable" /><path
       inkscape:connector-curvature="0"
       d="m 251.0292,195.63147 c -0.93403,0.2567 -0.98973,-0.31233 -0.63918,-1.06531 2.16298,1.97304 4.6295,4.18384 7.8833,4.01562 1.56451,-0.0809 3.11982,-0.36861 4.67453,-0.50207 0.28776,-0.0247 1.60572,0.17489 1.2912,-0.31762 m -5.11348,0.63919 c -0.85971,-0.56679 -1.41729,-0.69906 -2.34369,-0.21306 m 7.03105,-0.42613 h 0.42612 m 0.63918,0 1.49144,-1.49143 c 2.19923,0.99794 2.03453,-3.26739 2.71782,-4.68737 1.31395,-2.72996 1.65315,-5.75031 3.47014,-8.30924 0.75978,-1.06996 1.80187,-1.72875 2.7598,-2.59399 0.85011,-0.76788 1.45073,-1.67808 2.55844,-2.0895 5.36214,-1.99107 10.50843,1.29627 15.76574,2.28402 6.11615,1.14926 11.80257,0.39417 17.8972,-0.33748 3.21298,-0.38565 7.3074,-0.76533 10.22698,-2.2476 1.54939,-0.78683 2.73061,-2.48388 3.87113,-3.75117 3.13563,-3.4842 5.52789,-7.75226 8.02007,-11.71841 3.51382,-5.59203 6.99122,-11.68006 12.39787,-15.68136 4.6211,-3.41965 11.65193,-4.77259 17.25803,-4.77259 m -97.15628,54.54387 c 1.20934,0.8459 2.60191,0.7244 2.13062,-1.06531 m -8.09636,0.63919 h 1.91756 m -1.27837,-0.42613 c -1.25117,-0.84611 -3.00539,-0.21323 -4.4743,-0.21306 m -3.19593,-0.21306 1.91755,-1.06531 m 0.42613,1.06531 h 0.42612 m 6.60493,-0.21306 0.21306,-0.21306 m -12.3576,-0.63919 c 0.15962,-2.01975 0.74367,-3.68896 -1.06531,-5.11348 m 12.14453,4.68736 -0.21306,-1.27837 m -8.09635,0.85225 -0.42613,-0.42613 m 12.3576,-0.42612 -0.21307,-0.85225 m -7.03104,0.42612 1.27838,-0.63919 -1.7045,0.21307 0.42612,0.42612 m 0,-2.13062 c -0.37576,-0.27385 -0.82696,-0.78622 -1.2958,-0.88152 -0.95923,-0.19497 -1.86095,1.116 -1.33607,1.92282 0.51623,0.79355 1.3862,0.70807 2.20575,0.6632 m 0.85225,0 v -0.42613 m -4.26125,-0.85225 0.85225,0.42613 m 3.19593,0 -2.13062,-1.49144 m 6.81799,1.06531 h 0.42612 m -12.78372,-0.42612 0.63918,-1.70449 0.85225,0.63918 m 1.27838,0.63918 0.42612,0.21307 m 12.14453,-0.21307 -1.91755,-4.04817 m -9.80086,3.83511 -0.85224,-0.42612 m 7.03104,0.21307 1.27837,-1.27838 0.63919,1.06531 m -4.90043,-0.21306 0.42613,-1.27837 c -1.61736,-0.10515 -5.40573,-1.35838 -4.68737,-3.19594 l 0.85225,1.27838 m 5.32656,3.19593 c 0.69834,-0.62419 1.18502,-1.07628 2.13061,-0.85225 m -10.22698,0.42613 c 0.29395,-1.05888 0.46848,-2.2297 1.49144,-2.76981 m 0.63919,2.34368 0.63918,0.21306 m 4.26124,0 2.55675,-2.13062 m 1.06531,2.13062 0.63918,-0.63918 m -3.40899,0.21306 -1.06531,-0.42612 m -3.83512,0 -0.63918,-1.27838 m 5.11349,1.27838 0.42612,-0.42613 m 2.34368,0.42613 0.42613,-0.63919 m -9.80086,0.21306 1.06531,-0.85225 m 0.21307,0.63919 -0.42613,-0.42612 m 10.86617,0 h 0.42612 m -4.68736,-0.21307 v -0.21306 m -5.53962,-0.42612 2.13062,-1.27837 m 7.24411,1.0653 h 0.21306 m -10.44004,-0.85225 1.05447,-3.62205 2.14146,-8.30942 0.21307,3.62206 m -0.21307,-3.62206 c 0.46267,-1.47374 2.61666,-1.0538 1.49144,-3.19592 l -0.63919,2.13061 m -0.21306,1.06531 v -0.85225 m 0.85225,-2.34367 c 1.23614,-3.00248 1.27765,-5.67257 2.04414,-8.73555 1.03279,-4.12701 2.49073,-8.26446 4.16178,-12.14453 1.0867,-2.5233 2.74588,-5.36555 0.82512,-7.8833 l 2.13063,-0.63918 m -8.52248,29.40256 v -0.63919 m 72.01496,-4.04818 c -0.83883,-1.8922 -1.86835,-4.5037 -1.75777,-6.60492 0.11037,-2.10037 1.2592,-4.05692 1.2592,-6.1788 0,-3.47696 -1.72623,-7.74758 -2.70482,-11.07922 -0.7666,-2.60895 -2.35583,-2.98266 -4.89297,-2.98287 -0.5823,0 -1.96017,-0.23884 -2.33921,0.34154 -1.04507,1.59966 3.14053,1.73453 3.83064,1.78908 m -38.56422,24.50213 1.06531,-2.34369 -0.21306,0.63919 m 0.21306,-0.85225 c 1.16161,-2.27699 2.44787,-5.30652 1.06531,-7.67023 l -0.42612,2.13062 m -15.97966,1.7045 2.76981,-4.47431 -0.42612,1.49144 m 54.75693,2.13062 v -0.21306 m -62.64023,-0.63919 c 0.72825,-0.71056 3.12221,-2.03133 1.91756,0 m -4.68736,-0.42612 1.49143,-1.27837 m 4.4743,0.21306 c -0.81283,0 -0.53202,-0.63535 0.21306,-0.42613 h -0.63918 m 0.85225,0 3.62205,-1.91756 c -2.00982,-2.8252 -4.01324,-8.00367 -3.62205,-11.50534 m 18.32333,13.20984 -1.06531,-6.1788 m -12.14453,5.32655 c 0.0873,-1.00693 -0.38607,-1.21893 -1.27838,-0.85225 m 1.49143,-0.21306 4.14108,-8.30942 1.82466,-2.7698 0.21306,0.63919 m 43.03853,9.16166 c -1.08342,-3.39301 -4.53247,-4.57636 -7.24091,-6.30621 -1.60947,-1.02781 -2.34113,-2.9377 -3.84684,-4.01387 -1.85833,-1.32802 -5.26433,-0.82775 -7.44864,-0.99138 -1.19635,-0.0897 -1.92247,-0.50858 -2.98288,0.23224 l 4.90043,2.34368 c -0.90274,0.26611 -1.79291,0.37818 -2.13062,-0.63919 m 25.99357,7.67023 c 5.49252,-4.23332 11.84412,-8.62389 18.96253,-9.33829 2.38543,-0.23948 4.67158,0.34196 7.03104,0.56653 2.10866,0.2007 4.18347,0.0265 6.17879,0.88847 m -75.85007,7.24411 3.40899,-1.06531 m 0.63919,1.06531 c 3.39471,-1.93183 7.76696,-1.87069 10.6531,-4.68737 m -15.76659,3.62206 c 0.33621,-2.50028 -0.95921,-5.29374 -1.60031,-7.67023 -0.26825,-0.995 -0.24161,-2.15151 -1.02974,-2.91831 -0.69031,-0.67158 -1.60563,-0.61 -2.48344,-0.77299 -0.81496,-0.15128 -4.04818,-1.66061 -4.62302,-0.65644 -0.86695,1.51465 3.09792,1.95143 3.77077,2.00405 m 40.26872,9.16167 c 0.92937,-0.77555 1.75989,-1.66273 1.53746,-2.98287 -0.18984,-1.12667 -1.3065,-1.90306 -0.47215,-2.98286 m -20.24089,4.26124 3.40899,-0.74189 3.83512,-0.74955 -1.27838,-1.06531 m 7.8833,2.55675 0.85225,-0.21307 m -7.45717,-1.27837 6.81798,0.42612 m -34.08992,-0.21306 v -0.21306 m -0.21306,-0.42613 v -0.21306 m 21.09313,-2.98286 c -0.88058,0.0667 -2.75254,1.56835 -1.22595,2.19922 1.10132,0.4551 2.81476,0.0744 3.99576,0.14446 m -3.19592,-0.21307 -0.85225,-1.0653 m 3.40899,1.0653 v -0.42612 m 16.61884,-0.85224 -2.13063,0.21306 2.13063,0.85225 m -1.27838,-3.409 c -1.04571,0 -4.88828,0.27571 -5.22833,1.52212 -0.56419,2.06926 3.34018,1.11091 4.16302,1.03463 m -38.35116,0 c -0.35155,-2.27614 -3.21937,-2.46172 -5.11349,-2.55675 -0.31064,-3.48974 -3.62695,-0.24204 -0.42612,0 m -12.78372,2.13062 c -0.16304,-0.74848 -1.95757,-3.0634 -2.37952,-1.25067 -0.44667,1.91926 4.21728,1.19336 5.14932,1.46374 m 53.47857,0 -1.49143,-1.27838 m -51.34795,0.42613 -1.06531,-1.7045 c 1.55322,-0.58443 3.84278,0.27954 4.68736,1.7045 m 11.29229,-0.21307 -2.13062,-2.13062 m -16.61884,1.27838 2.76981,-0.21307 m 12.3576,0 1.49143,-0.63918 m -2.13062,0.42612 0.42612,-0.42612 m 1.7045,0.42612 0.21306,-0.21306 m -2.55674,-0.21306 -0.21307,-0.21306 m -2.7698,-1.27837 -0.85225,0.42612 0.85225,0.42612 m 2.13062,-1.06531 h 1.06531 m 0.85225,-0.42612 v -0.42613"
       style="fill:none;stroke:#000000;stroke-width:0.83731592;stroke-linecap:round"
       id="path821-5"
       data-animal="otter"
       class="interactable" /><path
       inkscape:connector-curvature="0"
       d="m 482.79047,50.149172 c 0.69692,0.75323 1.04021,1.35477 0.49252,2.29844 -2.14953,-2.19386 0.77819,-3.12424 1.9898,-4.78223 1.2203,-1.66998 1.73877,-3.67734 2.86303,-5.36866 1.06303,-1.59939 2.82413,-3.184 3.305,-5.11731 0.39746,-1.59808 -0.16254,-2.65109 -0.69578,-4.10453 -0.13052,-0.3556 -0.57691,-1.46049 -1.12688,-1.02559 -0.43736,0.34575 -0.31063,1.49891 -0.43129,2.0108 -0.31916,1.35346 -0.74486,2.668 -1.79952,3.61184 -1.76717,-1.53733 -3.02311,3.11422 -3.77584,4.4327 -3.54337,6.20694 -8.06013,11.1714 -14.44751,14.53189 -15.92916,8.38027 -33.74027,0.0213 -50.23731,5.55762 -5.91389,1.98454 -11.4735,6.68551 -13.77949,12.58117 -0.72643,1.8572 -1.76065,4.55393 -1.45376,6.56697 0.11267,0.73901 0.67616,2.11071 1.60501,2.04458 1.49272,-0.10627 2.43393,-2.98297 3.17024,-4.01467 2.21106,-3.09815 4.86023,-5.0072 8.15956,-6.73114 l -0.49253,-0.6567 c 2.97668,-2.53083 6.34468,-3.53418 10.01217,-4.53023 2.49118,-0.67656 4.87663,-1.23032 7.54907,-0.86076 0.95335,0.13183 1.6194,1.44375 2.79638,1.70462 1.99061,0.44097 3.33305,-0.34395 3.94018,-2.38808 l -5.74611,0.82087 m -19.04421,5.91028 0.32835,-0.6567 m 0.6567,0.6567 c 1.09927,-0.1893 2.05641,-0.78914 3.11931,-1.10058 2.96105,-0.86764 6.1022,-1.58469 9.19376,-1.6833 5.57667,-0.17785 11.34592,0.91058 16.90995,1.29161 6.71801,0.46005 13.31059,-0.53793 19.86508,-1.8234 4.24948,-0.83335 8.48321,-1.67211 12.31307,-3.81574 7.05457,-3.94872 14.76747,-10.9207 18.24141,-18.3156 1.40549,-2.99175 2.45291,-6.27245 3.0584,-9.52211 0.25151,-1.34951 0.15761,-2.7757 0.42751,-4.1019 0.24642,-1.21062 0.82398,-2.13492 0.91411,-3.45012 0.55409,-8.09215 -3.7952,-16.3158 -11.47758,-19.41262 -11.75192,-4.7372497 -25.272,-2.0029197 -35.62581,4.92227 -3.16938,2.11982 -6.17246,4.46522 -9.02959,6.98513 -0.73484,0.64816 -1.17269,1.84219 -1.89014,2.36624 -0.96911,0.70759 -2.46245,0.69364 -3.5276,1.28335 -1.26086,0.69807 -2.1213,1.8156 -3.28349,2.61448 -0.88327,0.60711 -1.95959,0.69987 -2.78851,1.43619 -0.79624,0.70726 -1.33818,1.6598 -2.15149,2.34671 -1.19634,1.01082 -2.69296,1.35033 -3.76124,2.54765 0.41109,0.40617 0.86175,0.98423 1.47756,1.0476 1.64519,0.16943 2.95744,-1.59315 4.59689,-0.71925 -0.67328,1.03742 -1.93529,2.41763 -2.96992,3.09748 -0.51369,0.3377 -1.75321,0.49892 -1.8752,1.1947 -0.29715,1.6969 1.55573,2.65256 2.87502,3.0254 3.16906,0.8954 6.46815,0.66769 9.52212,-0.52323 4.37754,-1.70708 8.42296,-3.89487 11.98471,-6.98824 3.8274,-3.3237 7.37783,-7.70552 12.31307,-9.40291 1.8555,-0.63815 3.13475,0.31932 4.76106,1.05498 1.62433,0.73485 3.45767,1.30322 5.25357,1.31816 l -0.32834,-1.14922 -0.98505,0.98504 m -34.47659,40.38687 c 1.76897,-0.13955 5.05919,-0.26022 6.53905,-1.27087 0.73944,-0.505 2.25872,-2.70986 3.28053,-2.12146 0.79854,0.45985 -0.34181,1.58346 -0.62582,2.07893 l 2.4626,0.49253 0.16418,-1.97009 3.94019,0.32834 -1.47757,1.9701 -2.46262,-0.16418 m 7.05949,-2.13426 -1.80591,2.62678 c 1.7166,0.50747 4.79733,0.29338 6.4028,-0.49252 l -0.7557,-2.69196 -2.03527,-0.11378 -4.92522,1.164 m -1.3134,1.97009 2.62679,0.16417 m 2.29843,-0.16417 0.98505,-2.95514 m -25.11866,2.13427 -0.32834,0.32835 0.65669,0.32835 m 1.31339,-0.16418 0.49253,-0.82087 m 26.10371,0.82087 c 1.67604,-0.12888 1.16547,-2.8412 -0.32836,-2.95513 m -30.20806,1.97009 c 0.42948,0.8514 1.09849,0.82021 1.9701,0.82087 m -7.0595,-0.16418 c 1.54094,0 3.79751,0.43671 5.0894,-0.49252 m 10.83551,0.49252 1.97008,-2.29844 -4.4327,0.49253 m 23.31275,1.80591 c 1.54175,-0.0488 2.62432,-1.0512 3.94017,-1.69608 0.68002,-0.33327 1.53717,-0.59743 1.14922,-1.42323 l -0.16417,0.82087 m -22.65605,2.13427 2.29845,-0.16418 m 16.58159,-0.32834 0.16417,-2.13427 -1.47756,0.16418 m 3.44766,1.14921 0.16417,-1.64174 -1.97008,0.16418 m -17.56666,0.98504 -0.65669,-0.65669 0.98504,0.16417 m 1.47758,0.32835 1.31338,0.16417 m -5.74609,-0.65669 1.97009,-0.16418 m 22.3277,0.16418 c 1.17467,-0.2814 4.05757,-0.76062 4.84528,-1.69133 0.37349,-0.4413 0.32752,-1.21554 0.47856,-1.75633 0.55015,-1.96895 0.89803,-3.46868 3.03936,-4.08499 0.93202,-0.26826 0.55508,1.32948 0.31144,1.74403 -0.82662,1.40566 -1.68278,3.11044 -3.25689,3.81852 m -7.55202,1.47757 c 0.55787,-0.45673 1.13395,-0.95204 1.80591,-0.49252 l -0.16417,0.49252 m 2.13427,-0.49252 c 0.1274,-2.4943 1.60136,-5.28608 4.4327,-5.41775 m -3.44765,5.41775 1.97008,-4.43271 m -5.0894,4.10436 1.9701,-1.64174 m 0.16417,1.14922 -0.65669,-0.6567 m 6.73114,-2.95514 0.32835,-1.47756 m 0.82086,1.14922 c 1.44064,-0.39796 3.01671,-1.35182 3.57737,-2.79097 0.47199,-1.21144 0.26513,-2.96498 1.34786,-3.77601 m -3.1193,5.25358 c 0.19504,-0.69922 0.4037,-0.7593 0.98504,-0.32835 v 0 m -2.79097,-0.32835 1.93793,-2.46507 1.67391,-3.4452 m -1.64174,5.41775 -0.32835,-1.31339 m 2.46262,-2.62679 v -0.82087 m 1.31339,-0.16418 c 1.55259,-0.20653 3.86269,-2.24557 3.78717,-3.94018 -0.0312,-0.70135 -0.63125,-1.54964 -0.99621,-2.13426 m -2.95513,4.92522 -0.49253,-0.98504 m 2.29844,0.82087 -0.16417,-2.29844 m -1.47757,1.80592 v -0.6567 m 3.77601,-1.97009 c 0.69248,-1.04907 0.23345,-2.14461 0.681,-3.24852 0.61449,-1.51565 3.75318,-3.00849 2.27413,-4.96019 m -2.29844,4.59688 -0.32834,-0.32835 m 0.16417,-1.14922 c -0.97782,-1.83235 0.68346,-2.89472 1.43504,-4.43271 0.56985,-1.16629 0.84633,-2.51695 1.52009,-3.61183 m -54.1775,5.58192 -0.6567,-1.64174 c -1.69624,1.90097 1.8844,2.24229 2.29073,0.48612 0.35642,-1.54094 -2.41073,-2.78587 -2.94742,-0.97864 l 0.16417,0.16417 v -0.32835 l -0.16417,-0.16417 -0.16417,0.16417 m 52.37158,2.29844 -0.32835,-2.13426 m -51.71489,1.80591 0.32835,-0.32834 -0.16417,-0.16418 -0.32835,0.32835 h 0.32835 m 55.32672,0.16417 0.16418,-1.64174 m -0.16418,1.47757 -0.49252,-0.49252 m -55.32672,0.16417 -0.16419,-1.47757 m 0.82088,1.47757 0.49253,-0.49252 m 54.8342,0.32835 -0.49253,-0.49252 m -54.67003,-0.16418 -0.32834,-0.32835 m 50.72984,-0.98504 c 0.0419,-2.0269 0.56197,-3.10355 1.51041,-4.76762 0.40288,-0.7071 0.47068,-1.4275 1.11638,-1.96353 l 0.49252,1.64175 m -62.55039,3.776 c 0.17172,0.57839 0.37826,0.79362 0.98504,0.82087 m 5.08941,-0.82087 0.98505,-0.82087 m 10.17879,0.49252 c 1.05909,-1.01361 2.07024,-1.93233 2.94875,-3.11931 0.373,-0.50418 0.59282,-1.40418 1.08338,-1.77899 1.86124,-1.42191 6.13453,0.7951 6.14668,-2.65371 -2.33653,0 -4.62561,0.19225 -6.73115,1.31339 -0.37086,-0.65653 -1.34771,-1.6795 -1.24345,-2.46261 0.0819,-0.61533 0.72713,-1.15825 1.07288,-1.64174 1.27284,-1.77949 4.05428,-4.62003 6.08085,-2.29844 l -6.89532,4.76105 m 40.05852,5.58193 -1.62549,-2.79097 -0.0448,-2.29844 -0.62813,-2.62678 c 2.1364,0.31193 3.22011,5.15934 2.29844,6.89531 m 12.96977,0.82088 c -0.66606,-0.91528 -0.76424,-2.06384 -1.12657,-3.11932 -0.89967,-2.62055 -1.83858,-5.60014 -3.9653,-7.5218 -8.04552,-7.26948 -21.22987,-5.68684 -30.69812,-3.05496 -2.88553,0.80199 -6.80043,1.67146 -9.19376,3.51727 1.12541,1.32998 0.74191,3.68309 -0.32835,4.92523 m -6.4028,2.62679 -0.32835,-1.3134 m 41.20775,1.14922 c -0.0783,-1.52518 -1.07847,-2.9663 -2.46262,-3.61183 m -1.97009,-1.31339 -1.80592,-0.98505 c -0.42767,0.88769 0.10212,1.45064 0.41405,2.29844 0.51567,1.40188 0.11263,2.40269 1.72021,3.11931 m -9.68627,-1.14922 6.73114,-0.32835 c -0.21375,-1.44769 -3.38035,-5.38114 -0.32916,-4.39741 0.35527,0.1146 0.66227,0.27516 0.98586,0.45723 m 0.65669,3.28348 -0.65669,0.82088 0.65669,0.16417 m -1.14922,-0.16417 h 0.49253 m -35.13329,-0.32835 c 2.06941,-1.46066 5.19677,-2.59215 7.71619,-2.79096 m 23.31275,2.62678 c -0.32967,-1.20783 -1.77539,-2.61217 -1.83367,-3.75417 -0.0586,-1.14823 2.733,-0.823 3.31123,-0.51436 m -8.70124,3.77601 0.32835,-0.82087 0.32836,0.82087 m 2.79096,-0.16417 -0.65671,-1.97009 c -1.07977,0.47397 -1.31831,-0.83385 -2.3009,-1.03988 -1.25166,-0.26252 -3.38609,0.71136 -4.26607,1.5324 m -24.62614,-0.6567 1.79115,0.42735 1.65652,1.05022 m 25.28283,-0.16417 -1.31338,-1.47757 m 3.44765,0.98504 0.49252,0.16418 m -29.05884,-0.6567 c 0.89114,-1.59922 2.9681,-4.80357 5.0894,-3.28349 m 23.80526,2.95514 c -0.76127,-1.51352 1.26941,-1.47478 2.29845,-1.47757 m -3.77601,0.49252 0.98505,-0.16417 m -19.70091,-1.31339 0.98504,0.16417 m -7.71619,-0.32835 -1.14922,-1.14922"
       style="fill:none;stroke:#000000;stroke-width:1.35738277;stroke-linecap:round"
       id="path821-9"
       class="interactable"
       data-animal="electriceel" /></g></svg>