<?xml version="1.0" encoding="UTF-8" standalone="no"?>
<!-- Created with Inkscape (http://www.inkscape.org/) -->

<svg
   xmlns:dc="http://purl.org/dc/elements/1.1/"
   xmlns:cc="http://creativecommons.org/ns#"
   xmlns:rdf="http://www.w3.org/1999/02/22-rdf-syntax-ns#"
   xmlns:svg="http://www.w3.org/2000/svg"
   xmlns="http://www.w3.org/2000/svg"
   xmlns:sodipodi="http://sodipodi.sourceforge.net/DTD/sodipodi-0.dtd"
   xmlns:inkscape="http://www.inkscape.org/namespaces/inkscape"
   version="1.1"
   id="svg2"
   width="640"
   height="542"
   viewBox="0 0 640 542"
   sodipodi:docname="sloth.svg"
   inkscape:version="0.92.4 (5da689c313, 2019-01-14)">
  <metadata
     id="metadata8">
    <rdf:RDF>
      <cc:Work
         rdf:about="">
        <dc:format>image/svg+xml</dc:format>
        <dc:type
           rdf:resource="http://purl.org/dc/dcmitype/StillImage" />
        <dc:title />
      </cc:Work>
    </rdf:RDF>
  </metadata>
  <defs
     id="defs6" />
  <sodipodi:namedview
     pagecolor="#ffffff"
     bordercolor="#666666"
     borderopacity="1"
     objecttolerance="10"
     gridtolerance="10"
     guidetolerance="10"
     inkscape:pageopacity="0"
     inkscape:pageshadow="2"
     inkscape:window-width="1920"
     inkscape:window-height="1017"
     id="namedview4"
     showgrid="false"
     inkscape:zoom="1.32"
     inkscape:cx="187.04545"
     inkscape:cy="276.30893"
     inkscape:window-x="-8"
     inkscape:window-y="-8"
     inkscape:window-maximized="1"
     inkscape:current-layer="svg2" />
  <g
     id="g833">
    <path
       transform="translate(0,0) scale(1,1)"
       d="M235 74C245.189 85.0196 239.119 107.825 240.09 122C242.683 159.876 256.045 195.656 261.573 233C263.136 243.566 266.636 270.809 253.985 276.056C243.557 280.379 230.621 263.764 225.406 257C223.635 254.703 220.043 252.021 219.63 249C218.368 239.755 229.248 236.004 236 238L238 236C227.857 203.993 213.392 174.524 207.753 141C205.902 129.996 203.289 114.061 206.318 103.104C207.392 99.2167 212.259 96.6985 214.985 93.9846C219.711 89.2801 222.751 83.1374 227.39 78.5185C229.671 76.247 233.645 75.0029 234.686 71.7369C236.058 67.4328 234.912 62.3057 236.603 58.0895C238.33 53.7813 243.231 51.035 245.648 47C258.318 25.8534 271.792 4.25073 300 9.46375C323.898 13.8801 351.779 25.2173 364.688 47C372.011 59.3584 384.781 88.9975 362 89C359.481 76.8998 351.124 63.3558 341.961 55.1443C338.567 52.1034 333.691 51.5237 330.85 47.8665C324.641 39.8722 321.542 27.3718 318 18M218 249C194.997 227.81 182.88 199.237 152 188.054C142.445 184.594 132.158 182.073 122 181.999C117.85 181.969 113.56 181.722 112.318 176.981C109.835 167.504 112 154.795 112 145C112 105.815 120.659 55.4556 152.437 29.7261C159.949 23.6438 158.047 11.3984 171 10.1049C182.572 8.94934 186.344 15.6021 196.039 19.1551C205.907 22.7715 215 21.8449 222.61 31.0401C229.086 38.8643 228.821 48.6009 236 56M521 72C503.837 57.5826 503.879 33.4686 525 21.8187C530.313 18.8883 545.502 18.137 547.338 26.0193C549.069 33.4496 537.084 46.6478 533.745 53C530.204 59.7331 526.131 66.3745 521 72M197 21C197.462 31.7509 200.151 42.1706 200.151 53C200.151 63.0599 197.304 72.1562 195.869 82C194.863 88.8936 186.552 100.345 178.603 92.3966C174.348 88.1407 176.676 75.6874 175.24 70C171.467 55.0635 164.822 41.0578 154 30M408 362C418.544 339.455 425.283 311.983 424.101 287C423.665 277.784 418.744 271.43 417.108 263C405.492 203.144 372.104 137.192 395.811 76C404.676 53.1184 428.622 13.0239 459 22.9159C468.256 25.9299 474.907 33.2516 483 38.1605C489.641 42.1887 498.033 43.1853 505 47M550 26C559.073 24.3366 572.835 24.7005 578.612 33.054C581.512 37.2473 581.493 42.8554 584.563 46.7909C594.679 59.7554 602.036 71.8854 607.255 88C629.967 158.14 635.603 240.444 623.435 313C615.762 358.754 596.743 404.737 570.745 443C562.043 455.807 553.21 471.848 540.999 481.62C533.029 487.999 521.35 491.834 512 495.85C492.354 504.288 472.684 512.575 452 518.151C355.081 544.282 244.68 532.622 155 487.753C115.191 467.836 79.3682 437.074 53.4282 401C44.4307 388.487 39.2006 373.955 31.1821 361.424C13.6354 334.003 -3.50543 293.773 11 261C24.0145 262.597 37.5853 235.855 47 228.084C54.8011 221.645 62.8449 216.141 73 214.591C77.3232 213.931 83.9676 216.683 87.7222 214.802C90.6875 213.316 91.4195 208.681 92.9051 206C95.4737 201.365 100.033 198.474 102.628 193.961C103.848 191.839 105.046 188.675 102.639 186.889C95.7434 181.773 77.7142 190.094 71 192.861C42.575 204.575 13.6062 228.022 11 261M483 39C485.244 50.574 489.286 62.1977 490.076 74C490.591 81.6879 488.543 94.0026 492.318 100.891C496.598 108.703 501.662 101.668 507.039 101.515C510.716 101.41 514.172 105.781 517.852 104.003C524.401 100.839 521 78.3216 521 72M584 48C575.963 55.9643 565.454 58.0607 557.001 65.3009C546.674 74.1458 540.467 86.812 533.135 97.9992C529.591 103.406 525.392 106.902 519 104M332 50C328.334 56.7646 326.704 70.7628 331.303 77.5818C333.815 81.3048 339.166 83.3234 342.196 87.0038C345.723 91.2881 350.486 100.203 356.941 100.149C361.884 100.107 360.997 93.3117 361 90M492 76C503.612 80.0685 505.968 88.3352 506 100M331 79C325.733 88.8693 330.789 107.286 332.586 118C339.142 157.08 359.193 189.501 370 227C373.346 238.609 376.363 250.304 379.37 262C380.469 266.274 380.883 273.365 384.43 276.397C392.351 283.168 410.799 272.006 417 267M194 92C197.726 96.6719 199.952 99.6799 206 101M492 104C492.015 127.434 497.694 151.962 505.344 174C507.448 180.059 511.556 195.379 520.941 193.323C527.547 191.876 526.209 176.822 525.576 172C522.706 150.142 523.511 128.421 517 107M112 180L104 185M521 195C521.402 225.808 546.289 255.35 561.547 281C575.575 304.583 582 330.806 582 358M171 198C165.001 203.929 150.221 206.079 147.653 214.015C144.99 222.246 149.451 239.48 159.004 241.667C169.97 244.179 190.537 236.375 198 229M218 250C203.894 264.156 206.921 287.139 195.298 302.829C188.146 312.483 173.715 319.752 164 326.71C137.427 345.741 111.184 366.464 77 367.961C61.2326 368.651 48.8878 359.043 34 359C45.101 342.699 64.3407 320.952 64.7677 300C64.932 291.943 44.8604 275.436 37 278.148C23.9533 282.649 19.6383 303.042 10 312M116 260L104 268M148 262C145.283 267.097 143.401 272.479 139.671 277C125.017 294.763 106.278 296.439 85 296M251 278C246.237 302.559 224.993 327.44 198 328M386 278C383.38 282.91 388.003 305.437 379.981 305.11C375.48 304.926 369.773 298.569 365 297C362.364 320.978 366.624 339.377 352 360M359 285L364 296M334 319C330.427 325.495 330.478 332.695 331.17 340C331.463 343.098 333.043 347.89 329.682 349.933C325.863 352.255 319.519 348.504 316 346.999C313.229 345.814 310.603 344.513 308 343M334 322C343.779 329.552 348.727 345.283 351 357M332 352L335 354M34 359L32 361"
       style="stroke-width:7.5;stroke:#000000;stroke-linecap:round;fill:none;stroke-miterlimit:4;stroke-dasharray:none"
       id="path821" />
    <circle
       r="16.28788"
       cy="284.80304"
       cx="54.166668"
       id="path826"
       style="fill:#000000;fill-opacity:1;fill-rule:nonzero;stroke:none;stroke-width:1.75600004;stroke-miterlimit:4;stroke-dasharray:none;stroke-opacity:1" />
    <circle
       style="fill:#000000;fill-opacity:1;fill-rule:nonzero;stroke:none;stroke-width:1.75600004;stroke-miterlimit:4;stroke-dasharray:none;stroke-opacity:1"
       id="circle828"
       cx="148.10606"
       cy="225.71213"
       r="16.28788" />
  </g>
</svg>
