<?xml version="1.0" encoding="UTF-8" standalone="no"?>
<!-- Created with Inkscape (http://www.inkscape.org/) -->

<svg
   xmlns:dc="http://purl.org/dc/elements/1.1/"
   xmlns:cc="http://creativecommons.org/ns#"
   xmlns:rdf="http://www.w3.org/1999/02/22-rdf-syntax-ns#"
   xmlns:svg="http://www.w3.org/2000/svg"
   xmlns="http://www.w3.org/2000/svg"
   xmlns:sodipodi="http://sodipodi.sourceforge.net/DTD/sodipodi-0.dtd"
   xmlns:inkscape="http://www.inkscape.org/namespaces/inkscape"
   width="103.29082mm"
   height="44.94236mm"
   viewBox="0 0 103.29082 44.94236"
   version="1.1"
   id="svg964"
   inkscape:version="0.92.4 (5da689c313, 2019-01-14)"
   sodipodi:docname="dolphin.svg"
   inkscape:export-filename="/home/algot/Documents/runeman.org/clipart/2019/dolphin.png"
   inkscape:export-xdpi="68.081467"
   inkscape:export-ydpi="68.081467">
  <title
     id="title1005">Dolphin</title>
  <defs
     id="defs958">
    <filter
       inkscape:collect="always"
       style="color-interpolation-filters:sRGB"
       id="filter1623"
       x="-0.077999987"
       width="1.156"
       y="-0.12480004"
       height="1.2496001">
      <feGaussianBlur
         inkscape:collect="always"
         stdDeviation="0.19654758"
         id="feGaussianBlur1625" />
    </filter>
  </defs>
  <sodipodi:namedview
     id="base"
     pagecolor="#ffffff"
     bordercolor="#666666"
     borderopacity="1.0"
     inkscape:pageopacity="0.0"
     inkscape:pageshadow="2"
     inkscape:zoom="1.4"
     inkscape:cx="237.01319"
     inkscape:cy="73.626683"
     inkscape:document-units="mm"
     inkscape:current-layer="g826"
     showgrid="false"
     inkscape:snap-global="false"
     inkscape:window-width="1920"
     inkscape:window-height="1017"
     inkscape:window-x="-8"
     inkscape:window-y="-8"
     inkscape:window-maximized="1"
     fit-margin-top="0"
     fit-margin-left="0"
     fit-margin-right="0"
     fit-margin-bottom="0" />
  <metadata
     id="metadata961">
    <rdf:RDF>
      <cc:Work
         rdf:about="">
        <dc:format>image/svg+xml</dc:format>
        <dc:type
           rdf:resource="http://purl.org/dc/dcmitype/StillImage" />
        <dc:title>Dolphin</dc:title>
        <dc:date>2019-02-02</dc:date>
        <dc:creator>
          <cc:Agent>
            <dc:title>Algot Runeman</dc:title>
          </cc:Agent>
        </dc:creator>
        <dc:rights>
          <cc:Agent>
            <dc:title>Algot Runeman</dc:title>
          </cc:Agent>
        </dc:rights>
        <dc:publisher>
          <cc:Agent>
            <dc:title>runeman.org</dc:title>
          </cc:Agent>
        </dc:publisher>
        <dc:identifier>dolphin.svg</dc:identifier>
        <cc:license
           rdf:resource="http://creativecommons.org/publicdomain/zero/1.0/" />
      </cc:Work>
      <cc:License
         rdf:about="http://creativecommons.org/publicdomain/zero/1.0/">
        <cc:permits
           rdf:resource="http://creativecommons.org/ns#Reproduction" />
        <cc:permits
           rdf:resource="http://creativecommons.org/ns#Distribution" />
        <cc:permits
           rdf:resource="http://creativecommons.org/ns#DerivativeWorks" />
      </cc:License>
    </rdf:RDF>
  </metadata>
  <g
     inkscape:label="Layer 1"
     inkscape:groupmode="layer"
     id="layer1"
     transform="translate(-31.148357,-106.88232)">
    <g
       id="g826">
      <g
         id="g832"
         transform="rotate(-26.902657,78.985077,141.0816)">
        <path
           style="fill:none;fill-rule:evenodd;stroke:#000000;stroke-width:0.26458332px;stroke-linecap:butt;stroke-linejoin:miter;stroke-opacity:1"
           d="m 110.74702,162.25149 c 0,0 -3.70121,-3.73503 -5.48065,-5.66965 -0.90668,-0.98575 -1.73084,-2.04578 -2.64584,-3.02381 -0.42605,-0.4554 -0.84063,-0.92754 -1.32291,-1.32291 -1.580881,-1.29601 -3.476605,-2.16295 -5.10268,-3.40179 -0.994659,-0.75779 -1.780848,-1.78399 -2.834823,-2.45684 -4.01658,-2.56415 -13.040177,-5.85864 -13.040177,-5.85864 l -7.9375,-3.21279 -3.96875,-1.13393 c 0,0 2.454336,1.74881 3.779761,2.45685 0.846335,0.45211 2.464379,0.19171 2.645833,1.13392 0.06739,0.34993 -0.42475,0.62443 -0.755952,0.75595 -1.991522,0.79082 -4.340053,0.30303 -6.425594,-0.18898 -2.77064,-0.65363 -5.514085,-1.82697 -7.748513,-3.59078 -1.196979,-0.94487 -2.83482,-3.59077 -2.83482,-3.59077 l 0.944938,2.64583 -1.322916,0.56697 c 0,0 -4.00856,-0.7902 -5.669643,-1.88988 -1.190894,-0.7884 -1.597238,-2.49992 -2.83482,-3.2128 -1.670053,-0.962 -3.781288,-0.7484 -5.669642,-1.13393 -1.513153,-0.30893 -2.992775,-0.87858 -4.535715,-0.94494 -1.584734,-0.0682 -4.724702,0.56696 -4.724702,0.56696 l -0.566965,-0.37797 v -1.13393 l 0.377976,0.18899 -0.566965,-1.13393 0.755954,-0.94494 2.83482,-1.32292 c 0,0 0.16783,-2.85277 0.944941,-3.96875 0.519184,-0.74558 1.500131,-1.02606 2.267858,-1.5119 1.241581,-0.78571 2.452587,-1.6374 3.77976,-2.26786 2.177945,-1.03461 4.483615,-1.79984 6.803573,-2.45684 1.485932,-0.42081 3.009895,-0.70632 4.535715,-0.94495 1.189082,-0.18596 2.387624,-0.34736 3.590771,-0.37797 2.333501,-0.0594 4.662708,0.23467 6.992562,0.37797 1.82777,0.11242 3.661053,0.17198 5.480653,0.37798 1.204062,0.13631 2.396689,0.3608 3.590774,0.56697 1.010549,0.17448 1.999294,0.61189 3.02381,0.56696 1.633901,-0.0717 4.724701,-1.32292 4.724701,-1.32292 0,0 2.362732,-1.32297 3.590774,-1.88988 1.232032,-0.56875 2.447272,-1.25529 3.779764,-1.5119 0.92789,-0.17869 1.89048,-0.0337 2.834819,0 0.88363,0.0315 1.841528,-0.17828 2.645834,0.18899 0.324163,0.14802 0.619581,0.42672 0.755954,0.75595 0.07232,0.1746 0.08918,0.40034 0,0.56696 -0.214352,0.40052 -0.755954,0.50397 -1.13393,0.75595 l -2.267858,1.51191 -1.133927,1.88988 -0.188989,2.07887 c 0,0 1.141171,2.10065 1.889881,3.02381 1.487396,1.83396 3.431881,3.2451 5.102678,4.91369 1.796851,1.79447 3.683447,3.51534 5.291667,5.48065 1.40542,1.71747 2.55148,3.63235 3.77976,5.48066 1.0349,1.55731 2.1211,3.08721 3.02381,4.7247 1.07484,1.94971 2.13302,3.93477 2.83482,6.04762 0.68933,2.0753 0.92959,4.27447 1.32292,6.4256 0.28687,1.56892 0.48729,3.15256 0.75595,4.7247 0.11864,0.69425 0.37798,2.07887 0.37798,2.07887 l 6.04762,4.91369 2.64583,2.45684 1.70089,2.07887 v 0.75595 l -1.88988,-0.94494 -2.07887,-0.94494 -2.83482,0.18899 h -1.70089 l -1.13393,-1.51191 -0.37798,0.75596 -3.96875,-0.56697 -2.26785,-0.56696 -1.51191,-0.37798 c 0,0 -0.11689,-0.77447 0,-1.13392 0.52994,-1.62968 3.02381,-4.15774 3.02381,-4.15774 z"
           id="path977"
           inkscape:connector-curvature="0"
           sodipodi:nodetypes="cssssscccssssscccsssscccccccsssssssssscssssssscccssssssssccccccccccccccsc" />
        <path
           style="fill:none;fill-rule:evenodd;stroke:#000000;stroke-width:0.99999994px;stroke-linecap:butt;stroke-linejoin:miter;stroke-opacity:1"
           d="M 154.28516,478.23438 125,482.51953 l -1.04297,0.76953 1.04297,2.08789 -1.42773,-0.71484 v 4.28711 l 2.14257,1.42773 c 0,0 11.86788,-2.40034 17.85743,-2.14257 5.83158,0.2508 11.42357,2.4027 17.14257,3.57031 7.13709,1.45712 15.11573,0.6512 21.42774,4.28711 4.67747,2.69435 6.21383,9.1628 10.71484,12.14258 6.27811,4.15627 13.9053,7.45528 21.42774,7.14257 1.81168,-0.0753 4.27479,-0.48067 5,-2.14257 1.36256,-3.12246 -3.4375,-9.625 -3.4375,-9.625 L 190,496.80469 c 0,0 -8.29914,-21.18663 -17.85742,-24.28544 -5.94525,-1.92746 -17.85742,5.71513 -17.85742,5.71513 z m 61.76757,25.42773 1.81055,2.29297 -0.7207,-2.00586 z"
           transform="scale(0.26458333)"
           id="path981"
           inkscape:connector-curvature="0"
           sodipodi:nodetypes="ccccccccccsssccsccccc" />
        <path
           style="fill:none;fill-rule:evenodd;stroke:#b3b3b3;stroke-width:0.26458332px;stroke-linecap:butt;stroke-linejoin:miter;stroke-opacity:1"
           d="m 32.883927,128.23363 2.078871,-0.37798 4.346726,-1.13392 3.023809,-0.94495"
           id="path979"
           inkscape:connector-curvature="0" />
        <path
           style="fill:none;fill-rule:evenodd;stroke:#000000;stroke-width:0.56097823;stroke-linecap:butt;stroke-linejoin:miter;stroke-miterlimit:4;stroke-dasharray:none;stroke-opacity:1;filter:url(#filter1623)"
           d="m 43.311082,121.07714 c -0.708892,-1.12403 -2.706345,-0.0371 -3.96875,0.37798 -0.697892,0.22948 -1.483509,0.5219 -1.889881,1.13393 -0.246398,0.37109 -0.228991,0.87926 -0.188988,1.32291 0.01789,0.19841 0.188988,0.56697 0.188988,0.56697 v 0 c 0,0 1.122615,0.43197 1.700893,0.37797 0.477684,-0.0446 0.909695,-0.3232 1.322916,-0.56696 0.618645,-0.36494 1.224539,-0.78534 1.700893,-1.32292 0.487222,-0.54985 1.525824,-1.26848 1.133929,-1.88988 z"
           id="path1585"
           inkscape:connector-curvature="0"
           transform="matrix(0.67560554,0,0,0.67560554,14.656469,39.889821)"
           sodipodi:nodetypes="ssssssssss" />
      </g>
    </g>
  </g>
</svg>
