<svg xmlns="http://www.w3.org/2000/svg" viewBox="0 0 238.98 256"><path d="m 238.9798,128 c -3.1081,-5.3835 -15.2179,-15.2525 -34.2827,-17.7559 -8.4655,-1.1117 -25.5719,-2.3539 -50.4167,-2.7307 L 117.1361,6.0992 94.3794,0 l 8.9968,107.9422 c -19.1868,0.5552 -40.7087,1.5778 -64.5123,3.2707 L 22.7584,85.6217 0,79.524 11.8478,128 0,176.476 22.7584,170.3783 38.8639,144.787 c 23.8036,1.693 45.3255,2.7156 64.5123,3.2708 L 94.3794,256 l 22.7567,-6.0992 37.1443,-101.4143 c 24.8448,-0.3767 41.9512,-1.619 50.4167,-2.7306 19.0648,-2.5035 31.1746,-12.3724 34.2827,-17.7559 z" style="marker:none" color="#000" overflow="visible" fill="gray"/></svg>