<svg xmlns="http://www.w3.org/2000/svg" xmlns:xlink="http://www.w3.org/1999/xlink" viewBox="0 0 142.76 261.42"><defs><linearGradient id="a" y2="273" gradientUnits="userSpaceOnUse" x2="114" gradientTransform="rotate(15 314.718 1451.573)" y1="239" x1="114"><stop stop-color="#920202" offset="0"/><stop stop-color="#d12323" offset="1"/></linearGradient><linearGradient id="b" y2="161.34" gradientUnits="userSpaceOnUse" x2="418.56" y1="161.34" x1="394.56"><stop stop-color="#cf6161" offset="0"/><stop stop-color="#b40000" offset="1"/></linearGradient><linearGradient id="w" y2="171.19" gradientUnits="userSpaceOnUse" x2="198.02" gradientTransform="translate(-85.958 -24.046) scale(.79353)" y1="69.139" x1="198.02"><stop stop-color="#e19b9b" offset="0"/><stop stop-color="#c20606" offset="1"/></linearGradient><linearGradient id="v" y2="178.81" gradientUnits="userSpaceOnUse" x2="251.91" gradientTransform="translate(-85.958 -24.046) scale(.79353)" y1="69.88" x1="251.91"><stop stop-color="#fdeded" offset="0"/><stop stop-color="#c92b2b" offset="1"/></linearGradient><linearGradient id="c" y2="273" xlink:href="#a" gradientUnits="userSpaceOnUse" x2="114" gradientTransform="rotate(15 243.398 65.861) scale(.75683)" y1="239" x1="114"/><linearGradient id="e" y2="27.13" xlink:href="#b" gradientUnits="userSpaceOnUse" x2="475" gradientTransform="translate(-269.44 -9.267) scale(.75682)" y1="27.13" x1="451"/><linearGradient id="f" y2="-155.33" xlink:href="#b" gradientUnits="userSpaceOnUse" x2="475.61" gradientTransform="translate(-252.5 94.473) scale(.75682)" y1="-155.33" x1="451.61"/><linearGradient id="g" y2="-284.43" xlink:href="#b" gradientUnits="userSpaceOnUse" x2="436.01" gradientTransform="translate(-214.56 163.24) scale(.75682)" y1="-284.43" x1="412.01"/><linearGradient id="h" y2="-428.3" xlink:href="#b" gradientUnits="userSpaceOnUse" x2="320.44" gradientTransform="translate(-135.82 232.89) scale(.75682)" y1="-428.3" x1="296.44"/><linearGradient id="d" y2="273" xlink:href="#a" gradientUnits="userSpaceOnUse" x2="114" gradientTransform="scale(-.75683 .75683) rotate(15 227.042 -631.228)" y1="239" x1="114"/><linearGradient id="i" y2="-512.56" xlink:href="#b" gradientUnits="userSpaceOnUse" x2="175.27" gradientTransform="translate(-44.533 265.89) scale(.75682)" y1="-512.56" x1="151.27"/><linearGradient id="j" y2="-539.38" xlink:href="#b" gradientUnits="userSpaceOnUse" x2="-7.719" gradientTransform="translate(60.559 262.71) scale(.75682)" y1="-539.38" x1="-31.719"/><linearGradient id="k" y2="-512.87" xlink:href="#b" gradientUnits="userSpaceOnUse" x2="-137.5" gradientTransform="translate(133.69 234.11) scale(.75682)" y1="-512.87" x1="-161.5"/><linearGradient id="l" y2="-420.05" xlink:href="#b" gradientUnits="userSpaceOnUse" x2="-296.84" gradientTransform="translate(214.37 165.95) scale(.75682)" y1="-420.05" x1="-320.84"/><linearGradient id="m" y2="-241.53" xlink:href="#b" gradientUnits="userSpaceOnUse" x2="-424.22" gradientTransform="translate(263.16 51.214) scale(.75682)" y1="-241.53" x1="-448.22"/><linearGradient id="n" y2="-59.695" xlink:href="#b" gradientUnits="userSpaceOnUse" x2="-458" gradientTransform="translate(262.75 -53.3) scale(.75682)" y1="-59.695" x1="-482"/><linearGradient id="o" y2="76.252" xlink:href="#b" gradientUnits="userSpaceOnUse" x2="-430.41" gradientTransform="translate(237.45 -127.67) scale(.75682)" y1="76.252" x1="-454.41"/><linearGradient id="p" y2="236.3" xlink:href="#b" gradientUnits="userSpaceOnUse" x2="-342.2" gradientTransform="translate(170.57 -208.78) scale(.75682)" y1="236.3" x1="-366.2"/><linearGradient id="q" y2="343.65" xlink:href="#b" gradientUnits="userSpaceOnUse" x2="-209.01" gradientTransform="translate(85.584 -255.65) scale(.75682)" y1="343.65" x1="-233.01"/><linearGradient id="r" y2="398.7" xlink:href="#b" gradientUnits="userSpaceOnUse" x2="-35.362" gradientTransform="translate(-18.698 -268.95) scale(.75682)" y1="398.7" x1="-59.362"/><linearGradient id="s" y2="393.38" xlink:href="#b" gradientUnits="userSpaceOnUse" x2="106.42" gradientTransform="translate(-95.426 -252.14) scale(.75682)" y1="393.38" x1="82.418"/><linearGradient id="t" y2="324.03" xlink:href="#b" gradientUnits="userSpaceOnUse" x2="275.1" gradientTransform="translate(-184.6 -196.49) scale(.75682)" y1="324.03" x1="251.1"/><linearGradient id="u" y2="161.34" xlink:href="#b" gradientUnits="userSpaceOnUse" x2="418.56" gradientTransform="translate(-253.88 -90.716) scale(.75682)" y1="161.34" x1="394.56"/></defs><path d="m81.61 129.83-43.858-11.75-35.26 131.59 26.632-11.67 17.226 23.42z" fill="url(#c)"/><path d="m61.525 129.83 43.858-11.753 35.26 131.59-26.632-11.67-17.225 23.424z" fill="url(#d)"/><path d="m71.561 7.7355a66.221 66.221 0 1 1 -0.000013 0" fill="#980000"/><path transform="rotate(5.82)" fill="url(#e)" d="M71.888 -6.898H90.052V29.429H71.888z"/><path transform="rotate(28.302)" fill="url(#f)" d="M89.285 -41.248H107.449V-4.920999999999999H89.285z"/><path transform="rotate(45.055)" fill="url(#g)" d="M97.262 -70.181H115.426V-33.854H97.262z"/><path transform="rotate(67.538)" fill="url(#h)" d="M88.532 -109.42H106.696V-73.093H88.532z"/><path transform="rotate(88.281)" fill="url(#i)" d="M69.951 -140.19H88.115V-103.863H69.951z"/><path transform="rotate(110.77)" fill="url(#j)" d="M36.554 -163.67H54.718V-127.34299999999999H36.554z"/><path transform="rotate(127.518)" fill="url(#k)" d="M11.467 -172.2H29.631V-135.873H11.467z"/><path transform="rotate(150)" fill="url(#l)" d="M-28.453 -170.11H-10.288999999999998V-133.78300000000002H-28.453z"/><path transform="rotate(176.82)" fill="url(#m)" d="M-76.064 -149.74H-57.89999999999999V-113.41300000000001H-76.064z"/><path transform="rotate(199.3)" fill="url(#n)" d="M-102.04 -116.64H-83.876V-80.313H-102.04z"/><path transform="scale(-1) rotate(36.055)" fill="url(#o)" d="M-106.46 -88.127H-88.29599999999999V-51.8H-106.46z"/><path transform="rotate(-121.46)" fill="url(#p)" d="M-106.58 -48.104H-88.416V-11.777000000000001H-106.58z"/><path transform="rotate(259.28)" fill="url(#q)" d="M-90.762 -13.735H-72.598V22.592H-90.762z"/><path transform="rotate(-78.234)" fill="url(#r)" d="M-63.625 14.632H-45.461V50.958999999999996H-63.625z"/><path transform="rotate(-61.482)" fill="url(#s)" d="M-33.05 27.409H-14.885999999999996V63.736H-33.05z"/><path transform="rotate(-38.998)" fill="url(#t)" d="M5.441 30.583H23.605V66.91H5.441z"/><path transform="rotate(-11.874)" fill="url(#u)" d="M44.734 13.226H62.898V49.553H44.734z"/><path d="m71.557 33.088a40.867 40.867 0 1 1 -0.000008 0" stroke="url(#v)" stroke-width="3.027" fill="url(#w)"/><text style="line-height:1.25" x="71.618" y="66.673" font-weight="400" font-size="10.387" font-family="sans-serif" letter-spacing="0" word-spacing="0" stroke-width=".26"><tspan x="71.618" y="66.673" style="-inkscape-font-specification:'sans-serif, Normal';font-variant-ligatures:normal;font-variant-caps:normal;font-variant-numeric:normal;font-feature-settings:normal;text-align:center" text-anchor="middle" fill="#fff">ADVENTURER</tspan><tspan x="71.618" y="79.657" style="-inkscape-font-specification:'sans-serif, Normal';font-variant-ligatures:normal;font-variant-caps:normal;font-variant-numeric:normal;font-feature-settings:normal;text-align:center" text-anchor="middle" fill="#fff">OF THE</tspan><tspan x="71.618" y="92.641" style="-inkscape-font-specification:'sans-serif, Normal';font-variant-ligatures:normal;font-variant-caps:normal;font-variant-numeric:normal;font-feature-settings:normal;text-align:center" text-anchor="middle" fill="#fff">YEAR</tspan></text></svg>