<svg xmlns="http://www.w3.org/2000/svg" viewBox="0 0 779.094 513.545"><path d="m 190.14562,407.04051 25.33327,-9.33331 c 3.43333,16.05063 -6.37465,50.70654 -17.47195,62.64651 -7.57998,8.15598 -17.71329,11.89997 -26.52794,18.36262 -10.82397,7.93598 -17.86795,21.59995 -29.33459,28.20527 -9.48971,5.46798 -21.51448,4.11732 -31.99859,4.11865 -21.694742,10e-4 -34.181242,2.164 -54.666532,-6.02932 -8.43825,-3.37465 -18.66329,-1.93732 -26.6614,-6.18931 -13.47543,-7.16532 -26.5849299,-39.6519 -26.5668699,-54.44787 0.0342,-27.99859 23.0615499,-43.37189 41.2282999,-60.11985 26.7582,-24.6666 51.32814,-49.35454 69.502902,-81.21313 44.19282,-77.4678 93.80736,-153.03428 163.82989,-209.851336 73.0264,-59.254115 172.4449,-87.8914043 265.3326,-90.1674383 25.5266,-0.625479 49.4026,-2.40998103 74.6665,3.253085 21.5373,4.8276683 38.0879,15.8133343 57.3332,25.6017093 13.7506,6.993583 27.5506,12.227036 39.9999,21.696477 15.912,12.10371 29.5866,29.517787 37.0559,48.134673 3.2907,8.19972 3.7613,17.26623 7.224,25.33327 3.984,9.28265 10.6066,17.03863 14.0666,26.6666 3.3627,9.35598 -2.292,25.50127 2.9867,31.99992 h 1.3333 M 543.47811,9.7081787 c -14.9427,12.9303683 -37.8679,24.7296723 -45.3333,43.9998883 m 158.6663,-19.999948 c -18.5893,8.695845 -33.9346,17.956618 -46.6665,34.666578 m 6.6666,50.666533 c 0,29.6586 10.3947,48.87588 34.6666,66.50117 3.8786,2.81599 14.8986,16.64396 20.4239,12.22397 3.308,-2.64666 0.7907,-10.22797 -0.3293,-13.39197 -3.6747,-10.37597 -8.712,-20.86528 -5.428,-31.99992 m 49.3332,-25.33327 24,-7.99998 m -58.6666,5.33332 5.3334,2.66666 h -9.3333 m -407.999,-2.66666 c -7.6493,60.51985 11.0586,126.93702 54.6665,170.66624 m 393.3324,-161.33293 c 11.4279,-4.92425 20.6652,-12.76276 33.3332,-6.66665 m -479.9988,13.3333 c 6.044,47.82522 11.0026,94.01977 42.6666,133.333 m 183.9995,-125.33302 17.3333,11.99997 -20,15.99996 v -14.66663 m 202.6662,-5.33332 c -2.9453,8.49465 -12.9173,17.76796 -9.3333,26.6666 l 31.9999,-26.6666 m -205.3328,3.99999 c 5.7853,1.66667 38.2332,16.53196 37.3332,5.33332 m 209.3328,1.33333 h 1.3334 m -12,1.33333 2.6667,1.33333 m -197.3329,1.33333 20,5.33332 m -14.6667,-1.33333 4,18.66662 c -13.5733,-2.51999 -24.6852,-1.18799 -37.3332,3.99999 m -35.9999,-19.99995 c -3.988,19.37329 -16.1746,40.89857 -11.444,61.33318 5.1093,22.07595 35.9853,40.79057 52.7772,53.85187 4.3987,3.41999 13.916,7.43198 15.852,12.85197 1.3,3.63865 -0.5827,7.91331 0.592,11.66663 0.692,2.21066 2.336,0.69467 3.556,0.296 m -18.6667,-137.33299 29.3333,5.33332 m 129.333,-5.33332 c 6.4667,8.48132 9.948,19.87862 21.3333,22.74261 11.8413,2.98 22.3306,-6.53331 33.3332,-0.076 -3.2439,3.032 -4.0053,3.232 -7.9999,1.33333 l -1.3334,1.33333 1.3334,2.66666 1.3333,1.33333 1.3333,-1.33333 m -31.9999,-26.6666 4,-1.33333 m -30.6666,1.33333 2.6667,2.66666 m 38.6665,-2.66666 -2.6666,3.99999 m -39.9999,-1.33333 v 3.99999 m -29.3333,-2.66666 c -3.6386,3.26533 -10.76,6.41332 -12.7306,10.95064 -5.24,12.06931 -1.612,31.56392 -5.2547,45.04922 -1.7226,6.37465 -9.3853,16.23196 -7.52,22.66661 4.8667,16.77863 33.4866,31.60392 27.5933,51.93587 -2.3293,8.03465 -12.8773,4.07733 -18.0879,9.39731 5.8679,3.00666 10.0413,3.71066 13.3333,-2.66666 m 119.9997,-137.33299 3.9999,3.99999 m -63.9998,-1.33333 4,-1.33333 m 14.6666,0 v 6.66665 m 42.6666,-6.66665 c -7.196,9.32798 -11.5066,15.95596 -24,15.99996 m -37.3332,-7.99998 6.6667,-1.33333 m 3.9999,-1.33333 -2.6666,5.33332 m 49.3332,-5.33332 4,2.66666 m -205.3328,0 c -2.3307,7.32132 -20.6586,8.98931 -28,11.99997 m 85.3332,54.66653 c -5.944,-7.88664 -20.2347,-19.41062 -21.7947,-29.33326 -0.7693,-4.89065 4.3907,-9.55464 6.808,-13.3333 8.5467,-13.35863 12.8787,-19.06128 28.32,-23.99994 m 123.9996,0 1.3334,2.66666 m -89.3331,1.33333 c 2.676,3.46933 5.0906,7.32665 8.2453,10.38664 13.4613,13.05864 26.0133,2.30133 41.0879,0.56534 6.34,-0.73067 10.9933,2.09999 17.3333,-0.28534 m -174.6663,-7.99998 33.3333,27.99993 m 145.333,-27.99993 -2.6667,2.66666 m -10.6666,-1.33333 7.9999,2.66666 m -45.3332,-1.33333 14.6666,3.99999 m -225.3327,3.99999 v -6.66665 m 239.9994,0 v 2.66666 m -175.9996,9.33331 22.6666,-5.33332 m -393.33232,18.66662 c 0,48.82788 20.22262,91.59977 54.66653,125.33302 m -51.99987,-77.33314 c 3.81733,25.48794 22.23195,54.08253 39.9999,71.99982 m 354.66576,-71.99982 c 9.2467,9.27331 17.6466,20.09329 20,33.33325 m 11.9999,-30.66659 c 8.444,7.38798 14.964,17.45196 18.8307,27.99993 1.5733,4.29199 1.3253,10.37064 3.8679,14.13463 2.4867,3.68133 5.7827,3.11066 9.3014,1.86533 m -111.9998,-37.33324 c -55.8145,42.5879 -130.325,53.74387 -195.9995,72.20649 -13.4079,3.76932 -25.4839,10.71064 -38.6665,15.10663 -22.4787,7.49331 -54.47323,9.02531 -73.33319,23.35327 m 333.33249,-93.3331 c 10.7653,2.55066 31.3293,3.51199 35.9999,13.3333 l 14.6666,3.11866 24,3.54799 m -53.3332,-11.99997 c 4.6106,4.13999 7.436,6.84132 13.3333,3.99999 m -35.9999,3.99999 c 0.02,3.65999 -1.7053,19.71995 4.0493,19.72395 6.236,0.005 -0.9467,-8.04531 -2.716,-9.05731 m 30.6666,-9.33331 c -6.3307,8.30932 -13.8106,16.74663 -23.9999,19.99995 m 47.9998,-19.99995 c 5.712,5.07066 9.3467,7.29198 16,2.66666 m -314.6659,39.9999 h 2.6667 m -230.666112,7.99998 c -20.49555,20.43862 -63.75891,30.90659 -66.6665,63.99984 m 89.333112,-50.66654 c 12.96677,22.78528 24.04261,44.92522 54.66653,31.99992" fill="none" stroke="#000" stroke-width="4.502" stroke-linecap="round"/></svg>