<svg xmlns="http://www.w3.org/2000/svg" viewBox="0 0 718.638 401.109"><path d="M 13.31595,21.139845 C 7.4707599,19.533455 7.1222299,23.094375 9.3159599,27.806495 22.85179,15.459325 38.28709,1.6242955 58.64917,2.6769655 c 9.79064,0.50613 19.52368,2.30679 29.252992,3.14199 1.8008,0.15453 10.04851,-1.09453 8.08025,1.98759 M 63.98249,3.8065555 c -5.37999,3.54693 -8.86931,4.37466 -14.66663,1.33333 m 43.999892,2.66666 h 2.66666 m 3.99999,0 9.333308,9.3333095 c 13.76263,-6.24505 12.73197,20.44715 17.00796,29.33326 8.22264,17.08396 10.3453,35.98511 21.71594,51.9988 4.75466,6.695725 11.27597,10.818385 17.27062,16.233035 5.31999,4.80532 9.07865,10.50131 16.01063,13.07597 33.55592,12.45997 65.76117,-8.11198 98.66109,-14.2933 38.27457,-7.19198 73.85981,-2.46666 111.99972,2.11199 20.10661,2.41333 45.72922,4.78932 63.99984,14.0653 9.69597,4.92399 17.08796,15.54396 24.22527,23.47461 19.62262,21.80395 34.59325,48.51321 50.1892,73.33315 21.9893,34.99458 43.7506,73.09315 77.5851,98.13309 28.9186,21.39994 72.9172,29.86659 107.9998,29.86659 M 107.98238,13.139865 c 7.56798,-5.2935795 16.28262,-4.5331895 13.3333,6.66665 m -50.66654,-3.99999 h 11.999972 m -7.999982,2.66666 c -7.82972,5.29492 -18.80755,1.3344 -27.99993,1.33333 m -19.99995,1.33333 11.99997,6.66665 m 2.66666,-6.66665 h 2.66666 m 41.333232,1.33333 1.33333,1.33333 m -77.3331421,3.99999 c 0.9989301,12.63944 4.6538501,23.08528 -6.66665,31.999923 M 78.64912,30.473155 l -1.33333,7.99998 m -50.66654,-5.33332 -2.66666,2.66666 m 77.33314,2.66666 -1.333328,5.33332 m -43.999892,-2.66666 7.99998,3.99999 -10.66664,-1.33333 2.66666,-2.66666 m 0,13.3333 c -2.35146,1.71373 -5.17506,4.920124 -8.10905,5.516522 -6.00278,1.220131 -11.6457,-6.983852 -8.36104,-12.032902 3.23052,-4.96599 8.67477,-4.43106 13.80343,-4.15026 m 5.33332,0 v 2.66666 m -26.6666,5.33332 5.33332,-2.66666 m 19.99995,0 -13.3333,9.333313 m 42.666562,-6.666653 h 2.66666 m -79.9998021,2.66666 3.9999901,10.666643 5.33332,-3.99999 m 7.99998,-3.99999 2.66666,-1.333333 m 75.99981,1.333333 -11.999968,25.333267 M 31.98257,58.473088 l -5.33332,2.66666 m 43.99989,-1.33333 7.99998,7.99998 3.999992,-6.66665 m -30.666592,1.33333 2.66666,7.999977 c -10.12131,0.658 -33.82872,8.50065 -29.33326,19.99995 l 5.33332,-7.99998 M 63.98249,62.473078 c 4.37025,3.906123 7.41585,6.735317 13.3333,5.33332 m -63.99984,-2.66666 c 1.83946,6.626387 2.93172,13.953297 9.33331,17.333287 m 3.99999,-14.666627 3.99999,-1.33333 m 26.6666,0 15.99996,13.333297 m 6.666652,-13.333297 3.99999,3.999987 m -21.333282,-1.33333 -6.66665,2.66666 m -23.99994,0 -3.99999,7.99998 m 31.99992,-7.99998 2.66666,2.66666 m 14.66663,-2.66666 2.666662,3.99999 m -61.333182,-1.33333 6.66665,5.33332 m 1.33333,-3.99999 -2.66666,2.66666 m 67.999832,0 h 2.66666 m -29.333262,1.33333 v 1.33333 m -34.66658,2.66666 13.3333,7.99998 m 45.333222,-6.66665 h 1.33333 m -65.333172,5.33332 6.59878,22.666615 13.40117,51.99987 1.33333,-22.66661 m -1.33333,22.66661 c 2.89532,9.22264 16.37489,6.59465 9.33331,19.99995 l -3.99999,-13.3333 m -1.33333,-6.66665 v 5.33332 m 5.33332,14.66663 c 7.73571,18.78929 7.99544,35.49858 12.7921,54.66653 6.46318,25.8266 15.586892,51.71854 26.044202,75.99981 6.800518,15.79063 17.183558,33.57725 5.16359,49.33321 l 13.333298,3.99999 M 58.64917,185.13944 v 3.99999 m 450.66554,25.33327 c -5.24932,11.8413 -11.69197,28.18393 -10.99997,41.33323 0.69066,13.14397 7.87998,25.38794 7.87998,38.66657 0,21.75861 -10.80264,48.48388 -16.92663,69.33316 -4.79732,16.32663 -14.74263,18.66529 -30.61992,18.66662 -3.64399,0 -12.26664,1.49466 -14.63863,-2.13733 -6.53999,-10.01064 19.65328,-10.85464 23.97194,-11.19597 m -241.33273,-153.33295 6.66665,14.66663 -1.33333,-3.99999 m 1.33333,5.33332 c 7.26931,14.2493 15.31863,33.20792 6.66665,47.99988 l -2.66666,-13.3333 m -99.99975,-10.66664 17.33329,27.99993 -2.66666,-9.33331 m 342.66581,-13.3333 v 1.33333 m -391.99902,3.99999 c 4.55732,4.44666 19.53862,12.71197 11.99997,0 m -29.333258,2.66666 9.33331,7.99998 m 27.999928,-1.33333 c -5.08666,0 -3.32933,3.97599 1.33333,2.66666 h -3.99999 m 5.33332,0 22.66661,11.99997 c -12.5773,17.67996 -25.11461,50.08654 -22.66661,71.99982 m 114.66638,-82.66646 -6.66665,38.66657 m -75.99981,-33.33325 c 0.54666,6.30132 -2.416,7.62798 -7.99998,5.33332 m 9.33331,1.33333 25.9146,51.99987 11.41864,17.33329 1.33333,-3.99999 m 269.33266,-57.33319 c -6.77998,21.23328 -28.36393,28.63859 -45.31322,39.4639 -10.07198,6.43199 -14.65063,18.38396 -24.07328,25.1186 -11.6293,8.31065 -32.94391,5.17999 -46.61321,6.20399 -7.48665,0.56133 -12.03064,3.18266 -18.66662,-1.45333 l 30.66659,-14.66663 c -5.64932,-1.66533 -11.21997,-2.36666 -13.3333,3.99999 m 162.66626,-47.99988 c 34.37191,26.49193 74.11981,53.96786 118.66641,58.43852 14.9279,1.49866 29.2345,-2.13999 43.9999,-3.54532 13.1959,-1.256 26.1799,-0.16534 38.6665,-5.55999 M 238.64872,314.47245 259.982,321.1391 m 3.99999,-6.66665 c 21.24395,12.0893 48.60521,11.70664 66.6665,29.33326 M 231.98207,321.1391 c 2.10399,15.64663 -6.00265,33.12792 -10.01464,47.99988 -1.67867,6.22665 -1.512,13.46397 -6.44399,18.26262 -4.31999,4.20266 -10.04797,3.81732 -15.54129,4.83732 -5.09999,0.94667 -25.33327,10.39198 -28.9306,4.10799 -5.42532,-9.47864 19.38662,-12.21197 23.59728,-12.5413 M 446.6482,326.47242 c 5.81598,4.85332 11.0133,10.40531 9.62131,18.66662 -1.188,7.05065 -8.17598,11.9093 -2.95466,18.66662 m -126.66635,-26.6666 21.33328,4.64265 23.99994,4.69066 -7.99998,6.66665 m 49.33321,-15.99996 5.33332,1.33333 m -46.66655,7.99998 42.66656,-2.66666 m -213.3328,1.33333 v 1.33333 m -1.33333,2.66666 v 1.33333 m 131.99967,18.66662 c -5.51065,-0.41733 -17.22529,-9.81464 -7.67198,-13.76263 6.89198,-2.848 17.61462,-0.46533 25.00527,-0.904 m -19.99995,1.33333 -5.33332,6.66665 m 21.33328,-6.66665 v 2.66666 m 103.99974,5.33332 -13.3333,-1.33333 13.3333,-5.33332 m -7.99998,21.33328 c -6.54399,0 -30.59059,-1.72533 -32.71859,-9.52531 -3.53065,-12.9493 20.90262,-6.95198 26.05194,-6.47465 m -239.9994,0 c -2.2,14.24396 -20.14662,15.40529 -31.99992,15.99996 -1.944,21.83861 -22.69728,1.51466 -2.66666,0 m -79.999798,-13.3333 c -1.020272,4.68399 -12.250372,19.17062 -14.890902,7.82665 -2.79519,-12.01064 26.391542,-7.46798 32.224192,-9.15998 m 334.665828,0 -9.33331,7.99998 m -321.33253,-2.66666 -6.666648,10.66664 c 9.719968,3.65732 24.047938,-1.74933 29.333258,-10.66664 m 70.66649,1.33333 -13.3333,13.3333 m -103.99974,-7.99998 17.333292,1.33333 m 77.333138,0 9.33331,3.99999 m -13.3333,-2.66666 2.66666,2.66666 m 10.66664,-2.66666 1.33333,1.33333 m -15.99996,1.33333 -1.33333,1.33333 m -17.33329,7.99998 -5.33332,-2.66666 5.33332,-2.66666 m 13.3333,6.66665 h 6.66665 m 5.33332,2.66666 v 2.66666" fill="none" stroke="#000" stroke-width="5.24" stroke-linecap="round"/></svg>