<svg xmlns="http://www.w3.org/2000/svg" xmlns:xlink="http://www.w3.org/1999/xlink" viewBox="0 0 648.405 627.922"><defs><linearGradient id="f" y2="-212.88" spreadMethod="reflect" gradientUnits="userSpaceOnUse" x2="33.412" y1="-212.88" x1="10.235"><stop stop-color="#a90000" offset="0"/><stop stop-color="#c11f1f" offset="1"/></linearGradient><linearGradient id="d"><stop stop-color="#ececec" offset="0"/><stop stop-color="#999" offset="1"/></linearGradient><linearGradient id="c"><stop stop-color="#f9f9f9" offset="0"/><stop stop-color="#FFF" offset="1"/></linearGradient><linearGradient id="b"><stop stop-color="#d98c26" offset="0"/><stop stop-color="#f9f3d4" offset="1"/></linearGradient><linearGradient id="a"><stop offset="0"/><stop stop-opacity="0" offset="1"/></linearGradient><linearGradient id="e" x1="54.884" spreadMethod="reflect" gradientUnits="userSpaceOnUse" y1="-201.87" gradientTransform="translate(-25.33)" x2="71.17" y2="-201.87"><stop stop-color="#e03131" offset="0"/><stop stop-color="#c50000" offset="1"/></linearGradient><linearGradient xlink:href="#e" id="g" gradientUnits="userSpaceOnUse" gradientTransform="translate(-25.33)" x1="54.884" y1="-201.87" x2="71.17" y2="-201.87" spreadMethod="reflect"/></defs><path d="m 59.77936,96.2274 h 528.93 v 321 h -528.93 z" fill="#201c21"/><path d="m 110.00816,160.5074 h 427.47 v 213.88 h -427.47 z" fill="#fff" stroke="#000" stroke-width="1.522" stroke-linecap="round" stroke-linejoin="round"/><g><g transform="matrix(.56324 0 -.02894 .79253 17.902 233.721)"><path d="m 14.156,-290.84 c -2.494,0 -4.5,2.3264 -4.5,5.1875 v 148.88 c 0,1.4138 0.48425,2.6942 1.2812,3.625 2.8241,-8.2395 10.086,-14.125 18.625,-14.125 9.0611,0 16.689,6.619 19.094,15.656 h 21.5 c 2.4047,-9.0373 10.033,-15.656 19.094,-15.656 9.0611,0 16.689,6.619 19.094,15.656 h 21.531 c 2.4047,-9.0373 10.033,-15.656 19.094,-15.656 9.0611,0 16.689,6.619 19.094,15.656 h 21.531 c 2.4047,-9.0373 10.033,-15.656 19.094,-15.656 9.0611,0 16.665,6.619 19.062,15.656 h 21.531 c 2.4047,-9.0373 10.033,-15.656 19.094,-15.656 9.0611,0 16.689,6.619 19.094,15.656 h 21.531 c 2.4047,-9.0373 10.033,-15.656 19.094,-15.656 9.0611,0 16.689,6.619 19.094,15.656 h 21.531 c 2.3972,-9.0373 10.001,-15.656 19.062,-15.656 9.0611,0 16.689,6.619 19.094,15.656 h 21.531 c 2.4047,-9.0373 10.033,-15.656 19.094,-15.656 9.0611,0 16.689,6.619 19.094,15.656 h 21.531 c 2.4047,-9.0373 10.033,-15.656 19.094,-15.656 9.0611,0 16.689,6.619 19.094,15.656 h 21.5 c 2.4047,-9.0373 10.033,-15.656 19.094,-15.656 9.0611,0 16.689,6.619 19.094,15.656 h 21.531 c 2.4047,-9.0373 10.033,-15.656 19.094,-15.656 9.0611,0 16.689,6.619 19.094,15.656 h 21.531 c 2.4047,-9.0373 10.033,-15.656 19.094,-15.656 9.0611,0 16.689,6.619 19.094,15.656 h 21.5 c 2.4047,-9.0373 10.033,-15.656 19.094,-15.656 9.0612,0 16.689,6.619 19.094,15.656 h 21.531 c 2.4047,-9.0373 10.033,-15.656 19.094,-15.656 9.0611,0 16.689,6.619 19.094,15.656 h 21.531 c 2.4047,-9.0373 10.033,-15.656 19.094,-15.656 9.0611,0 16.665,6.619 19.062,15.656 h 21.531 c 2.4047,-9.0373 10.033,-15.656 19.094,-15.656 9.0611,0 16.689,6.619 19.094,15.656 h 21.531 c 2.4047,-9.0373 10.033,-15.656 19.094,-15.656 9.0611,0 16.689,6.619 19.094,15.656 h 21.531 c 2.3973,-9.0373 10.001,-15.656 19.062,-15.656 5.7298,0 10.866,2.6493 14.5,6.875 v -145.25 c 0,-2.8611 -2.006,-5.1875 -4.5,-5.1875 h -1040.4 z" fill="url(#f)" fill-rule="evenodd" stroke="maroon" stroke-width="8"/><path d="m 23.094,-290.84 c -9.8114,29.717 -12.682,123.89 -13.281,155.28 0.19234,0.92118 0.56652,1.754 1.125,2.4062 2.8241,-8.2395 10.086,-14.125 18.625,-14.125 9.0611,0 16.689,6.619 19.094,15.656 h 0.78125 c -0.0033,-24.644 -0.47656,-127.7 -12.281,-159.22 h -14.062 z" id="h" fill="url(#g)" fill-rule="evenodd"/><use width="1052.362" height="744.094" transform="translate(59.707)" xlink:href="#h"/><use width="1052.362" height="744.094" transform="translate(119.41)" xlink:href="#h"/><use width="1052.362" height="744.094" transform="translate(179.12)" xlink:href="#h"/><use width="1052.362" height="744.094" transform="translate(238.83)" xlink:href="#h"/><use width="1052.362" height="744.094" transform="translate(298.54)" xlink:href="#h"/><use width="1052.362" height="744.094" transform="translate(358.24)" xlink:href="#h"/><use width="1052.362" height="744.094" transform="translate(417.95)" xlink:href="#h"/><use width="1052.362" height="744.094" transform="translate(477.66)" xlink:href="#h"/><use width="1052.362" height="744.094" transform="translate(537.37)" xlink:href="#h"/><use width="1052.362" height="744.094" transform="translate(597.07)" xlink:href="#h"/><use width="1052.362" height="744.094" transform="translate(656.78)" xlink:href="#h"/><use width="1052.362" height="744.094" transform="translate(716.49)" xlink:href="#h"/><use width="1052.362" height="744.094" transform="translate(776.19)" xlink:href="#h"/><use width="1052.362" height="744.094" transform="translate(835.9)" xlink:href="#h"/><use width="1052.362" height="744.094" transform="translate(895.61)" xlink:href="#h"/><use width="1052.362" height="744.094" transform="translate(955.32)" xlink:href="#h"/><use width="1052.362" height="744.094" transform="translate(1015)" xlink:href="#h"/></g><g><path d="m 2.8438,-1.625 c 0,0 -2.8348,548.59 8.5938,662.88 11.4286,114.29 11.415,85.687 22.844,85.688 11.429,0 28.589,-19.978 42.875,-11.406 14.286,8.5714 37.134,0.004 48.562,-14.281 11.429,-14.286 31.424,11.411 54.281,-2.875 22.857,-14.286 -8.567,-14.281 -54.281,-54.281 -45.714,-40 -45.728,-131.44 -57.156,-217.16 -10.499,-78.74 0.69759,-34.569 0.375,-66.719 1.6306,-0.77489 2.75,-2.6241 2.75,-4.7812 v -40.938 c 14,-34.88 76.271,-93.88 331.15,-336.12 h -400 z" fill="#ff3232" fill-rule="evenodd" transform="translate(20.517 2.657) scale(.57363)"/><path d="m 402.86,-1.6198 c -345.72,328.57 -337.15,320 -334.29,371.43 2.8571,51.429 -11.429,-8.5714 0,77.143 11.429,85.72 11.429,177.14 57.139,217.14 45.714,40 77.143,40 54.286,54.286 -22.857,14.286 -42.857,-11.429 -54.286,2.8571 -11.429,14.2861 -34.286,22.857 -48.571,14.286 -14.286,-8.5714 -31.429,11.429 -42.857,11.429 -11.429,0 -11.429,28.571 -22.857,-85.714 -11.425,-114.3 -8.5679,-662.87 -8.5679,-662.87 h 400 z" fill="none" stroke="#500" stroke-width="6" transform="translate(20.517 2.657) scale(.57363)"/><path d="m 11.096,327.96 h 56.102 c 2.494,0 4.5018,2.3033 4.5018,5.1644 v 42.326 c 0,2.8611 -2.0078,5.1644 -4.5018,5.1644 H 11.096 c -2.494,0 -4.5018,-2.3033 -4.5018,-5.1644 v -42.326 c 0,-2.8611 2.0078,-5.1644 4.5018,-5.1644 z" fill="#de0000" fill-rule="evenodd" stroke="#500" stroke-width="4" transform="translate(20.517 2.657) scale(.57363)"/><path d="m 56.505,321.7 c 0,-2.7765 7.652,-17.526 13.878,-26.75 12.433,-18.42 35.653,-45.93 85.977,-101.86 55.898,-62.126 78.735,-91.975 83.403,-109.01 1.3102,-4.781 2.8684,-21.742 3.4627,-37.692 0.5943,-15.95 1.6203,-32.454 2.2801,-36.675 l 1.1996,-7.6763 75.042,-0.44471 75.042,-0.44468 -5.1029,4.9021 c -2.8,2.6989 -47.7,45.453 -99.77,95.011 -135.98,129.42 -196.62,190.75 -211.85,214.26 -5.3064,8.1893 -5.4537,8.2735 -14.456,8.2735 -5.501,0 -9.0948,-0.74469 -9.0948,-1.8846 z" fill="#d40000" stroke="#500" stroke-width="6" transform="translate(20.517 2.657) scale(.57363)"/><path d="m 37.756,322.31 c 0.03521,-2.915 8.4914,-38.365 11.808,-49.502 2.6235,-8.809 5.5532,-14.231 10.96,-20.282 13.208,-14.782 22.409,-28.661 32.145,-48.492 30.521,-62.18 49.991,-129.32 53.581,-184.8 l 1.1672,-18.053 h 97.03 l -0.98749,6.3969 c -2.2729,14.723 -4.4299,42.8 -4.4299,57.661 0,15.144 -0.32438,16.56 -6.5537,28.598 -9.9672,19.261 -28.301,42.041 -81.255,100.96 -64.898,72.206 -82.516,94.171 -92.694,115.57 l -6.2868,13.215 -7.2498,0.005 c -3.9874,0.003 -7.2428,-0.57067 -7.2343,-1.2743 z" fill="#d40000" stroke="#500" stroke-width="6" transform="translate(20.517 2.657) scale(.57363)"/><path d="M 15.104,317.19 C 27.407,301.27 32.181,289.63 41.861,251.94 45.837,236.46 58.863,193.97 70.808,157.5 99.012,71.409 104.2,51.27 105.5,22.94 l 0.99281,-21.749 h 19.36 c 10.648,0 19.357,0.57572 19.354,1.2794 -0.0325,7.1289 -4.1365,43.662 -6.18,55.013 -12.907,71.693 -47.771,157 -77.735,190.2 -10.68,11.834 -12.191,15.366 -19.366,45.29 -3.4757,14.495 -6.5819,27.315 -6.9025,28.488 -0.39686,1.4514 -4.4588,2.1323 -12.721,2.1323 h -12.138 l 4.943,-6.3969 z" fill="#d40000" stroke="#500" stroke-width="6" transform="translate(20.517 2.657) scale(.57363)"/><path d="M5.3941 257.41L5.33 190.37 21.794 139.7C47.012 62.098 55.949 33.29 60.01 16.54L63.729 1.19h41.058l-1.0711 17.507c-2.0355 33.269-5.074 44.94-39.185 150.52-12.731 39.405-25.179 80.473-27.662 91.262-5.0656 22.014-15.812 46.157-25.435 57.146l-5.9757 6.8234-.064037-67.035zM5.33 90.174V1.186h27.293c25.309 0 27.293.22696 27.293 3.1209 0 6.0681-11.916 46.261-32.454 109.46-11.431 35.18-21.088 64.29-21.459 64.68-.3704.39-.6734-39.33-.6734-88.276v-.000017z" fill="#d40000" stroke="#500" stroke-width="6" transform="translate(20.517 2.657) scale(.57363)"/><path d="m 149.47,717.63 c -6.5675,-1.8249 -13.931,-3.3382 -16.364,-3.3629 -10.07,-0.1 -40.003,-26.91 -49.096,-43.98 -5.797,-10.88 -21.099,-88.25 -30.954,-156.5 -12.981,-89.91 -14.311,-108.83 -8.542,-121.54 l 3.2908,-7.2498 h 9.6644 c 10.553,0 10.389,-0.31585 5.7731,11.128 -1.7414,4.3172 -0.92182,15.435 5.03,68.233 12.497,110.86 17.765,138.52 31.996,167.98 10.668,22.089 28.027,39.337 60.794,60.407 15.806,10.163 23.366,16.003 23.023,17.784 -0.66876,3.4726 -9.1856,8.307 -16.705,9.4821 -3.5084,0.54836 -10.895,-0.43521 -17.911,-2.385 v -4e-5 z" fill="#c50000" stroke="#500" stroke-width="6" transform="translate(20.517 2.657) scale(.57363)"/><path d="m 79.449,734 c -2.8611,-1.2462 -7.2027,-4.6434 -9.6478,-7.5494 -12.775,-15.18 -32.183,-103.12 -41.36,-187.41 -5.302,-48.69 -6.884,-118.32 -3.335,-146.79 l 0.90336,-7.2498 h 18.381 l -2.2808,5.544 c -6.0413,14.684 -5.3267,26.252 6.8759,111.31 11.003,76.694 19.696,125.04 28.022,155.84 3.2188,11.909 5.4522,16.268 13.548,26.44 11.106,13.956 18.89,21.16 29.721,27.507 l 7.6133,4.4616 -7.2631,6.6949 c -13.308,12.267 -28.96,16.526 -41.176,11.205 l -1.7e-5,-3e-5 z" fill="#c50000" stroke="#500" stroke-width="6" transform="translate(20.517 2.657) scale(.57363)"/><path d="M 22.634,736.02 C 14.77,689.91 9.718,613.46 7.949,513.79 7.4327,484.71 6.5786,443.83 6.0509,422.95 L 5.09144,384.995 h 17.073 l -0.97373,33.69 c -1.1246,38.911 1.6219,96.874 6.4292,135.68 9.4588,76.361 26.823,153.92 38.223,170.71 3.7246,5.4884 3.8598,6.1978 1.1819,6.1978 -1.6632,0 -9.1244,2.9496 -16.581,6.5545 -7.456,3.605 -16.353,7.0787 -19.771,7.7193 l -6.2143,1.1648 -1.8257,-10.705 z" fill="#c50000" stroke="#500" stroke-width="6" transform="translate(20.517 2.657) scale(.57363)"/><path d="m 57.906,324.72 c 1.5041,0.53025 4.123,0.875 7.6875,0.875 9.0022,0 9.1623,-0.092 14.469,-8.2812 15.234,-23.51 75.866,-84.834 211.84,-214.25 52.071,-49.558 96.975,-92.304 99.781,-95 l 5.1,-4.9138 -75.03,0.4376 -5.28,0.0312 c -1.3248,4.3683 -2.6477,8.7383 -4,12.781 -1.7954,5.3677 -3.6303,10.447 -5.5312,15.344 -1.9009,4.8969 -3.8658,9.6129 -5.9375,14.156 -2.0717,4.5433 -4.2547,8.9119 -6.5625,13.219 -2.3078,4.3069 -4.7347,8.5312 -7.3438,12.719 -2.6091,4.1876 -5.3994,8.3458 -8.375,12.531 -2.9756,4.1855 -6.1551,8.4183 -9.5625,12.719 -3.4074,4.3005 -7.033,8.686 -10.938,13.219 -3.9044,4.5327 -8.0958,9.2117 -12.562,14.094 -8.9335,9.7642 -19.051,20.323 -30.625,32.188 -11.574,11.865 -24.607,25.035 -39.344,39.938 -7.6558,7.7419 -15.236,15.592 -22.719,23.5 -7.4827,7.9077 -14.868,15.868 -22.125,23.781 -14.515,15.826 -28.513,31.489 -41.812,46.375 -11.023,12.337 -21.199,23.646 -31.125,34.531 z" fill="#ffacac" fill-opacity=".285" transform="translate(20.517 2.657) scale(.57363)"/><path d="M198.62 3.7463c-4.62 34.316 1.68 72.586-15.26 102.46-43.06 75.92-99.87 146.08-142.27 217.2 1.1261.12603 2.4739.18699 3.9062.18601h7.25l6.2812-13.114c45.91-80.335 126.83-135.3 173.94-214.81 6.2293-11.942 6.5625-13.343 6.5625-28.367 0-14.743 2.1646-42.592 4.4375-57.199l.96875-6.3554h-45.812zM130.87 12.474c-2.9023 38.874-10.909 77.221-23.204 114.19-13.761 40.652-16.78 71.651-42.759 106.21-14.769 16.487-28.12 49.818-32.886 71.511-13.311 17.907-8.0233 16.098 3.0112 17.085 5.8315-20.665 8.2575-42.54 17.318-62.143 8.8736-12.793 20.272-23.816 27.574-37.771 27.152-47.13 45.152-99.2 56.792-152.21 4.54-22.022 6-42.763 7.61-65.167-16.5.1203-14.42-.2113-13.46 8.2994zM79.531 1.1875c.85821 23.151 1.6875 47.895 1.6875 58.219 0 16.806-31.794 131.17-75.812 198.22l.0625 66.812 5.9688-6.8125c9.6238-10.989 20.372-35.143 25.438-57.156 2.4828-10.789 14.925-51.845 27.656-91.25 34.111-105.58 37.149-117.26 39.189-150.53l1.0625-17.5h-25.25z" fill="#e03131" transform="translate(20.517 2.657) scale(.57363)"/><path d="m 63.906,385.19 -1.375,3.0625 c -5.769,12.709 -8.0684,32.528 4.9126,122.44 9.8545,68.254 11.872,121.5 34.556,155.6 10.71,16.099 39.021,43.898 49.094,44 2.4329,0.0247 9.8075,1.5188 16.375,3.3438 3.8929,1.0818 7.8862,1.8597 11.281,2.25 2.919,-1.728 5.0255,-3.6914 5.3438,-5.3438 0.34298,-1.7809 -7.2257,-7.6181 -23.031,-17.781 -32.766,-21.069 -50.113,-38.318 -60.781,-60.406 -14.231,-29.466 -19.503,-57.109 -32,-167.97 -5.9518,-52.799 -6.7726,-63.933 -5.0312,-68.25 3.3278,-8.2504 4.3039,-10.387 0.65625,-10.938 z" fill="#ff3232" transform="translate(20.517 2.657) scale(.57363)"/><path d="m 31.406,385 -0.25,3.25 c -2.2022,28.475 2.6473,98.092 10.25,146.78 13.161,84.286 36.726,172.22 50.219,187.41 2.5826,2.906 7.1112,6.3163 10.031,7.5625 1.9767,0.84361 4.0211,1.4442 6.125,1.8125 4.3854,-2.2144 8.7352,-5.2129 12.844,-9 l 7.25,-6.7188 -7.5938,-4.4375 c -10.83,-6.34 -18.61,-13.57 -29.718,-27.53 -8.095,-10.17 -10.343,-14.52 -13.562,-26.43 -8.326,-30.81 -16.997,-79.15 -28,-155.85 -12.203,-85.05 -12.948,-96.62 -6.906,-111.31 l 2.281,-5.53 h -12.969 z" fill="#ff3232" transform="translate(20.517 2.657) scale(.57363)"/><path d="m 11.75,334.25 -5.1562,5.625 v 35.562 c 0,1.0371 0.2948,2.0051 0.75,2.8125 0.84397,0.64352 3.0253,-0.48133 4.9688,-2.5938 l 29.375,-31.938 c 0.71402,-0.7761 1.2761,-1.5752 1.6875,-2.3125 -1.1283,-1.2451 -2.4717,-2.5882 -4.125,-3.9688 -6.007,4.8267 -10.908,9.5933 -11.688,11.281 -1.0998,2.383 -2.7107,-6.4678 -15.812,-14.469 z" fill="#e03131" fill-rule="evenodd" transform="translate(20.517 2.657) scale(.57363)"/><path d="M37.138 358.25c-1.5285-.22994-5.2632 13.181-28.812 20.938.34039.0938.69634.15625 1.0625.15625h53.469c-10.554-5.7712-24.032-17.809-25.375-20.719-.11308-.24501-.20917-.35475-.34375-.375zM33.219 328.94c-.94482-.00001-1.8118.31575-2.5312.875h-19.219c-1.5353 0-2.8757.84894-3.6875 2.1875 16.828 8.4579 18.578 19.326 19.781 16.719.77905-1.6879 5.6805-6.4546 11.688-11.281 7.912 6.607 9.1483 12.387 10.062 10.406 1.2145-2.6315 12.356-12.729 22.281-18.906h-38.375z" fill="#890000" fill-opacity=".557" fill-rule="evenodd" transform="translate(20.517 2.657) scale(.57363)"/></g><g><path d="m 2.8438,-1.625 c 0,0 -2.8348,548.59 8.5938,662.88 11.4286,114.29 11.415,85.687 22.844,85.688 11.429,0 28.589,-19.978 42.875,-11.406 14.286,8.5714 37.134,0.004 48.562,-14.281 11.429,-14.286 31.424,11.411 54.281,-2.875 22.857,-14.286 -8.567,-14.281 -54.281,-54.281 -45.714,-40 -45.728,-131.44 -57.156,-217.16 -10.499,-78.74 0.69759,-34.569 0.375,-66.719 1.6306,-0.77489 2.75,-2.6241 2.75,-4.7812 v -40.938 c 14,-34.88 76.271,-93.88 331.15,-336.12 h -400 z" fill="#ff3232" fill-rule="evenodd" transform="matrix(-.57363 0 0 .57363 623.655 2.657)"/><path d="m 402.86,-1.6198 c -345.72,328.57 -337.15,320 -334.29,371.43 2.8571,51.429 -11.429,-8.5714 0,77.143 11.429,85.72 11.429,177.14 57.139,217.14 45.714,40 77.143,40 54.286,54.286 -22.857,14.286 -42.857,-11.429 -54.286,2.8571 -11.429,14.2861 -34.286,22.857 -48.571,14.286 -14.286,-8.5714 -31.429,11.429 -42.857,11.429 -11.429,0 -11.429,28.571 -22.857,-85.714 -11.425,-114.3 -8.5679,-662.87 -8.5679,-662.87 h 400 z" fill="none" stroke="#500" stroke-width="6" transform="matrix(-.57363 0 0 .57363 623.655 2.657)"/><path d="m 11.096,327.96 h 56.102 c 2.494,0 4.5018,2.3033 4.5018,5.1644 v 42.326 c 0,2.8611 -2.0078,5.1644 -4.5018,5.1644 H 11.096 c -2.494,0 -4.5018,-2.3033 -4.5018,-5.1644 v -42.326 c 0,-2.8611 2.0078,-5.1644 4.5018,-5.1644 z" fill="#de0000" fill-rule="evenodd" stroke="#500" stroke-width="4" transform="matrix(-.57363 0 0 .57363 623.655 2.657)"/><path d="m 56.505,321.7 c 0,-2.7765 7.652,-17.526 13.878,-26.75 12.433,-18.42 35.653,-45.93 85.977,-101.86 55.898,-62.126 78.735,-91.975 83.403,-109.01 1.3102,-4.781 2.8684,-21.742 3.4627,-37.692 0.5943,-15.95 1.6203,-32.454 2.2801,-36.675 l 1.1996,-7.6763 75.042,-0.44471 75.042,-0.44468 -5.1029,4.9021 c -2.8,2.6989 -47.7,45.453 -99.77,95.011 -135.98,129.42 -196.62,190.75 -211.85,214.26 -5.3064,8.1893 -5.4537,8.2735 -14.456,8.2735 -5.501,0 -9.0948,-0.74469 -9.0948,-1.8846 z" fill="#d40000" stroke="#500" stroke-width="6" transform="matrix(-.57363 0 0 .57363 623.655 2.657)"/><path d="m 37.756,322.31 c 0.03521,-2.915 8.4914,-38.365 11.808,-49.502 2.6235,-8.809 5.5532,-14.231 10.96,-20.282 13.208,-14.782 22.409,-28.661 32.145,-48.492 30.521,-62.18 49.991,-129.32 53.581,-184.8 l 1.1672,-18.053 h 97.03 l -0.98749,6.3969 c -2.2729,14.723 -4.4299,42.8 -4.4299,57.661 0,15.144 -0.32438,16.56 -6.5537,28.598 -9.9672,19.261 -28.301,42.041 -81.255,100.96 -64.898,72.206 -82.516,94.171 -92.694,115.57 l -6.2868,13.215 -7.2498,0.005 c -3.9874,0.003 -7.2428,-0.57067 -7.2343,-1.2743 z" fill="#d40000" stroke="#500" stroke-width="6" transform="matrix(-.57363 0 0 .57363 623.655 2.657)"/><path d="M 15.104,317.19 C 27.407,301.27 32.181,289.63 41.861,251.94 45.837,236.46 58.863,193.97 70.808,157.5 99.012,71.409 104.2,51.27 105.5,22.94 l 0.99281,-21.749 h 19.36 c 10.648,0 19.357,0.57572 19.354,1.2794 -0.0325,7.1289 -4.1365,43.662 -6.18,55.013 -12.907,71.693 -47.771,157 -77.735,190.2 -10.68,11.834 -12.191,15.366 -19.366,45.29 -3.4757,14.495 -6.5819,27.315 -6.9025,28.488 -0.39686,1.4514 -4.4588,2.1323 -12.721,2.1323 h -12.138 l 4.943,-6.3969 z" fill="#d40000" stroke="#500" stroke-width="6" transform="matrix(-.57363 0 0 .57363 623.655 2.657)"/><path d="M5.3941 257.41L5.33 190.37 21.794 139.7C47.012 62.098 55.949 33.29 60.01 16.54L63.729 1.19h41.058l-1.0711 17.507c-2.0355 33.269-5.074 44.94-39.185 150.52-12.731 39.405-25.179 80.473-27.662 91.262-5.0656 22.014-15.812 46.157-25.435 57.146l-5.9757 6.8234-.064037-67.035zM5.33 90.174V1.186h27.293c25.309 0 27.293.22696 27.293 3.1209 0 6.0681-11.916 46.261-32.454 109.46-11.431 35.18-21.088 64.29-21.459 64.68-.3704.39-.6734-39.33-.6734-88.276v-.000017z" fill="#d40000" stroke="#500" stroke-width="6" transform="matrix(-.57363 0 0 .57363 623.655 2.657)"/><path d="m 149.47,717.63 c -6.5675,-1.8249 -13.931,-3.3382 -16.364,-3.3629 -10.07,-0.1 -40.003,-26.91 -49.096,-43.98 -5.797,-10.88 -21.099,-88.25 -30.954,-156.5 -12.981,-89.91 -14.311,-108.83 -8.542,-121.54 l 3.2908,-7.2498 h 9.6644 c 10.553,0 10.389,-0.31585 5.7731,11.128 -1.7414,4.3172 -0.92182,15.435 5.03,68.233 12.497,110.86 17.765,138.52 31.996,167.98 10.668,22.089 28.027,39.337 60.794,60.407 15.806,10.163 23.366,16.003 23.023,17.784 -0.66876,3.4726 -9.1856,8.307 -16.705,9.4821 -3.5084,0.54836 -10.895,-0.43521 -17.911,-2.385 v -4e-5 z" fill="#c50000" stroke="#500" stroke-width="6" transform="matrix(-.57363 0 0 .57363 623.655 2.657)"/><path d="m 79.449,734 c -2.8611,-1.2462 -7.2027,-4.6434 -9.6478,-7.5494 -12.775,-15.18 -32.183,-103.12 -41.36,-187.41 -5.302,-48.69 -6.884,-118.32 -3.335,-146.79 l 0.90336,-7.2498 h 18.381 l -2.2808,5.544 c -6.0413,14.684 -5.3267,26.252 6.8759,111.31 11.003,76.694 19.696,125.04 28.022,155.84 3.2188,11.909 5.4522,16.268 13.548,26.44 11.106,13.956 18.89,21.16 29.721,27.507 l 7.6133,4.4616 -7.2631,6.6949 c -13.308,12.267 -28.96,16.526 -41.176,11.205 l -1.7e-5,-3e-5 z" fill="#c50000" stroke="#500" stroke-width="6" transform="matrix(-.57363 0 0 .57363 623.655 2.657)"/><path d="M 22.634,736.02 C 14.77,689.91 9.718,613.46 7.949,513.79 7.4327,484.71 6.5786,443.83 6.0509,422.95 L 5.09144,384.995 h 17.073 l -0.97373,33.69 c -1.1246,38.911 1.6219,96.874 6.4292,135.68 9.4588,76.361 26.823,153.92 38.223,170.71 3.7246,5.4884 3.8598,6.1978 1.1819,6.1978 -1.6632,0 -9.1244,2.9496 -16.581,6.5545 -7.456,3.605 -16.353,7.0787 -19.771,7.7193 l -6.2143,1.1648 -1.8257,-10.705 z" fill="#c50000" stroke="#500" stroke-width="6" transform="matrix(-.57363 0 0 .57363 623.655 2.657)"/><path d="m 57.906,324.72 c 1.5041,0.53025 4.123,0.875 7.6875,0.875 9.0022,0 9.1623,-0.092 14.469,-8.2812 15.234,-23.51 75.866,-84.834 211.84,-214.25 52.071,-49.558 96.975,-92.304 99.781,-95 l 5.1,-4.9138 -75.03,0.4376 -5.28,0.0312 c -1.3248,4.3683 -2.6477,8.7383 -4,12.781 -1.7954,5.3677 -3.6303,10.447 -5.5312,15.344 -1.9009,4.8969 -3.8658,9.6129 -5.9375,14.156 -2.0717,4.5433 -4.2547,8.9119 -6.5625,13.219 -2.3078,4.3069 -4.7347,8.5312 -7.3438,12.719 -2.6091,4.1876 -5.3994,8.3458 -8.375,12.531 -2.9756,4.1855 -6.1551,8.4183 -9.5625,12.719 -3.4074,4.3005 -7.033,8.686 -10.938,13.219 -3.9044,4.5327 -8.0958,9.2117 -12.562,14.094 -8.9335,9.7642 -19.051,20.323 -30.625,32.188 -11.574,11.865 -24.607,25.035 -39.344,39.938 -7.6558,7.7419 -15.236,15.592 -22.719,23.5 -7.4827,7.9077 -14.868,15.868 -22.125,23.781 -14.515,15.826 -28.513,31.489 -41.812,46.375 -11.023,12.337 -21.199,23.646 -31.125,34.531 z" fill="#ffacac" fill-opacity=".285" transform="matrix(-.57363 0 0 .57363 623.655 2.657)"/><path d="M198.62 3.7463c-4.62 34.316 1.68 72.586-15.26 102.46-43.06 75.92-99.87 146.08-142.27 217.2 1.1261.12603 2.4739.18699 3.9062.18601h7.25l6.2812-13.114c45.91-80.335 126.83-135.3 173.94-214.81 6.2293-11.942 6.5625-13.343 6.5625-28.367 0-14.743 2.1646-42.592 4.4375-57.199l.96875-6.3554h-45.812zM130.87 12.474c-2.9023 38.874-10.909 77.221-23.204 114.19-13.761 40.652-16.78 71.651-42.759 106.21-14.769 16.487-28.12 49.818-32.886 71.511-13.311 17.907-8.0233 16.098 3.0112 17.085 5.8315-20.665 8.2575-42.54 17.318-62.143 8.8736-12.793 20.272-23.816 27.574-37.771 27.152-47.13 45.152-99.2 56.792-152.21 4.54-22.022 6-42.763 7.61-65.167-16.5.1203-14.42-.2113-13.46 8.2994zM79.531 1.1875c.85821 23.151 1.6875 47.895 1.6875 58.219 0 16.806-31.794 131.17-75.812 198.22l.0625 66.812 5.9688-6.8125c9.6238-10.989 20.372-35.143 25.438-57.156 2.4828-10.789 14.925-51.845 27.656-91.25 34.111-105.58 37.149-117.26 39.189-150.53l1.0625-17.5h-25.25z" fill="#e03131" transform="matrix(-.57363 0 0 .57363 623.655 2.657)"/><path d="m 63.906,385.19 -1.375,3.0625 c -5.769,12.709 -8.0684,32.528 4.9126,122.44 9.8545,68.254 11.872,121.5 34.556,155.6 10.71,16.099 39.021,43.898 49.094,44 2.4329,0.0247 9.8075,1.5188 16.375,3.3438 3.8929,1.0818 7.8862,1.8597 11.281,2.25 2.919,-1.728 5.0255,-3.6914 5.3438,-5.3438 0.34298,-1.7809 -7.2257,-7.6181 -23.031,-17.781 -32.766,-21.069 -50.113,-38.318 -60.781,-60.406 -14.231,-29.466 -19.503,-57.109 -32,-167.97 -5.9518,-52.799 -6.7726,-63.933 -5.0312,-68.25 3.3278,-8.2504 4.3039,-10.387 0.65625,-10.938 z" fill="#ff3232" transform="matrix(-.57363 0 0 .57363 623.655 2.657)"/><path d="m 31.406,385 -0.25,3.25 c -2.2022,28.475 2.6473,98.092 10.25,146.78 13.161,84.286 36.726,172.22 50.219,187.41 2.5826,2.906 7.1112,6.3163 10.031,7.5625 1.9767,0.84361 4.0211,1.4442 6.125,1.8125 4.3854,-2.2144 8.7352,-5.2129 12.844,-9 l 7.25,-6.7188 -7.5938,-4.4375 c -10.83,-6.34 -18.61,-13.57 -29.718,-27.53 -8.095,-10.17 -10.343,-14.52 -13.562,-26.43 -8.326,-30.81 -16.997,-79.15 -28,-155.85 -12.203,-85.05 -12.948,-96.62 -6.906,-111.31 l 2.281,-5.53 h -12.969 z" fill="#ff3232" transform="matrix(-.57363 0 0 .57363 623.655 2.657)"/><path d="m 11.75,334.25 -5.1562,5.625 v 35.562 c 0,1.0371 0.2948,2.0051 0.75,2.8125 0.84397,0.64352 3.0253,-0.48133 4.9688,-2.5938 l 29.375,-31.938 c 0.71402,-0.7761 1.2761,-1.5752 1.6875,-2.3125 -1.1283,-1.2451 -2.4717,-2.5882 -4.125,-3.9688 -6.007,4.8267 -10.908,9.5933 -11.688,11.281 -1.0998,2.383 -2.7107,-6.4678 -15.812,-14.469 z" fill="#e03131" fill-rule="evenodd" transform="matrix(-.57363 0 0 .57363 623.655 2.657)"/><path d="M37.138 358.25c-1.5285-.22994-5.2632 13.181-28.812 20.938.34039.0938.69634.15625 1.0625.15625h53.469c-10.554-5.7712-24.032-17.809-25.375-20.719-.11308-.24501-.20917-.35475-.34375-.375zM33.219 328.94c-.94482-.00001-1.8118.31575-2.5312.875h-19.219c-1.5353 0-2.8757.84894-3.6875 2.1875 16.828 8.4579 18.578 19.326 19.781 16.719.77905-1.6879 5.6805-6.4546 11.688-11.281 7.912 6.607 9.1483 12.387 10.062 10.406 1.2145-2.6315 12.356-12.729 22.281-18.906h-38.375z" fill="#890000" fill-opacity=".557" fill-rule="evenodd" transform="matrix(-.57363 0 0 .57363 623.655 2.657)"/></g></g><g><path d="m 1177.1,1385.6 -2.8497,-75.522 c -0.9212,-12.525 13.107,-28.228 33.247,-28.513 l 78.842,-0.7706 c 17.899,-0.1387 25.123,12.6 26.061,25.137 l -0.2525,67.056 c 0.6224,9.5336 -1.1427,17.362 -4.7049,26.213 l -10.655,26.472 26.597,-23.89 c 4.1128,-2.2815 7.8232,12.208 -3.7996,28.513 l -27.547,27.743 h -120.64 c 1.7608,-8.5858 -0.019,-13.401 5.6994,-26.202 l 11.399,-26.972 c -5.9171,-5.8493 -9.7704,-12.257 -11.399,-19.266 z" color="#000" transform="matrix(-.31863 0 0 .31863 770.327 37.667)"/><path d="m 1276.7,1242.8 c 0,20.281 -16.441,36.723 -36.723,36.723 -20.281,0 -36.723,-16.441 -36.723,-36.723 0,-20.281 16.441,-36.723 36.723,-36.723 20.281,0 36.723,16.441 36.723,36.723 z" transform="matrix(-.31863 0 0 .31863 770.327 37.667)"/><path d="m 1191,1405.5 5.1968,-68.639 c 1.7291,-18.088 0.8692,-29.384 17.136,-29.66 l 52.098,-0.6766 c 16.242,-0.059 17.681,18.308 18.94,30.523 l 9.5596,88.824 -2.6805,30.558 h -116.87 z" color="#000" fill="#036" transform="matrix(-.31863 0 0 .31863 770.327 37.667)"/></g><g><path d="m 1177.1,1385.6 -2.8497,-75.522 c -0.9212,-12.525 13.107,-28.228 33.247,-28.513 l 78.842,-0.7706 c 17.899,-0.1387 25.123,12.6 26.061,25.137 l -0.2525,67.056 c 0.6224,9.5336 -1.1427,17.362 -4.7049,26.213 l -10.655,26.472 26.597,-23.89 c 4.1128,-2.2815 7.8232,12.208 -3.7996,28.513 l -27.547,27.743 h -120.64 c 1.7608,-8.5858 -0.019,-13.401 5.6994,-26.202 l 11.399,-26.972 c -5.9171,-5.8493 -9.7704,-12.257 -11.399,-19.266 z" color="#000" transform="matrix(-.31863 0 0 .31863 908.407 37.667)"/><path d="m 1276.7,1242.8 c 0,20.281 -16.441,36.723 -36.723,36.723 -20.281,0 -36.723,-16.441 -36.723,-36.723 0,-20.281 16.441,-36.723 36.723,-36.723 20.281,0 36.723,16.441 36.723,36.723 z" transform="matrix(-.31863 0 0 .31863 908.407 37.667)"/><path d="m 1191,1405.5 5.1968,-68.639 c 1.7291,-18.088 0.8692,-29.384 17.136,-29.66 l 52.098,-0.6766 c 16.242,-0.059 17.681,18.308 18.94,30.523 l 9.5596,88.824 -2.6805,30.558 h -116.87 z" color="#000" fill="#036" transform="matrix(-.31863 0 0 .31863 908.407 37.667)"/></g><g><path d="m 1177.1,1385.6 -2.8497,-75.522 c -0.9212,-12.525 13.107,-28.228 33.247,-28.513 l 78.842,-0.7706 c 17.899,-0.1387 25.123,12.6 26.061,25.137 l -0.2525,67.056 c 0.6224,9.5336 -1.1427,17.362 -4.7049,26.213 l -10.655,26.472 26.597,-23.89 c 4.1128,-2.2815 7.8232,12.208 -3.7996,28.513 l -27.547,27.743 h -120.64 c 1.7608,-8.5858 -0.019,-13.401 5.6994,-26.202 l 11.399,-26.972 c -5.9171,-5.8493 -9.7704,-12.257 -11.399,-19.266 z" color="#000" transform="matrix(-.31863 0 0 .31863 842.317 37.667)"/><path d="m 1276.7,1242.8 c 0,20.281 -16.441,36.723 -36.723,36.723 -20.281,0 -36.723,-16.441 -36.723,-36.723 0,-20.281 16.441,-36.723 36.723,-36.723 20.281,0 36.723,16.441 36.723,36.723 z" transform="matrix(-.31863 0 0 .31863 842.317 37.667)"/><path d="m 1191,1405.5 5.1968,-68.639 c 1.7291,-18.088 0.8692,-29.384 17.136,-29.66 l 52.098,-0.6766 c 16.242,-0.059 17.681,18.308 18.94,30.523 l 9.5596,88.824 -2.6805,30.558 h -116.87 z" color="#000" fill="#036" transform="matrix(-.31863 0 0 .31863 842.317 37.667)"/></g><g><path d="m 1177.1,1385.6 -2.8497,-75.522 c -0.9212,-12.525 13.107,-28.228 33.247,-28.513 l 78.842,-0.7706 c 17.899,-0.1387 25.123,12.6 26.061,25.137 l -0.2525,67.056 c 0.6224,9.5336 -1.1427,17.362 -4.7049,26.213 l -10.655,26.472 26.597,-23.89 c 4.1128,-2.2815 7.8232,12.208 -3.7996,28.513 l -27.547,27.743 h -120.64 c 1.7608,-8.5858 -0.019,-13.401 5.6994,-26.202 l 11.399,-26.972 c -5.9171,-5.8493 -9.7704,-12.257 -11.399,-19.266 z" color="#000" transform="translate(-120.463 37.667) scale(.31863)"/><path d="m 1276.7,1242.8 c 0,20.281 -16.441,36.723 -36.723,36.723 -20.281,0 -36.723,-16.441 -36.723,-36.723 0,-20.281 16.441,-36.723 36.723,-36.723 20.281,0 36.723,16.441 36.723,36.723 z" transform="translate(-120.463 37.667) scale(.31863)"/><path d="m 1191,1405.5 5.1968,-68.639 c 1.7291,-18.088 0.8692,-29.384 17.136,-29.66 l 52.098,-0.6766 c 16.242,-0.059 17.681,18.308 18.94,30.523 l 9.5596,88.824 -2.6805,30.558 h -116.87 z" color="#000" fill="#036" transform="translate(-120.463 37.667) scale(.31863)"/></g><g><path d="m 1177.1,1385.6 -2.8497,-75.522 c -0.9212,-12.525 13.107,-28.228 33.247,-28.513 l 78.842,-0.7706 c 17.899,-0.1387 25.123,12.6 26.061,25.137 l -0.2525,67.056 c 0.6224,9.5336 -1.1427,17.362 -4.7049,26.213 l -10.655,26.472 26.597,-23.89 c 4.1128,-2.2815 7.8232,12.208 -3.7996,28.513 l -27.547,27.743 h -120.64 c 1.7608,-8.5858 -0.019,-13.401 5.6994,-26.202 l 11.399,-26.972 c -5.9171,-5.8493 -9.7704,-12.257 -11.399,-19.266 z" color="#000" transform="translate(-190.833 37.667) scale(.31863)"/><path d="m 1276.7,1242.8 c 0,20.281 -16.441,36.723 -36.723,36.723 -20.281,0 -36.723,-16.441 -36.723,-36.723 0,-20.281 16.441,-36.723 36.723,-36.723 20.281,0 36.723,16.441 36.723,36.723 z" transform="translate(-190.833 37.667) scale(.31863)"/><path d="m 1191,1405.5 5.1968,-68.639 c 1.7291,-18.088 0.8692,-29.384 17.136,-29.66 l 52.098,-0.6766 c 16.242,-0.059 17.681,18.308 18.94,30.523 l 9.5596,88.824 -2.6805,30.558 h -116.87 z" color="#000" fill="#036" transform="translate(-190.833 37.667) scale(.31863)"/></g><g><path d="m 1177.1,1385.6 -2.8497,-75.522 c -0.9212,-12.525 13.107,-28.228 33.247,-28.513 l 78.842,-0.7706 c 17.899,-0.1387 25.123,12.6 26.061,25.137 l -0.2525,67.056 c 0.6224,9.5336 -1.1427,17.362 -4.7049,26.213 l -10.655,26.472 26.597,-23.89 c 4.1128,-2.2815 7.8232,12.208 -3.7996,28.513 l -27.547,27.743 h -120.64 c 1.7608,-8.5858 -0.019,-13.401 5.6994,-26.202 l 11.399,-26.972 c -5.9171,-5.8493 -9.7704,-12.257 -11.399,-19.266 z" color="#000" transform="translate(-262.413 37.667) scale(.31863)"/><path d="m 1276.7,1242.8 c 0,20.281 -16.441,36.723 -36.723,36.723 -20.281,0 -36.723,-16.441 -36.723,-36.723 0,-20.281 16.441,-36.723 36.723,-36.723 20.281,0 36.723,16.441 36.723,36.723 z" transform="translate(-262.413 37.667) scale(.31863)"/><path d="m 1191,1405.5 5.1968,-68.639 c 1.7291,-18.088 0.8692,-29.384 17.136,-29.66 l 52.098,-0.6766 c 16.242,-0.059 17.681,18.308 18.94,30.523 l 9.5596,88.824 -2.6805,30.558 h -116.87 z" color="#000" fill="#036" transform="translate(-262.413 37.667) scale(.31863)"/></g><g><path d="m 1177.1,1385.6 -2.8497,-75.522 c -0.9212,-12.525 13.107,-28.228 33.247,-28.513 l 78.842,-0.7706 c 17.899,-0.1387 25.123,12.6 26.061,25.137 l -0.2525,67.056 c 0.6224,9.5336 -1.1427,17.362 -4.7049,26.213 l -10.655,26.472 26.597,-23.89 c 4.1128,-2.2815 7.8232,12.208 -3.7996,28.513 l -27.547,27.743 h -120.64 c 1.7608,-8.5858 -0.019,-13.401 5.6994,-26.202 l 11.399,-26.972 c -5.9171,-5.8493 -9.7704,-12.257 -11.399,-19.266 z" color="#000" transform="matrix(-.31863 0 0 .31863 778.577 101.017)"/><path d="m 1276.7,1242.8 c 0,20.281 -16.441,36.723 -36.723,36.723 -20.281,0 -36.723,-16.441 -36.723,-36.723 0,-20.281 16.441,-36.723 36.723,-36.723 20.281,0 36.723,16.441 36.723,36.723 z" transform="matrix(-.31863 0 0 .31863 778.577 101.017)"/><path d="m 1191,1405.5 5.1968,-68.639 c 1.7291,-18.088 0.8692,-29.384 17.136,-29.66 l 52.098,-0.6766 c 16.242,-0.059 17.681,18.308 18.94,30.523 l 9.5596,88.824 -2.6805,30.558 h -116.87 z" color="#000" fill="#036" transform="matrix(-.31863 0 0 .31863 778.577 101.017)"/></g><g><path d="m 1177.1,1385.6 -2.8497,-75.522 c -0.9212,-12.525 13.107,-28.228 33.247,-28.513 l 78.842,-0.7706 c 17.899,-0.1387 25.123,12.6 26.061,25.137 l -0.2525,67.056 c 0.6224,9.5336 -1.1427,17.362 -4.7049,26.213 l -10.655,26.472 26.597,-23.89 c 4.1128,-2.2815 7.8232,12.208 -3.7996,28.513 l -27.547,27.743 h -120.64 c 1.7608,-8.5858 -0.019,-13.401 5.6994,-26.202 l 11.399,-26.972 c -5.9171,-5.8493 -9.7704,-12.257 -11.399,-19.266 z" color="#000" transform="matrix(-.31863 0 0 .31863 857.627 101.907)"/><path d="m 1276.7,1242.8 c 0,20.281 -16.441,36.723 -36.723,36.723 -20.281,0 -36.723,-16.441 -36.723,-36.723 0,-20.281 16.441,-36.723 36.723,-36.723 20.281,0 36.723,16.441 36.723,36.723 z" transform="matrix(-.31863 0 0 .31863 857.627 101.907)"/><path d="m 1191,1405.5 5.1968,-68.639 c 1.7291,-18.088 0.8692,-29.384 17.136,-29.66 l 52.098,-0.6766 c 16.242,-0.059 17.681,18.308 18.94,30.523 l 9.5596,88.824 -2.6805,30.558 h -116.87 z" color="#000" fill="#036" transform="matrix(-.31863 0 0 .31863 857.627 101.907)"/></g><g><path d="m 1177.1,1385.6 -2.8497,-75.522 c -0.9212,-12.525 13.107,-28.228 33.247,-28.513 l 78.842,-0.7706 c 17.899,-0.1387 25.123,12.6 26.061,25.137 l -0.2525,67.056 c 0.6224,9.5336 -1.1427,17.362 -4.7049,26.213 l -10.655,26.472 26.597,-23.89 c 4.1128,-2.2815 7.8232,12.208 -3.7996,28.513 l -27.547,27.743 h -120.64 c 1.7608,-8.5858 -0.019,-13.401 5.6994,-26.202 l 11.399,-26.972 c -5.9171,-5.8493 -9.7704,-12.257 -11.399,-19.266 z" color="#000" transform="translate(-135.993 101.907) scale(.31863)"/><path d="m 1276.7,1242.8 c 0,20.281 -16.441,36.723 -36.723,36.723 -20.281,0 -36.723,-16.441 -36.723,-36.723 0,-20.281 16.441,-36.723 36.723,-36.723 20.281,0 36.723,16.441 36.723,36.723 z" transform="translate(-135.993 101.907) scale(.31863)"/><path d="m 1191,1405.5 5.1968,-68.639 c 1.7291,-18.088 0.8692,-29.384 17.136,-29.66 l 52.098,-0.6766 c 16.242,-0.059 17.681,18.308 18.94,30.523 l 9.5596,88.824 -2.6805,30.558 h -116.87 z" color="#000" fill="#036" transform="translate(-135.993 101.907) scale(.31863)"/></g><g><path d="m 1177.1,1385.6 -2.8497,-75.522 c -0.9212,-12.525 13.107,-28.228 33.247,-28.513 l 78.842,-0.7706 c 17.899,-0.1387 25.123,12.6 26.061,25.137 l -0.2525,67.056 c 0.6224,9.5336 -1.1427,17.362 -4.7049,26.213 l -10.655,26.472 26.597,-23.89 c 4.1128,-2.2815 7.8232,12.208 -3.7996,28.513 l -27.547,27.743 h -120.64 c 1.7608,-8.5858 -0.019,-13.401 5.6994,-26.202 l 11.399,-26.972 c -5.9171,-5.8493 -9.7704,-12.257 -11.399,-19.266 z" color="#000" transform="translate(-211.683 101.377) scale(.31863)"/><path d="m 1276.7,1242.8 c 0,20.281 -16.441,36.723 -36.723,36.723 -20.281,0 -36.723,-16.441 -36.723,-36.723 0,-20.281 16.441,-36.723 36.723,-36.723 20.281,0 36.723,16.441 36.723,36.723 z" transform="translate(-211.683 101.377) scale(.31863)"/><path d="m 1191,1405.5 5.1968,-68.639 c 1.7291,-18.088 0.8692,-29.384 17.136,-29.66 l 52.098,-0.6766 c 16.242,-0.059 17.681,18.308 18.94,30.523 l 9.5596,88.824 -2.6805,30.558 h -116.87 z" color="#000" fill="#036" transform="translate(-211.683 101.377) scale(.31863)"/></g><g><path d="m 1177.1,1385.6 -2.8497,-75.522 c -0.9212,-12.525 13.107,-28.228 33.247,-28.513 l 78.842,-0.7706 c 17.899,-0.1387 25.123,12.6 26.061,25.137 l -0.2525,67.056 c 0.6224,9.5336 -1.1427,17.362 -4.7049,26.213 l -10.655,26.472 26.597,-23.89 c 4.1128,-2.2815 7.8232,12.208 -3.7996,28.513 l -27.547,27.743 h -120.64 c 1.7608,-8.5858 -0.019,-13.401 5.6994,-26.202 l 11.399,-26.972 c -5.9171,-5.8493 -9.7704,-12.257 -11.399,-19.266 z" color="#000" transform="translate(-277.463 101.377) scale(.31863)"/><path d="m 1276.7,1242.8 c 0,20.281 -16.441,36.723 -36.723,36.723 -20.281,0 -36.723,-16.441 -36.723,-36.723 0,-20.281 16.441,-36.723 36.723,-36.723 20.281,0 36.723,16.441 36.723,36.723 z" transform="translate(-277.463 101.377) scale(.31863)"/><path d="m 1191,1405.5 5.1968,-68.639 c 1.7291,-18.088 0.8692,-29.384 17.136,-29.66 l 52.098,-0.6766 c 16.242,-0.059 17.681,18.308 18.94,30.523 l 9.5596,88.824 -2.6805,30.558 h -116.87 z" color="#000" fill="#036" transform="translate(-277.463 101.377) scale(.31863)"/></g><g><path d="m 1177.1,1385.6 -2.8497,-75.522 c -0.9212,-12.525 13.107,-28.228 33.247,-28.513 l 78.842,-0.7706 c 17.899,-0.1387 25.123,12.6 26.061,25.137 l -0.2525,67.056 c 0.6224,9.5336 -1.1427,17.362 -4.7049,26.213 l -10.655,26.472 26.597,-23.89 c 4.1128,-2.2815 7.8232,12.208 -3.7996,28.513 l -27.547,27.743 h -120.64 c 1.7608,-8.5858 -0.019,-13.401 5.6994,-26.202 l 11.399,-26.972 c -5.9171,-5.8493 -9.7704,-12.257 -11.399,-19.266 z" color="#000" transform="translate(-342.633 101.377) scale(.31863)"/><path d="m 1276.7,1242.8 c 0,20.281 -16.441,36.723 -36.723,36.723 -20.281,0 -36.723,-16.441 -36.723,-36.723 0,-20.281 16.441,-36.723 36.723,-36.723 20.281,0 36.723,16.441 36.723,36.723 z" transform="translate(-342.633 101.377) scale(.31863)"/><path d="m 1191,1405.5 5.1968,-68.639 c 1.7291,-18.088 0.8692,-29.384 17.136,-29.66 l 52.098,-0.6766 c 16.242,-0.059 17.681,18.308 18.94,30.523 l 9.5596,88.824 -2.6805,30.558 h -116.87 z" color="#000" fill="#036" transform="translate(-342.633 101.377) scale(.31863)"/></g><g><path d="m 1177.1,1385.6 -2.8497,-75.522 c -0.9212,-12.525 13.107,-28.228 33.247,-28.513 l 78.842,-0.7706 c 17.899,-0.1387 25.123,12.6 26.061,25.137 l -0.2525,67.056 c 0.6224,9.5336 -1.1427,17.362 -4.7049,26.213 l -10.655,26.472 26.597,-23.89 c 4.1128,-2.2815 7.8232,12.208 -3.7996,28.513 l -27.547,27.743 h -120.64 c 1.7608,-8.5858 -0.019,-13.401 5.6994,-26.202 l 11.399,-26.972 c -5.9171,-5.8493 -9.7704,-12.257 -11.399,-19.266 z" color="#000" transform="matrix(-.31863 0 0 .31863 929.227 100.857)"/><path d="m 1276.7,1242.8 c 0,20.281 -16.441,36.723 -36.723,36.723 -20.281,0 -36.723,-16.441 -36.723,-36.723 0,-20.281 16.441,-36.723 36.723,-36.723 20.281,0 36.723,16.441 36.723,36.723 z" transform="matrix(-.31863 0 0 .31863 929.227 100.857)"/><path d="m 1191,1405.5 5.1968,-68.639 c 1.7291,-18.088 0.8692,-29.384 17.136,-29.66 l 52.098,-0.6766 c 16.242,-0.059 17.681,18.308 18.94,30.523 l 9.5596,88.824 -2.6805,30.558 h -116.87 z" color="#000" fill="#036" transform="matrix(-.31863 0 0 .31863 929.227 100.857)"/></g><g><path d="m 1177.1,1385.6 -2.8497,-75.522 c -0.9212,-12.525 13.107,-28.228 33.247,-28.513 l 78.842,-0.7706 c 17.899,-0.1387 25.123,12.6 26.061,25.137 l -0.2525,67.056 c 0.6224,9.5336 -1.1427,17.362 -4.7049,26.213 l -10.655,26.472 26.597,-23.89 c 4.1128,-2.2815 7.8232,12.208 -3.7996,28.513 l -27.547,27.743 h -120.64 c 1.7608,-8.5858 -0.019,-13.401 5.6994,-26.202 l 11.399,-26.972 c -5.9171,-5.8493 -9.7704,-12.257 -11.399,-19.266 z" color="#000" transform="matrix(-.31863 0 0 .31863 870.267 162.827)"/><path d="m 1276.7,1242.8 c 0,20.281 -16.441,36.723 -36.723,36.723 -20.281,0 -36.723,-16.441 -36.723,-36.723 0,-20.281 16.441,-36.723 36.723,-36.723 20.281,0 36.723,16.441 36.723,36.723 z" transform="matrix(-.31863 0 0 .31863 870.267 162.827)"/><path d="m 1191,1405.5 5.1968,-68.639 c 1.7291,-18.088 0.8692,-29.384 17.136,-29.66 l 52.098,-0.6766 c 16.242,-0.059 17.681,18.308 18.94,30.523 l 9.5596,88.824 -2.6805,30.558 h -116.87 z" color="#000" fill="#036" transform="matrix(-.31863 0 0 .31863 870.267 162.827)"/></g><g><path d="m 1177.1,1385.6 -2.8497,-75.522 c -0.9212,-12.525 13.107,-28.228 33.247,-28.513 l 78.842,-0.7706 c 17.899,-0.1387 25.123,12.6 26.061,25.137 l -0.2525,67.056 c 0.6224,9.5336 -1.1427,17.362 -4.7049,26.213 l -10.655,26.472 26.597,-23.89 c 4.1128,-2.2815 7.8232,12.208 -3.7996,28.513 l -27.547,27.743 h -120.64 c 1.7608,-8.5858 -0.019,-13.401 5.6994,-26.202 l 11.399,-26.972 c -5.9171,-5.8493 -9.7704,-12.257 -11.399,-19.266 z" color="#000" transform="matrix(-.31863 0 0 .31863 945.367 163.347)"/><path d="m 1276.7,1242.8 c 0,20.281 -16.441,36.723 -36.723,36.723 -20.281,0 -36.723,-16.441 -36.723,-36.723 0,-20.281 16.441,-36.723 36.723,-36.723 20.281,0 36.723,16.441 36.723,36.723 z" transform="matrix(-.31863 0 0 .31863 945.367 163.347)"/><path d="m 1191,1405.5 5.1968,-68.639 c 1.7291,-18.088 0.8692,-29.384 17.136,-29.66 l 52.098,-0.6766 c 16.242,-0.059 17.681,18.308 18.94,30.523 l 9.5596,88.824 -2.6805,30.558 h -116.87 z" color="#000" fill="#036" transform="matrix(-.31863 0 0 .31863 945.367 163.347)"/></g><g><path d="m 1177.1,1385.6 -2.8497,-75.522 c -0.9212,-12.525 13.107,-28.228 33.247,-28.513 l 78.842,-0.7706 c 17.899,-0.1387 25.123,12.6 26.061,25.137 l -0.2525,67.056 c 0.6224,9.5336 -1.1427,17.362 -4.7049,26.213 l -10.655,26.472 26.597,-23.89 c 4.1128,-2.2815 7.8232,12.208 -3.7996,28.513 l -27.547,27.743 h -120.64 c 1.7608,-8.5858 -0.019,-13.401 5.6994,-26.202 l 11.399,-26.972 c -5.9171,-5.8493 -9.7704,-12.257 -11.399,-19.266 z" color="#000" transform="matrix(-.31863 0 0 .31863 793.697 163.347)"/><path d="m 1276.7,1242.8 c 0,20.281 -16.441,36.723 -36.723,36.723 -20.281,0 -36.723,-16.441 -36.723,-36.723 0,-20.281 16.441,-36.723 36.723,-36.723 20.281,0 36.723,16.441 36.723,36.723 z" transform="matrix(-.31863 0 0 .31863 793.697 163.347)"/><path d="m 1191,1405.5 5.1968,-68.639 c 1.7291,-18.088 0.8692,-29.384 17.136,-29.66 l 52.098,-0.6766 c 16.242,-0.059 17.681,18.308 18.94,30.523 l 9.5596,88.824 -2.6805,30.558 h -116.87 z" color="#000" fill="#036" transform="matrix(-.31863 0 0 .31863 793.697 163.347)"/></g><g><path d="m 1177.1,1385.6 -2.8497,-75.522 c -0.9212,-12.525 13.107,-28.228 33.247,-28.513 l 78.842,-0.7706 c 17.899,-0.1387 25.123,12.6 26.061,25.137 l -0.2525,67.056 c 0.6224,9.5336 -1.1427,17.362 -4.7049,26.213 l -10.655,26.472 26.597,-23.89 c 4.1128,-2.2815 7.8232,12.208 -3.7996,28.513 l -27.547,27.743 h -120.64 c 1.7608,-8.5858 -0.019,-13.401 5.6994,-26.202 l 11.399,-26.972 c -5.9171,-5.8493 -9.7704,-12.257 -11.399,-19.266 z" color="#000" transform="translate(-151.443 162.827) scale(.31863)"/><path d="m 1276.7,1242.8 c 0,20.281 -16.441,36.723 -36.723,36.723 -20.281,0 -36.723,-16.441 -36.723,-36.723 0,-20.281 16.441,-36.723 36.723,-36.723 20.281,0 36.723,16.441 36.723,36.723 z" transform="translate(-151.443 162.827) scale(.31863)"/><path d="m 1191,1405.5 5.1968,-68.639 c 1.7291,-18.088 0.8692,-29.384 17.136,-29.66 l 52.098,-0.6766 c 16.242,-0.059 17.681,18.308 18.94,30.523 l 9.5596,88.824 -2.6805,30.558 h -116.87 z" color="#000" fill="#036" transform="translate(-151.443 162.827) scale(.31863)"/></g><g><path d="m 1177.1,1385.6 -2.8497,-75.522 c -0.9212,-12.525 13.107,-28.228 33.247,-28.513 l 78.842,-0.7706 c 17.899,-0.1387 25.123,12.6 26.061,25.137 l -0.2525,67.056 c 0.6224,9.5336 -1.1427,17.362 -4.7049,26.213 l -10.655,26.472 26.597,-23.89 c 4.1128,-2.2815 7.8232,12.208 -3.7996,28.513 l -27.547,27.743 h -120.64 c 1.7608,-8.5858 -0.019,-13.401 5.6994,-26.202 l 11.399,-26.972 c -5.9171,-5.8493 -9.7704,-12.257 -11.399,-19.266 z" color="#000" transform="translate(-224.033 163.347) scale(.31863)"/><path d="m 1276.7,1242.8 c 0,20.281 -16.441,36.723 -36.723,36.723 -20.281,0 -36.723,-16.441 -36.723,-36.723 0,-20.281 16.441,-36.723 36.723,-36.723 20.281,0 36.723,16.441 36.723,36.723 z" transform="translate(-224.033 163.347) scale(.31863)"/><path d="m 1191,1405.5 5.1968,-68.639 c 1.7291,-18.088 0.8692,-29.384 17.136,-29.66 l 52.098,-0.6766 c 16.242,-0.059 17.681,18.308 18.94,30.523 l 9.5596,88.824 -2.6805,30.558 h -116.87 z" color="#000" fill="#036" transform="translate(-224.033 163.347) scale(.31863)"/></g><g><path d="m 1177.1,1385.6 -2.8497,-75.522 c -0.9212,-12.525 13.107,-28.228 33.247,-28.513 l 78.842,-0.7706 c 17.899,-0.1387 25.123,12.6 26.061,25.137 l -0.2525,67.056 c 0.6224,9.5336 -1.1427,17.362 -4.7049,26.213 l -10.655,26.472 26.597,-23.89 c 4.1128,-2.2815 7.8232,12.208 -3.7996,28.513 l -27.547,27.743 h -120.64 c 1.7608,-8.5858 -0.019,-13.401 5.6994,-26.202 l 11.399,-26.972 c -5.9171,-5.8493 -9.7704,-12.257 -11.399,-19.266 z" color="#000" transform="translate(-298.493 162.827) scale(.31863)"/><path d="m 1276.7,1242.8 c 0,20.281 -16.441,36.723 -36.723,36.723 -20.281,0 -36.723,-16.441 -36.723,-36.723 0,-20.281 16.441,-36.723 36.723,-36.723 20.281,0 36.723,16.441 36.723,36.723 z" transform="translate(-298.493 162.827) scale(.31863)"/><path d="m 1191,1405.5 5.1968,-68.639 c 1.7291,-18.088 0.8692,-29.384 17.136,-29.66 l 52.098,-0.6766 c 16.242,-0.059 17.681,18.308 18.94,30.523 l 9.5596,88.824 -2.6805,30.558 h -116.87 z" color="#000" fill="#036" transform="translate(-298.493 162.827) scale(.31863)"/></g><g><path d="m 1177.1,1385.6 -2.8497,-75.522 c -0.9212,-12.525 13.107,-28.228 33.247,-28.513 l 78.842,-0.7706 c 17.899,-0.1387 25.123,12.6 26.061,25.137 l -0.2525,67.056 c 0.6224,9.5336 -1.1427,17.362 -4.7049,26.213 l -10.655,26.472 26.597,-23.89 c 4.1128,-2.2815 7.8232,12.208 -3.7996,28.513 l -27.547,27.743 h -120.64 c 1.7608,-8.5858 -0.019,-13.401 5.6994,-26.202 l 11.399,-26.972 c -5.9171,-5.8493 -9.7704,-12.257 -11.399,-19.266 z" color="#000" transform="translate(-373.243 162.827) scale(.31863)"/><path d="m 1276.7,1242.8 c 0,20.281 -16.441,36.723 -36.723,36.723 -20.281,0 -36.723,-16.441 -36.723,-36.723 0,-20.281 16.441,-36.723 36.723,-36.723 20.281,0 36.723,16.441 36.723,36.723 z" transform="translate(-373.243 162.827) scale(.31863)"/><path d="m 1191,1405.5 5.1968,-68.639 c 1.7291,-18.088 0.8692,-29.384 17.136,-29.66 l 52.098,-0.6766 c 16.242,-0.059 17.681,18.308 18.94,30.523 l 9.5596,88.824 -2.6805,30.558 h -116.87 z" color="#000" fill="#036" transform="translate(-373.243 162.827) scale(.31863)"/></g><g><path d="m 1177.1,1385.6 -2.8497,-75.522 c -0.9212,-12.525 13.107,-28.228 33.247,-28.513 l 78.842,-0.7706 c 17.899,-0.1387 25.123,12.6 26.061,25.137 l -0.2525,67.056 c 0.6224,9.5336 -1.1427,17.362 -4.7049,26.213 l -10.655,26.472 26.597,-23.89 c 4.1128,-2.2815 7.8232,12.208 -3.7996,28.513 l -27.547,27.743 h -120.64 c 1.7608,-8.5858 -0.019,-13.401 5.6994,-26.202 l 11.399,-26.972 c -5.9171,-5.8493 -9.7704,-12.257 -11.399,-19.266 z" color="#000" transform="matrix(-.31863 0 0 .31863 997.507 101.377)"/><path d="m 1276.7,1242.8 c 0,20.281 -16.441,36.723 -36.723,36.723 -20.281,0 -36.723,-16.441 -36.723,-36.723 0,-20.281 16.441,-36.723 36.723,-36.723 20.281,0 36.723,16.441 36.723,36.723 z" transform="matrix(-.31863 0 0 .31863 997.507 101.377)"/><path d="m 1191,1405.5 5.1968,-68.639 c 1.7291,-18.088 0.8692,-29.384 17.136,-29.66 l 52.098,-0.6766 c 16.242,-0.059 17.681,18.308 18.94,30.523 l 9.5596,88.824 -2.6805,30.558 h -116.87 z" color="#000" fill="#036" transform="matrix(-.31863 0 0 .31863 997.507 101.377)"/></g><g><path d="m 1177.1,1385.6 -2.8497,-75.522 c -0.9212,-12.525 13.107,-28.228 33.247,-28.513 l 78.842,-0.7706 c 17.899,-0.1387 25.123,12.6 26.061,25.137 l -0.2525,67.056 c 0.6224,9.5336 -1.1427,17.362 -4.7049,26.213 l -10.655,26.472 26.597,-23.89 c 4.1128,-2.2815 7.8232,12.208 -3.7996,28.513 l -27.547,27.743 h -120.64 c 1.7608,-8.5858 -0.019,-13.401 5.6994,-26.202 l 11.399,-26.972 c -5.9171,-5.8493 -9.7704,-12.257 -11.399,-19.266 z" color="#000" transform="matrix(-.31863 0 0 .31863 1021.647 162.827)"/><path d="m 1276.7,1242.8 c 0,20.281 -16.441,36.723 -36.723,36.723 -20.281,0 -36.723,-16.441 -36.723,-36.723 0,-20.281 16.441,-36.723 36.723,-36.723 20.281,0 36.723,16.441 36.723,36.723 z" transform="matrix(-.31863 0 0 .31863 1021.647 162.827)"/><path d="m 1191,1405.5 5.1968,-68.639 c 1.7291,-18.088 0.8692,-29.384 17.136,-29.66 l 52.098,-0.6766 c 16.242,-0.059 17.681,18.308 18.94,30.523 l 9.5596,88.824 -2.6805,30.558 h -116.87 z" color="#000" fill="#036" transform="matrix(-.31863 0 0 .31863 1021.647 162.827)"/></g><g><g><path d="m 694.8,214.81 c 27.57,-17.09 64.87,-15.3 91.45,2.93 15.71,10.59 27.43,27.19 31.39,45.8 3.01,12.71 2.47,26.01 -0.11,38.74 -1.02,3.37 1.37,6.56 4.52,7.57 3.67,1.65 9.31,2.32 10.02,7.18 -0.06,9.38 -0.29,18.96 -3.01,28.03 -1.85,6.28 -5.46,12.31 -11.14,15.82 -4.6,3 -10.15,3.68 -15.48,4.34 -3.43,13.55 -6.68,27.19 -8.16,41.11 -1.8701,16.55 -1.88,34.13 5.39,49.49 -9.97,18.74 -22.33,36.44 -38.1,50.77 -5.98,5.7 -12.86,10.31 -19.4,15.32 2.11,1.1801 3.65,3.01 4.83,5.1 4.66,7.59 11.99,13.51 15.29,21.92 -1.33,4.91 -5.52,8.15 -9.08,11.45 -1.72,3.52 0.15,7.58 1.28,11.04 2.23,6.99 9.04,11.6 10.13,19.08 2.02,7.87 -1.14,15.69 -1.34,23.56 3.93,-12.83 2.87,-26.89 8.7,-39.18 1.71,-3.59 2.19,-7.6 3.76,-11.24 5.26,-12.69 10.82,-25.26 15.77,-38.07 6.8,-17.51 11.89,-35.77 13.85,-54.49 -0.05,-2.18 1.79,-5.49 4.28,-3.8 6.53,4.09 9.48,11.89 15.58,16.49 9.15,5.89 20.89,5.21 30.0601,11.06 3.54,1.8 7.46,2.61 11.24,3.79 19.5,5.74 39.42,10.45 58.01,18.86 12.83,5.81 25.1899,14.14 32.59,26.43 5.5,8.7 6.99,19.04 8.84,28.97 3.4,18.29 6.17,36.69 8.38,55.16 5.93,48.08 7.29,96.6 6.8,145.01 -0.49,2.82 2.45,4.02 3.99,5.83 4.08,3.81 5.74,9.31 6.54,14.67 2.83,2.61 6.63,3.93 9.98,5.8 28.2899,13.4901 56.52,28.02 80.51,48.47 9.9299,8.7 19.5399,17.81 28.63,27.39 12.97,13.74 24.99,28.66 33.45,45.65 26.83,0.61 53.6801,0.02 80.52,0.29 -0.01,25.37 -0.07,50.74 0.03,76.12 -7.37,0.45 -14.76,-0.03 -22.13,0.26 -31.5901,99.74 -63.3301,199.4299 -94.91,299.1699 -26.14,0.2201 -52.3,-0.2999 -78.42,0.26 0.08,207.6801 0.04,415.36 0.02,623.04 H 374.66 c -0.15,-96.67 -0.02,-193.34 -0.07,-290.01 0.04,-111 -0.06,-222.01 0.05,-333.01 -27.45,-0.6 -54.94,-0.04 -82.4,-0.28 -27.29,-99.73 -54.87,-199.3899 -82.03,-299.16 -7.37,-0.28 -14.75,0.11 -22.12,-0.21 0.05,-25.41 -0.01,-50.81 0.03,-76.22 67.96,-0.01 135.92,0 203.88,0 14.58,-0.16 29.18,0.32 43.75,-0.25 4.44,-16.52 11.17,-32.64 12.38,-49.86 0.93,-14.65 -9.86,-27.23 -8.67,-41.9 1.25,-13.55 12.15,-23.59 14.66,-36.73 4.34,-32.14 -6.17,-64.18 -2.42,-96.34 1.02,-9.65 4.42,-18.79 7.59,-27.89 7.48,-20.23 17.2,-39.63 23.28,-60.38 8.22,-29.23 12.29,-59.45 20.66,-88.64 0.35,-2.44 2.92,-3.13 4.76,-4.15 19.12,-9.44 40.35,-12.92 60.77,-18.38 20.64,-5.52 41.97,-8.47 62.15,-15.64 7,-2.28 13.4301,-6.19 18.57,-11.47 7.95,-7.7 15.35,-17.51 26.9,-19.66 -0.95,11.67 -1.61,23.41 -0.6,35.11 1.91,25.79 7.98,51.03 14.15,76.08 1.34,4.17 -1.02,8.44 0.19,12.68 3.96,25.67 4.66,52.14 13.37,76.84 -1.03,-17.15 0.21,-34.35 -0.22,-51.52 0.06,-5.34 -1.1,-11.13 1.74,-16 3.71,-6.73 8.7,-12.64 12.9,-19.06 0.71,-1.1 1.2401,-2.38 1.02,-3.71 -3.78,-4.1 -9.63,-5.66 -13.28,-9.92 -1.08,-1.22 0.34,-2.65 0.96,-3.69 6.03,-7.96 12.01,-15.97 18.1,-23.88 1.13,-1.79 3.34,-1.91 5.2,-2.39 -5.92,-12.17 -16.61,-20.89 -26.12,-30.15 -11.44,-10.86 -22.94,-23.77 -24.69,-40.14 -1.17,-16.29 5.06,-32.19 3.4901,-48.51 -1.19,-12.93 -9.82,-23.57 -11.9,-36.28 -3.54,-0.46 -7.24,-0.78 -10.39,-2.61 -5.9,-3.36 -9.94,-9.24 -12.42,-15.43 -3.68,-9.41 -4.37,-19.74 -3.4,-29.72 0.37,-2.74 1.35,-6.35 4.52,-6.92 4.32,-0.18 8.5,1.51 12.86,1.33 -3.69,-20.1 -4.01,-41.45 3.15,-60.85 C 670.27,235.95 681.07,223 694.8,214.81 m 205.77,550.75 c -7.02,1.42 -11.64,7.72 -13.92,14.11 -3.63,8.93 -2,19.18 2.16,27.64 1.98,4.09 6.27,6.41 10.55,7.37 12.96,3.14 26.38,3.09 39.64,3.32 6.68,0.11 13.44,0.13 20.02,-1.3 -3.26,-2.64 -7.13,-4.65 -9.47,-8.26 -6.46,-8.55 -5.79,-21.52 1.6,-29.31 5.17,-5.87 13.21,-8.2 20.84,-7.45 -1.34,-0.61 -2.71,-1.12 -4.15,-1.29 -12.55,-1.91 -25.2,-3.37 -37.9,-3.69 -9.79,-0.32 -19.61,-3 -29.37,-1.14 m 79.75,49.71 c -0.73,9.21 -0.58,18.47 -0.95,27.71 -1.07,25.94 -1.6,51.9 -2.07,77.87 18.88,0.6 37.8,0.09 56.69,0.26 31.36,-0.08 62.73,0.15 94.09,-0.11 -4.6699,-11.51 -14.6699,-19.37 -22.63,-28.48 -19.47,-22.28 -41.4099,-42.63 -66.3899,-58.62 -8.8701,-5.65 -18.2501,-10.41 -27.42,-15.52 -7.7,-4 -15.34,-8.24 -23.58,-11.05 -2.0401,3.15 -5.2701,5.23 -7.7401,7.94 m -107.73,60.87 c -0.4901,14.88 -0.31,29.78 0.8799,44.62 2.79,0.42 5.63,0.44 8.45,0.14 -2.01,-14.1 -4.96,-28.05 -8.05,-41.94 -0.3799,-0.99 -0.1299,-2.39 -1.2799,-2.82 m -333.7,44.81 c 0.69,-0.04 2.06,-0.11 2.74,-0.14 0.78,-3.96 2.1,-7.84 2.2,-11.89 -1.92,3.88 -3.88,7.8 -4.94,12.03 z" stroke="#000" stroke-width=".094" transform="matrix(.08194 0 0 .08194 269.594 216.02)"/></g><g><path d="m 900.57,765.56 c 9.76,-1.86 19.58,0.82 29.37,1.14 12.7,0.32 25.35,1.78 37.9,3.69 1.44,0.17 2.81,0.68 4.15,1.29 -7.63,-0.75 -15.67,1.58 -20.84,7.45 -7.39,7.79 -8.06,20.76 -1.6,29.31 2.34,3.61 6.21,5.62 9.47,8.26 -6.58,1.43 -13.34,1.41 -20.02,1.3 -13.26,-0.23 -26.68,-0.18 -39.64,-3.32 -4.28,-0.96 -8.57,-3.28 -10.55,-7.37 -4.16,-8.46 -5.79,-18.71 -2.16,-27.64 2.28,-6.39 6.9,-12.69 13.92,-14.11 z" fill="#4d4d4d" stroke="#4d4d4d" stroke-width=".094" transform="matrix(.08194 0 0 .08194 269.594 216.02)"/></g></g></svg>