<svg xmlns="http://www.w3.org/2000/svg" viewBox="0 0 103.291 44.942"><defs><filter id="a" x="-.078" width="1.156" y="-.125" height="1.25" color-interpolation-filters="sRGB"><feGaussianBlur stdDeviation=".197"/></filter></defs><g><g><g fill="none"><path d="m 110.74702,162.25149 c 0,0 -3.70121,-3.73503 -5.48065,-5.66965 -0.90668,-0.98575 -1.73084,-2.04578 -2.64584,-3.02381 -0.42605,-0.4554 -0.84063,-0.92754 -1.32291,-1.32291 -1.580881,-1.29601 -3.476605,-2.16295 -5.10268,-3.40179 -0.994659,-0.75779 -1.780848,-1.78399 -2.834823,-2.45684 -4.01658,-2.56415 -13.040177,-5.85864 -13.040177,-5.85864 l -7.9375,-3.21279 -3.96875,-1.13393 c 0,0 2.454336,1.74881 3.779761,2.45685 0.846335,0.45211 2.464379,0.19171 2.645833,1.13392 0.06739,0.34993 -0.42475,0.62443 -0.755952,0.75595 -1.991522,0.79082 -4.340053,0.30303 -6.425594,-0.18898 -2.77064,-0.65363 -5.514085,-1.82697 -7.748513,-3.59078 -1.196979,-0.94487 -2.83482,-3.59077 -2.83482,-3.59077 l 0.944938,2.64583 -1.322916,0.56697 c 0,0 -4.00856,-0.7902 -5.669643,-1.88988 -1.190894,-0.7884 -1.597238,-2.49992 -2.83482,-3.2128 -1.670053,-0.962 -3.781288,-0.7484 -5.669642,-1.13393 -1.513153,-0.30893 -2.992775,-0.87858 -4.535715,-0.94494 -1.584734,-0.0682 -4.724702,0.56696 -4.724702,0.56696 l -0.566965,-0.37797 v -1.13393 l 0.377976,0.18899 -0.566965,-1.13393 0.755954,-0.94494 2.83482,-1.32292 c 0,0 0.16783,-2.85277 0.944941,-3.96875 0.519184,-0.74558 1.500131,-1.02606 2.267858,-1.5119 1.241581,-0.78571 2.452587,-1.6374 3.77976,-2.26786 2.177945,-1.03461 4.483615,-1.79984 6.803573,-2.45684 1.485932,-0.42081 3.009895,-0.70632 4.535715,-0.94495 1.189082,-0.18596 2.387624,-0.34736 3.590771,-0.37797 2.333501,-0.0594 4.662708,0.23467 6.992562,0.37797 1.82777,0.11242 3.661053,0.17198 5.480653,0.37798 1.204062,0.13631 2.396689,0.3608 3.590774,0.56697 1.010549,0.17448 1.999294,0.61189 3.02381,0.56696 1.633901,-0.0717 4.724701,-1.32292 4.724701,-1.32292 0,0 2.362732,-1.32297 3.590774,-1.88988 1.232032,-0.56875 2.447272,-1.25529 3.779764,-1.5119 0.92789,-0.17869 1.89048,-0.0337 2.834819,0 0.88363,0.0315 1.841528,-0.17828 2.645834,0.18899 0.324163,0.14802 0.619581,0.42672 0.755954,0.75595 0.07232,0.1746 0.08918,0.40034 0,0.56696 -0.214352,0.40052 -0.755954,0.50397 -1.13393,0.75595 l -2.267858,1.51191 -1.133927,1.88988 -0.188989,2.07887 c 0,0 1.141171,2.10065 1.889881,3.02381 1.487396,1.83396 3.431881,3.2451 5.102678,4.91369 1.796851,1.79447 3.683447,3.51534 5.291667,5.48065 1.40542,1.71747 2.55148,3.63235 3.77976,5.48066 1.0349,1.55731 2.1211,3.08721 3.02381,4.7247 1.07484,1.94971 2.13302,3.93477 2.83482,6.04762 0.68933,2.0753 0.92959,4.27447 1.32292,6.4256 0.28687,1.56892 0.48729,3.15256 0.75595,4.7247 0.11864,0.69425 0.37798,2.07887 0.37798,2.07887 l 6.04762,4.91369 2.64583,2.45684 1.70089,2.07887 v 0.75595 l -1.88988,-0.94494 -2.07887,-0.94494 -2.83482,0.18899 h -1.70089 l -1.13393,-1.51191 -0.37798,0.75596 -3.96875,-0.56697 -2.26785,-0.56696 -1.51191,-0.37798 c 0,0 -0.11689,-0.77447 0,-1.13392 0.52994,-1.62968 3.02381,-4.15774 3.02381,-4.15774 z" stroke="#000" stroke-width=".265" transform="rotate(-26.903 -160.024 152.755)"/><path d="M 154.28516,478.23438 125,482.51953 l -1.04297,0.76953 1.04297,2.08789 -1.42773,-0.71484 v 4.28711 l 2.14257,1.42773 c 0,0 11.86788,-2.40034 17.85743,-2.14257 5.83158,0.2508 11.42357,2.4027 17.14257,3.57031 7.13709,1.45712 15.11573,0.6512 21.42774,4.28711 4.67747,2.69435 6.21383,9.1628 10.71484,12.14258 6.27811,4.15627 13.9053,7.45528 21.42774,7.14257 1.81168,-0.0753 4.27479,-0.48067 5,-2.14257 1.36256,-3.12246 -3.4375,-9.625 -3.4375,-9.625 L 190,496.80469 c 0,0 -8.29914,-21.18663 -17.85742,-24.28544 -5.94525,-1.92746 -17.85742,5.71513 -17.85742,5.71513 z m 61.76757,25.42773 1.81055,2.29297 -0.7207,-2.00586 z" transform="matrix(.23595 -.11972 .11972 .23595 -86.436 -55.875)" stroke="#000"/><path d="m 32.883927,128.23363 2.078871,-0.37798 4.346726,-1.13392 3.023809,-0.94495" stroke="#b3b3b3" stroke-width=".265" transform="rotate(-26.903 -160.024 152.755)"/><path d="m 43.311082,121.07714 c -0.708892,-1.12403 -2.706345,-0.0371 -3.96875,0.37798 -0.697892,0.22948 -1.483509,0.5219 -1.889881,1.13393 -0.246398,0.37109 -0.228991,0.87926 -0.188988,1.32291 0.01789,0.19841 0.188988,0.56697 0.188988,0.56697 v 0 c 0,0 1.122615,0.43197 1.700893,0.37797 0.477684,-0.0446 0.909695,-0.3232 1.322916,-0.56696 0.618645,-0.36494 1.224539,-0.78534 1.700893,-1.32292 0.487222,-0.54985 1.525824,-1.26848 1.133929,-1.88988 z" transform="scale(.6756) rotate(-26.903 -124.278 151.23)" stroke="#000" stroke-width=".561" filter="url(#a)"/></g></g></g></svg>